<?xml version="1.0" encoding="utf-8"?>
<svg viewBox="800 360 90 41.906" xmlns="http://www.w3.org/2000/svg">
  <ellipse style="stroke: rgb(0, 0, 0); stroke-width: 0px; fill: rgb(0, 204, 0);" cx="756.347" cy="389.821" rx="36.347" ry="4.821" transform="matrix(1, 0, 0, 1, 0, 8.881784197001252e-16)"/>
  <ellipse style="stroke: rgb(0, 0, 0); stroke-width: 0px; fill: rgb(0, 204, 0);" cx="814.057" cy="386.2" rx="31.618" ry="14.66" transform="matrix(1, 0, 0, 1, 0, 8.881784197001252e-16)"/>
  <rect y="360" width="360" height="30" style="stroke: rgb(0, 0, 0); stroke-width: 0px; fill: rgb(0, 204, 0);" x="720" transform="matrix(1, 0, 0, 1, 0, 8.881784197001252e-16)"/>
  <ellipse style="stroke: rgb(0, 0, 0); stroke-width: 0px; fill: rgb(0, 204, 0);" cx="882.702" cy="387.246" rx="52.715" ry="14.66" transform="matrix(1, 0, 0, 1, 0, 8.881784197001252e-16)"/>
  <ellipse style="stroke: rgb(0, 0, 0); stroke-width: 0px; fill: rgb(0, 204, 0);" cx="961.593" cy="386.195" rx="47.218" ry="14.66" transform="matrix(1, 0, 0, 1, 0, 8.881784197001252e-16)"/>
  <ellipse style="stroke: rgb(0, 0, 0); stroke-width: 0px; fill: rgb(0, 204, 0);" cx="1025.035" cy="383.967" rx="31.618" ry="9.163" transform="matrix(1, 0, 0, 1, 0, 8.881784197001252e-16)"/>
</svg>