<?xml version="1.0" encoding="utf-8"?>
<svg viewBox="922.086 585.1637 112.9934 102.5249" xmlns="http://www.w3.org/2000/svg">
  <ellipse style="stroke: rgb(0, 0, 0); stroke-width: 0px; fill: rgb(0, 153, 0);" cx="944.962" cy="605.022" rx="13.592" ry="10.054" transform="matrix(1, 0, 0, 1, -1.1368683772161603e-13, 0)"/>
  <ellipse style="stroke: rgb(0, 0, 0); stroke-width: 0px; fill: rgb(0, 153, 0);" cx="935.613" cy="608.322" rx="13.527" ry="5.033" transform="matrix(1, 0, 0, 1, -1.1368683772161603e-13, 0)"/>
  <ellipse style="stroke: rgb(0, 0, 0); stroke-width: 0px; fill: rgb(0, 153, 0);" cx="933.192" cy="611.713" rx="4.978" ry="2.646" transform="matrix(1, 0, 0, 1, -1.1368683772161603e-13, 0)"/>
  <ellipse style="stroke: rgb(0, 0, 0); stroke-width: 0px; fill: rgb(0, 153, 0); transform-origin: 1332.23px 146.299px;" cx="1332.227" cy="146.299" rx="5.981" ry="0.637" transform="matrix(0.9396930933, -0.342020004988, 0.342020004987, 0.939693093299, -400.230168572602, 457.013536769998)"/>
  <ellipse style="stroke: rgb(0, 0, 0); stroke-width: 0px; fill: rgb(0, 153, 0); transform-origin: 1388.08px 186.229px;" cx="1388.084" cy="186.229" rx="12.192" ry="30.035" transform="matrix(0.9396930933, -0.342020004988, 0.342020004988, 0.9396930933, -431.202608744905, 438.161632195734)"/>
  <ellipse style="stroke: rgb(0, 0, 0); stroke-width: 0px; fill: rgb(0, 153, 0); transform-origin: 991.535px 637.443px;" cx="991.541" cy="637.443" rx="30.399" ry="14.158" transform="matrix(1, 0, 0, 1, -4e-12, 0)"/>
  <ellipse style="stroke: rgb(0, 0, 0); stroke-width: 0px; fill: rgb(0, 153, 0); transform-origin: 1408.24px 215.761px;" cx="1408.246" cy="215.761" rx="22.322" ry="4.506" transform="matrix(0.996195018291, 0.087155014277, -0.087155014276, 0.996195018292, -417.391195556616, 411.808257135678)"/>
  <ellipse style="stroke: rgb(0, 0, 0); stroke-width: 0px; fill: rgb(0, 153, 0); transform-origin: 1408.24px 215.762px;" cx="1408.246" cy="215.761" rx="14.951" ry="2.608" transform="matrix(0.984808027744, 0.173647031188, -0.173647031188, 0.984808027745, -426.838768847915, 409.506496171965)"/>
  <ellipse style="stroke: rgb(0, 0, 0); stroke-width: 0px; fill: rgb(0, 153, 0); transform-origin: 1408.24px 215.761px;" cx="1408.246" cy="215.761" rx="14.951" ry="2.608" transform="matrix(0.9396930933, 0.342019051313, -0.342019051314, 0.939693093299, -432.769541044223, 408.623903291145)"/>
  <ellipse style="stroke: rgb(0, 0, 0); stroke-width: 0px; fill: rgb(0, 153, 0); transform-origin: 1408.24px 215.762px;" cx="1408.246" cy="215.761" rx="14.951" ry="1.359" transform="matrix(0.819153010845, 0.573575019837, -0.573575019836, 0.819153010844, -446.171238776467, 399.932559362342)"/>
  <ellipse style="stroke: rgb(0, 0, 0); stroke-width: 0px; fill: rgb(0, 153, 0); transform-origin: 1408.24px 215.765px;" cx="1408.246" cy="215.761" rx="15.854" ry="1.359" transform="matrix(0.500002980232, 0.866024017335, -0.866024017334, 0.500002980233, -463.729732758155, 405.816074797624)"/>
  <ellipse style="stroke: rgb(0, 0, 0); stroke-width: 0px; fill: rgb(0, 153, 0); transform-origin: 1388.08px 186.229px;" cx="1388.084" cy="186.229" rx="12.24" ry="19.321" transform="matrix(0.9396930933, -0.342020004988, 0.342020004988, 0.9396930933, -430.642517754383, 446.495363956054)"/>
  <ellipse style="stroke: rgb(0, 0, 0); stroke-width: 0px; fill: rgb(0, 153, 0); transform-origin: 1388.08px 186.228px;" cx="1388.084" cy="186.229" rx="20.014" ry="8.728" transform="matrix(1, 0.000001, -0.000001, 1, -409.654275584352, 460.184439371108)"/>
  <ellipse style="stroke: rgb(0, 0, 0); stroke-width: 0px; fill: rgb(0, 153, 0); transform-origin: 1388.08px 186.227px;" cx="1388.084" cy="186.229" rx="4.753" ry="29.024" transform="matrix(0.9396930933, -0.342019051313, 0.342019051313, 0.9396930933, -428.664781453696, 461.432534802007)"/>
  <ellipse style="stroke: rgb(0, 0, 0); stroke-width: 0px; fill: rgb(0, 153, 0); transform-origin: 1388.08px 186.23px;" cx="1388.084" cy="186.229" rx="3.24" ry="8.996" transform="matrix(0.819152116776, 0.57357698679, -0.57357698679, 0.819152116775, -423.552004873231, 491.357308780574)"/>
  <ellipse style="stroke: rgb(0, 0, 0); stroke-width: 0px; fill: rgb(0, 153, 0); transform-origin: 1388.08px 186.229px;" cx="1388.084" cy="186.229" rx="6.454" ry="2.569" transform="matrix(1, 0, -9.99999e-7, 0.999999999999, -428.646615956866, 496.610999831951)"/>
  <ellipse style="stroke: rgb(0, 0, 0); stroke-width: 0px; fill: rgb(0, 153, 0); transform-origin: 1388.08px 186.227px;" cx="1388.084" cy="186.229" rx="1.106" ry="6.64" transform="matrix(0.920504093169, 0.390732049942, -0.390732049939, 0.920504093172, -420.603377699255, 491.832601920073)"/>
  <ellipse style="stroke: rgb(0, 0, 0); stroke-width: 0px; fill: rgb(0, 153, 0); transform-origin: 1388.08px 186.226px;" cx="1388.084" cy="186.229" rx="1.369" ry="10.857" transform="matrix(0.9396930933, -0.342019051313, 0.342019051312, 0.939693093299, -425.659449579251, 479.245034766191)"/>
  <ellipse style="stroke: rgb(0, 0, 0); stroke-width: 0px; fill: rgb(0, 153, 0); transform-origin: 1388.08px 186.226px;" cx="1388.084" cy="186.229" rx="1.106" ry="10.579" transform="matrix(1, 0.000001, -0.000001, 1, -423.861978430873, 485.703787895795)"/>
  <ellipse style="stroke: rgb(0, 0, 0); stroke-width: 0px; fill: rgb(0, 153, 0); transform-origin: 1388.08px 186.223px;" cx="1388.084" cy="186.229" rx="4.098" ry="19.605" transform="matrix(0.965926110745, -0.258818000555, 0.258818000555, 0.965926110745, -444.207493594389, 420.616210446955)"/>
  <ellipse style="stroke: rgb(0, 0, 0); stroke-width: 0px; fill: rgb(0, 153, 0); transform-origin: 1388.08px 186.223px;" cx="1388.084" cy="186.229" rx="4.3" ry="19.605" transform="matrix(0.965926110744, -0.258818000555, 0.258818000555, 0.965926110744, -438.095105161317, 418.985840368792)"/>
  <ellipse style="stroke: rgb(0, 0, 0); stroke-width: 0px; fill: rgb(0, 153, 0); transform-origin: 1388.08px 186.227px;" cx="1388.084" cy="186.229" rx="4.753" ry="29.024" transform="matrix(0.9396930933, -0.342019051313, 0.342019051313, 0.9396930933, -420.253038164339, 462.304971338455)"/>
  <ellipse style="stroke: rgb(0, 0, 0); stroke-width: 0px; fill: rgb(0, 153, 0); transform-origin: 1388.08px 186.23px;" cx="1388.084" cy="186.229" rx="3.24" ry="8.996" transform="matrix(0.819152116775, 0.57357698679, -0.573576986789, 0.819152116775, -415.139983110792, 492.229684281234)"/>
  <ellipse style="stroke: rgb(0, 0, 0); stroke-width: 0px; fill: rgb(0, 153, 0); transform-origin: 1388.08px 186.229px;" cx="1388.084" cy="186.229" rx="6.454" ry="2.569" transform="matrix(1, 0, -0.000001, 1, -420.234903184443, 497.483436368256)"/>
  <ellipse style="stroke: rgb(0, 0, 0); stroke-width: 0px; fill: rgb(0, 153, 0); transform-origin: 1388.08px 186.227px;" cx="1388.084" cy="186.229" rx="1.106" ry="6.64" transform="matrix(0.92050409317, 0.390732049942, -0.390732049941, 0.920504093175, -412.192183727588, 492.704916386063)"/>
  <ellipse style="stroke: rgb(0, 0, 0); stroke-width: 0px; fill: rgb(0, 153, 0); transform-origin: 1388.08px 186.226px;" cx="1388.084" cy="186.229" rx="1.369" ry="10.857" transform="matrix(0.939693093299, -0.342019051313, 0.342019051314, 0.9396930933, -417.247706290043, 480.117471302453)"/>
  <ellipse style="stroke: rgb(0, 0, 0); stroke-width: 0px; fill: rgb(0, 153, 0); transform-origin: 1388.08px 186.226px;" cx="1388.084" cy="186.229" rx="1.106" ry="10.579" transform="matrix(1, 0.000001, -0.000001000001, 1.000000000001, -415.450265658671, 486.576163396829)"/>
  <ellipse style="stroke: rgb(0, 0, 0); stroke-width: 0px; fill: rgb(0, 153, 0); transform-origin: 1388.08px 186.229px;" cx="1388.084" cy="186.229" rx="6.454" ry="2.569" transform="matrix(1, 0, -0.000001000002, 1, -373.050484756572, 495.320167292958)"/>
  <ellipse style="stroke: rgb(0, 0, 0); stroke-width: 0px; fill: rgb(0, 153, 0); transform-origin: 1388.08px 186.229px;" cx="1388.084" cy="186.229" rx="6.454" ry="2.569" transform="matrix(1, 0, -0.000001, 1, -383.638894338528, 497.328651209684)"/>
  <ellipse style="stroke: rgb(0, 0, 0); stroke-width: 0px; fill: rgb(0, 153, 0); transform-origin: 1388.08px 186.229px;" cx="1388.084" cy="186.229" rx="3.232" ry="11.089" transform="matrix(0.866025090218, 0.5, -0.500001013279, 0.866025090218, -376.938040117048, 489.325659777447)"/>
  <ellipse style="stroke: rgb(0, 0, 0); stroke-width: 0px; fill: rgb(0, 153, 0); transform-origin: 1388.08px 186.23px;" cx="1388.084" cy="186.229" rx="3.769" ry="16.707" transform="matrix(1, 0, -0.000001, 1, -370.58225351993, 480.662635336217)"/>
  <ellipse style="stroke: rgb(0, 0, 0); stroke-width: 0px; fill: rgb(0, 153, 0); transform-origin: 1008.06px 645.176px;" cx="1008.07" cy="645.176" rx="14.95" ry="15.916" transform="matrix(1, 0, 0, 1, -8e-12, 0)"/>
  <ellipse style="stroke: rgb(0, 0, 0); stroke-width: 0px; fill: rgb(0, 153, 0); transform-origin: 1388.08px 186.229px;" cx="1388.084" cy="186.229" rx="0.965" ry="5.71" transform="matrix(1, 0, -9.99999e-7, 0.999999999999, -367.577492731317, 490.705482165884)"/>
  <ellipse style="stroke: rgb(0, 0, 0); stroke-width: 0px; fill: rgb(0, 153, 0); transform-origin: 1388.08px 186.23px;" cx="1388.084" cy="186.229" rx="2.333" ry="11.226" transform="matrix(0.9396930933, 0.342020004988, -0.342021018266, 0.939692139625, -374.625635138441, 481.435704060805)"/>
  <ellipse style="stroke: rgb(0, 0, 0); stroke-width: 0px; fill: rgb(0, 153, 0); transform-origin: 1388.08px 186.232px;" cx="1388.084" cy="186.229" rx="2.333" ry="5.777" transform="matrix(1, 0, -0.000001000003, 1, -374.389229895988, 476.547461935125)"/>
  <ellipse style="stroke: rgb(0, 0, 0); stroke-width: 0px; fill: rgb(0, 153, 0); transform-origin: 1388.08px 186.232px;" cx="1388.084" cy="186.229" rx="2.333" ry="6.633" transform="matrix(0.707107007503, -0.707107007503, 0.707106113434, 0.707107007503, -376.349338552592, 474.105275677699)"/>
  <ellipse style="stroke: rgb(0, 0, 0); stroke-width: 0px; fill: rgb(0, 153, 0); transform-origin: 1026.62px 656.22px;" cx="1026.629" cy="656.22" rx="5.02" ry="16.44"/>
  <ellipse style="stroke: rgb(0, 0, 0); stroke-width: 0px; fill: rgb(0, 153, 0); transform-origin: 1549.04px 228.87px;" cx="1549.042" cy="228.87" rx="5.02" ry="10.784" transform="matrix(0.707107007504, -0.707106113434, 0.707106113434, 0.707107007504, -528.625158289055, 409.465193133609)"/>
  <ellipse style="stroke: rgb(0, 0, 0); stroke-width: 0px; fill: rgb(0, 153, 0); transform-origin: 1571.62px 279.064px;" cx="1571.62" cy="279.064" rx="1.913" ry="7.534" transform="matrix(0.766043901443, -0.642787992955, 0.642787992955, 0.766043901444, -542.848861456934, 395.459425168732)"/>
  <ellipse style="stroke: rgb(0, 0, 0); stroke-width: 0px; fill: rgb(0, 153, 0); transform-origin: 1571.62px 279.064px;" cx="1571.62" cy="279.064" rx="1.337" ry="7.874" transform="matrix(0.984808027744, -0.173649027944, 0.173649027945, 0.984808027743, -542.975412742182, 391.461032419797)"/>
  <ellipse style="stroke: rgb(0, 0, 0); stroke-width: 0px; fill: rgb(0, 153, 0); transform-origin: 1571.62px 279.065px;" cx="1571.62" cy="279.064" rx="1.337" ry="5.663" transform="matrix(0.999999999999, -0.000001, 0.000001000003, 0.999999999998, -542.887851582702, 389.0226956513)"/>
</svg>