<?xml version="1.0" encoding="utf-8"?>
<svg viewBox="800.6933 590.122 30.7363 34.1035" xmlns="http://www.w3.org/2000/svg">
  <ellipse style="stroke: rgb(0, 0, 0); stroke-width: 0px; fill: rgb(0, 153, 0); transform-origin: 1426.7px 472.266px;" cx="1426.704" cy="472.262" rx="11.229" ry="10.084" transform="matrix(-0.866025090218, -0.5, -0.5, 0.866025090218, -611.238477096719, 137.617514549798)"/>
  <ellipse style="stroke: rgb(0, 0, 0); stroke-width: 0px; fill: rgb(0, 153, 0); transform-origin: 1426.7px 472.266px;" cx="1426.704" cy="472.262" rx="3.473" ry="11.066" transform="matrix(-0.819152116775, -0.57357609272, -0.57357609272, 0.819152116775, -607.453893467019, 129.405126502335)"/>
  <ellipse style="stroke: rgb(0, 0, 0); stroke-width: 0px; fill: rgb(0, 153, 0); transform-origin: -812.832px 601.191px;" cx="-812.829" cy="601.188" rx="4.756" ry="11.066" transform="matrix(-1, 0, 0, 1, 1625.66452636695, 0)"/>
  <ellipse style="stroke: rgb(0, 0, 0); stroke-width: 0px; fill: rgb(0, 153, 0); transform-origin: 1477.31px 434.987px;" cx="1477.31" cy="434.986" rx="1.093" ry="9.947" transform="matrix(-0.965926110746, -0.258819013834, -0.258819013829, 0.965926110745, -669.987099923438, 168.680353554449)"/>
  <ellipse style="stroke: rgb(0, 0, 0); stroke-width: 0px; fill: rgb(0, 153, 0); transform-origin: 1426.7px 472.263px;" cx="1426.704" cy="472.262" rx="7.44" ry="4.074" transform="matrix(-0.906307995319, -0.422618061304, -0.422618061306, 0.906307995319, -604.335407464747, 141.16594937778)"/>
  <ellipse style="stroke: rgb(0, 0, 0); stroke-width: 0px; fill: rgb(0, 153, 0); transform-origin: -827.154px 614.998px;" cx="-827.155" cy="614.998" rx="4.258" ry="1.734" transform="matrix(-0.999999999998, 0, 0, 1, 1654.307470705156, 0)"/>
  <ellipse style="stroke: rgb(0, 0, 0); stroke-width: 0px; fill: rgb(0, 153, 0); transform-origin: 1400.94px 471.615px;" cx="1400.944" cy="471.616" rx="4.487" ry="0.436" transform="matrix(-0.866025090206, -0.500001013276, -0.500001013251, 0.866025090214, -573.703059084928, 140.803219028949)"/>
  <ellipse style="stroke: rgb(0, 0, 0); stroke-width: 0px; fill: rgb(0, 153, 0); transform-origin: 1400.94px 471.614px;" cx="1400.944" cy="471.616" rx="2.633" ry="0.436" transform="matrix(-0.866026103474, 0.499999016533, 0.499999016565, 0.866026103517, -572.006107339161, 145.015815579001)"/>
</svg>