<?xml version="1.0" encoding="utf-8"?>
<svg viewBox="922.086 585.1645 37.132 27.6779" xmlns="http://www.w3.org/2000/svg">
  <ellipse style="stroke: rgb(0, 0, 0); stroke-width: 0px; fill: rgb(0, 153, 0);" cx="944.962" cy="605.022" rx="13.592" ry="10.054" transform="matrix(1, 0, 0, 1, -1.1368683772161603e-13, -1.1368683772161603e-13)"/>
  <ellipse style="stroke: rgb(0, 0, 0); stroke-width: 0px; fill: rgb(0, 153, 0);" cx="935.613" cy="608.322" rx="13.527" ry="5.033" transform="matrix(1, 0, 0, 1, -1.1368683772161603e-13, -1.1368683772161603e-13)"/>
  <ellipse style="stroke: rgb(0, 0, 0); stroke-width: 0px; fill: rgb(0, 153, 0);" cx="933.192" cy="611.713" rx="4.978" ry="2.646" transform="matrix(1, 0, 0, 1, -1.1368683772161603e-13, -1.1368683772161603e-13)"/>
  <ellipse style="stroke: rgb(0, 0, 0); stroke-width: 0px; fill: rgb(0, 153, 0); transform-origin: 1332.23px 146.299px;" cx="1332.227" cy="146.299" rx="5.981" ry="0.637" transform="matrix(0.9396930933, -0.342020004987, 0.342020005002, 0.939693093298, -400.229497188256, 457.013414699553)"/>
  <ellipse style="stroke: rgb(0, 0, 0); stroke-width: 0px; fill: rgb(0, 153, 0); transform-origin: 1388.08px 186.229px;" cx="1388.084" cy="186.229" rx="12.192" ry="30.035" transform="matrix(0.9396930933, -0.342020004988, 0.342020004988, 0.9396930933, -431.202028910897, 438.161571160577)"/>
  <ellipse style="stroke: rgb(0, 0, 0); stroke-width: 0px; fill: rgb(0, 153, 0); transform-origin: 1408.24px 215.765px;" cx="1408.246" cy="215.761" rx="15.854" ry="1.359" transform="matrix(0.500002980232, 0.866024017334, -0.866024017334, 0.500002980228, -463.730255645589, 405.817921113337)"/>
  <ellipse style="stroke: rgb(0, 0, 0); stroke-width: 0px; fill: rgb(0, 153, 0); transform-origin: 1388.08px 186.223px;" cx="1388.084" cy="186.229" rx="4.098" ry="19.605" transform="matrix(0.965926110745, -0.258818000555, 0.258818000555, 0.965926110745, -444.207341006531, 420.617003904011)"/>
  <ellipse style="stroke: rgb(0, 0, 0); stroke-width: 0px; fill: rgb(0, 153, 0); transform-origin: 1388.08px 186.223px;" cx="1388.084" cy="186.229" rx="4.3" ry="19.605" transform="matrix(0.965926110744, -0.258818000555, 0.258818000555, 0.965926110744, -438.094952573494, 418.986633825819)"/>
</svg>