<?xml version="1.0" encoding="utf-8"?>
<svg viewBox="663.364 383.3 192.264 314.616" xmlns="http://www.w3.org/2000/svg">
  <ellipse style="stroke: rgb(0, 0, 0); stroke-width: 0px; fill: rgb(0, 204, 0);" cx="759.496" cy="543.501" rx="96.132" ry="8.719" transform="matrix(1, 0, 0, 1, 1.1368683772161603e-13, -1.7763568394002505e-15)"/>
  <ellipse style="stroke: rgb(0, 0, 0); stroke-width: 0px; fill: rgb(0, 204, 0);" cx="759.496" cy="531.849" rx="90.306" ry="8.719" transform="matrix(1, 0, 0, 1, 1.1368683772161603e-13, -1.7763568394002505e-15)"/>
  <ellipse style="stroke: rgb(0, 0, 0); stroke-width: 0px; fill: rgb(0, 204, 0);" cx="759.496" cy="520.196" rx="84.481" ry="8.719" transform="matrix(1, 0, 0, 1, 1.1368683772161603e-13, -1.7763568394002505e-15)"/>
  <ellipse style="stroke: rgb(0, 0, 0); stroke-width: 0px; fill: rgb(0, 204, 0);" cx="759.496" cy="508.543" rx="78.654" ry="8.719" transform="matrix(1, 0, 0, 1, 1.1368683772161603e-13, -1.7763568394002505e-15)"/>
  <ellipse style="stroke: rgb(0, 0, 0); stroke-width: 0px; fill: rgb(0, 204, 0);" cx="759.496" cy="496.891" rx="72.828" ry="8.719" transform="matrix(1, 0, 0, 1, 1.1368683772161603e-13, -1.7763568394002505e-15)"/>
  <ellipse style="stroke: rgb(0, 0, 0); stroke-width: 0px; fill: rgb(0, 204, 0);" cx="759.496" cy="485.239" rx="67.002" ry="8.719" transform="matrix(1, 0, 0, 1, 1.1368683772161603e-13, -1.7763568394002505e-15)"/>
  <ellipse style="stroke: rgb(0, 0, 0); stroke-width: 0px; fill: rgb(0, 204, 0);" cx="759.496" cy="473.586" rx="61.175" ry="8.719" transform="matrix(1, 0, 0, 1, 1.1368683772161603e-13, -1.7763568394002505e-15)"/>
  <ellipse style="stroke: rgb(0, 0, 0); stroke-width: 0px; fill: rgb(0, 204, 0);" cx="759.496" cy="461.934" rx="55.349" ry="8.719" transform="matrix(1, 0, 0, 1, 1.1368683772161603e-13, -1.7763568394002505e-15)"/>
  <ellipse style="stroke: rgb(0, 0, 0); stroke-width: 0px; fill: rgb(0, 204, 0);" cx="759.496" cy="450.281" rx="49.523" ry="8.719" transform="matrix(1, 0, 0, 1, 1.1368683772161603e-13, -1.7763568394002505e-15)"/>
  <ellipse style="stroke: rgb(0, 0, 0); stroke-width: 0px; fill: rgb(0, 204, 0);" cx="759.496" cy="438.628" rx="43.696" ry="8.719" transform="matrix(1, 0, 0, 1, 1.1368683772161603e-13, -1.7763568394002505e-15)"/>
  <ellipse style="stroke: rgb(0, 0, 0); stroke-width: 0px; fill: rgb(0, 204, 0);" cx="759.496" cy="426.977" rx="37.87" ry="8.719" transform="matrix(1, 0, 0, 1, 1.1368683772161603e-13, -1.7763568394002505e-15)"/>
  <ellipse style="stroke: rgb(0, 0, 0); stroke-width: 0px; fill: rgb(0, 204, 0);" cx="759.496" cy="415.324" rx="32.044" ry="8.719" transform="matrix(1, 0, 0, 1, 1.1368683772161603e-13, -1.7763568394002505e-15)"/>
  <ellipse style="stroke: rgb(0, 0, 0); stroke-width: 0px; fill: rgb(0, 204, 0);" cx="759.496" cy="403.671" rx="26.218" ry="8.719" transform="matrix(1, 0, 0, 1, 1.1368683772161603e-13, -1.7763568394002505e-15)"/>
  <ellipse style="stroke: rgb(0, 0, 0); stroke-width: 0px; fill: rgb(0, 204, 0);" cx="759.496" cy="392.019" rx="20.392" ry="8.719" transform="matrix(1, 0, 0, 1, 1.1368683772161603e-13, -1.7763568394002505e-15)"/>
  <ellipse style="stroke: rgb(0, 0, 0); stroke-width: 0px; fill: rgb(0, 204, 0);" cx="759.496" cy="552.26" rx="11.653" ry="145.656" transform="matrix(1, 0, 0, 1, 1.1368683772161603e-13, -1.7763568394002505e-15)"/>
  <g style="" transform="matrix(0.5863319635391235, 0, 0, 0.5863319635391235, 331.37738530900157, 297.1714521821059)">
    <ellipse style="stroke: rgb(0, 0, 0); stroke-width: 0px; fill: rgb(0, 204, 0);" cx="805.923" cy="532.169" rx="87.851" ry="7.968"/>
    <ellipse style="stroke: rgb(0, 0, 0); stroke-width: 0px; fill: rgb(0, 204, 0);" cx="805.923" cy="521.521" rx="82.527" ry="7.968"/>
    <ellipse style="stroke: rgb(0, 0, 0); stroke-width: 0px; fill: rgb(0, 204, 0);" cx="805.923" cy="510.872" rx="77.203" ry="7.968"/>
    <ellipse style="stroke: rgb(0, 0, 0); stroke-width: 0px; fill: rgb(0, 204, 0);" cx="805.923" cy="500.223" rx="71.878" ry="7.968"/>
    <ellipse style="stroke: rgb(0, 0, 0); stroke-width: 0px; fill: rgb(0, 204, 0);" cx="805.923" cy="489.575" rx="66.554" ry="7.968"/>
    <ellipse style="stroke: rgb(0, 0, 0); stroke-width: 0px; fill: rgb(0, 204, 0);" cx="805.923" cy="478.926" rx="61.23" ry="7.968"/>
    <ellipse style="stroke: rgb(0, 0, 0); stroke-width: 0px; fill: rgb(0, 204, 0);" cx="805.923" cy="468.277" rx="55.905" ry="7.968"/>
    <ellipse style="stroke: rgb(0, 0, 0); stroke-width: 0px; fill: rgb(0, 204, 0);" cx="805.923" cy="457.629" rx="50.581" ry="7.968"/>
    <ellipse style="stroke: rgb(0, 0, 0); stroke-width: 0px; fill: rgb(0, 204, 0);" cx="805.923" cy="446.98" rx="45.257" ry="7.968"/>
    <ellipse style="stroke: rgb(0, 0, 0); stroke-width: 0px; fill: rgb(0, 204, 0);" cx="805.923" cy="436.331" rx="39.932" ry="7.968"/>
    <ellipse style="stroke: rgb(0, 0, 0); stroke-width: 0px; fill: rgb(0, 204, 0);" cx="805.923" cy="425.683" rx="34.608" ry="7.968"/>
    <ellipse style="stroke: rgb(0, 0, 0); stroke-width: 0px; fill: rgb(0, 204, 0);" cx="805.923" cy="415.034" rx="29.284" ry="7.968"/>
    <ellipse style="stroke: rgb(0, 0, 0); stroke-width: 0px; fill: rgb(0, 204, 0);" cx="805.923" cy="404.385" rx="23.959" ry="7.968"/>
    <ellipse style="stroke: rgb(0, 0, 0); stroke-width: 0px; fill: rgb(0, 204, 0);" cx="805.923" cy="393.737" rx="18.635" ry="7.968"/>
    <ellipse style="stroke: rgb(0, 0, 0); stroke-width: 0px; fill: rgb(0, 204, 0);" cx="805.923" cy="383.088" rx="13.311" ry="7.968"/>
    <ellipse style="stroke: rgb(0, 0, 0); stroke-width: 0px; fill: rgb(0, 204, 0);" cx="805.497" cy="372.457" rx="7.986" ry="7.968"/>
    <ellipse style="stroke: rgb(0, 0, 0); stroke-width: 0px; fill: rgb(0, 204, 0);" cx="805.923" cy="540.174" rx="10.649" ry="133.108"/>
  </g>
</svg>