<?xml version="1.0" encoding="utf-8"?>
<svg viewBox="801.8677 448.7344 34.9005 61.5036" xmlns="http://www.w3.org/2000/svg">
  <ellipse style="stroke: rgb(0, 0, 0); stroke-width: 0px; fill: rgb(0, 153, 0);" cx="814.177" cy="462.677" rx="8.899" ry="9.211" transform="matrix(0.9999999999999999, 0, 0, 0.9999999999999999, -5.684341886080802e-14, -5.684341886080802e-14)"/>
  <ellipse style="stroke: rgb(0, 0, 0); stroke-width: 0px; fill: rgb(0, 153, 0);" cx="824.848" cy="462.695" rx="8.899" ry="9.211" transform="matrix(0.9999999999999999, 0, 0, 0.9999999999999999, -5.684341886080802e-14, -5.684341886080802e-14)"/>
  <ellipse style="stroke: rgb(0, 0, 0); stroke-width: 0px; fill: rgb(0, 153, 0);" cx="819.435" cy="455.13" rx="11.7" ry="1.953" transform="matrix(0.9999999999999999, 0, 0, 0.9999999999999999, -5.684341886080802e-14, -5.684341886080802e-14)"/>
  <ellipse style="stroke: rgb(0, 0, 0); stroke-width: 0px; fill: rgb(0, 153, 0); transform-origin: 1508.81px 750.157px;" cx="1508.814" cy="750.157" rx="11.014" ry="2.753" transform="matrix(0.90630799532, -0.422618061304, 0.422618061303, 0.906307995319, -683.191251878439, -294.256340357402)"/>
  <ellipse style="stroke: rgb(0, 0, 0); stroke-width: 0px; fill: rgb(0, 153, 0); transform-origin: 1508.92px 750.319px;" cx="1508.977" cy="750.415" rx="11.014" ry="2.753" transform="matrix(0.906306982041, 0.422619074583, -0.422619074583, 0.90630698204, -695.917729059768, -294.545849035323)"/>
  <ellipse style="stroke: rgb(0, 0, 0); stroke-width: 0px; fill: rgb(0, 153, 0); transform-origin: 819.3px 487.624px;" cx="819.326" cy="487.624" rx="10.981" ry="22.614" transform="matrix(1, 0, 0, 1, -8e-12, -4e-12)"/>
  <ellipse style="stroke: rgb(0, 0, 0); stroke-width: 0px; fill: rgb(0, 153, 0); transform-origin: 825.738px 486.581px;" cx="825.749" cy="486.581" rx="5.316" ry="20.703" transform="matrix(1, 0, 0, 1, -1.18e-10, -6.8e-11)"/>
  <ellipse style="stroke: rgb(0, 0, 0); stroke-width: 0px; fill: rgb(0, 153, 0); transform-origin: 813.222px 487.174px;" cx="813.237" cy="486.587" rx="5.316" ry="20.703" transform="matrix(1, 0, 0, 1, -1.18e-10, -6.8e-11)"/>
  <ellipse style="stroke: rgb(0, 0, 0); stroke-width: 0px; fill: rgb(0, 153, 0); transform-origin: 831.186px 480.824px;" cx="831.212" cy="480.893" rx="5.316" ry="14.719" transform="matrix(1, 0, 0, 1, -1.2e-11, -6e-12)"/>
  <ellipse style="stroke: rgb(0, 0, 0); stroke-width: 0px; fill: rgb(0, 153, 0); transform-origin: 807.67px 479.234px;" cx="807.696" cy="480.893" rx="5.316" ry="14.719" transform="matrix(1, 0, 0, 1, -1.2e-11, -6e-12)"/>
</svg>