<?xml version="1.0" encoding="utf-8"?>
<svg viewBox="764.6884 590.122 66.7448 82.2894" xmlns="http://www.w3.org/2000/svg">
  <ellipse style="stroke: rgb(0, 0, 0); stroke-width: 0px; fill: rgb(0, 153, 0); transform-origin: 1426.7px 472.266px;" cx="1426.704" cy="472.262" rx="11.229" ry="10.084" transform="matrix(-0.866025090218, -0.5, -0.5, 0.866025090218, -611.2433610048, 137.616297935206)"/>
  <ellipse style="stroke: rgb(0, 0, 0); stroke-width: 0px; fill: rgb(0, 153, 0); transform-origin: 1426.7px 472.266px;" cx="1426.704" cy="472.262" rx="3.473" ry="11.066" transform="matrix(-0.819152116775, -0.57357609272, -0.573576092718, 0.819152116775, -607.449969713618, 129.406352724689)"/>
  <ellipse style="stroke: rgb(0, 0, 0); stroke-width: 0px; fill: rgb(0, 153, 0); transform-origin: -812.833px 601.191px;" cx="-812.83" cy="601.188" rx="4.756" ry="11.066" transform="matrix(-1, 0, 0, 1, 1625.665283203227, 1.68e-10)"/>
  <ellipse style="stroke: rgb(0, 0, 0); stroke-width: 0px; fill: rgb(0, 153, 0); transform-origin: 1477.31px 434.987px;" cx="1477.31" cy="434.986" rx="1.093" ry="9.947" transform="matrix(-0.965926110746, -0.258819013834, -0.258819013832, 0.965926110744, -669.987111559239, 168.680258845581)"/>
  <ellipse style="stroke: rgb(0, 0, 0); stroke-width: 0px; fill: rgb(0, 153, 0); transform-origin: 1426.7px 472.263px;" cx="1426.704" cy="472.262" rx="7.44" ry="4.074" transform="matrix(-0.906307995319, -0.422618061304, -0.422618061303, 0.906307995319, -604.342987263838, 141.164169912166)"/>
  <ellipse style="stroke: rgb(0, 0, 0); stroke-width: 0px; fill: rgb(0, 153, 0); transform-origin: -827.154px 614.998px;" cx="-827.155" cy="614.998" rx="4.258" ry="1.734" transform="matrix(-0.999999999998, 0, 6e-12, 1, 1654.307714842022, -8e-12)"/>
  <ellipse style="stroke: rgb(0, 0, 0); stroke-width: 0px; fill: rgb(0, 153, 0); transform-origin: 1400.94px 471.615px;" cx="1400.944" cy="471.616" rx="4.487" ry="0.436" transform="matrix(-0.866025090212, -0.500001013276, -0.500001013266, 0.866025090213, -573.701822012915, 140.803463169605)"/>
  <ellipse style="stroke: rgb(0, 0, 0); stroke-width: 0px; fill: rgb(0, 153, 0); transform-origin: 1400.94px 471.614px;" cx="1400.944" cy="471.616" rx="2.633" ry="0.436" transform="matrix(-0.86602610349, 0.499999016519, 0.499999016542, 0.866026103503, -572.002475712883, 145.01469463255)"/>
  <ellipse style="stroke: rgb(0, 0, 0); stroke-width: 0px; fill: rgb(0, 153, 0); transform-origin: -810.624px 622.012px;" cx="-810.616" cy="621.999" rx="9.28" ry="20.099" transform="matrix(-1, 0, 0, 1, 1621.248535156132, 2e-12)"/>
  <ellipse style="stroke: rgb(0, 0, 0); stroke-width: 0px; fill: rgb(0, 153, 0); transform-origin: -812.788px 632.099px;" cx="-812.777" cy="632.092" rx="9.28" ry="11.497" transform="matrix(-1, 0, 0, 1, 1625.576733398292, 8.5e-11)"/>
  <ellipse style="stroke: rgb(0, 0, 0); stroke-width: 0px; fill: rgb(0, 153, 0); transform-origin: -789.357px 651.075px;" cx="-789.342" cy="651.063" rx="15.232" ry="18.24" transform="matrix(-1, 0, 0, 1, 1578.714990234476, 3.4e-11)"/>
  <ellipse style="stroke: rgb(0, 0, 0); stroke-width: 0px; fill: rgb(0, 153, 0); transform-origin: 1526.83px 512.674px;" cx="1526.84" cy="512.663" rx="5.282" ry="14.864" transform="matrix(-0.642786979676, -0.766044914722, -0.766044914722, 0.642786979675, -739.920627347737, 124.676602766786)"/>
  <ellipse style="stroke: rgb(0, 0, 0); stroke-width: 0px; fill: rgb(0, 153, 0); transform-origin: 1526.84px 512.677px;" cx="1526.84" cy="512.663" rx="2.382" ry="17.907" transform="matrix(-0.642786026001, -0.766045928001, -0.766045928, 0.642786026001, -734.045452684061, 117.506851211065)"/>
  <ellipse style="stroke: rgb(0, 0, 0); stroke-width: 0px; fill: rgb(0, 153, 0); transform-origin: 1526.83px 512.671px;" cx="1526.84" cy="512.663" rx="1.109" ry="9.697" transform="matrix(-0.906306982039, -0.42262005806, -0.422620058052, 0.906306982041, -725.753792586295, 107.023655510089)"/>
  <ellipse style="stroke: rgb(0, 0, 0); stroke-width: 0px; fill: rgb(0, 153, 0); transform-origin: -805.948px 638.226px;" cx="-805.936" cy="638.216" rx="11.519" ry="15.328" transform="matrix(-1, 0, 0, 1, 1611.896118163902, 1e-12)"/>
  <ellipse style="stroke: rgb(0, 0, 0); stroke-width: 0px; fill: rgb(0, 153, 0); transform-origin: 1378.47px 531.818px;" cx="1378.476" cy="531.805" rx="3.316" ry="20.258" transform="matrix(-0.965926110744, 0.258819013834, 0.258819013834, 0.965926110745, -569.013214041844, 120.133474437494)"/>
  <ellipse style="stroke: rgb(0, 0, 0); stroke-width: 0px; fill: rgb(0, 153, 0); transform-origin: -816.443px 669.972px;" cx="-816.44" cy="669.97" rx="3.316" ry="2.036" transform="matrix(-0.999999999998, 0, 0, 1, 1632.886181641837, -4e-12)"/>
  <ellipse style="stroke: rgb(0, 0, 0); stroke-width: 0px; fill: rgb(0, 153, 0); transform-origin: 1378.47px 531.818px;" cx="1378.476" cy="531.805" rx="3.316" ry="20.258" transform="matrix(-0.965926110744, 0.258819013834, 0.258819013835, 0.965926110745, -565.483428833409, 119.725683293589)"/>
  <ellipse style="stroke: rgb(0, 0, 0); stroke-width: 0px; fill: rgb(0, 153, 0); transform-origin: -819.971px 669.564px;" cx="-819.97" cy="669.562" rx="3.316" ry="2.036" transform="matrix(-1.000000000001, 0, 1e-12, 1, 1639.942285155094, -4e-12)"/>
  <ellipse style="stroke: rgb(0, 0, 0); stroke-width: 0px; fill: rgb(0, 153, 0); transform-origin: 1526.83px 512.673px;" cx="1526.84" cy="512.663" rx="1.606" ry="10.448" transform="matrix(-0.866024017334, -0.500002026558, -0.500002026556, 0.866024017333, -710.531157793951, 129.910961070595)"/>
  <ellipse style="stroke: rgb(0, 0, 0); stroke-width: 0px; fill: rgb(0, 153, 0); transform-origin: 1526.84px 512.672px;" cx="1526.84" cy="512.663" rx="0.676" ry="10.231" transform="matrix(-1.000000000007, -0.000001999999, -0.000001999998, 0.999999999998, -711.339369337599, 132.921356257158)"/>
  <ellipse style="stroke: rgb(0, 0, 0); stroke-width: 0px; fill: rgb(0, 153, 0); transform-origin: 1526.84px 512.672px;" cx="1526.84" cy="512.663" rx="1.236" ry="10.231" transform="matrix(-0.819151103498, -0.573578000069, -0.573578000071, 0.819151103497, -722.195645803197, 142.367618649366)"/>
  <ellipse style="stroke: rgb(0, 0, 0); stroke-width: 0px; fill: rgb(0, 153, 0); transform-origin: 1532.18px 549.21px;" cx="1532.197" cy="549.197" rx="11.907" ry="15.159" transform="matrix(-1, 0.000001, 0.000001, 1, -755.567775761267, 106.570846817783)"/>
  <ellipse style="stroke: rgb(0, 0, 0); stroke-width: 0px; fill: rgb(0, 153, 0); transform-origin: 1532.17px 549.201px;" cx="1532.197" cy="549.197" rx="15.498" ry="5.683" transform="matrix(-1, 0.000001, 0.000001, 1, -746.556056886337, 117.531387742617)"/>
  <ellipse style="stroke: rgb(0, 0, 0); stroke-width: 0px; fill: rgb(0, 153, 0); transform-origin: 1532.18px 549.198px;" cx="1532.197" cy="549.197" rx="15.521" ry="1.147" transform="matrix(-1, 0.000001, 9.99999e-7, 1.000000000002, -737.346095813445, 121.343216421618)"/>
  <ellipse style="stroke: rgb(0, 0, 0); stroke-width: 0px; fill: rgb(0, 153, 0); transform-origin: 1532.19px 549.199px;" cx="1532.197" cy="549.197" rx="1.159" ry="10.182" transform="matrix(-0.422617077827, 0.906307995321, 0.906307995318, 0.422617077825, -731.10840069651, 117.092817204834)"/>
  <ellipse style="stroke: rgb(0, 0, 0); stroke-width: 0px; fill: rgb(0, 153, 0); transform-origin: 1532.18px 549.197px;" cx="1532.197" cy="549.197" rx="4.392" ry="1.781" transform="matrix(-0.999999999994, 0.000001000001, 0.000001000002, 1.000000000001, -729.750392587053, 119.876938323602)"/>
</svg>