<?xml version="1.0" encoding="utf-8"?>
<svg viewBox="481.4477 829.9455 197.2266 82.3968" xmlns="http://www.w3.org/2000/svg">
  <ellipse style="stroke: rgb(0, 0, 0); stroke-width: 0px; fill: rgb(0, 102, 153);" cx="571.321" cy="867.802" rx="82.269" ry="15.787" transform="matrix(1, 0, 0, 1, 1.4210854715202004e-14, 0)"/>
  <ellipse style="stroke: rgb(0, 0, 0); stroke-width: 0px; fill: rgb(0, 102, 153);" cx="565.945" cy="874.367" rx="53.846" ry="20.688" transform="matrix(1, 0, 0, 1, 1.4210854715202004e-14, 0)"/>
  <ellipse style="stroke: rgb(0, 0, 0); stroke-width: 0px; fill: rgb(0, 102, 153);" cx="545.037" cy="861.082" rx="62.013" ry="12.521" transform="matrix(1, 0, 0, 1, 1.4210854715202004e-14, 0)"/>
  <ellipse style="stroke: rgb(0, 0, 0); stroke-width: 0px; fill: rgb(0, 102, 153); transform-origin: 569.109px 1266px;" cx="569.109" cy="1266.002" rx="22.689" ry="5.631" transform="matrix(0.906307995319, 0.422618061304, -0.422618061304, 0.906307995319, -57.853561500153, -388.904858013803)"/>
  <ellipse style="stroke: rgb(0, 0, 0); stroke-width: 0px; fill: rgb(0, 102, 153); transform-origin: 569.108px 1266px;" cx="569.109" cy="1266.002" rx="11.695" ry="2.91" transform="matrix(0.707107007504, 0.707107007503, -0.707107007504, 0.707107007503, -77.332354995755, -397.823938193333)"/>
  <ellipse style="stroke: rgb(0, 0, 0); stroke-width: 0px; fill: rgb(0, 102, 153); transform-origin: 569.107px 1266px;" cx="569.109" cy="1266.002" rx="22.209" ry="2.91" transform="matrix(0.9396930933, -0.342020004987, 0.342020004987, 0.9396930933, 47.478839725656, -384.309891632381)"/>
  <ellipse style="stroke: rgb(0, 0, 0); stroke-width: 0px; fill: rgb(0, 102, 153); transform-origin: 569.109px 1266px;" cx="569.109" cy="1266.002" rx="22.209" ry="8.105" transform="matrix(0.5, -0.866025090218, 0.866025090218, 0.5, 91.426541322353, -412.769355477596)"/>
  <ellipse style="stroke: rgb(0, 0, 0); stroke-width: 0px; fill: rgb(0, 102, 153); transform-origin: 569.11px 1266px;" cx="569.109" cy="1266.002" rx="22.209" ry="8.105" transform="matrix(0.5, 0.866025090218, -0.866025090218, 0.5, 91.442885166247, -383.446032271472)"/>
  <ellipse style="stroke: rgb(0, 0, 0); stroke-width: 0px; fill: rgb(0, 102, 153); transform-origin: 569.109px 1266px;" cx="569.109" cy="1266.002" rx="24.926" ry="8.67" transform="matrix(0.642787992954, -0.766043901444, 0.766043901444, 0.642787992954, 10.168916473535, -409.98639925839)"/>
  <ellipse style="stroke: rgb(0, 0, 0); stroke-width: 0px; fill: rgb(0, 102, 153); transform-origin: 569.109px 1266px;" cx="569.109" cy="1266.002" rx="4.203" ry="16.526" transform="matrix(1, 0.000001000001, -0.000001, 1, 25.261624238135, -412.023637470469)"/>
  <ellipse style="stroke: rgb(0, 0, 0); stroke-width: 0px; fill: rgb(0, 102, 153); transform-origin: 569.111px 1266px;" cx="569.109" cy="1266.002" rx="6.17" ry="30.618" transform="matrix(0.342021018267, -0.939692139626, 0.939692139625, 0.342021018267, 1.893369553135, -373.322436678429)"/>
  <ellipse style="stroke: rgb(0, 0, 0); stroke-width: 0px; fill: rgb(0, 102, 153); transform-origin: 569.109px 1266px;" cx="569.109" cy="1266.002" rx="23.069" ry="7.569" transform="matrix(0.561127007007, 0.827730000019, 0.708956003189, -0.736332952976, -30.344067784864, -378.324455153924)"/>
  <ellipse style="stroke: rgb(0, 0, 0); stroke-width: 0px; fill: rgb(0, 102, 153); transform-origin: 569.109px 1266px;" cx="569.109" cy="1266.002" rx="3.395" ry="16.526" transform="matrix(1, -0.000001, -0.000001, -1, -18.151448994608, -376.286913939754)"/>
</svg>