<?xml version="1.0" encoding="utf-8"?>
<svg viewBox="384.3791 925.9422 301.0848 97.9171" xmlns="http://www.w3.org/2000/svg">
  <ellipse style="stroke: rgb(0, 0, 0); stroke-width: 0px; fill: rgb(0, 153, 204); transform-origin: 475.505px 1370.05px;" cx="475.505" cy="1370.051" rx="2.945" ry="8.285" transform="matrix(0.965926110745, 0.258819013835, -0.258819013834, 0.965926110745, 17.818752306361, -367.398260289796)"/>
  <ellipse style="stroke: rgb(0, 0, 0); stroke-width: 0px; fill: rgb(0, 153, 204); transform-origin: 475.505px 1370.05px;" cx="475.505" cy="1370.051" rx="2.945" ry="8.285" transform="matrix(0.965926110744, -0.258819013836, 0.258819013834, 0.965926110745, 17.820914466642, -377.357130679278)"/>
  <ellipse style="stroke: rgb(0, 0, 0); stroke-width: 0px; fill: rgb(0, 153, 204); transform-origin: 475.505px 1370.05px;" cx="475.505" cy="1370.051" rx="2.945" ry="8.285" transform="matrix(0.965926110745, 0.258819013835, -0.258819013834, 0.965926110745, 17.807010611162, -387.292659109145)"/>
  <ellipse style="stroke: rgb(0, 0, 0); stroke-width: 0px; fill: rgb(0, 153, 204); transform-origin: 475.505px 1370.05px;" cx="475.505" cy="1370.051" rx="2.945" ry="8.285" transform="matrix(0.965926110744, -0.258819013834, 0.258819013834, 0.965926110745, 17.808707435731, -397.251479120509)"/>
  <ellipse style="stroke: rgb(0, 0, 0); stroke-width: 0px; fill: rgb(0, 153, 204); transform-origin: 475.505px 1370.05px;" cx="475.505" cy="1370.051" rx="1.816" ry="7.942" transform="matrix(0.965926110744, 0.258819013837, -0.258819013834, 0.965926110744, 17.037784525495, -407.672481189576)"/>
  <ellipse style="stroke: rgb(0, 0, 0); stroke-width: 0px; fill: rgb(0, 153, 204); transform-origin: 493.226px 965.597px;" cx="493.226" cy="965.588" rx="0.719" ry="4.38"/>
  <ellipse style="stroke: rgb(0, 0, 0); stroke-width: 0px; fill: rgb(0, 153, 204); transform-origin: 492.028px 978.928px;" cx="492.028" cy="978.923" rx="0.719" ry="4.38" transform="matrix(1, 0, 0, 1, 0, -7.4e-11)"/>
  <ellipse style="stroke: rgb(0, 0, 0); stroke-width: 0px; fill: rgb(0, 153, 204); transform-origin: 494.346px 987.62px;" cx="494.346" cy="987.615" rx="0.719" ry="4.38" transform="matrix(1, 0, 0, 1, 0, -7.4e-11)"/>
  <ellipse style="stroke: rgb(0, 0, 0); stroke-width: 0px; fill: rgb(0, 153, 204); transform-origin: 492.165px 998.157px;" cx="492.165" cy="998.148" rx="0.719" ry="4.38" transform="matrix(1, 0, 0, 1, 0, -7.4e-11)"/>
  <ellipse style="stroke: rgb(0, 0, 0); stroke-width: 0px; fill: rgb(0, 153, 204); transform-origin: 475.505px 1370.05px;" cx="475.505" cy="1370.051" rx="3.246" ry="9.131" transform="matrix(-0.965926110744, 0.258819013835, 0.258819013834, 0.965926110744, 7.856243507489, -368.171679244784)"/>
  <ellipse style="stroke: rgb(0, 0, 0); stroke-width: 0px; fill: rgb(0, 153, 204); transform-origin: 475.505px 1370.05px;" cx="475.505" cy="1370.051" rx="3.246" ry="9.131" transform="matrix(-0.965926110744, -0.258819013832, -0.258819013834, 0.965926110744, 7.854239428035, -379.147467046299)"/>
  <ellipse style="stroke: rgb(0, 0, 0); stroke-width: 0px; fill: rgb(0, 153, 204); transform-origin: 475.505px 1370.05px;" cx="475.505" cy="1370.051" rx="3.246" ry="9.131" transform="matrix(-0.965926110744, 0.258819013834, 0.258819013834, 0.965926110744, 7.869732277262, -390.097399785585)"/>
  <ellipse style="stroke: rgb(0, 0, 0); stroke-width: 0px; fill: rgb(0, 153, 204); transform-origin: 475.505px 1370.05px;" cx="475.505" cy="1370.051" rx="3.246" ry="9.131" transform="matrix(-0.965926110746, -0.258819013833, -0.258819013834, 0.965926110744, 7.867667162792, -401.073157069367)"/>
  <ellipse style="stroke: rgb(0, 0, 0); stroke-width: 0px; fill: rgb(0, 153, 204); transform-origin: 475.505px 1370.05px;" cx="475.505" cy="1370.051" rx="2.002" ry="8.753" transform="matrix(-0.965926110745, 0.258819013835, 0.258819013834, 0.965926110745, 8.717449575275, -412.558215551945)"/>
  <ellipse style="stroke: rgb(0, 0, 0); stroke-width: 0px; fill: rgb(0, 153, 204); transform-origin: -483.468px 961.042px;" cx="-483.47" cy="961.027" rx="0.792" ry="4.828" transform="matrix(-1.000000000008, 0, 1e-12, 1, 966.93652343317, 3e-11)"/>
  <ellipse style="stroke: rgb(0, 0, 0); stroke-width: 0px; fill: rgb(0, 153, 204); transform-origin: -484.789px 975.727px;" cx="-484.789" cy="975.724" rx="0.792" ry="4.828" transform="matrix(-0.999999999995, 0, -4e-12, 1, 969.577429204888, 3e-11)"/>
  <ellipse style="stroke: rgb(0, 0, 0); stroke-width: 0px; fill: rgb(0, 153, 204); transform-origin: -482.235px 985.318px;" cx="-482.236" cy="985.303" rx="0.792" ry="4.828" transform="matrix(-1, 0, 4e-12, 1, 964.469494624859, 3e-11)"/>
  <ellipse style="stroke: rgb(0, 0, 0); stroke-width: 0px; fill: rgb(0, 153, 204); transform-origin: -484.639px 996.922px;" cx="-484.639" cy="996.912" rx="0.792" ry="4.828" transform="matrix(-1.000000000005, 0, -6e-12, 1, 969.277636722211, 0)"/>
  <ellipse style="stroke: rgb(0, 0, 0); stroke-width: 0px; fill: rgb(0, 153, 204); transform-origin: 476.871px 1005.85px;" cx="476.869" cy="1005.861" rx="1.825" ry="5.133" transform="matrix(1, 0, 0, 1, 0, -5e-11)"/>
  <ellipse style="stroke: rgb(0, 0, 0); stroke-width: 0px; fill: rgb(0, 153, 204); transform-origin: 459.157px 1367.83px;" cx="459.156" cy="1367.829" rx="1.825" ry="5.133" transform="matrix(0.866025090214, -0.500000000001, 0.5, 0.866025090219, 16.118748927111, -367.93053058386)"/>
  <ellipse style="stroke: rgb(0, 0, 0); stroke-width: 0px; fill: rgb(0, 153, 204); transform-origin: 473.672px 993.961px;" cx="473.672" cy="993.957" rx="1.825" ry="5.133"/>
  <ellipse style="stroke: rgb(0, 0, 0); stroke-width: 0px; fill: rgb(0, 153, 204); transform-origin: 461.809px 1357.89px;" cx="461.811" cy="1357.895" rx="1.825" ry="5.133" transform="matrix(0.86602509022, -0.500000000001, 0.5, 0.866025090217, 10.261981531462, -369.898658151615)"/>
  <ellipse style="stroke: rgb(0, 0, 0); stroke-width: 0px; fill: rgb(0, 153, 204); transform-origin: 469.944px 981.865px;" cx="469.943" cy="981.883" rx="1.126" ry="4.921" transform="matrix(1, 0, 0, 1, 0, -4.2e-11)"/>
  <ellipse style="stroke: rgb(0, 0, 0); stroke-width: 0px; fill: rgb(0, 153, 204); transform-origin: 460.423px 1353.99px;" cx="460.424" cy="1353.991" rx="0.446" ry="2.714" transform="matrix(0.965926110743, -0.258819013823, 0.258819013827, 0.965926110743, 10.443427105952, -370.294714351756)"/>
  <ellipse style="stroke: rgb(0, 0, 0); stroke-width: 0px; fill: rgb(0, 153, 204); transform-origin: 459.804px 1360.88px;" cx="459.805" cy="1360.884" rx="0.446" ry="2.714" transform="matrix(0.965926110711, -0.25881901384, 0.258819013837, 0.965926110731, 12.483473533109, -369.013709829655)"/>
  <ellipse style="stroke: rgb(0, 0, 0); stroke-width: 0px; fill: rgb(0, 153, 204); transform-origin: 461.002px 1365.38px;" cx="461.003" cy="1365.376" rx="0.446" ry="2.714" transform="matrix(0.965926110765, -0.258819013813, 0.25881901383, 0.965926110745, 14.068946480108, -368.676104789993)"/>
  <ellipse style="stroke: rgb(0, 0, 0); stroke-width: 0px; fill: rgb(0, 153, 204); transform-origin: 459.875px 1370.82px;" cx="459.876" cy="1370.82" rx="0.446" ry="2.714" transform="matrix(0.965926110735, -0.258819013842, 0.258819013823, 0.965926110735, 15.578847204929, -367.466291065909)"/>
  <ellipse style="stroke: rgb(0, 0, 0); stroke-width: 0px; fill: rgb(0, 153, 204); transform-origin: -500.033px 1003.73px;" cx="-500.034" cy="1003.723" rx="2.46" ry="6.918" transform="matrix(-1.000000000001, 0, -1e-12, 1, 1000.065270996192, 0)"/>
  <ellipse style="stroke: rgb(0, 0, 0); stroke-width: 0px; fill: rgb(0, 153, 204); transform-origin: -484.694px 1367.75px;" cx="-484.694" cy="1367.751" rx="2.46" ry="6.918" transform="matrix(-0.866025090218, -0.500000000002, -0.5, 0.866025090219, 986.87794294173, -372.060977001576)"/>
  <ellipse style="stroke: rgb(0, 0, 0); stroke-width: 0px; fill: rgb(0, 153, 204); transform-origin: -504.342px 987.667px;" cx="-504.343" cy="987.678" rx="2.46" ry="6.918" transform="matrix(-1.000000000002, 0, 0, 1, 1008.68454589748, 3e-12)"/>
  <ellipse style="stroke: rgb(0, 0, 0); stroke-width: 0px; fill: rgb(0, 153, 204); transform-origin: -481.115px 1354.37px;" cx="-481.115" cy="1354.362" rx="2.46" ry="6.918" transform="matrix(-0.866025090217, -0.499999999997, -0.5, 0.866025090217, 987.603477299403, -374.719014649128)"/>
  <ellipse style="stroke: rgb(0, 0, 0); stroke-width: 0px; fill: rgb(0, 153, 204); transform-origin: -509.367px 971.4px;" cx="-509.368" cy="971.406" rx="1.516" ry="6.632" transform="matrix(-1.000000000005, 0, 1e-12, 1, 1018.734399410585, 1.2e-11)"/>
  <ellipse style="stroke: rgb(0, 0, 0); stroke-width: 0px; fill: rgb(0, 153, 204); transform-origin: 505.922px 1345.2px;" cx="505.923" cy="1345.198" rx="0.601" ry="3.658" transform="matrix(-0.965926110756, -0.258819013839, -0.258819013836, 0.965926110743, 2.200119162592, -371.346399422257)"/>
  <ellipse style="stroke: rgb(0, 0, 0); stroke-width: 0px; fill: rgb(0, 153, 204); transform-origin: 504.923px 1356.32px;" cx="504.924" cy="1356.322" rx="0.601" ry="3.658" transform="matrix(-0.965926110748, -0.258819013856, -0.258819013837, 0.965926110749, 1.283377864279, -371.454528688478)"/>
  <ellipse style="stroke: rgb(0, 0, 0); stroke-width: 0px; fill: rgb(0, 153, 204); transform-origin: 506.856px 1363.58px;" cx="506.857" cy="1363.572" rx="0.601" ry="3.658" transform="matrix(-0.965926110739, -0.258819013841, -0.258819013838, 0.965926110742, -4.4006360542, -372.194996163354)"/>
  <ellipse style="stroke: rgb(0, 0, 0); stroke-width: 0px; fill: rgb(0, 153, 204); transform-origin: 505.037px 1372.36px;" cx="505.038" cy="1372.358" rx="0.601" ry="3.658" transform="matrix(-0.96592611075, -0.258819013841, -0.258819013833, 0.965926110753, -3.096994509615, -372.013081753839)"/>
  <ellipse style="stroke: rgb(0, 0, 0); stroke-width: 0px; fill: rgb(0, 153, 204); transform-origin: 536.388px 1353.01px;" cx="536.388" cy="1353.012" rx="1.282" ry="15.386" transform="matrix(0.436796009543, 0.89956110716, -0.899561107159, 0.436796009541, 29.178090565952, -337.559868134197)"/>
  <ellipse style="stroke: rgb(0, 0, 0); stroke-width: 0px; fill: rgb(0, 153, 204); transform-origin: 536.387px 1353.01px;" cx="536.388" cy="1353.012" rx="0.926" ry="4.343" transform="matrix(0.015701003375, 0.999876976012, -0.999876976009, 0.015701003373, 39.604652245715, -340.920784235389)"/>
  <ellipse style="stroke: rgb(0, 0, 0); stroke-width: 0px; fill: rgb(0, 153, 204); transform-origin: 275.655px 1275.84px;" cx="275.655" cy="1275.842" rx="1.121" ry="11.299" transform="matrix(0.944947004318, 0.327224016192, -0.327224016189, 0.944947004318, 295.849031603122, -271.905495441207)"/>
  <ellipse style="stroke: rgb(0, 0, 0); stroke-width: 0px; fill: rgb(0, 153, 204); transform-origin: 560.651px 1338.7px;" cx="560.648" cy="1338.714" rx="1.029" ry="7.825" transform="matrix(0.436796009546, 0.89956110716, -0.899561107158, 0.436796009542, 15.337918164115, -333.479078180184)"/>
  <ellipse style="stroke: rgb(0, 0, 0); stroke-width: 0px; fill: rgb(0, 153, 204); transform-origin: 560.651px 1338.7px;" cx="560.648" cy="1338.714" rx="0.954" ry="5.679" transform="matrix(0.776042938233, 0.630680918691, -0.630680918692, 0.776042938229, 17.934686947336, -337.14118283644)"/>
  <ellipse style="stroke: rgb(0, 0, 0); stroke-width: 0px; fill: rgb(0, 153, 204); transform-origin: 560.648px 1338.7px;" cx="560.648" cy="1338.714" rx="1.049" ry="5.73" transform="matrix(0.999876976011, -0.015701003371, 0.015701003373, 0.999876976012, 10.36992966029, -340.054500103735)"/>
  <ellipse style="stroke: rgb(0, 0, 0); stroke-width: 0px; fill: rgb(0, 153, 204); transform-origin: 532.794px 1346.98px;" cx="532.797" cy="1346.978" rx="1.121" ry="11.744" transform="matrix(0.873769104481, 0.486341059206, -0.486341059208, 0.87376910448, 27.934411832444, -336.003086897082)"/>
  <ellipse style="stroke: rgb(0, 0, 0); stroke-width: 0px; fill: rgb(0, 153, 204); transform-origin: 560.646px 1338.7px;" cx="560.648" cy="1338.714" rx="0.832" ry="4.048" transform="matrix(0.999876976004, -0.015701003369, 0.015701003369, 0.999876976008, 0.32704589453, -332.130945408018)"/>
  <ellipse style="stroke: rgb(0, 0, 0); stroke-width: 0px; fill: rgb(0, 153, 204); transform-origin: 560.641px 1338.7px;" cx="560.648" cy="1338.714" rx="1.005" ry="4.919" transform="matrix(0.586366951469, 0.810046017161, -0.810046017166, 0.586366951463, 3.263029121605, -328.602427889803)"/>
  <ellipse style="stroke: rgb(0, 0, 0); stroke-width: 0px; fill: rgb(0, 153, 204); transform-origin: 260.967px 1281.27px;" cx="260.971" cy="1281.275" rx="1.122" ry="19.293" transform="matrix(0.944947004318, 0.327224016189, -0.327224016189, 0.944947004318, 294.880807055239, -277.010769700183)"/>
  <ellipse style="stroke: rgb(0, 0, 0); stroke-width: 0px; fill: rgb(0, 153, 204); transform-origin: 521.664px 1340.01px;" cx="521.67" cy="1340.015" rx="0.977" ry="6.88" transform="matrix(0.776042938231, 0.63068091869, -0.630680918693, 0.776042938234, 41.79164064573, -349.83402441923)"/>
  <ellipse style="stroke: rgb(0, 0, 0); stroke-width: 0px; fill: rgb(0, 153, 204); transform-origin: 521.665px 1340.01px;" cx="521.67" cy="1340.015" rx="0.977" ry="6.673" transform="matrix(0.436797052619, 0.899560093879, -0.899560093879, 0.436797052622, 43.816289879016, -348.102346901362)"/>
  <ellipse style="stroke: rgb(0, 0, 0); stroke-width: 0px; fill: rgb(0, 153, 204); transform-origin: 519.064px 1345.08px;" cx="519.068" cy="1345.091" rx="1.122" ry="19.293" transform="matrix(0.961743056773, -0.273953050374, 0.273953050375, 0.961743056775, 27.536560672321, -341.757644486715)"/>
  <ellipse style="stroke: rgb(0, 0, 0); stroke-width: 0px; fill: rgb(0, 153, 204); transform-origin: 521.664px 1340.01px;" cx="521.67" cy="1340.015" rx="0.835" ry="4.707" transform="matrix(0.776042938226, 0.630680918696, -0.630680918692, 0.776042938231, 24.187026126627, -351.72416116457)"/>
  <ellipse style="stroke: rgb(0, 0, 0); stroke-width: 0px; fill: rgb(0, 153, 204); transform-origin: 521.666px 1340.01px;" cx="521.67" cy="1340.015" rx="0.737" ry="1.787" transform="matrix(-0.327223062512, 0.944947004313, -0.944947004338, -0.327223062514, 25.663217068561, -351.816859667477)"/>
  <ellipse style="stroke: rgb(0, 0, 0); stroke-width: 0px; fill: rgb(0, 153, 204); transform-origin: 256.538px 1274.83px;" cx="256.542" cy="1274.837" rx="1.122" ry="16.235" transform="matrix(0.944947004318, 0.327224016188, -0.32722401619, 0.944947004318, 297.231981095634, -278.105444318565)"/>
  <ellipse style="stroke: rgb(0, 0, 0); stroke-width: 0px; fill: rgb(0, 153, 204); transform-origin: 560.648px 1338.7px;" cx="560.648" cy="1338.714" rx="1.049" ry="5.73" transform="matrix(0.999876976013, -0.01570100337, 0.015701003373, 0.999876976014, -5.898759738587, -351.14898269398)"/>
  <ellipse style="stroke: rgb(0, 0, 0); stroke-width: 0px; fill: rgb(0, 153, 204); transform-origin: 506.961px 1346.39px;" cx="506.965" cy="1346.394" rx="1.122" ry="18.55" transform="matrix(0.755858004093, -0.654736101628, 0.654736101627, 0.755858004093, 33.493875435184, -339.802167290939)"/>
  <ellipse style="stroke: rgb(0, 0, 0); stroke-width: 0px; fill: rgb(0, 153, 204); transform-origin: 521.66px 1340.01px;" cx="521.67" cy="1340.015" rx="0.897" ry="4.778" transform="matrix(0.912832021714, 0.408335983754, -0.408335983753, 0.912832021713, 17.439290626188, -340.709874498298)"/>
  <ellipse style="stroke: rgb(0, 0, 0); stroke-width: 0px; fill: rgb(0, 153, 204); transform-origin: 521.66px 1340.01px;" cx="521.67" cy="1340.015" rx="0.881" ry="6.946" transform="matrix(0.981959998611, -0.189090028407, 0.189090028407, 0.98195999861, 15.039209341593, -342.535859369552)"/>
  <ellipse style="stroke: rgb(0, 0, 0); stroke-width: 0px; fill: rgb(0, 153, 204); transform-origin: 521.659px 1340.01px;" cx="521.67" cy="1340.015" rx="0.897" ry="4.778" transform="matrix(0.981959998611, -0.189090028404, 0.189090028404, 0.981959998609, 23.212231234221, -331.905959588053)"/>
  <ellipse style="stroke: rgb(0, 0, 0); stroke-width: 0px; fill: rgb(0, 153, 204); transform-origin: 506.961px 1346.39px;" cx="506.965" cy="1346.394" rx="1.131" ry="17.199" transform="matrix(0.560643911362, -0.828057050705, 0.828057050704, 0.560643911362, 30.439395506582, -333.108678344839)"/>
  <ellipse style="stroke: rgb(0, 0, 0); stroke-width: 0px; fill: rgb(0, 153, 204); transform-origin: 521.659px 1340.01px;" cx="521.67" cy="1340.015" rx="0.897" ry="4.185" transform="matrix(0.981959998609, -0.189090028408, 0.189090028408, 0.981959998612, 18.562099934941, -328.335250308237)"/>
  <ellipse style="stroke: rgb(0, 0, 0); stroke-width: 0px; fill: rgb(0, 153, 204); transform-origin: 521.661px 1340.01px;" cx="521.67" cy="1340.015" rx="0.767" ry="2.753" transform="matrix(0.32722306252, -0.944947004327, 0.944947004318, 0.327223062516, 16.451026114127, -329.491732327563)"/>
  <ellipse style="stroke: rgb(0, 0, 0); stroke-width: 0px; fill: rgb(0, 153, 204); transform-origin: 521.658px 1340.01px;" cx="521.67" cy="1340.015" rx="0.897" ry="3.728" transform="matrix(0.969871103767, 0.24362002313, -0.243620023132, 0.969871103766, 10.366621615519, -333.865283860588)"/>
  <ellipse style="stroke: rgb(0, 0, 0); stroke-width: 0px; fill: rgb(0, 153, 204); transform-origin: 521.66px 1340.01px;" cx="521.67" cy="1340.015" rx="0.897" ry="4.277" transform="matrix(0.934207022194, -0.356733113522, 0.356733113528, 0.934207022191, 8.876435542208, -334.97734803849)"/>
  <ellipse style="stroke: rgb(0, 0, 0); stroke-width: 0px; fill: rgb(0, 153, 204); transform-origin: 521.669px 1340.03px;" cx="521.67" cy="1340.015" rx="0.993" ry="7.816" transform="matrix(0.158164024353, -0.987413108349, 0.987413108347, 0.158164024353, 9.720560494113, -326.617440836423)"/>
  <ellipse style="stroke: rgb(0, 0, 0); stroke-width: 0px; fill: rgb(0, 153, 204); transform-origin: 521.662px 1340.01px;" cx="521.67" cy="1340.015" rx="0.967" ry="4.707" transform="matrix(0.837715148927, 0.54610705375, -0.546107053758, 0.837715148928, 26.451882436634, -343.610415751596)"/>
  <ellipse style="stroke: rgb(0, 0, 0); stroke-width: 0px; fill: rgb(0, 153, 204);" cx="398.143" cy="958.534" rx="1.757" ry="15.381" transform="matrix(1, 0, 0, 1, -1.4210854715202004e-14, -1.1368683772161603e-13)"/>
  <ellipse style="stroke: rgb(0, 0, 0); stroke-width: 0px; fill: rgb(0, 153, 204); transform-origin: 446.858px 1359.09px;" cx="446.858" cy="1359.094" rx="1.757" ry="14.291" transform="matrix(0.965926110744, 0.258819013834, -0.258819013834, 0.965926110745, -45.109111123901, -398.988507019187)"/>
  <ellipse style="stroke: rgb(0, 0, 0); stroke-width: 0px; fill: rgb(0, 153, 204); transform-origin: 446.858px 1359.09px;" cx="446.858" cy="1359.094" rx="1.757" ry="11.866" transform="matrix(0.866025090218, 0.500000000001, -0.5, 0.866025090218, -42.83826192696, -395.49123440602)"/>
  <ellipse style="stroke: rgb(0, 0, 0); stroke-width: 0px; fill: rgb(0, 153, 204); transform-origin: 446.858px 1359.09px;" cx="446.858" cy="1359.094" rx="1.757" ry="13.646" transform="matrix(-0.965926110744, 0.258819013832, 0.258819013834, 0.965926110745, -52.119849356486, -398.365421717991)"/>
  <ellipse style="stroke: rgb(0, 0, 0); stroke-width: 0px; fill: rgb(0, 153, 204); transform-origin: 446.858px 1359.09px;" cx="446.858" cy="1359.094" rx="1.757" ry="12.331" transform="matrix(-0.866025090218, 0.500000000001, 0.5, 0.866025090218, -54.793707106225, -395.896141638271)"/>
  <ellipse style="stroke: rgb(0, 0, 0); stroke-width: 0px; fill: rgb(0, 153, 204); transform-origin: 619.063px 1396.35px;" cx="619.063" cy="1396.35" rx="1.633" ry="22.623" transform="matrix(0.984808027744, -0.173648029567, 0.173648029566, 0.984808027744, 42.04784878488, -436.113383736794)"/>
  <ellipse style="stroke: rgb(0, 0, 0); stroke-width: 0px; fill: rgb(0, 153, 204); transform-origin: 619.063px 1396.35px;" cx="619.063" cy="1396.35" rx="3.129" ry="7.478" transform="matrix(0.984808027744, -0.173648029565, 0.173648029566, 0.984808027744, 37.348629964783, -462.500041845917)"/>
  <ellipse style="stroke: rgb(0, 0, 0); stroke-width: 0px; fill: rgb(0, 153, 204); transform-origin: 619.063px 1396.35px;" cx="619.063" cy="1396.35" rx="0.877" ry="7.288" transform="matrix(0.906307995319, 0.422618061308, -0.422618061304, 0.906307995322, 43.291504631694, -454.320669954992)"/>
  <ellipse style="stroke: rgb(0, 0, 0); stroke-width: 0px; fill: rgb(0, 153, 204); transform-origin: 619.063px 1396.35px;" cx="619.063" cy="1396.35" rx="2.201" ry="4.398" transform="matrix(0.906307995319, 0.422618061301, -0.422618061304, 0.906307995319, 46.595215618375, -461.441275521581)"/>
  <ellipse style="stroke: rgb(0, 0, 0); stroke-width: 0px; fill: rgb(0, 153, 204); transform-origin: 619.06px 1396.35px;" cx="619.063" cy="1396.35" rx="1.022" ry="8.151" transform="matrix(0.9396930933, 0.342019051313, -0.342019051313, 0.9396930933, 46.118683902734, -436.982613485933)"/>
  <ellipse style="stroke: rgb(0, 0, 0); stroke-width: 0px; fill: rgb(0, 153, 204); transform-origin: 619.06px 1396.35px;" cx="619.063" cy="1396.35" rx="2.566" ry="4.398" transform="matrix(0.965926110745, 0.258818000559, -0.258818000555, 0.965926110745, 48.91199846986, -445.402041719258)"/>
  <ellipse style="stroke: rgb(0, 0, 0); stroke-width: 0px; fill: rgb(0, 153, 204); transform-origin: 619.063px 1396.35px;" cx="619.063" cy="1396.35" rx="1.1" ry="9.724" transform="matrix(0.996195018292, 0.087156012651, -0.087156012653, 0.996195018294, 51.161132583053, -424.88873221661)"/>
  <ellipse style="stroke: rgb(0, 0, 0); stroke-width: 0px; fill: rgb(0, 153, 204); transform-origin: 619.062px 1396.35px;" cx="619.063" cy="1396.35" rx="1.1" ry="5.333" transform="matrix(0.866025090219, 0.500000000009, -0.500000000001, 0.866025090221, 54.297213547476, -437.345096430516)"/>
  <ellipse style="stroke: rgb(0, 0, 0); stroke-width: 0px; fill: rgb(0, 153, 204); transform-origin: 619.06px 1396.35px;" cx="619.063" cy="1396.35" rx="2.566" ry="4.541" transform="matrix(0.500001013279, 0.866025090214, -0.866025090217, 0.500001013279, 60.222767209987, -443.194115660685)"/>
  <ellipse style="stroke: rgb(0, 0, 0); stroke-width: 0px; fill: rgb(0, 153, 204); transform-origin: 619.059px 1396.35px;" cx="619.063" cy="1396.35" rx="0.885" ry="7.037" transform="matrix(0.819152116776, 0.573576986787, -0.573576986789, 0.819152116779, 55.55022230453, -428.308042163195)"/>
  <ellipse style="stroke: rgb(0, 0, 0); stroke-width: 0px; fill: rgb(0, 153, 204); transform-origin: 619.061px 1396.35px;" cx="619.063" cy="1396.35" rx="2.566" ry="4.541" transform="matrix(0.642787992954, 0.766043901442, -0.766043901443, 0.642787992955, 61.273503482792, -434.719975098969)"/>
  <ellipse style="stroke: rgb(0, 0, 0); stroke-width: 0px; fill: rgb(0, 153, 204); transform-origin: 619.06px 1396.35px;" cx="619.063" cy="1396.35" rx="1.022" ry="7.288" transform="matrix(0.866026103496, 0.499999016519, -0.499999016523, 0.866026103492, 40.07712448854, -425.551199354125)"/>
  <ellipse style="stroke: rgb(0, 0, 0); stroke-width: 0px; fill: rgb(0, 153, 204); transform-origin: 619.06px 1396.35px;" cx="619.063" cy="1396.35" rx="0.97" ry="5.314" transform="matrix(0.999999999999, -9.99997e-7, 0.000001000001, 0.999999999998, 37.065266378178, -416.12736476252)"/>
  <ellipse style="stroke: rgb(0, 0, 0); stroke-width: 0px; fill: rgb(0, 153, 204); transform-origin: 619.061px 1396.35px;" cx="619.063" cy="1396.35" rx="0.351" ry="5.314" transform="matrix(0.965926110745, 0.25881800056, -0.258818000553, 0.965926110735, 37.813940486093, -419.956277172244)"/>
  <ellipse style="stroke: rgb(0, 0, 0); stroke-width: 0px; fill: rgb(0, 153, 204); transform-origin: 619.061px 1396.35px;" cx="619.063" cy="1396.35" rx="0.351" ry="5.314" transform="matrix(0.96592611074, 0.258818000571, -0.258818000554, 0.965926110739, 52.815100381016, -433.036965856655)"/>
  <ellipse style="stroke: rgb(0, 0, 0); stroke-width: 0px; fill: rgb(0, 153, 204); transform-origin: 619.059px 1396.35px;" cx="619.063" cy="1396.35" rx="0.97" ry="13.47" transform="matrix(0.984808027746, -0.173649027943, 0.173649027941, 0.984808027742, 32.296496307641, -423.039541098912)"/>
  <ellipse style="stroke: rgb(0, 0, 0); stroke-width: 0px; fill: rgb(0, 153, 204); transform-origin: 619.06px 1396.35px;" cx="619.063" cy="1396.35" rx="0.867" ry="7.585" transform="matrix(0.965926110747, 0.258818000562, -0.258818000556, 0.965926110744, 35.155528538454, -426.540957454255)"/>
  <ellipse style="stroke: rgb(0, 0, 0); stroke-width: 0px; fill: rgb(0, 153, 204); transform-origin: 619.06px 1396.35px;" cx="619.063" cy="1396.35" rx="2.566" ry="4.541" transform="matrix(0.939692139623, -0.342021018267, 0.342021018266, 0.939692139626, 28.31414173376, -438.035536601502)"/>
  <ellipse style="stroke: rgb(0, 0, 0); stroke-width: 0px; fill: rgb(0, 153, 204); transform-origin: 619.059px 1396.35px;" cx="619.063" cy="1396.35" rx="0.875" ry="7.585" transform="matrix(0.965926110745, -0.258819997308, 0.258819997312, 0.965926110745, 35.160281300687, -440.005938990161)"/>
  <ellipse style="stroke: rgb(0, 0, 0); stroke-width: 0px; fill: rgb(0, 153, 204); transform-origin: 619.061px 1396.35px;" cx="619.063" cy="1396.35" rx="2.352" ry="4.541" transform="matrix(0.819152116773, -0.57357698679, 0.57357698679, 0.819152116777, 31.894533196007, -446.702114855436)"/>
  <ellipse style="stroke: rgb(0, 0, 0); stroke-width: 0px; fill: rgb(0, 153, 204); transform-origin: 619.061px 1396.35px;" cx="619.063" cy="1396.35" rx="0.337" ry="4.905" transform="matrix(1.000000000001, -9.99996e-7, 0.000001000003, 1.000000000013, 36.29964136254, -433.759567194918)"/>
</svg>