<?xml version="1.0" encoding="utf-8"?>
<svg viewBox="467.9282 948.5198 44.1538 63.0195" xmlns="http://www.w3.org/2000/svg">
  <ellipse style="stroke: rgb(0, 0, 0); stroke-width: 0px; fill: rgb(0, 153, 204); transform-origin: 475.505px 1370.05px;" cx="475.505" cy="1370.051" rx="2.945" ry="8.285" transform="matrix(0.965926110745, 0.258819013835, -0.258819013834, 0.965926110745, 17.818752306361, -367.398260289796)"/>
  <ellipse style="stroke: rgb(0, 0, 0); stroke-width: 0px; fill: rgb(0, 153, 204); transform-origin: 475.505px 1370.05px;" cx="475.505" cy="1370.051" rx="2.945" ry="8.285" transform="matrix(0.965926110744, -0.258819013836, 0.258819013834, 0.965926110745, 17.820914466642, -377.357130679278)"/>
  <ellipse style="stroke: rgb(0, 0, 0); stroke-width: 0px; fill: rgb(0, 153, 204); transform-origin: 475.505px 1370.05px;" cx="475.505" cy="1370.051" rx="2.945" ry="8.285" transform="matrix(0.965926110745, 0.258819013835, -0.258819013834, 0.965926110745, 17.807010611162, -387.292659109145)"/>
  <ellipse style="stroke: rgb(0, 0, 0); stroke-width: 0px; fill: rgb(0, 153, 204); transform-origin: 475.505px 1370.05px;" cx="475.505" cy="1370.051" rx="2.945" ry="8.285" transform="matrix(0.965926110744, -0.258819013834, 0.258819013834, 0.965926110745, 17.808707435731, -397.251479120509)"/>
  <ellipse style="stroke: rgb(0, 0, 0); stroke-width: 0px; fill: rgb(0, 153, 204); transform-origin: 475.505px 1370.05px;" cx="475.505" cy="1370.051" rx="1.816" ry="7.942" transform="matrix(0.965926110744, 0.258819013837, -0.258819013834, 0.965926110744, 17.037784525495, -407.672481189576)"/>
  <ellipse style="stroke: rgb(0, 0, 0); stroke-width: 0px; fill: rgb(0, 153, 204); transform-origin: 493.226px 965.597px;" cx="493.226" cy="965.588" rx="0.719" ry="4.38"/>
  <ellipse style="stroke: rgb(0, 0, 0); stroke-width: 0px; fill: rgb(0, 153, 204); transform-origin: 492.028px 978.928px;" cx="492.028" cy="978.923" rx="0.719" ry="4.38"/>
  <ellipse style="stroke: rgb(0, 0, 0); stroke-width: 0px; fill: rgb(0, 153, 204); transform-origin: 494.346px 987.62px;" cx="494.346" cy="987.615" rx="0.719" ry="4.38"/>
  <ellipse style="stroke: rgb(0, 0, 0); stroke-width: 0px; fill: rgb(0, 153, 204); transform-origin: 492.165px 998.157px;" cx="492.165" cy="998.148" rx="0.719" ry="4.38"/>
  <ellipse style="stroke: rgb(0, 0, 0); stroke-width: 0px; fill: rgb(0, 153, 204); transform-origin: 475.505px 1370.05px;" cx="475.505" cy="1370.051" rx="3.246" ry="9.131" transform="matrix(-0.965926110744, 0.258819013835, 0.258819013834, 0.965926110744, 7.856243507489, -368.171679244784)"/>
  <ellipse style="stroke: rgb(0, 0, 0); stroke-width: 0px; fill: rgb(0, 153, 204); transform-origin: 475.505px 1370.05px;" cx="475.505" cy="1370.051" rx="3.246" ry="9.131" transform="matrix(-0.965926110744, -0.258819013832, -0.258819013834, 0.965926110744, 7.854239428035, -379.147467046299)"/>
  <ellipse style="stroke: rgb(0, 0, 0); stroke-width: 0px; fill: rgb(0, 153, 204); transform-origin: 475.505px 1370.05px;" cx="475.505" cy="1370.051" rx="3.246" ry="9.131" transform="matrix(-0.965926110744, 0.258819013834, 0.258819013834, 0.965926110744, 7.869732277262, -390.097399785585)"/>
  <ellipse style="stroke: rgb(0, 0, 0); stroke-width: 0px; fill: rgb(0, 153, 204); transform-origin: 475.505px 1370.05px;" cx="475.505" cy="1370.051" rx="3.246" ry="9.131" transform="matrix(-0.965926110746, -0.258819013833, -0.258819013834, 0.965926110744, 7.867667162792, -401.073157069367)"/>
  <ellipse style="stroke: rgb(0, 0, 0); stroke-width: 0px; fill: rgb(0, 153, 204); transform-origin: 475.505px 1370.05px;" cx="475.505" cy="1370.051" rx="2.002" ry="8.753" transform="matrix(-0.965926110745, 0.258819013835, 0.258819013834, 0.965926110745, 8.717449575275, -412.558215551945)"/>
  <ellipse style="stroke: rgb(0, 0, 0); stroke-width: 0px; fill: rgb(0, 153, 204); transform-origin: -483.468px 961.042px;" cx="-483.47" cy="961.027" rx="0.792" ry="4.828" transform="matrix(-1.000000000008, 0, 1e-12, 1, 966.93652343317, 0)"/>
  <ellipse style="stroke: rgb(0, 0, 0); stroke-width: 0px; fill: rgb(0, 153, 204); transform-origin: -484.789px 975.727px;" cx="-484.789" cy="975.724" rx="0.792" ry="4.828" transform="matrix(-0.999999999995, 0, -4e-12, 1, 969.577429204888, 0)"/>
  <ellipse style="stroke: rgb(0, 0, 0); stroke-width: 0px; fill: rgb(0, 153, 204); transform-origin: -482.235px 985.318px;" cx="-482.236" cy="985.303" rx="0.792" ry="4.828" transform="matrix(-1, 0, 4e-12, 1, 964.469494624859, 0)"/>
  <ellipse style="stroke: rgb(0, 0, 0); stroke-width: 0px; fill: rgb(0, 153, 204); transform-origin: -484.639px 996.922px;" cx="-484.639" cy="996.912" rx="0.792" ry="4.828" transform="matrix(-1.000000000005, 0, -6e-12, 1, 969.277636722211, 0)"/>
  <ellipse style="stroke: rgb(0, 0, 0); stroke-width: 0px; fill: rgb(0, 153, 204); transform-origin: 476.871px 1005.85px;" cx="476.869" cy="1005.861" rx="1.825" ry="5.133"/>
  <ellipse style="stroke: rgb(0, 0, 0); stroke-width: 0px; fill: rgb(0, 153, 204); transform-origin: 459.157px 1367.83px;" cx="459.156" cy="1367.829" rx="1.825" ry="5.133" transform="matrix(0.866025090214, -0.500000000001, 0.5, 0.866025090219, 16.118748927111, -367.93053058386)"/>
  <ellipse style="stroke: rgb(0, 0, 0); stroke-width: 0px; fill: rgb(0, 153, 204); transform-origin: 473.672px 993.961px;" cx="473.672" cy="993.957" rx="1.825" ry="5.133"/>
  <ellipse style="stroke: rgb(0, 0, 0); stroke-width: 0px; fill: rgb(0, 153, 204); transform-origin: 461.809px 1357.89px;" cx="461.811" cy="1357.895" rx="1.825" ry="5.133" transform="matrix(0.86602509022, -0.500000000001, 0.5, 0.866025090217, 10.261981531462, -369.898658151615)"/>
  <ellipse style="stroke: rgb(0, 0, 0); stroke-width: 0px; fill: rgb(0, 153, 204); transform-origin: 469.944px 981.865px;" cx="469.943" cy="981.883" rx="1.126" ry="4.921"/>
  <ellipse style="stroke: rgb(0, 0, 0); stroke-width: 0px; fill: rgb(0, 153, 204); transform-origin: 460.423px 1353.99px;" cx="460.424" cy="1353.991" rx="0.446" ry="2.714" transform="matrix(0.965926110743, -0.258819013823, 0.258819013827, 0.965926110743, 10.443427105952, -370.294714351756)"/>
  <ellipse style="stroke: rgb(0, 0, 0); stroke-width: 0px; fill: rgb(0, 153, 204); transform-origin: 459.804px 1360.88px;" cx="459.805" cy="1360.884" rx="0.446" ry="2.714" transform="matrix(0.965926110711, -0.25881901384, 0.258819013837, 0.965926110731, 12.483473533109, -369.013709829655)"/>
  <ellipse style="stroke: rgb(0, 0, 0); stroke-width: 0px; fill: rgb(0, 153, 204); transform-origin: 461.002px 1365.38px;" cx="461.003" cy="1365.376" rx="0.446" ry="2.714" transform="matrix(0.965926110765, -0.258819013813, 0.25881901383, 0.965926110745, 14.068946480108, -368.676104789993)"/>
  <ellipse style="stroke: rgb(0, 0, 0); stroke-width: 0px; fill: rgb(0, 153, 204); transform-origin: 459.875px 1370.82px;" cx="459.876" cy="1370.82" rx="0.446" ry="2.714" transform="matrix(0.965926110735, -0.258819013842, 0.258819013823, 0.965926110735, 15.578847204929, -367.466291065909)"/>
  <ellipse style="stroke: rgb(0, 0, 0); stroke-width: 0px; fill: rgb(0, 153, 204); transform-origin: -500.033px 1003.73px;" cx="-500.034" cy="1003.723" rx="2.46" ry="6.918" transform="matrix(-1.000000000001, 0, -1e-12, 1, 1000.065270996192, 0)"/>
  <ellipse style="stroke: rgb(0, 0, 0); stroke-width: 0px; fill: rgb(0, 153, 204); transform-origin: -484.694px 1367.75px;" cx="-484.694" cy="1367.751" rx="2.46" ry="6.918" transform="matrix(-0.866025090218, -0.500000000002, -0.5, 0.866025090219, 986.87794294173, -372.060977001576)"/>
  <ellipse style="stroke: rgb(0, 0, 0); stroke-width: 0px; fill: rgb(0, 153, 204); transform-origin: -504.342px 987.667px;" cx="-504.343" cy="987.678" rx="2.46" ry="6.918" transform="matrix(-1.000000000002, 0, 0, 1, 1008.68454589748, 0)"/>
  <ellipse style="stroke: rgb(0, 0, 0); stroke-width: 0px; fill: rgb(0, 153, 204); transform-origin: -481.115px 1354.37px;" cx="-481.115" cy="1354.362" rx="2.46" ry="6.918" transform="matrix(-0.866025090217, -0.499999999997, -0.5, 0.866025090217, 987.603477299403, -374.719014649128)"/>
  <ellipse style="stroke: rgb(0, 0, 0); stroke-width: 0px; fill: rgb(0, 153, 204); transform-origin: -509.367px 971.4px;" cx="-509.368" cy="971.406" rx="1.516" ry="6.632" transform="matrix(-1.000000000005, 0, 1e-12, 1, 1018.734399410585, 0)"/>
  <ellipse style="stroke: rgb(0, 0, 0); stroke-width: 0px; fill: rgb(0, 153, 204); transform-origin: 505.922px 1345.2px;" cx="505.923" cy="1345.198" rx="0.601" ry="3.658" transform="matrix(-0.965926110756, -0.258819013839, -0.258819013836, 0.965926110743, 2.200119162592, -371.346399422257)"/>
  <ellipse style="stroke: rgb(0, 0, 0); stroke-width: 0px; fill: rgb(0, 153, 204); transform-origin: 504.923px 1356.32px;" cx="504.924" cy="1356.322" rx="0.601" ry="3.658" transform="matrix(-0.965926110748, -0.258819013856, -0.258819013837, 0.965926110749, 1.283377864279, -371.454528688478)"/>
  <ellipse style="stroke: rgb(0, 0, 0); stroke-width: 0px; fill: rgb(0, 153, 204); transform-origin: 506.856px 1363.58px;" cx="506.857" cy="1363.572" rx="0.601" ry="3.658" transform="matrix(-0.965926110739, -0.258819013841, -0.258819013838, 0.965926110742, -4.4006360542, -372.194996163354)"/>
  <ellipse style="stroke: rgb(0, 0, 0); stroke-width: 0px; fill: rgb(0, 153, 204); transform-origin: 505.037px 1372.36px;" cx="505.038" cy="1372.358" rx="0.601" ry="3.658" transform="matrix(-0.96592611075, -0.258819013841, -0.258819013833, 0.965926110753, -3.096994509615, -372.013081753839)"/>
</svg>