<?xml version="1.0" encoding="utf-8"?>
<svg viewBox="417.1975 837.0215 48.2426 138.4605" xmlns="http://www.w3.org/2000/svg">
  <ellipse style="stroke: rgb(0, 0, 0); stroke-width: 0px; fill: rgb(0, 102, 153);" cx="441.39" cy="878.321" rx="13.429" ry="41.279" transform="matrix(1, 0, 0, 1, 1.4210854715202004e-14, 0)"/>
  <ellipse style="stroke: rgb(0, 0, 0); stroke-width: 0px; fill: rgb(0, 102, 153);" cx="441.404" cy="887.958" rx="16.923" ry="31.232" transform="matrix(1, 0, 0, 1, 1.4210854715202004e-14, 0)"/>
  <ellipse style="stroke: rgb(0, 0, 0); stroke-width: 0px; fill: rgb(0, 102, 153);" cx="441.379" cy="854.559" rx="16.923" ry="12.084" transform="matrix(1, 0, 0, 1, 1.4210854715202004e-14, 0)"/>
  <ellipse style="stroke: rgb(0, 0, 0); stroke-width: 0px; fill: rgb(0, 102, 153); transform-origin: 369.784px 1131.05px;" cx="369.784" cy="1131.047" rx="1.048" ry="9.426" transform="matrix(0.707107007502, 0.707107007503, -0.707107007503, 0.707107007502, 62.819809046535, -286.445829745632)"/>
  <ellipse style="stroke: rgb(0, 0, 0); stroke-width: 0px; fill: rgb(0, 102, 153); transform-origin: 369.784px 1131.05px;" cx="369.784" cy="1131.047" rx="1.048" ry="9.426" transform="matrix(0.707107007502, -0.707107007502, 0.707107007502, 0.707107007503, 80.274248320164, -286.620152849371)"/>
  <ellipse style="stroke: rgb(0, 0, 0); stroke-width: 0px; fill: rgb(0, 102, 153);" cx="441.379" cy="915.095" rx="12.431" ry="4.955" transform="matrix(1, 0, 0, 1, 1.4210854715202004e-14, 0)"/>
  <ellipse style="stroke: rgb(0, 0, 0); stroke-width: 0px; fill: rgb(0, 102, 153); transform-origin: 438.967px 939.277px;" cx="438.967" cy="939.277" rx="2.572" ry="36.203"/>
  <ellipse style="stroke: rgb(0, 0, 0); stroke-width: 0px; fill: rgb(0, 102, 153); transform-origin: 331.425px 1251.04px;" cx="331.426" cy="1251.04" rx="2.572" ry="36.203" transform="matrix(0.984808027744, 0.173648029566, -0.173648029566, 0.984808027744, 105.595675348151, -314.987555807825)"/>
  <ellipse style="stroke: rgb(0, 0, 0); stroke-width: 0px; fill: rgb(0, 102, 153); transform-origin: 331.425px 1251.04px;" cx="331.426" cy="1251.04" rx="2.572" ry="36.203" transform="matrix(0.9396930933, 0.342020004988, -0.342020004988, 0.9396930933, 100.570651303599, -317.733825848338)"/>
  <ellipse style="stroke: rgb(0, 0, 0); stroke-width: 0px; fill: rgb(0, 102, 153); transform-origin: 331.425px 1251.04px;" cx="331.426" cy="1251.04" rx="2.572" ry="36.203" transform="matrix(0.984808027744, 0.173648029566, -0.173648029566, 0.984808027744, 100.592898174042, -313.074683464729)"/>
  <ellipse style="stroke: rgb(0, 0, 0); stroke-width: 0px; fill: rgb(0, 102, 153); transform-origin: -443.661px 939.274px;" cx="-443.662" cy="939.279" rx="2.572" ry="36.203" transform="matrix(-1, 0, 0, 1, 887.322741698979, 0)"/>
  <ellipse style="stroke: rgb(0, 0, 0); stroke-width: 0px; fill: rgb(0, 102, 153); transform-origin: 331.425px 1251.04px;" cx="331.426" cy="1251.04" rx="2.572" ry="36.203" transform="matrix(-0.984808027744, 0.173648029566, 0.173648029566, 0.984808027744, 114.189097789208, -314.984773408846)"/>
  <ellipse style="stroke: rgb(0, 0, 0); stroke-width: 0px; fill: rgb(0, 102, 153); transform-origin: 331.425px 1251.04px;" cx="331.426" cy="1251.04" rx="2.572" ry="36.203" transform="matrix(-0.9396930933, 0.342020004987, 0.342020004988, 0.9396930933, 119.217079734819, -317.730662457378)"/>
  <ellipse style="stroke: rgb(0, 0, 0); stroke-width: 0px; fill: rgb(0, 102, 153); transform-origin: 331.425px 1251.04px;" cx="331.426" cy="1251.04" rx="2.572" ry="36.203" transform="matrix(-0.984808027744, 0.173648029565, 0.173648029566, 0.984808027744, 119.192393762203, -313.071931583255)"/>
</svg>