<?xml version="1.0" encoding="utf-8"?>
<svg viewBox="360 720 360.045 196.974" xmlns="http://www.w3.org/2000/svg" xmlns:bx="https://boxy-svg.com">
  <path d="M 359.206 -866.974 L 459.412 -720 L 259 -720 L 359.206 -866.974 Z" style="stroke-width: 0px; stroke: rgb(0, 0, 0); fill: rgb(0, 153, 204);" transform="matrix(1, 0, 0, -1, -2.842170943040401e-14, -5.684341886080802e-14)" bx:shape="triangle 259 -866.974 200.412 146.974 0.5 0 1@ec25a1e7"/>
  <path d="M 414.854 -826.353 L 505.517 -748.784 L 324.191 -748.784 L 414.854 -826.353 Z" style="stroke: rgb(0, 0, 0); stroke-width: 0px; fill: rgb(0, 153, 204);" transform="matrix(1, 0, 0, -1, -2.842170943040401e-14, -5.684341886080802e-14)" bx:shape="triangle 324.191 -826.353 181.326 77.569 0.5 0 1@1fe66f31"/>
  <path d="M 472.59 -801.628 L 603.812 -720.001 L 341.367 -720.001 L 472.59 -801.628 Z" style="stroke: rgb(0, 0, 0); stroke-width: 0px; fill: rgb(0, 153, 204);" transform="matrix(1, 0, 0, -1, -2.842170943040401e-14, -5.684341886080802e-14)" bx:shape="triangle 341.367 -801.628 262.445 81.627 0.5 0 1@991f17f6"/>
  <path d="M 681.304 -834.368 L 776.738 -746.512 L 585.87 -746.512 L 681.304 -834.368 Z" style="stroke: rgb(0, 0, 0); stroke-width: 0px; fill: rgb(0, 153, 204);" transform="matrix(1, 0, 0, -1, -2.842170943040401e-14, -5.684341886080802e-14)" bx:shape="triangle 585.87 -834.368 190.868 87.856 0.5 0 1@4c80373a"/>
  <path d="M 719.768 -865.864 L 808.045 -720 L 631.491 -720 L 719.768 -865.864 Z" style="stroke: rgb(0, 0, 0); stroke-width: 0px; fill: rgb(0, 153, 204);" transform="matrix(1, 0, 0, -1, -2.842170943040401e-14, -5.684341886080802e-14)" bx:shape="triangle 631.491 -865.864 176.554 145.864 0.5 0 1@5aefa7f4"/>
  <path d="M 585.682 -796.238 L 743.149 -720.001 L 428.215 -720.001 L 585.682 -796.238 Z" style="stroke: rgb(0, 0, 0); stroke-width: 0px; fill: rgb(0, 153, 204);" transform="matrix(1, 0, 0, -1, -2.842170943040401e-14, -5.684341886080802e-14)" bx:shape="triangle 428.215 -796.238 314.934 76.237 0.5 0 1@c399fc82"/>
  <path d="M 531.283 -782.964 L 703.065 -746.984 L 359.5 -746.984 L 531.283 -782.964 Z" style="stroke: rgb(0, 0, 0); stroke-width: 0px; fill: rgb(0, 153, 204);" transform="matrix(1, 0, 0, -1, -2.842170943040401e-14, -5.684341886080802e-14)" bx:shape="triangle 359.5 -782.964 343.565 35.98 0.5 0 1@36b1e982"/>
  <path d="M 625.29 -810.705 L 720.724 -738.613 L 529.856 -738.613 L 625.29 -810.705 Z" style="stroke: rgb(0, 0, 0); stroke-width: 0px; fill: rgb(0, 153, 204);" transform="matrix(1, 0, 0, -1, -2.842170943040401e-14, -5.684341886080802e-14)" bx:shape="triangle 529.856 -810.705 190.868 72.092 0.5 0 1@55ea3e2d"/>
</svg>