<?xml version="1.0" encoding="utf-8"?>
<svg viewBox="360 720 360 360.558" xmlns="http://www.w3.org/2000/svg">
  <rect y="720" width="360" height="360" style="stroke: rgb(0, 0, 0); stroke-width: 0px; fill: rgb(0, 153, 204); fill-opacity: 0.5;" x="360" transform="matrix(1, 0, 0, 1, 1.7763568394002505e-15, 0)"/>
  <path d="M -719.82 933.584 L -619.614 1080.558 L -820.026 1080.558 L -719.82 933.584 Z" style="stroke-width: 0px; stroke: rgb(0, 0, 0); fill: rgb(0, 153, 204);" transform="matrix(-1, 0, 0, 1, 1.7763568394002505e-15, 0)"/>
  <path d="M -664.172 974.206 L -573.509 1051.775 L -754.835 1051.775 L -664.172 974.206 Z" style="stroke: rgb(0, 0, 0); stroke-width: 0px; fill: rgb(0, 153, 204);" transform="matrix(-1, 0, 0, 1, 1.7763568394002505e-15, 0)"/>
  <path d="M -606.435 998.931 L -475.212 1080.558 L -737.657 1080.558 L -606.435 998.931 Z" style="stroke: rgb(0, 0, 0); stroke-width: 0px; fill: rgb(0, 153, 204);" transform="matrix(-1, 0, 0, 1, 1.7763568394002505e-15, 0)"/>
  <path d="M -397.722 966.19 L -302.288 1054.046 L -493.156 1054.046 L -397.722 966.19 Z" style="stroke: rgb(0, 0, 0); stroke-width: 0px; fill: rgb(0, 153, 204);" transform="matrix(-1, 0, 0, 1, 1.7763568394002505e-15, 0)"/>
  <path d="M -359.258 934.694 L -270.981 1080.558 L -447.535 1080.558 L -359.258 934.694 Z" style="stroke: rgb(0, 0, 0); stroke-width: 0px; fill: rgb(0, 153, 204);" transform="matrix(-1, 0, 0, 1, 1.7763568394002505e-15, 0)"/>
  <path d="M -493.344 1004.321 L -335.877 1080.558 L -650.811 1080.558 L -493.344 1004.321 Z" style="stroke: rgb(0, 0, 0); stroke-width: 0px; fill: rgb(0, 153, 204);" transform="matrix(-1, 0, 0, 1, 1.7763568394002505e-15, 0)"/>
  <path d="M -547.741 1017.594 L -375.959 1053.574 L -719.524 1053.574 L -547.741 1017.594 Z" style="stroke: rgb(0, 0, 0); stroke-width: 0px; fill: rgb(0, 153, 204);" transform="matrix(-1, 0, 0, 1, 1.7763568394002505e-15, 0)"/>
  <path d="M -453.736 989.853 L -358.302 1061.945 L -549.17 1061.945 L -453.736 989.853 Z" style="stroke: rgb(0, 0, 0); stroke-width: 0px; fill: rgb(0, 153, 204);" transform="matrix(-1, 0, 0, 1, 1.7763568394002505e-15, 0)"/>
</svg>