<?xml version="1.0" encoding="utf-8"?>
<svg viewBox="360 720 360 235" xmlns="http://www.w3.org/2000/svg">
  <path d="M 359.206 -866.974 L 459.412 -720 L 259 -720 L 359.206 -866.974 Z" style="stroke-width: 0px; stroke: rgb(0, 0, 0); fill: rgb(0, 153, 204);" transform="matrix(1.0000000000000002, 0, 0, -1.0000000000000002, 1.4210854715202004e-14, -1.1368683772161603e-13)"/>
  <path d="M 414.854 -826.353 L 505.517 -748.784 L 324.191 -748.784 L 414.854 -826.353 Z" style="stroke: rgb(0, 0, 0); stroke-width: 0px; fill: rgb(0, 153, 204);" transform="matrix(1.0000000000000002, 0, 0, -1.0000000000000002, 1.4210854715202004e-14, -1.1368683772161603e-13)"/>
  <path d="M 472.59 -801.628 L 603.812 -720.001 L 341.367 -720.001 L 472.59 -801.628 Z" style="stroke: rgb(0, 0, 0); stroke-width: 0px; fill: rgb(0, 153, 204);" transform="matrix(1.0000000000000002, 0, 0, -1.0000000000000002, 1.4210854715202004e-14, -1.1368683772161603e-13)"/>
  <path d="M 681.304 -834.368 L 776.738 -746.512 L 585.87 -746.512 L 681.304 -834.368 Z" style="stroke: rgb(0, 0, 0); stroke-width: 0px; fill: rgb(0, 153, 204);" transform="matrix(1.0000000000000002, 0, 0, -1.0000000000000002, 1.4210854715202004e-14, -1.1368683772161603e-13)"/>
  <path d="M 719.768 -865.864 L 808.045 -720 L 631.491 -720 L 719.768 -865.864 Z" style="stroke: rgb(0, 0, 0); stroke-width: 0px; fill: rgb(0, 153, 204);" transform="matrix(1.0000000000000002, 0, 0, -1.0000000000000002, 1.4210854715202004e-14, -1.1368683772161603e-13)"/>
  <path d="M 585.682 -796.238 L 743.149 -720.001 L 428.215 -720.001 L 585.682 -796.238 Z" style="stroke: rgb(0, 0, 0); stroke-width: 0px; fill: rgb(0, 153, 204);" transform="matrix(1.0000000000000002, 0, 0, -1.0000000000000002, 1.4210854715202004e-14, -1.1368683772161603e-13)"/>
  <path d="M 531.283 -782.964 L 703.065 -746.984 L 359.5 -746.984 L 531.283 -782.964 Z" style="stroke: rgb(0, 0, 0); stroke-width: 0px; fill: rgb(0, 153, 204);" transform="matrix(1.0000000000000002, 0, 0, -1.0000000000000002, 1.4210854715202004e-14, -1.1368683772161603e-13)"/>
  <path d="M 625.29 -810.705 L 720.724 -738.613 L 529.856 -738.613 L 625.29 -810.705 Z" style="stroke: rgb(0, 0, 0); stroke-width: 0px; fill: rgb(0, 153, 204);" transform="matrix(1.0000000000000002, 0, 0, -1.0000000000000002, 1.4210854715202004e-14, -1.1368683772161603e-13)"/>
  <rect y="845" width="11" height="110" style="stroke: rgb(0, 0, 0); stroke-width: 0px; fill: rgb(0, 153, 204);" x="359" transform="matrix(1.0000000000000002, 0, 0, 1.0000000000000002, 1.4210854715202004e-14, -1.1368683772161603e-13)"/>
  <rect y="845" width="10" height="110" style="stroke: rgb(0, 0, 0); stroke-width: 0px; fill: rgb(0, 153, 204);" x="710" transform="matrix(1.0000000000000002, 0, 0, 1.0000000000000002, 1.4210854715202004e-14, -1.1368683772161603e-13)"/>
</svg>