<?xml version="1.0" encoding="utf-8"?>
<svg viewBox="28.5357 177.39 37.3769 67.5324" xmlns="http://www.w3.org/2000/svg">
  <ellipse style="stroke: rgb(0, 0, 0); stroke-width: 0px; fill: rgb(153, 51, 0);" cx="53.587" cy="181.488" rx="6.831" ry="3.713" transform="matrix(0.9999999999999999, 0, 0, 0.9999999999999999, 0, 0)"/>
  <ellipse style="stroke: rgb(0, 0, 0); stroke-width: 0px; fill: rgb(153, 51, 0);" cx="49.204" cy="179.276" rx="1.999" ry="1.886" transform="matrix(0.9999999999999999, 0, 0, 0.9999999999999999, 0, 0)"/>
  <ellipse style="stroke: rgb(0, 0, 0); stroke-width: 0px; fill: rgb(153, 51, 0); transform-origin: 122.412px 133.872px;" cx="122.412" cy="133.872" rx="3.986" ry="1.901" transform="matrix(0.984808027744, -0.173648029566, 0.173648029566, 0.984808027744, -64.218999444734, 47.693346224731)"/>
  <ellipse style="stroke: rgb(0, 0, 0); stroke-width: 0px; fill: rgb(153, 51, 0);" cx="51.687" cy="185.797" rx="4.427" ry="7.684" transform="matrix(0.9999999999999999, 0, 0, 0.9999999999999999, 0, 0)"/>
  <ellipse style="stroke: rgb(0, 0, 0); stroke-width: 0px; fill: rgb(153, 51, 0);" cx="53.061" cy="196.716" rx="5.556" ry="9.989" transform="matrix(0.9999999999999999, 0, 0, 0.9999999999999999, 0, 0)"/>
  <ellipse style="stroke: rgb(0, 0, 0); stroke-width: 0px; fill: rgb(153, 51, 0);" cx="54.826" cy="207.492" rx="6.291" ry="12.882" transform="matrix(0.9999999999999999, 0, 0, 0.9999999999999999, 0, 0)"/>
  <ellipse style="stroke: rgb(0, 0, 0); stroke-width: 0px; fill: rgb(153, 51, 0);" cx="53.797" cy="218.383" rx="5.997" ry="10.921" transform="matrix(0.9999999999999999, 0, 0, 0.9999999999999999, 0, 0)"/>
  <ellipse style="stroke: rgb(0, 0, 0); stroke-width: 0px; fill: rgb(153, 51, 0);" cx="54.826" cy="225.1" rx="4.575" ry="7.047" transform="matrix(0.9999999999999999, 0, 0, 0.9999999999999999, 0, 0)"/>
  <ellipse style="stroke: rgb(0, 0, 0); stroke-width: 0px; fill: rgb(153, 51, 0);" cx="63.358" cy="206.909" rx="1.78" ry="5.282" transform="matrix(0.9999999999999999, 0, 0, 0.9999999999999999, 0, 0)"/>
  <ellipse style="stroke: rgb(0, 0, 0); stroke-width: 0px; fill: rgb(153, 51, 0); transform-origin: 145.311px 184.062px;" cx="145.311" cy="184.062" rx="2.852" ry="5.38" transform="matrix(0.766044914722, -0.642786979675, 0.642786979675, 0.766044914722, -85.041328729561, 17.32685819629)"/>
  <ellipse style="stroke: rgb(0, 0, 0); stroke-width: 0px; fill: rgb(153, 51, 0); transform-origin: 136.451px 227.116px;" cx="136.451" cy="227.116" rx="2.957" ry="11.754" transform="matrix(0.906307995319, 0.422618061304, -0.422618061304, 0.906307995319, -89.568641302217, -0.324392013019)"/>
  <ellipse style="stroke: rgb(0, 0, 0); stroke-width: 0px; fill: rgb(153, 51, 0); transform-origin: 82.42px 244.547px;" cx="82.42" cy="244.547" rx="3.175" ry="1.924" transform="matrix(0.766044914722, -0.642786979675, 0.642786979675, 0.766044914723, -41.329026028216, -7.486052782462)"/>
  <ellipse style="stroke: rgb(0, 0, 0); stroke-width: 0px; fill: rgb(153, 51, 0); transform-origin: 82.42px 244.547px;" cx="82.42" cy="244.547" rx="3.175" ry="1.835" transform="matrix(1, 0.000001, -0.000001, 1, -44.992928628137, -6.411100079123)"/>
  <ellipse style="stroke: rgb(0, 0, 0); stroke-width: 0px; fill: rgb(153, 51, 0); transform-origin: 82.42px 244.547px;" cx="82.42" cy="244.547" rx="3.888" ry="1.557" transform="matrix(0.819152116775, 0.57357698679, -0.57357698679, 0.819152116775, -49.806347341355, -8.301627058624)"/>
  <ellipse style="stroke: rgb(0, 0, 0); stroke-width: 0px; fill: rgb(153, 51, 0); transform-origin: 109.336px 235.794px;" cx="109.336" cy="235.794" rx="2.516" ry="6.679" transform="matrix(0.9396930933, 0.342020004988, -0.342020004988, 0.9396930933, -55.569542490334, -4.208761558957)"/>
  <ellipse style="stroke: rgb(0, 0, 0); stroke-width: 0px; fill: rgb(153, 51, 0); transform-origin: 109.336px 235.794px;" cx="109.336" cy="235.794" rx="1.763" ry="4.686" transform="matrix(0.906307995319, -0.422618061304, 0.422618061304, 0.906307995319, -56.115092425426, 4.136383923687)"/>
  <ellipse style="stroke: rgb(0, 0, 0); stroke-width: 0px; fill: rgb(153, 51, 0); transform-origin: 55.991px 243.248px;" cx="55.991" cy="243.248" rx="2.258" ry="1.231"/>
</svg>