<?xml version="1.0" encoding="utf-8"?>
<svg viewBox="90.3848 187.802 94.4729 124.862" xmlns="http://www.w3.org/2000/svg">
  <ellipse style="stroke: rgb(0, 0, 0); fill: rgb(153, 51, 0); stroke-width: 0px;" cx="140.275" cy="248.228" rx="30.812" ry="21.963" transform="matrix(0.9999999999999999, 0, 0, 0.9999999999999999, 0, 0)"/>
  <ellipse style="stroke: rgb(0, 0, 0); fill: rgb(153, 51, 0); stroke-width: 0px; transform-origin: 167.262px 224.233px;" cx="167.262" cy="224.233" rx="5.37" ry="34.28"/>
  <ellipse style="stroke: rgb(0, 0, 0); fill: rgb(153, 51, 0); stroke-width: 0px; transform-origin: 173.21px 193.44px;" cx="173.21" cy="193.44" rx="8.038" ry="5.638"/>
  <ellipse style="stroke: rgb(0, 0, 0); fill: rgb(153, 51, 0); stroke-width: 0px; transform-origin: 191.685px 207.995px;" cx="191.685" cy="207.995" rx="9.064" ry="2.288" transform="matrix(0.965926110745, 0.258819013834, -0.258819013834, 0.965926110744, -16.174570312743, -12.127519732295)"/>
  <ellipse style="stroke: rgb(0, 0, 0); fill: rgb(153, 51, 0); stroke-width: 0px; transform-origin: 96.932px 262.878px;" cx="96.932" cy="262.878" rx="19.289" ry="5.638" transform="matrix(0.707107007504, -0.707107007504, 0.707107007504, 0.707107007504, 11.078892582869, -13.171460960105)"/>
  <ellipse style="stroke: rgb(0, 0, 0); fill: rgb(153, 51, 0); stroke-width: 0px; transform-origin: 96.932px 262.878px;" cx="96.932" cy="262.878" rx="19.289" ry="5.638" transform="matrix(0.57357609272, -0.819152116776, 0.819152116776, 0.57357609272, 15.549706539387, -7.860028947923)"/>
  <ellipse style="stroke: rgb(0, 0, 0); fill: rgb(153, 51, 0); stroke-width: 0px; transform-origin: 96.932px 262.878px;" cx="96.932" cy="262.878" rx="19.289" ry="5.638" transform="matrix(0.422618061304, -0.906307995319, 0.906307995319, 0.422618061304, 20.473435324202, -6.779263505835)"/>
  <ellipse style="stroke: rgb(0, 0, 0); fill: rgb(153, 51, 0); stroke-width: 0px; transform-origin: 96.932px 262.878px;" cx="96.932" cy="262.878" rx="19.289" ry="5.638" transform="matrix(0.422618061304, -0.906307995319, 0.906307995319, 0.422618061304, 28.519730610115, -5.698376648908)"/>
  <ellipse style="stroke: rgb(0, 0, 0); fill: rgb(153, 51, 0); stroke-width: 0px; transform-origin: 96.932px 262.878px;" cx="96.932" cy="262.878" rx="19.289" ry="5.638" transform="matrix(0.422618061304, -0.906307995319, 0.906307995319, 0.422618061304, 36.566010637239, -4.377346966137)"/>
  <ellipse style="stroke: rgb(0, 0, 0); fill: rgb(153, 51, 0); stroke-width: 0px; transform-origin: 96.932px 262.878px;" cx="96.932" cy="262.878" rx="19.289" ry="5.638" transform="matrix(0.422618061304, -0.906307995319, 0.906307995319, 0.422618061304, 43.651536255516, -0.414242659036)"/>
  <ellipse style="stroke: rgb(0, 0, 0); fill: rgb(153, 51, 0); stroke-width: 0px; transform-origin: 141.629px 270.884px;" cx="141.629" cy="270.884" rx="3.566" ry="4.561"/>
  <ellipse style="stroke: rgb(0, 0, 0); fill: rgb(153, 51, 0); stroke-width: 0px; transform-origin: 145.45px 282.948px;" cx="145.45" cy="282.948" rx="2.039" ry="32.064" transform="matrix(0.996195018291, -0.087155014276, 0.087155014277, 0.996195018291, -3.573413198783, -8.692680981683)"/>
  <ellipse style="stroke: rgb(0, 0, 0); fill: rgb(153, 51, 0); stroke-width: 0px; transform-origin: 152.413px 305.143px;" cx="152.413" cy="305.143" rx="10.386" ry="1.979"/>
  <ellipse style="stroke: rgb(0, 0, 0); fill: rgb(153, 51, 0); stroke-width: 0px; transform-origin: 145.207px 304.051px;" cx="145.207" cy="304.051" rx="3.66" ry="2.457"/>
  <ellipse style="stroke: rgb(0, 0, 0); fill: rgb(153, 51, 0); stroke-width: 0px; transform-origin: 146.71px 295.477px;" cx="146.71" cy="295.477" rx="1.964" ry="5.469" transform="matrix(0.996195018291, -0.087156012655, 0.087156012654, 0.996195018291, -2.660666866153, 5.387710523494)"/>
  <ellipse style="stroke: rgb(0, 0, 0); fill: rgb(153, 51, 0); stroke-width: 0px; transform-origin: 145.45px 282.948px;" cx="145.45" cy="282.948" rx="2.039" ry="32.064" transform="matrix(0.996195018291, -0.087155014277, 0.087155014277, 0.996195018291, -8.591473957758, -3.150500360924)"/>
  <ellipse style="stroke: rgb(0, 0, 0); fill: rgb(153, 51, 0); stroke-width: 0px; transform-origin: 147.395px 310.685px;" cx="147.395" cy="310.685" rx="10.386" ry="1.979"/>
  <ellipse style="stroke: rgb(0, 0, 0); fill: rgb(153, 51, 0); stroke-width: 0px; transform-origin: 140.189px 309.593px;" cx="140.189" cy="309.593" rx="3.66" ry="2.457"/>
  <ellipse style="stroke: rgb(0, 0, 0); fill: rgb(153, 51, 0); stroke-width: 0px; transform-origin: 146.71px 295.477px;" cx="146.71" cy="295.477" rx="1.964" ry="5.469" transform="matrix(0.996195018291, -0.087156012654, 0.087156012654, 0.996195018292, -7.678699072966, 10.929949418952)"/>
</svg>