<?xml version="1.0" encoding="utf-8"?>
<svg viewBox="215.606 153.1274 130.05 152.0359" xmlns="http://www.w3.org/2000/svg">
  <ellipse style="stroke: rgb(0, 0, 0); fill: rgb(153, 51, 0); stroke-width: 0px;" cx="299.299" cy="210.254" rx="37.998" ry="25.979"/>
  <ellipse style="stroke: rgb(0, 0, 0); fill: rgb(153, 51, 0); stroke-width: 0px;" cx="286.558" cy="190.218" rx="14.767" ry="17.445"/>
  <ellipse style="stroke: rgb(0, 0, 0); fill: rgb(153, 51, 0); stroke-width: 0px;" cx="312.634" cy="189.506" rx="14.767" ry="17.445"/>
  <ellipse style="stroke: rgb(0, 0, 0); fill: rgb(153, 51, 0); stroke-width: 0px; transform-origin: 324.961px 222.55px;" cx="324.961" cy="222.55" rx="14.767" ry="30.603"/>
  <ellipse style="stroke: rgb(0, 0, 0); fill: rgb(153, 51, 0); stroke-width: 0px;" cx="339.067" cy="272.006" rx="6.589" ry="30.128"/>
  <ellipse style="stroke: rgb(0, 0, 0); fill: rgb(153, 51, 0); stroke-width: 0px; transform-origin: 331.719px 247.677px;" cx="331.719" cy="247.677" rx="10.381" ry="8.675"/>
  <ellipse style="stroke: rgb(0, 0, 0); fill: rgb(153, 51, 0); stroke-width: 0px; transform-origin: 304.246px 270.985px;" cx="304.246" cy="270.985" rx="6.589" ry="30.128" transform="matrix(0.984808027744, 0.173648029566, -0.173648029566, 0.984808027744, 18.344465550012, 3.363816529923)"/>
  <ellipse style="stroke: rgb(0, 0, 0); fill: rgb(153, 51, 0); stroke-width: 0px; transform-origin: 316.103px 257.394px;" cx="316.103" cy="257.394" rx="5.284" ry="7.372" transform="matrix(0.766044914722, -0.642786979675, 0.642786979675, 0.766044914722, 18.696036108681, 0.005112587481)"/>
  <ellipse style="stroke: rgb(0, 0, 0); fill: rgb(153, 51, 0); stroke-width: 0px; transform-origin: 305.597px 256.14px;" cx="305.597" cy="256.14" rx="17.271" ry="10.001" transform="matrix(0.766044914722, 0.642786979675, -0.642786979675, 0.766044914722, 11.04656613818, -10.690895763324)"/>
  <ellipse style="stroke: rgb(0, 0, 0); fill: rgb(153, 51, 0); stroke-width: 0px; transform-origin: 304.246px 270.985px;" cx="304.246" cy="270.985" rx="6.953" ry="40.925" transform="matrix(0.996195018291, 0.087156012654, -0.087156012654, 0.996195018291, -43.88330093747, -9.729820265132)"/>
  <ellipse style="stroke: rgb(0, 0, 0); fill: rgb(153, 51, 0); stroke-width: 0px; transform-origin: 268.002px 261.154px;" cx="268.002" cy="261.154" rx="7.037" ry="40.925" transform="matrix(0.99862998724, -0.052336014807, 0.052336014807, 0.99862998724, 6.675723117023, 0.608947635081)"/>
  <ellipse style="stroke: rgb(0, 0, 0); fill: rgb(153, 51, 0); stroke-width: 0px;" cx="288.808" cy="225.04" rx="49.495" ry="14.126"/>
  <ellipse style="stroke: rgb(0, 0, 0); fill: rgb(153, 51, 0); stroke-width: 0px; transform-origin: 242.109px 191.205px;" cx="242.109" cy="191.205" rx="9.788" ry="37.241"/>
  <ellipse style="stroke: rgb(0, 0, 0); fill: rgb(153, 51, 0); stroke-width: 0px; transform-origin: 245.351px 204.142px;" cx="245.351" cy="204.142" rx="9.837" ry="36.411" transform="matrix(0.996195018291, 0.087155014277, -0.087155014277, 0.996195018291, -0.397376155888, -13.884848428292)"/>
  <ellipse style="stroke: rgb(0, 0, 0); fill: rgb(153, 51, 0); stroke-width: 0px; transform-origin: 250.764px 215.03px;" cx="250.764" cy="215.03" rx="13.942" ry="9.623"/>
  <ellipse style="stroke: rgb(0, 0, 0); fill: rgb(153, 51, 0); stroke-width: 0px;" cx="232.744" cy="173.807" rx="17.138" ry="11.518"/>
  <ellipse style="stroke: rgb(0, 0, 0); fill: rgb(153, 51, 0); stroke-width: 0px; transform-origin: 261.162px 247.166px;" cx="261.162" cy="247.166" rx="8.624" ry="19.297"/>
  <ellipse style="stroke: rgb(0, 0, 0); fill: rgb(153, 51, 0); stroke-width: 0px; transform-origin: 273.125px 248.226px;" cx="273.125" cy="248.226" rx="9.986" ry="19.448"/>
</svg>