<?xml version="1.0" encoding="utf-8"?>
<svg viewBox="243.6727 858.7994 60.966 52.3525" xmlns="http://www.w3.org/2000/svg">
  <ellipse style="stroke: rgb(0, 0, 0); stroke-width: 0px; fill: rgb(0, 102, 102);" cx="390.051" cy="1444.894" rx="2.519" ry="13.625" transform="matrix(0.8191500306129454, -0.5735790133476257, 0.5735790133476257, 0.8191500306129454, -865.9781012829853, -63.75293826688727)"/>
  <ellipse style="stroke: rgb(0, 0, 0); stroke-width: 0px; fill: rgb(0, 102, 102);" cx="390.1" cy="1386.1" rx="1.817" ry="2.955" transform="matrix(0.8191500306129454, -0.5735790133476257, 0.5735790133476257, 0.8191500306129454, -840.8426028615622, -27.792211946728912)"/>
  <ellipse style="stroke: rgb(0, 0, 0); stroke-width: 0px; fill: rgb(0, 102, 102);" cx="390.066" cy="1366.572" rx="1.894" ry="2.034" transform="matrix(0.8191500306129454, -0.5735790133476257, 0.5735790133476257, 0.8191500306129454, -832.4632692406068, -15.869677780116717)"/>
  <ellipse style="stroke: rgb(0, 0, 0); stroke-width: 0px; fill: rgb(0, 102, 102);" cx="395.22" cy="1361.537" rx="0.811" ry="0.869" transform="matrix(0.8191500306129454, -0.5735790133476257, 0.5735790133476257, 0.8191500306129454, -833.4586916187209, -10.585803189662045)"/>
  <ellipse style="stroke: rgb(0, 0, 0); stroke-width: 0px; fill: rgb(0, 102, 102);" cx="385" cy="1361.3" rx="0.811" ry="0.869" transform="matrix(0.8191500306129454, -0.5735790133476257, 0.5735790133476257, 0.8191500306129454, -827.1099976764617, -14.815408927431804)"/>
  <ellipse style="stroke: rgb(0, 0, 0); stroke-width: 0px; fill: rgb(0, 102, 102); transform-origin: 443.522px 1380.73px;" cx="443.522" cy="1380.729" rx="13.558" ry="1.971" transform="matrix(0.642785012722, -0.766046941281, 0.76604694128, 0.642785012722, -162.032481773307, -507.517625614516)"/>
  <ellipse style="stroke: rgb(0, 0, 0); stroke-width: 0px; fill: rgb(0, 102, 102); transform-origin: 443.522px 1380.73px;" cx="443.522" cy="1380.729" rx="12.338" ry="1.793" transform="matrix(0.819151103498, -0.573579013347, 0.573579013348, 0.819151103496, -161.139340158908, -503.664859239443)"/>
  <ellipse style="stroke: rgb(0, 0, 0); stroke-width: 0px; fill: rgb(0, 102, 102); transform-origin: 443.522px 1380.73px;" cx="443.522" cy="1380.729" rx="10.45" ry="4.144" transform="matrix(0.707105100155, -0.707109093666, 0.707109093666, 0.707105100155, -155.213465541101, -511.610295760611)"/>
  <ellipse style="stroke: rgb(0, 0, 0); stroke-width: 0px; fill: rgb(0, 102, 102); transform-origin: 440.993px 1380.88px;" cx="440.132" cy="1380.936" rx="13.558" ry="1.971" transform="matrix(-0.939691126347, 0.342023998499, 0.342023998499, 0.939691126346, -180.739773301319, -493.126514682666)"/>
  <ellipse style="stroke: rgb(0, 0, 0); stroke-width: 0px; fill: rgb(0, 102, 102); transform-origin: 441.141px 1381.49px;" cx="440.33" cy="1381.754" rx="12.338" ry="1.793" transform="matrix(-0.819149017334, 0.573580026627, 0.573580026627, 0.819149017334, -177.574582603822, -491.581105420998)"/>
  <ellipse style="stroke: rgb(0, 0, 0); stroke-width: 0px; fill: rgb(0, 102, 102); transform-origin: 441.045px 1381.11px;" cx="440.202" cy="1381.237" rx="10.45" ry="4.144" transform="matrix(-0.906306028366, 0.422623068094, 0.422623068094, 0.906306028366, -186.967930790326, -488.343463726171)"/>
  <ellipse style="stroke: rgb(0, 0, 0); stroke-width: 0px; fill: rgb(0, 102, 102); transform-origin: 444.759px 1382.42px;" cx="445.179" cy="1382.991" rx="12.802" ry="2.188" transform="matrix(-0.755939900875, 0.654641091824, 0.632858991623, 0.774802982807, -179.278958452871, -489.412850851698)"/>
  <ellipse style="stroke: rgb(0, 0, 0); stroke-width: 0px; fill: rgb(0, 102, 102); transform-origin: 445.142px 1381.96px;" cx="445.693" cy="1382.38" rx="11.896" ry="1.95" transform="matrix(-0.526417911053, 0.850226104259, 0.794075906276, 0.61710613966, -175.747927389624, -487.707658148358)"/>
  <ellipse style="stroke: rgb(0, 0, 0); stroke-width: 0px; fill: rgb(0, 102, 102); transform-origin: 444.895px 1382.28px;" cx="445.361" cy="1382.812" rx="9.91" ry="4.581" transform="matrix(-0.685182094574, 0.728371918202, 0.689485013485, 0.726520001888, -182.963843538625, -482.400399843313)"/>
  <ellipse style="stroke: rgb(0, 0, 0); stroke-width: 0px; fill: rgb(0, 102, 102); transform-origin: 443.522px 1380.73px;" cx="443.522" cy="1380.729" rx="12.802" ry="2.188" transform="matrix(0.873704016209, -0.48645707965, 0.511632859707, 0.859686970711, -157.708908023117, -501.2111624259)"/>
  <ellipse style="stroke: rgb(0, 0, 0); stroke-width: 0px; fill: rgb(0, 102, 102); transform-origin: 443.523px 1380.73px;" cx="443.522" cy="1380.729" rx="11.896" ry="1.95" transform="matrix(0.978995025157, -0.203884005546, 0.308306962251, 0.957248091698, -157.878693851357, -497.104642297024)"/>
  <ellipse style="stroke: rgb(0, 0, 0); stroke-width: 0px; fill: rgb(0, 102, 102); transform-origin: 443.522px 1380.73px;" cx="443.522" cy="1380.729" rx="9.91" ry="4.581" transform="matrix(0.918789029121, -0.39474901557, 0.446895062923, 0.896384894848, -150.035251215856, -502.192751637028)"/>
  <ellipse style="stroke: rgb(0, 0, 0); stroke-width: 0px; fill: rgb(0, 102, 102); transform-origin: 399.462px 1360.95px;" cx="399.462" cy="1360.953" rx="0.378" ry="2.696" transform="matrix(0.90630900858, 0.422615110891, -0.422615110875, 0.906309008584, -126.108008546337, -481.840046091498)"/>
  <ellipse style="stroke: rgb(0, 0, 0); stroke-width: 0px; fill: rgb(0, 102, 102); transform-origin: 408.348px 1354.69px;" cx="408.348" cy="1354.69" rx="0.378" ry="2.696" transform="matrix(0.819150090228, -0.57357901334, 0.573579013352, 0.819150090226, -135.380796472468, -479.996911824467)"/>
  <ellipse style="stroke: rgb(0, 0, 0); stroke-width: 0px; fill: rgb(0, 102, 102); transform-origin: 399.597px 1360.93px;" cx="399.643" cy="1360.929" rx="0.378" ry="2.696" transform="matrix(0.087160013586, 0.996194004999, 0.996194004996, -0.087160013615, -130.201505823723, -479.102885657848)"/>
  <ellipse style="stroke: rgb(0, 0, 0); stroke-width: 0px; fill: rgb(0, 102, 102); transform-origin: -371.917px 1354.65px;" cx="-371.9" cy="1354.7" rx="0.378" ry="2.696" transform="matrix(-0.81915009029, 0.573579013339, 0.573579013353, 0.819150090224, 637.294644569357, -474.700236615614)"/>
</svg>