<?xml version="1.0" encoding="utf-8"?>
<svg viewBox="219.462 1004.249 133.505 42.2281" xmlns="http://www.w3.org/2000/svg">
  <ellipse style="stroke: rgb(0, 0, 0); stroke-width: 0px; fill: rgb(0, 153, 153);" cx="237.398" cy="1022.254" rx="17.936" ry="4.354" transform="matrix(0.9999999999999999, 0, 0, 0.9999999999999999, 0, 1.1368683772161603e-13)"/>
  <ellipse style="stroke: rgb(0, 0, 0); stroke-width: 0px; fill: rgb(0, 153, 153);" cx="237.359" cy="1012.292" rx="3.51" ry="8.043" transform="matrix(0.9999999999999999, 0, 0, 0.9999999999999999, 0, 1.1368683772161603e-13)"/>
  <ellipse style="stroke: rgb(0, 0, 0); stroke-width: 0px; fill: rgb(0, 153, 153); transform-origin: 237.687px 1013.03px;" cx="237.687" cy="1013.029" rx="3.51" ry="8.043" transform="matrix(0.866026103497, 0.5, -0.5, 0.866026103496, 2.497284572106, 0.625453928779)"/>
  <ellipse style="stroke: rgb(0, 0, 0); stroke-width: 0px; fill: rgb(0, 153, 153); transform-origin: 237.687px 1013.03px;" cx="237.687" cy="1013.029" rx="3.51" ry="8.043" transform="matrix(0.5, 0.866025090218, -0.866025090218, 0.5, 5.555460027798, 2.370830652498)"/>
  <ellipse style="stroke: rgb(0, 0, 0); stroke-width: 0px; fill: rgb(0, 153, 153); transform-origin: 237.686px 1013.03px;" cx="237.687" cy="1013.029" rx="3.51" ry="8.043" transform="matrix(-0.866026103497, 0.5, 0.5, 0.866026103497, -3.052099919336, 0.798795907895)"/>
  <ellipse style="stroke: rgb(0, 0, 0); stroke-width: 0px; fill: rgb(0, 153, 153); transform-origin: 237.687px 1013.03px;" cx="237.687" cy="1013.029" rx="3.51" ry="8.043" transform="matrix(-0.5, 0.866025090218, 0.866025090217, 0.5, -6.112513193981, 2.54171178931)"/>
  <ellipse style="stroke: rgb(0, 0, 0); stroke-width: 0px; fill: rgb(0, 153, 153);" cx="314.254" cy="1042.123" rx="17.936" ry="4.354" transform="matrix(0.9999999999999999, 0, 0, 0.9999999999999999, 0, 1.1368683772161603e-13)"/>
  <ellipse style="stroke: rgb(0, 0, 0); stroke-width: 0px; fill: rgb(0, 153, 153);" cx="314.215" cy="1032.161" rx="3.51" ry="8.043" transform="matrix(0.9999999999999999, 0, 0, 0.9999999999999999, 0, 1.1368683772161603e-13)"/>
  <ellipse style="stroke: rgb(0, 0, 0); stroke-width: 0px; fill: rgb(0, 153, 153); transform-origin: 237.684px 1013.03px;" cx="237.687" cy="1013.029" rx="3.51" ry="8.043" transform="matrix(0.866026103497, 0.5, -0.5, 0.866026103497, 79.353985253701, 20.497961545633)"/>
  <ellipse style="stroke: rgb(0, 0, 0); stroke-width: 0px; fill: rgb(0, 153, 153); transform-origin: 237.687px 1013.03px;" cx="237.687" cy="1013.029" rx="3.51" ry="8.043" transform="matrix(0.5, 0.866025090218, -0.866025090217, 0.5, 82.4116165687, 22.237930984372)"/>
  <ellipse style="stroke: rgb(0, 0, 0); stroke-width: 0px; fill: rgb(0, 153, 153); transform-origin: 237.683px 1013.03px;" cx="237.687" cy="1013.029" rx="3.51" ry="8.043" transform="matrix(-0.866026103497, 0.5, 0.5, 0.866026103496, 73.809232893246, 20.670927551836)"/>
  <ellipse style="stroke: rgb(0, 0, 0); stroke-width: 0px; fill: rgb(0, 153, 153); transform-origin: 237.687px 1013.03px;" cx="237.687" cy="1013.029" rx="3.51" ry="8.043" transform="matrix(-0.5, 0.866025090218, 0.866025090218, 0.5, 70.743849340086, 22.408363483427)"/>
  <ellipse style="stroke: rgb(0, 0, 0); stroke-width: 0px; fill: rgb(0, 153, 153);" cx="335.031" cy="1023.162" rx="17.936" ry="4.354" transform="matrix(0.9999999999999999, 0, 0, 0.9999999999999999, 0, 1.1368683772161603e-13)"/>
  <ellipse style="stroke: rgb(0, 0, 0); stroke-width: 0px; fill: rgb(0, 153, 153);" cx="334.992" cy="1013.2" rx="3.51" ry="8.043" transform="matrix(0.9999999999999999, 0, 0, 0.9999999999999999, 0, 1.1368683772161603e-13)"/>
  <ellipse style="stroke: rgb(0, 0, 0); stroke-width: 0px; fill: rgb(0, 153, 153); transform-origin: 237.686px 1013.03px;" cx="237.687" cy="1013.029" rx="3.51" ry="8.043" transform="matrix(0.866026103497, 0.5, -0.5, 0.866026103497, 100.131425679385, 1.535101155653)"/>
  <ellipse style="stroke: rgb(0, 0, 0); stroke-width: 0px; fill: rgb(0, 153, 153); transform-origin: 237.687px 1013.03px;" cx="237.687" cy="1013.029" rx="3.51" ry="8.043" transform="matrix(0.5, 0.866025090218, -0.866025090217, 0.5, 103.18931920952, 3.278166084471)"/>
  <ellipse style="stroke: rgb(0, 0, 0); stroke-width: 0px; fill: rgb(0, 153, 153); transform-origin: 237.685px 1013.03px;" cx="237.687" cy="1013.029" rx="3.51" ry="8.043" transform="matrix(-0.866026103497, 0.5, 0.5, 0.866026103496, 94.583722423594, 1.708278877552)"/>
  <ellipse style="stroke: rgb(0, 0, 0); stroke-width: 0px; fill: rgb(0, 153, 153); transform-origin: 237.687px 1013.03px;" cx="237.687" cy="1013.029" rx="3.51" ry="8.043" transform="matrix(-0.5, 0.866025090218, 0.866025090218, 0.5, 91.521239176226, 3.448833598056)"/>
</svg>