<?xml version="1.0" encoding="utf-8"?>
<svg viewBox="260.3052 1013.0612 44.0908 19.0586" xmlns="http://www.w3.org/2000/svg">
  <ellipse style="stroke: rgb(0, 0, 0); stroke-width: 0px; fill: rgb(0, 102, 102);" cx="299.141" cy="1019.951" rx="5.255" ry="5.972" transform="matrix(1, 0, 0, 1, -5.684341886080802e-14, 0)"/>
  <ellipse style="stroke: rgb(0, 0, 0); stroke-width: 0px; fill: rgb(0, 102, 102);" cx="278.746" cy="1026.665" rx="14.445" ry="5.096" transform="matrix(1, 0, 0, 1, -5.684341886080802e-14, 0)"/>
  <ellipse style="stroke: rgb(0, 0, 0); stroke-width: 0px; fill: rgb(0, 102, 102); transform-origin: 355.211px 1170.22px;" cx="355.211" cy="1170.217" rx="3.68" ry="9.446" transform="matrix(0.342020004986, 0.939693093299, -0.9396930933, 0.342020004988, -62.608798154177, -144.785853714357)"/>
  <ellipse style="stroke: rgb(0, 0, 0); stroke-width: 0px; fill: rgb(0, 102, 102); transform-origin: 355.209px 1170.22px;" cx="355.211" cy="1170.217" rx="1.4" ry="2.471" transform="matrix(0.642786979677, 0.766044914723, -0.766044914725, 0.642786979678, -58.463362940045, -154.49772238222)"/>
  <ellipse style="stroke: rgb(0, 0, 0); stroke-width: 0px; fill: rgb(0, 102, 102); transform-origin: 289.699px 1023.38px;" cx="289.699" cy="1023.377" rx="11.934" ry="2.095" transform="matrix(1, 0, 0, 0.999999999999, 0.000010000204, 0.000029000756)"/>
  <ellipse style="stroke: rgb(0, 0, 0); stroke-width: 0px; fill: rgb(0, 102, 102); transform-origin: 292.601px 1018.22px;" cx="292.601" cy="1018.228" rx="1.876" ry="1.658" transform="matrix(1, 0, 0, 1, -1.9e-11, 0)"/>
  <ellipse style="stroke: rgb(0, 0, 0); stroke-width: 0px; fill: rgb(0, 102, 102); transform-origin: 292.582px 1020.33px;" cx="292.582" cy="1020.335" rx="2.055" ry="1.658" transform="matrix(1, 0, 0, 1, -3.4e-11, 0)"/>
  <ellipse style="stroke: rgb(0, 0, 0); stroke-width: 0px; fill: rgb(0, 102, 102); transform-origin: 342.358px 1162.19px;" cx="342.355" cy="1162.197" rx="5.736" ry="1.018" transform="matrix(0.866026103495, -0.5, 0.500000000002, 0.866026103498, -52.393232416671, -141.321489849582)"/>
  <ellipse style="stroke: rgb(0, 0, 0); stroke-width: 0px; fill: rgb(0, 102, 102); transform-origin: 274.237px 1022.44px;" cx="274.233" cy="1022.441" rx="8.637" ry="1.018" transform="matrix(1, 0, 0, 1, -2.6e-11, 0)"/>
  <ellipse style="stroke: rgb(0, 0, 0); stroke-width: 0px; fill: rgb(0, 102, 102); transform-origin: 264.178px 1020.86px;" cx="264.177" cy="1020.929" rx="2.078" ry="6.339" transform="matrix(1, 0, 0, 1, -9e-12, 0)"/>
  <ellipse style="stroke: rgb(0, 0, 0); stroke-width: 0px; fill: rgb(0, 102, 102); transform-origin: 266.866px 1024.21px;" cx="266.862" cy="1024.259" rx="5.822" ry="4.19" transform="matrix(1, 0, 0, 1, -1e-11, 0)"/>
  <ellipse style="stroke: rgb(0, 0, 0); stroke-width: 0px; fill: rgb(0, 102, 102); transform-origin: 275.218px 1168.28px;" cx="275.217" cy="1168.324" rx="1.224" ry="4.304" transform="matrix(0.642787992954, 0.766043901444, -0.766043901443, 0.642787992953, -10.794659734053, -149.017836083886)"/>
  <ellipse style="stroke: rgb(0, 0, 0); stroke-width: 0px; fill: rgb(0, 102, 102); transform-origin: 275.216px 1168.31px;" cx="275.217" cy="1168.324" rx="1.432" ry="2.989" transform="matrix(0.999999999998, -9.99994e-7, 0.000001000001, 1.000000000001, -13.0479842583, -145.121813636544)"/>
</svg>