<?xml version="1.0" encoding="utf-8"?>
<svg viewBox="-50.898 720 411.004 291.8561" xmlns="http://www.w3.org/2000/svg">
  <ellipse style="stroke: rgb(0, 0, 0); stroke-width: 0px; fill: rgb(0, 153, 153); transform-origin: 597.516px 182.203px;" cx="597.516" cy="182.203" rx="15.31" ry="50.99" transform="matrix(0.9396930933, 0.342020004988, -0.342020004988, 0.9396930933, -535.995828805683, 776.501833926729)"/>
  <ellipse style="stroke: rgb(0, 0, 0); stroke-width: 0px; fill: rgb(0, 153, 153); transform-origin: 72.246px 911.622px;" cx="72.246" cy="911.622" rx="15.31" ry="39.181"/>
  <ellipse style="stroke: rgb(0, 0, 0); stroke-width: 0px; fill: rgb(0, 153, 153); transform-origin: 647.302px 158.477px;" cx="647.302" cy="158.477" rx="7.119" ry="40.757" transform="matrix(0.224950954318, 0.974370002747, -0.974370002747, 0.224950954318, -530.436695552198, 713.630276621475)"/>
  <ellipse style="stroke: rgb(0, 0, 0); stroke-width: 0px; fill: rgb(0, 153, 153); transform-origin: 647.302px 158.477px;" cx="647.302" cy="158.477" rx="7.119" ry="40.757" transform="matrix(0.669131100178, 0.743145108223, -0.743145108223, 0.669131100178, -473.505586120957, 684.212047139512)"/>
  <ellipse style="stroke: rgb(0, 0, 0); stroke-width: 0px; fill: rgb(0, 153, 153); transform-origin: 623.193px 175.967px;" cx="623.193" cy="175.967" rx="7.325" ry="21.642" transform="matrix(0.766043901443, 0.642787992954, -0.642787992954, 0.766043901444, -537.385600004829, 715.00155052998)"/>
  <ellipse style="stroke: rgb(0, 0, 0); stroke-width: 0px; fill: rgb(0, 153, 153); transform-origin: 623.193px 175.967px;" cx="623.193" cy="175.967" rx="7.325" ry="20.531" transform="matrix(0.984808027744, 0.173649027944, -0.173649027944, 0.984808027744, -561.322744807865, 756.664064643662)"/>
  <ellipse style="stroke: rgb(0, 0, 0); stroke-width: 0px; fill: rgb(0, 153, 153); transform-origin: 647.302px 158.477px;" cx="647.302" cy="158.477" rx="7.119" ry="40.757" transform="matrix(0.453991055489, -0.891005992889, 0.891005992889, 0.453991055489, -603.201183720608, 704.938831467579)"/>
  <ellipse style="stroke: rgb(0, 0, 0); stroke-width: 0px; fill: rgb(0, 153, 153); transform-origin: 647.302px 158.477px;" cx="647.302" cy="158.477" rx="7.119" ry="40.757" transform="matrix(-0.000001, 1, -1, -0.000001, -668.276661488537, 688.962902976926)"/>
  <ellipse style="stroke: rgb(0, 0, 0); stroke-width: 0px; fill: rgb(0, 153, 153); transform-origin: 647.302px 158.477px;" cx="647.302" cy="158.477" rx="7.119" ry="32.097" transform="matrix(0.9396930933, -0.342019051313, 0.342019051313, 0.9396930933, -627.67058926723, 665.611308048079)"/>
  <ellipse style="stroke: rgb(0, 0, 0); stroke-width: 0px; fill: rgb(0, 153, 153); transform-origin: 647.302px 158.477px;" cx="647.302" cy="158.477" rx="7.119" ry="32.097" transform="matrix(0.173649027944, -0.984808027744, 0.984808027744, 0.173649027944, -660.053722736845, 660.170098630922)"/>
  <ellipse style="stroke: rgb(0, 0, 0); stroke-width: 0px; fill: rgb(0, 153, 153); transform-origin: 647.302px 158.477px;" cx="647.302" cy="158.477" rx="7.119" ry="36.772" transform="matrix(0.999848008156, -0.017452003434, 0.017452003434, 0.999848008156, -597.16785740578, 669.959967897267)"/>
  <ellipse style="stroke: rgb(0, 0, 0); stroke-width: 0px; fill: rgb(0, 153, 153); transform-origin: 647.302px 158.477px;" cx="647.302" cy="158.477" rx="7.119" ry="36.772" transform="matrix(0.891006946564, -0.453990012407, 0.453990012407, 0.891006946564, -613.299826914679, 654.66340945936)"/>
  <ellipse style="stroke: rgb(0, 0, 0); stroke-width: 0px; fill: rgb(0, 153, 153); transform-origin: 647.302px 158.477px;" cx="647.302" cy="158.477" rx="7.119" ry="53.397" transform="matrix(0.965926110744, 0.258819013834, -0.258819013834, 0.965926110744, -558.48347874506, 678.308203080209)"/>
  <ellipse style="stroke: rgb(0, 0, 0); stroke-width: 0px; fill: rgb(0, 153, 153); transform-origin: 647.302px 158.477px;" cx="647.302" cy="158.477" rx="7.119" ry="34.336" transform="matrix(0.891005992889, -0.453991055489, 0.453991055489, 0.891005992889, -575.017916142492, 658.48499693387)"/>
  <ellipse style="stroke: rgb(0, 0, 0); stroke-width: 0px; fill: rgb(0, 153, 153); transform-origin: 647.302px 158.477px;" cx="647.302" cy="158.477" rx="7.119" ry="65.094" transform="matrix(0.694659113884, 0.71933889389, -0.71933889389, 0.694659113884, -521.166556965537, 675.114712167813)"/>
  <ellipse style="stroke: rgb(0, 0, 0); stroke-width: 0px; fill: rgb(0, 153, 153); transform-origin: 647.302px 158.477px;" cx="647.302" cy="158.477" rx="7.119" ry="31.575" transform="matrix(0.956305027008, 0.292371064425, -0.292371064425, 0.956305027008, -532.179760642087, 664.631873565575)"/>
  <ellipse style="stroke: rgb(0, 0, 0); stroke-width: 0px; fill: rgb(0, 153, 153); transform-origin: 647.302px 158.477px;" cx="647.302" cy="158.477" rx="7.119" ry="31.575" transform="matrix(0.190809980035, 0.981626987457, -0.981626987457, 0.190809980035, -424.175933585663, 658.185418302813)"/>
  <ellipse style="stroke: rgb(0, 0, 0); stroke-width: 0px; fill: rgb(0, 153, 153); transform-origin: 623.193px 175.967px;" cx="623.193" cy="175.967" rx="7.325" ry="21.642" transform="matrix(0.766044914722, -0.642786979675, 0.642786979675, 0.766044914722, -557.466541505784, 704.573395486039)"/>
  <ellipse style="stroke: rgb(0, 0, 0); stroke-width: 0px; fill: rgb(0, 153, 153); transform-origin: -20.791px 795.551px;" cx="-20.791" cy="795.552" rx="42.107" ry="21.931"/>
  <ellipse style="stroke: rgb(0, 0, 0); stroke-width: 0px; fill: rgb(0, 153, 153); transform-origin: -9.752px 763.694px;" cx="-9.752" cy="763.694" rx="42.107" ry="21.931"/>
  <ellipse style="stroke: rgb(0, 0, 0); stroke-width: 0px; fill: rgb(0, 153, 153); transform-origin: 36.298px 786.718px;" cx="36.298" cy="786.718" rx="42.107" ry="21.931"/>
  <ellipse style="stroke: rgb(0, 0, 0); stroke-width: 0px; fill: rgb(0, 153, 153); transform-origin: 45.448px 753.284px;" cx="45.448" cy="753.284" rx="42.107" ry="21.931"/>
  <ellipse style="stroke: rgb(0, 0, 0); stroke-width: 0px; fill: rgb(0, 153, 153); transform-origin: 86.767px 784.463px;" cx="86.767" cy="784.463" rx="42.107" ry="22.61"/>
  <ellipse style="stroke: rgb(0, 0, 0); stroke-width: 0px; fill: rgb(0, 153, 153); transform-origin: 138.81px 764.325px;" cx="138.81" cy="764.326" rx="42.107" ry="21.931"/>
  <ellipse style="stroke: rgb(0, 0, 0); stroke-width: 0px; fill: rgb(0, 153, 153); transform-origin: 141.965px 787.667px;" cx="141.965" cy="787.667" rx="42.107" ry="21.931"/>
  <ellipse style="stroke: rgb(0, 0, 0); stroke-width: 0px; fill: rgb(0, 153, 153); transform-origin: 186.439px 778.833px;" cx="186.439" cy="778.833" rx="42.107" ry="21.931"/>
  <ellipse style="stroke: rgb(0, 0, 0); stroke-width: 0px; fill: rgb(0, 153, 153); transform-origin: 238.168px 816.368px;" cx="238.168" cy="816.368" rx="42.107" ry="21.931"/>
  <rect y="720" width="411.776" height="43" style="stroke: rgb(0, 0, 0); stroke-width: 0px; fill: rgb(0, 153, 153);" x="-51.776"/>
  <ellipse style="stroke: rgb(0, 0, 0); stroke-width: 0px; fill: rgb(0, 153, 153); transform-origin: 243.765px 774.927px;" cx="243.765" cy="774.926" rx="42.107" ry="21.931"/>
  <ellipse style="stroke: rgb(0, 0, 0); stroke-width: 0px; fill: rgb(0, 153, 153); transform-origin: 293.029px 798.614px;" cx="293.029" cy="798.614" rx="46.059" ry="24.415"/>
  <ellipse style="stroke: rgb(0, 0, 0); stroke-width: 0px; fill: rgb(0, 153, 153); transform-origin: 317.999px 761.899px;" cx="317.999" cy="761.899" rx="42.107" ry="21.931"/>
  <ellipse style="stroke: rgb(0, 0, 0); stroke-width: 0px; fill: rgb(0, 153, 153); transform-origin: 321.541px 783.023px;" cx="321.541" cy="783.023" rx="30.847" ry="16.351"/>
  <ellipse style="stroke: rgb(0, 0, 0); stroke-width: 0px; fill: rgb(0, 153, 153); transform-origin: 190.069px 808.909px;" cx="190.069" cy="808.909" rx="46.005" ry="25.05"/>
</svg>