<?xml version="1.0" encoding="utf-8"?>
<svg viewBox="117.487 881.7479 37.1398 23.0701" xmlns="http://www.w3.org/2000/svg">
  <ellipse style="stroke: rgb(0, 0, 0); stroke-width: 0px; fill: rgb(0, 102, 102);" cx="-128.306" cy="887.055" rx="8.404" ry="5.126" transform="matrix(-1, 0, 0, 1, 0, 0)"/>
  <ellipse style="stroke: rgb(0, 0, 0); stroke-width: 0px; fill: rgb(0, 102, 102); transform-origin: 91.282px 1169.3px;" cx="91.282" cy="1169.301" rx="17.375" ry="1.59" transform="matrix(-0.965926110744, -0.258819013834, -0.258819013834, 0.965926110744, 46.150324932335, -279.780975898531)"/>
  <ellipse style="stroke: rgb(0, 0, 0); stroke-width: 0px; fill: rgb(0, 102, 102); transform-origin: 106.076px 1165.29px;" cx="106.076" cy="1165.289" rx="6.088" ry="0.487" transform="matrix(-0.996195018292, 0.087156012653, 0.087156012654, 0.996195018292, 28.015930443885, -274.617856899772)"/>
  <ellipse style="stroke: rgb(0, 0, 0); stroke-width: 0px; fill: rgb(0, 102, 102); transform-origin: 106.077px 1165.29px;" cx="106.076" cy="1165.289" rx="9.899" ry="0.951" transform="matrix(-0.906307995317, -0.422618061307, -0.422618061304, 0.90630799532, 30.213870288488, -277.854374094079)"/>
  <ellipse style="stroke: rgb(0, 0, 0); stroke-width: 0px; fill: rgb(0, 102, 102); transform-origin: 106.077px 1165.29px;" cx="106.076" cy="1165.289" rx="5.697" ry="0.56" transform="matrix(-0.819152116771, -0.573576092724, -0.573576092719, 0.819152116776, 29.256298731338, -279.815362880027)"/>
  <ellipse style="stroke: rgb(0, 0, 0); stroke-width: 0px; fill: rgb(0, 102, 102); transform-origin: 106.078px 1165.29px;" cx="106.076" cy="1165.289" rx="2.444" ry="0.163" transform="matrix(-0.766044914704, -0.642786979659, -0.642786979677, 0.76604491472, 30.238671655827, -279.840818237139)"/>
  <ellipse style="stroke: rgb(0, 0, 0); stroke-width: 0px; fill: rgb(0, 102, 102);" cx="-122.025" cy="894.707" rx="4.538" ry="10.111" transform="matrix(-1, 0, 0, 1, 0, 0)"/>
  <ellipse style="stroke: rgb(0, 0, 0); stroke-width: 0px; fill: rgb(0, 102, 102); transform-origin: 93.84px 1179.59px;" cx="93.84" cy="1179.594" rx="0.817" ry="5.501" transform="matrix(-0.342020004985, -0.9396930933, -0.9396930933, 0.342020004988, 32.678239483678, -287.139486456586)"/>
  <ellipse style="stroke: rgb(0, 0, 0); stroke-width: 0px; fill: rgb(0, 102, 102); transform-origin: 118.417px 1166.5px;" cx="118.414" cy="1166.506" rx="0.817" ry="6.032" transform="matrix(-0.866025090223, -0.500000000001, -0.5, 0.866025090219, 6.901773019046, -270.096716443832)"/>
</svg>