<?xml version="1.0" encoding="utf-8"?>
<svg viewBox="272.765 1013.0616 16.631 19.0586" xmlns="http://www.w3.org/2000/svg">
  <ellipse style="stroke: rgb(0, 0, 0); stroke-width: 0px; fill: rgb(0, 102, 102);" cx="299.141" cy="1019.951" rx="5.255" ry="5.972" transform="matrix(1, 0, 0, 1, -15.000000223517475, 0)"/>
  <ellipse style="stroke: rgb(0, 0, 0); stroke-width: 0px; fill: rgb(0, 102, 102); transform-origin: 355.211px 1170.22px;" cx="355.211" cy="1170.217" rx="3.68" ry="9.446" transform="matrix(0.342020004989, 0.939693093299, -0.9396930933, 0.342020004988, -77.60904251921, -144.785518020593)"/>
  <ellipse style="stroke: rgb(0, 0, 0); stroke-width: 0px; fill: rgb(0, 102, 102); transform-origin: 355.209px 1170.22px;" cx="355.211" cy="1170.217" rx="1.4" ry="2.471" transform="matrix(0.642786979678, 0.766044914722, -0.766044914722, 0.642786979677, -73.462630744564, -154.497373336068)"/>
  <ellipse style="stroke: rgb(0, 0, 0); stroke-width: 0px; fill: rgb(0, 102, 102); transform-origin: 289.699px 1023.38px;" cx="289.699" cy="1023.377" rx="11.934" ry="2.095" transform="matrix(1, 0, 0, 1, -14.999990686741, 0.000029000309)"/>
  <ellipse style="stroke: rgb(0, 0, 0); stroke-width: 0px; fill: rgb(0, 102, 102); transform-origin: 292.601px 1018.22px;" cx="292.601" cy="1018.228" rx="1.876" ry="1.658" transform="matrix(1.000000000002, 0, 1e-12, 1, -15.00000022496, 0)"/>
  <ellipse style="stroke: rgb(0, 0, 0); stroke-width: 0px; fill: rgb(0, 102, 102); transform-origin: 292.582px 1020.33px;" cx="292.582" cy="1020.335" rx="2.055" ry="1.658" transform="matrix(0.999999999998, 0, 1e-12, 1, -15.000000223473, 0)"/>
  <ellipse style="stroke: rgb(0, 0, 0); stroke-width: 0px; fill: rgb(0, 102, 102); transform-origin: 342.358px 1162.19px;" cx="342.355" cy="1162.197" rx="5.736" ry="1.018" transform="matrix(0.866026103496, -0.500000000001, 0.5, 0.866026103496, -67.391397495527, -141.321077860045)"/>
</svg>