<?xml version="1.0" encoding="utf-8"?>
<svg viewBox="263.5373 872.2677 11.2988 10.309" xmlns="http://www.w3.org/2000/svg">
  <ellipse style="stroke: rgb(0, 0, 0); stroke-width: 0px; fill: rgb(0, 102, 102);" cx="390.066" cy="1366.572" rx="1.894" ry="2.034" transform="matrix(0.8191500306129454, -0.5735790133476256, 0.5735790133476256, 0.8191500306129454, -832.4633302757638, -15.869700668300766)"/>
  <ellipse style="stroke: rgb(0, 0, 0); stroke-width: 0px; fill: rgb(0, 102, 102);" cx="395.22" cy="1361.537" rx="0.811" ry="0.869" transform="matrix(0.8191500306129454, -0.5735790133476256, 0.5735790133476256, 0.8191500306129454, -833.458752653878, -10.585825124171834)"/>
  <ellipse style="stroke: rgb(0, 0, 0); stroke-width: 0px; fill: rgb(0, 102, 102);" cx="385" cy="1361.3" rx="0.811" ry="0.869" transform="matrix(0.8191500306129454, -0.5735790133476256, 0.5735790133476256, 0.8191500306129454, -827.1100587116189, -14.815430861941536)"/>
  <ellipse style="stroke: rgb(0, 0, 0); stroke-width: 0px; fill: rgb(0, 102, 102); transform-origin: 399.462px 1360.95px;" cx="399.462" cy="1360.953" rx="0.378" ry="2.696" transform="matrix(0.906309008595, 0.422615110912, -0.42261511087, 0.906309008594, -126.107855971632, -481.840412324664)"/>
  <ellipse style="stroke: rgb(0, 0, 0); stroke-width: 0px; fill: rgb(0, 102, 102); transform-origin: 408.348px 1354.69px;" cx="408.348" cy="1354.69" rx="0.378" ry="2.696" transform="matrix(0.819150090263, -0.573579013353, 0.573579013345, 0.819150090224, -135.380735442745, -479.99703388808)"/>
  <ellipse style="stroke: rgb(0, 0, 0); stroke-width: 0px; fill: rgb(0, 102, 102); transform-origin: 399.597px 1360.93px;" cx="399.643" cy="1360.929" rx="0.378" ry="2.696" transform="matrix(0.087160013621, 0.996194005, 0.996194004999, -0.087160013615, -130.196595171917, -479.108836469719)"/>
  <ellipse style="stroke: rgb(0, 0, 0); stroke-width: 0px; fill: rgb(0, 102, 102); transform-origin: -371.917px 1354.65px;" cx="-371.9" cy="1354.7" rx="0.378" ry="2.696" transform="matrix(-0.81915009024, 0.573579013369, 0.573579013352, 0.819150090217, 637.295743222418, -474.700742043347)"/>
</svg>