<?xml version="1.0" encoding="utf-8"?>
<svg viewBox="76.3802 881.7479 78.2468 122.1523" xmlns="http://www.w3.org/2000/svg">
  <ellipse style="stroke: rgb(0, 0, 0); stroke-width: 0px; fill: rgb(0, 102, 102);" cx="-128.306" cy="887.055" rx="8.404" ry="5.126" transform="matrix(-1, 0, 0, 1, 0, -1.1368683772161603e-13)"/>
  <ellipse style="stroke: rgb(0, 0, 0); stroke-width: 0px; fill: rgb(0, 102, 102); transform-origin: 91.282px 1169.3px;" cx="91.282" cy="1169.301" rx="17.375" ry="1.59" transform="matrix(-0.965926110745, -0.258819013833, -0.258819013834, 0.965926110744, 46.150447002676, -279.781342109504)"/>
  <ellipse style="stroke: rgb(0, 0, 0); stroke-width: 0px; fill: rgb(0, 102, 102); transform-origin: 106.076px 1165.29px;" cx="106.076" cy="1165.289" rx="6.088" ry="0.487" transform="matrix(-0.996195018292, 0.087156012646, 0.087156012654, 0.996195018292, 28.015960961435, -274.61825362758)"/>
  <ellipse style="stroke: rgb(0, 0, 0); stroke-width: 0px; fill: rgb(0, 102, 102); transform-origin: 106.077px 1165.29px;" cx="106.076" cy="1165.289" rx="9.899" ry="0.951" transform="matrix(-0.906307995319, -0.422618061306, -0.422618061304, 0.906307995319, 30.214035990895, -277.854486491189)"/>
  <ellipse style="stroke: rgb(0, 0, 0); stroke-width: 0px; fill: rgb(0, 102, 102); transform-origin: 106.077px 1165.29px;" cx="106.076" cy="1165.289" rx="5.697" ry="0.56" transform="matrix(-0.819152116779, -0.573576092714, -0.57357609272, 0.819152116775, 29.256448561584, -279.815293092649)"/>
  <ellipse style="stroke: rgb(0, 0, 0); stroke-width: 0px; fill: rgb(0, 102, 102); transform-origin: 106.078px 1165.29px;" cx="106.076" cy="1165.289" rx="2.444" ry="0.163" transform="matrix(-0.766044914727, -0.642786979703, -0.64278697967, 0.766044914723, 30.238800054819, -279.840641127594)"/>
  <ellipse style="stroke: rgb(0, 0, 0); stroke-width: 0px; fill: rgb(0, 102, 102);" cx="-122.025" cy="894.707" rx="4.538" ry="10.111" transform="matrix(-1, 0, 0, 1, 0, -1.1368683772161603e-13)"/>
  <ellipse style="stroke: rgb(0, 0, 0); stroke-width: 0px; fill: rgb(0, 102, 102); transform-origin: 93.84px 1179.59px;" cx="93.84" cy="1179.594" rx="0.817" ry="5.501" transform="matrix(-0.342020004976, -0.9396930933, -0.9396930933, 0.342020004988, 32.678727763989, -287.139669562037)"/>
  <ellipse style="stroke: rgb(0, 0, 0); stroke-width: 0px; fill: rgb(0, 102, 102); transform-origin: 118.417px 1166.5px;" cx="118.414" cy="1166.506" rx="0.817" ry="6.032" transform="matrix(-0.866025090219, -0.500000000001, -0.500000000001, 0.866025090218, 6.902702782723, -270.096188919061)"/>
  <ellipse style="stroke: rgb(0, 0, 0); stroke-width: 0px; fill: rgb(0, 102, 102);" cx="-128.322" cy="916.275" rx="5.524" ry="15.508" transform="matrix(-1, 0, 0, 1, 0, -1.1368683772161603e-13)"/>
  <ellipse style="stroke: rgb(0, 0, 0); stroke-width: 0px; fill: rgb(0, 102, 102); transform-origin: -117.349px -1175.7px;" cx="-117.349" cy="-1175.704" rx="4.928" ry="10.478" transform="matrix(-0.866025090218, 0.499999999999, 0.5, 0.866025090218, 242.316226689226, 2078.555936928663)"/>
  <ellipse style="stroke: rgb(0, 0, 0); stroke-width: 0px; fill: rgb(0, 102, 102); transform-origin: -123.401px 909.812px;" cx="-123.401" cy="909.813" rx="0.387" ry="2.755" transform="matrix(-1, 0, 0, 1, 246.80200195313, -1e-12)"/>
  <ellipse style="stroke: rgb(0, 0, 0); stroke-width: 0px; fill: rgb(0, 102, 102); transform-origin: 143.374px 1218.85px;" cx="143.374" cy="1218.853" rx="15.904" ry="31.268" transform="matrix(-0.819152116775, -0.57357609272, -0.57357609272, 0.819152116776, -33.936502627287, -278.130865248487)"/>
  <ellipse style="stroke: rgb(0, 0, 0); stroke-width: 0px; fill: rgb(0, 102, 102); transform-origin: 143.374px 1218.85px;" cx="143.374" cy="1218.853" rx="9.264" ry="25.94" transform="matrix(-0.906307995319, -0.422618061304, -0.422618061304, 0.906307995319, -47.633719853998, -262.551743520886)"/>
  <ellipse style="stroke: rgb(0, 0, 0); stroke-width: 0px; fill: rgb(0, 102, 102); transform-origin: 142.298px 1286.47px;" cx="142.297" cy="1286.473" rx="1.026" ry="11.124" transform="matrix(-0.9396930933, -0.342020004988, -0.342020004988, 0.9396930933, -33.446627286417, -323.502707051775)"/>
  <ellipse style="stroke: rgb(0, 0, 0); stroke-width: 0px; fill: rgb(0, 102, 102); transform-origin: 142.297px 1286.47px;" cx="142.297" cy="1286.473" rx="1.026" ry="13.826" transform="matrix(-0.965926110744, 0.258819013833, 0.258819013834, 0.965926110744, -33.591058442413, -301.111714100422)"/>
  <ellipse style="stroke: rgb(0, 0, 0); stroke-width: 0px; fill: rgb(0, 102, 102); transform-origin: 142.298px 1286.47px;" cx="142.297" cy="1286.473" rx="1.026" ry="11.124" transform="matrix(-0.984808027744, -0.173648029569, -0.173648029566, 0.984808027744, -36.752085960011, -321.095307826424)"/>
  <ellipse style="stroke: rgb(0, 0, 0); stroke-width: 0px; fill: rgb(0, 102, 102); transform-origin: 142.296px 1286.47px;" cx="142.297" cy="1286.473" rx="0.947" ry="12.374" transform="matrix(-0.984808027744, 0.173647031187, 0.173647031188, 0.984808027744, -36.678973221063, -299.554007931251)"/>
  <ellipse style="stroke: rgb(0, 0, 0); stroke-width: 0px; fill: rgb(0, 102, 102); transform-origin: 142.299px 1286.47px;" cx="142.297" cy="1286.473" rx="0.629" ry="3.662" transform="matrix(0.173648029566, 0.984808027747, 0.984808027745, -0.173648029565, -26.635737057958, -288.624707391874)"/>
  <ellipse style="stroke: rgb(0, 0, 0); stroke-width: 0px; fill: rgb(0, 102, 102); transform-origin: 142.298px 1286.47px;" cx="142.297" cy="1286.473" rx="0.629" ry="3.997" transform="matrix(-0.342020004995, 0.939693093301, 0.939693093299, 0.342020004988, -26.165042666108, -286.578746816783)"/>
  <ellipse style="stroke: rgb(0, 0, 0); stroke-width: 0px; fill: rgb(0, 102, 102); transform-origin: 142.297px 1286.47px;" cx="142.297" cy="1286.473" rx="0.629" ry="3.307" transform="matrix(-0.7071070075, 0.707107007495, 0.707107007503, 0.707107007506, -27.787004577226, -285.752854323719)"/>
  <ellipse style="stroke: rgb(0, 0, 0); stroke-width: 0px; fill: rgb(0, 102, 102); transform-origin: 142.299px 1286.47px;" cx="142.297" cy="1286.473" rx="0.629" ry="3.662" transform="matrix(0.17364802955, 0.984808027747, 0.984808027746, -0.173648029566, -31.094380505581, -288.230390221675)"/>
  <ellipse style="stroke: rgb(0, 0, 0); stroke-width: 0px; fill: rgb(0, 102, 102); transform-origin: 142.297px 1286.47px;" cx="142.297" cy="1286.473" rx="0.629" ry="3.997" transform="matrix(-0.342020004986, 0.939693093303, 0.939693093302, 0.342020004987, -30.62539473131, -286.181543388371)"/>
  <ellipse style="stroke: rgb(0, 0, 0); stroke-width: 0px; fill: rgb(0, 102, 102); transform-origin: 142.297px 1286.47px;" cx="142.297" cy="1286.473" rx="0.629" ry="3.307" transform="matrix(-0.707107007506, 0.707107007511, 0.707107007504, 0.707107007504, -32.248552495265, -285.355057686454)"/>
</svg>