<?xml version="1.0" encoding="utf-8"?>
<svg viewBox="736.0211 127.3274 184.1679 109.0077" xmlns="http://www.w3.org/2000/svg">
  <ellipse style="stroke: rgb(0, 0, 0); stroke-width: 0px; fill: rgb(153, 153, 0); transform-origin: -802.613px 172.055px;" cx="-802.628" cy="172.055" rx="64.471" ry="33.986" transform="matrix(-1, 0, 0, 1, 1605.226171874992, 0)"/>
  <ellipse style="stroke: rgb(0, 0, 0); stroke-width: 0px; fill: rgb(153, 153, 0); transform-origin: 1166.57px 243.876px;" cx="1166.567" cy="243.875" rx="42.488" ry="14.476" transform="matrix(-0.9396930933, -0.342020004988, -0.342020004988, 0.9396930933, -299.12412005642, -82.789577707451)"/>
  <ellipse style="stroke: rgb(0, 0, 0); stroke-width: 0px; fill: rgb(153, 153, 0); transform-origin: -860.023px 158.001px;" cx="-860.017" cy="157.999" rx="22.767" ry="23.428" transform="matrix(-1, 0, 0, 1, 1720.045947265619, 0)"/>
  <ellipse style="stroke: rgb(0, 0, 0); stroke-width: 0px; fill: rgb(153, 153, 0); transform-origin: 1125.85px 235.979px;" cx="1125.854" cy="235.975" rx="5.119" ry="19.881" transform="matrix(-0.766043901443, -0.642787992954, -0.642787992954, 0.766043901444, -222.361429991115, -71.157352213291)"/>
  <ellipse style="stroke: rgb(0, 0, 0); stroke-width: 0px; fill: rgb(153, 153, 0); transform-origin: 1125.85px 235.977px;" cx="1125.854" cy="235.975" rx="2.608" ry="7.564" transform="matrix(-0.939692139625, -0.342021018267, -0.343379944562, 0.93919813633, -230.422898457068, -76.991596831372)"/>
  <ellipse style="stroke: rgb(0, 0, 0); stroke-width: 0px; fill: rgb(153, 153, 0); transform-origin: 1125.85px 235.977px;" cx="1125.854" cy="235.975" rx="2.608" ry="7.564" transform="matrix(-0.939692139626, -0.342021018267, -0.343379944562, 0.93919813633, -251.208665367981, -100.650288590218)"/>
  <ellipse style="stroke: rgb(0, 0, 0); stroke-width: 0px; fill: rgb(153, 153, 0); transform-origin: 1125.85px 235.977px;" cx="1125.854" cy="235.975" rx="2.608" ry="7.564" transform="matrix(-0.866025090218, -0.500001013279, -0.501252949238, 0.865302026272, -246.783070842417, -98.978251525848)"/>
  <ellipse style="stroke: rgb(0, 0, 0); stroke-width: 0px; fill: rgb(153, 153, 0); transform-origin: 1284.5px 267.376px;" cx="1284.511" cy="267.377" rx="14.869" ry="26.631" transform="matrix(-0.996195018291, 0.087156012654, 0.087156012654, 0.996195018291, -531.334681820813, -84.411992456161)"/>
  <ellipse style="stroke: rgb(0, 0, 0); stroke-width: 0px; fill: rgb(153, 153, 0); transform-origin: 1284.51px 267.375px;" cx="1284.511" cy="267.377" rx="6.541" ry="17.832" transform="matrix(-0.906307995319, -0.422618061304, -0.422618061303, 0.906307995319, -531.452269524666, -59.551305117781)"/>
  <ellipse style="stroke: rgb(0, 0, 0); stroke-width: 0px; fill: rgb(153, 153, 0); transform-origin: 1284.51px 267.376px;" cx="1284.511" cy="267.377" rx="4.553" ry="8.996" transform="matrix(-0.866025090217, 0.500001013279, 0.500001013279, 0.866025090218, -534.505476867948, -43.731704554292)"/>
  <ellipse style="stroke: rgb(0, 0, 0); stroke-width: 0px; fill: rgb(153, 153, 0); transform-origin: 1284.51px 267.377px;" cx="1284.511" cy="267.377" rx="7.594" ry="3.736" transform="matrix(-1, 0.000001, 0.000001000002, 1, -531.657783319108, -34.777890812545)"/>
  <ellipse style="stroke: rgb(0, 0, 0); stroke-width: 0px; fill: rgb(153, 153, 0); transform-origin: 1284.51px 267.377px;" cx="1284.511" cy="267.377" rx="7.594" ry="3.736" transform="matrix(-1, 0.000001, 9.99999e-7, 1, -446.925238110423, -38.722238252933)"/>
  <ellipse style="stroke: rgb(0, 0, 0); stroke-width: 0px; fill: rgb(153, 153, 0); transform-origin: 1284.51px 267.377px;" cx="1284.511" cy="267.377" rx="7.594" ry="3.736" transform="matrix(-1, 0.000001, 9.99999e-7, 1, -443.187689226406, -36.338765774779)"/>
  <ellipse style="stroke: rgb(0, 0, 0); stroke-width: 0px; fill: rgb(153, 153, 0); transform-origin: 1284.51px 267.376px;" cx="1284.511" cy="267.377" rx="4.553" ry="8.996" transform="matrix(-0.866025090218, 0.500001013279, 0.500001013279, 0.866025090218, -532.729231724324, -41.351699636348)"/>
  <ellipse style="stroke: rgb(0, 0, 0); stroke-width: 0px; fill: rgb(153, 153, 0); transform-origin: 1284.51px 267.375px;" cx="1284.511" cy="267.377" rx="6.541" ry="17.832" transform="matrix(-0.819152116775, -0.57357609272, -0.57357609272, 0.819152116775, -517.523108487325, -60.525662041562)"/>
  <ellipse style="stroke: rgb(0, 0, 0); stroke-width: 0px; fill: rgb(153, 153, 0); transform-origin: 1284.51px 267.377px;" cx="1284.511" cy="267.377" rx="7.594" ry="3.736" transform="matrix(-1, 0.000001, 0.000001000001, 1, -518.235541908298, -36.574018158653)"/>
  <ellipse style="stroke: rgb(0, 0, 0); stroke-width: 0px; fill: rgb(153, 153, 0); transform-origin: 1284.51px 267.378px;" cx="1284.511" cy="267.377" rx="4.553" ry="10.275" transform="matrix(-0.707107007504, 0.707107007503, 0.707107007504, 0.707107007504, -521.605512391567, -43.763469738266)"/>
  <ellipse style="stroke: rgb(0, 0, 0); stroke-width: 0px; fill: rgb(153, 153, 0); transform-origin: -841.923px 198.909px;" cx="-841.918" cy="198.911" rx="7.593" ry="31.999" transform="matrix(-1, 0, 0, 1, 1683.845922851598, 0)"/>
  <ellipse style="stroke: rgb(0, 0, 0); stroke-width: 0px; fill: rgb(153, 153, 0); transform-origin: -837.163px 197.362px;" cx="-837.154" cy="197.365" rx="7.593" ry="31.999" transform="matrix(-1, 0, 0, 1, 1674.326000976519, 0)"/>
  <ellipse style="stroke: rgb(0, 0, 0); stroke-width: 0px; fill: rgb(153, 153, 0); transform-origin: 1178.79px 283.528px;" cx="1178.799" cy="283.527" rx="4.217" ry="15.605" transform="matrix(-0.984808027744, -0.173649027944, -0.173649027943, 0.984808027744, -330.64699061983, -90.403332133106)"/>
</svg>