<?xml version="1.0" encoding="utf-8"?>
<svg viewBox="865.2791 227.7201 208.9774 122.1919" xmlns="http://www.w3.org/2000/svg">
  <ellipse style="stroke: rgb(0, 0, 0); stroke-width: 0px; fill: rgb(153, 153, 0); transform-origin: -889.882px 255.74px;" cx="-889.911" cy="255.74" rx="20.013" ry="18.302" transform="matrix(-1, 0, 0, 1, 1779.764501953097, 0)"/>
  <ellipse style="stroke: rgb(0, 0, 0); stroke-width: 0px; fill: rgb(153, 153, 0); transform-origin: -875.966px 264.728px;" cx="-875.98" cy="264.728" rx="9.916" ry="9.526" transform="matrix(-1, 0, -1e-12, 1, 1751.9329589847, 0)"/>
  <ellipse style="stroke: rgb(0, 0, 0); stroke-width: 0px; fill: rgb(153, 153, 0); transform-origin: -880.647px 271.811px;" cx="-880.665" cy="271.811" rx="9.139" ry="9.604" transform="matrix(-1, 0, 0, 1, 1761.293701171708, 0)"/>
  <ellipse style="stroke: rgb(0, 0, 0); stroke-width: 0px; fill: rgb(153, 153, 0); transform-origin: 1250.32px 180.171px;" cx="1250.303" cy="180.174" rx="8.064" ry="10.321" transform="matrix(-0.9396930933, -0.342020004988, -0.342020004988, 0.9396930933, -353.934688500097, 59.997151266835)"/>
  <ellipse style="stroke: rgb(0, 0, 0); stroke-width: 0px; fill: rgb(153, 153, 0); transform-origin: -953.333px 287.813px;" cx="-953.348" cy="287.813" rx="44.734" ry="29.023" transform="matrix(-1, 0, 0, 1, 1906.665527343761, 0)"/>
  <ellipse style="stroke: rgb(0, 0, 0); stroke-width: 0px; fill: rgb(153, 153, 0); transform-origin: -1002.92px 287.113px;" cx="-1002.919" cy="287.113" rx="25.297" ry="25.061" transform="matrix(-1, 0, 0, 1, 2005.839965820292, 0)"/>
  <ellipse style="stroke: rgb(0, 0, 0); stroke-width: 0px; fill: rgb(153, 153, 0); transform-origin: -976.269px 264.104px;" cx="-976.28" cy="264.104" rx="30.889" ry="5.02" transform="matrix(-1, 0, 0, 1, 1952.538574218699, 0)"/>
  <ellipse style="stroke: rgb(0, 0, 0); stroke-width: 0px; fill: rgb(153, 153, 0); transform-origin: 1157.28px 237.464px;" cx="1157.271" cy="237.464" rx="11.626" ry="33.051" transform="matrix(-0.866025090218, 0.5, 0.5, 0.866025090218, -145.879815907751, 77.433300455722)"/>
  <ellipse style="stroke: rgb(0, 0, 0); stroke-width: 0px; fill: rgb(153, 153, 0); transform-origin: -1018.22px 343.13px;" cx="-1018.255" cy="343.13" rx="11.004" ry="6.447" transform="matrix(-1, 0, 0, 1, 2036.439550780957, 0)"/>
  <ellipse style="stroke: rgb(0, 0, 0); stroke-width: 0px; fill: rgb(153, 153, 0); transform-origin: 1151.17px 227.228px;" cx="1151.17" cy="227.227" rx="2.134" ry="11.759" transform="matrix(-0.965926110745, 0.258819013834, 0.258819013833, 0.965926110745, -131.827479982282, 76.413513373277)"/>
  <ellipse style="stroke: rgb(0, 0, 0); stroke-width: 0px; fill: rgb(153, 153, 0); transform-origin: 1157.28px 237.464px;" cx="1157.271" cy="237.464" rx="11.626" ry="32.833" transform="matrix(-0.965926110744, 0.258819013834, 0.258819013834, 0.965926110744, -161.323299024688, 76.510389374956)"/>
  <ellipse style="stroke: rgb(0, 0, 0); stroke-width: 0px; fill: rgb(153, 153, 0); transform-origin: -997.671px 343.465px;" cx="-997.71" cy="343.465" rx="11.004" ry="6.447" transform="matrix(-1, 0, 0, 1, 1995.342578125076, 0)"/>
  <ellipse style="stroke: rgb(0, 0, 0); stroke-width: 0px; fill: rgb(153, 153, 0); transform-origin: 1157.28px 237.464px;" cx="1157.271" cy="237.464" rx="11.626" ry="32.833" transform="matrix(-0.996195018291, -0.087156012654, -0.087156012654, 0.996195018291, -218.504624420487, 77.642750247822)"/>
  <ellipse style="stroke: rgb(0, 0, 0); stroke-width: 0px; fill: rgb(153, 153, 0); transform-origin: -930.132px 343.401px;" cx="-930.163" cy="343.401" rx="11.004" ry="6.447" transform="matrix(-1, 0, 0, 1, 1860.263403320098, 0)"/>
  <ellipse style="stroke: rgb(0, 0, 0); stroke-width: 0px; fill: rgb(153, 153, 0); transform-origin: -919.802px 300.728px;" cx="-919.818" cy="300.728" rx="11.626" ry="44.003" transform="matrix(-1, 0, 0, 1, 1839.60385742186, 0)"/>
  <ellipse style="stroke: rgb(0, 0, 0); stroke-width: 0px; fill: rgb(153, 153, 0); transform-origin: -912.781px 343.291px;" cx="-912.814" cy="343.291" rx="11.004" ry="6.447" transform="matrix(-1, 0, 1e-12, 1, 1825.562597655734, 0)"/>
  <ellipse style="stroke: rgb(0, 0, 0); stroke-width: 0px; fill: rgb(153, 153, 0); transform-origin: 1195.5px 205.985px;" cx="1195.495" cy="205.982" rx="20.542" ry="44.668" transform="matrix(-0.422619074583, 0.90630698204, 0.90630698204, 0.422619074583, -281.055874006817, 59.353304041377)"/>
  <ellipse style="stroke: rgb(0, 0, 0); stroke-width: 0px; fill: rgb(153, 153, 0); transform-origin: 1174.42px 198.195px;" cx="1174.413" cy="198.195" rx="18.849" ry="2.651" transform="matrix(-0.984808027744, -0.173648029566, -0.173648029566, 0.984808027744, -233.490646414568, 61.990010752438)"/>
  <ellipse style="stroke: rgb(0, 0, 0); stroke-width: 0px; fill: rgb(153, 153, 0); transform-origin: 1142.67px 222.511px;" cx="1142.672" cy="222.51" rx="6.92" ry="31.211" transform="matrix(-0.90630698204, 0.422619074583, 0.422619074583, 0.90630698204, -111.732835764768, 75.938223447537)"/>
  <ellipse style="stroke: rgb(0, 0, 0); stroke-width: 0px; fill: rgb(153, 153, 0); transform-origin: 1142.67px 222.511px;" cx="1142.672" cy="222.51" rx="6.102" ry="14.376" transform="matrix(-0.642786979675, 0.766044914722, 0.766044914722, 0.642786979675, -97.55010124632, 101.001537343932)"/>
  <ellipse style="stroke: rgb(0, 0, 0); stroke-width: 0px; fill: rgb(153, 153, 0); transform-origin: 1142.67px 222.511px;" cx="1142.672" cy="222.51" rx="6.521" ry="11.863" transform="matrix(-0.707107007504, -0.707106113434, -0.707106113434, 0.707107007503, -81.756768451005, 102.018892580037)"/>
  <ellipse style="stroke: rgb(0, 0, 0); stroke-width: 0px; fill: rgb(153, 153, 0); transform-origin: 1142.67px 222.511px;" cx="1142.672" cy="222.51" rx="6.521" ry="15.292" transform="matrix(-0.984808027744, 0.173649027944, 0.173649027944, 0.984808027744, -77.488800394054, 85.241318288483)"/>
  <ellipse style="stroke: rgb(0, 0, 0); stroke-width: 0px; fill: rgb(153, 153, 0); transform-origin: 1142.67px 222.511px;" cx="1142.672" cy="222.51" rx="5.871" ry="9.463" transform="matrix(-0.707106113434, 0.707107007503, 0.707107007504, 0.707106113434, -82.461494467095, 73.291989927504)"/>
  <ellipse style="stroke: rgb(0, 0, 0); stroke-width: 0px; fill: rgb(153, 153, 0); transform-origin: 1142.67px 222.51px;" cx="1142.672" cy="222.51" rx="1.375" ry="9.463" transform="matrix(-0.866025090218, 0.500001013279, 0.500001013278, 0.866025090219, -84.158441084327, 78.833273721169)"/>
  <ellipse style="stroke: rgb(0, 0, 0); stroke-width: 0px; fill: rgb(153, 153, 0); transform-origin: 1142.67px 222.51px;" cx="1142.672" cy="222.51" rx="1.375" ry="9.463" transform="matrix(-0.906307995319, -0.422617077827, -0.422617077828, 0.906307995319, -81.166916380273, 92.725707611005)"/>
  <ellipse style="stroke: rgb(0, 0, 0); stroke-width: 0px; fill: rgb(153, 153, 0); transform-origin: 1142.67px 222.51px;" cx="1142.672" cy="222.51" rx="1.375" ry="9.463" transform="matrix(0.000001, 0.999999999999, 1, -0.000001000001, -88.683674651717, 100.033105724504)"/>
  <ellipse style="stroke: rgb(0, 0, 0); stroke-width: 0px; fill: rgb(153, 153, 0); transform-origin: 1142.67px 222.51px;" cx="1142.672" cy="222.51" rx="1.375" ry="9.463" transform="matrix(-0.819152116775, 0.57357698679, 0.57357698679, 0.819152116774, -98.322795998145, 92.618239821414)"/>
  <ellipse style="stroke: rgb(0, 0, 0); stroke-width: 0px; fill: rgb(153, 153, 0); transform-origin: 1142.67px 222.51px;" cx="1142.672" cy="222.51" rx="1.375" ry="4.587" transform="matrix(-1, 0.000001, 0.000001000003, 0.999999999999, -113.9269912273, 117.334388742362)"/>
</svg>