<?xml version="1.0" encoding="utf-8"?>
<svg viewBox="935.289 185.731 37.226 51.399" xmlns="http://www.w3.org/2000/svg">
  <path d="M 955.521 187.39 L 959.567 252.13 L 951.474 252.13 L 955.521 187.39 Z" style="stroke: rgb(0, 0, 0); stroke-width: 0px; fill: rgb(204, 204, 0);"/>
  <path d="M 1442.337 329.684 L 1446.383 394.424 L 1438.29 394.424 L 1442.337 329.684 Z" style="stroke: rgb(0, 0, 0); stroke-width: 0px; fill: rgb(204, 204, 0);" transform="matrix(1, 0, -9.999999960041972e-13, 1, -483.5786815222899, -142.29512235962034)"/>
  <path d="M 961.995 187.39 L 966.041 252.13 L 957.948 252.13 L 961.995 187.39 Z" style="stroke: rgb(0, 0, 0); stroke-width: 0px; fill: rgb(204, 204, 0);"/>
  <path d="M 965.232 187.39 L 969.278 252.13 L 961.185 252.13 L 965.232 187.39 Z" style="stroke: rgb(0, 0, 0); stroke-width: 0px; fill: rgb(204, 204, 0);"/>
  <path d="M 968.469 187.39 L 972.515 252.13 L 964.422 252.13 L 968.469 187.39 Z" style="stroke: rgb(0, 0, 0); stroke-width: 0px; fill: rgb(204, 204, 0);"/>
  <path d="M 939.336 185.731 L 943.382 250.471 L 935.289 250.471 L 939.336 185.731 Z" style="stroke: rgb(0, 0, 0); stroke-width: 0px; fill: rgb(204, 204, 0);"/>
  <path d="M 942.573 185.731 L 946.619 250.471 L 938.526 250.471 L 942.573 185.731 Z" style="stroke: rgb(0, 0, 0); stroke-width: 0px; fill: rgb(204, 204, 0);"/>
  <path d="M 945.81 185.731 L 949.856 250.471 L 941.763 250.471 L 945.81 185.731 Z" style="stroke: rgb(0, 0, 0); stroke-width: 0px; fill: rgb(204, 204, 0);"/>
  <path d="M 949.047 185.731 L 953.093 250.471 L 945 250.471 L 949.047 185.731 Z" style="stroke: rgb(0, 0, 0); stroke-width: 0px; fill: rgb(204, 204, 0);"/>
  <path d="M 952.284 185.731 L 956.33 250.471 L 948.237 250.471 L 952.284 185.731 Z" style="stroke: rgb(0, 0, 0); stroke-width: 0px; fill: rgb(204, 204, 0);"/>
</svg>