<?xml version="1.0" encoding="utf-8"?>
<svg viewBox="933.9419 132.187 38.9588 48.4163" xmlns="http://www.w3.org/2000/svg">
  <ellipse style="stroke: rgb(0, 0, 0); stroke-width: 0px; fill: rgb(153, 153, 0); transform-origin: 1074.48px 234.377px;" cx="1074.48" cy="234.377" rx="10.404" ry="17.161" transform="matrix(0.866025090218, 0.5, -0.5, 0.866025090218, -119.169816416834, -82.126177079472)"/>
  <ellipse style="stroke: rgb(0, 0, 0); stroke-width: 0px; fill: rgb(153, 153, 0); transform-origin: 1074.48px 234.377px;" cx="1074.48" cy="234.377" rx="7.957" ry="15.345" transform="matrix(0.866025090218, 0.5, -0.5, 0.866025090218, -125.974550890123, -71.041394993657)"/>
  <ellipse style="stroke: rgb(0, 0, 0); stroke-width: 0px; fill: rgb(153, 153, 0); transform-origin: 1074.48px 234.377px;" cx="1074.48" cy="234.377" rx="7.608" ry="2.687" transform="matrix(1, 0.000001, -0.000001, 1, -116.185493066383, -95.378176513856)"/>
  <ellipse style="stroke: rgb(0, 0, 0); stroke-width: 0px; fill: rgb(153, 153, 0); transform-origin: 1074.48px 234.377px;" cx="1074.48" cy="234.377" rx="6.455" ry="4.064" transform="matrix(0.906307995319, -0.422617077827, 0.422617077828, 0.906307995319, -122.792995170173, -92.975841709225)"/>
  <ellipse style="stroke: rgb(0, 0, 0); stroke-width: 0px; fill: rgb(153, 153, 0); transform-origin: 1074.48px 234.377px;" cx="1074.48" cy="234.377" rx="1.94" ry="5.63" transform="matrix(0.766044914723, -0.642786979675, 0.642786979674, 0.766044914724, -125.799903293434, -95.414270258005)"/>
  <ellipse style="stroke: rgb(0, 0, 0); stroke-width: 0px; fill: rgb(153, 153, 0); transform-origin: 1074.48px 234.377px;" cx="1074.48" cy="234.377" rx="1.94" ry="5.63" transform="matrix(0.766044914722, -0.642786979675, 0.642786979674, 0.766044914722, -129.655364471337, -90.457605145013)"/>
</svg>