<?xml version="1.0" encoding="utf-8"?>
<svg viewBox="857.5745 127.3275 62.6145 61.8942" xmlns="http://www.w3.org/2000/svg">
  <ellipse style="stroke: rgb(0, 0, 0); stroke-width: 0px; fill: rgb(153, 153, 0); transform-origin: 1166.57px 243.876px;" cx="1166.567" cy="243.875" rx="42.488" ry="14.476" transform="matrix(-0.9396930933, -0.342020004988, -0.342020004988, 0.9396930933, -299.121790282803, -82.789148620929)"/>
  <ellipse style="stroke: rgb(0, 0, 0); stroke-width: 0px; fill: rgb(153, 153, 0); transform-origin: -860.023px 158.001px;" cx="-860.017" cy="157.999" rx="22.767" ry="23.428" transform="matrix(-1, 0, 0, 1, 1720.045825195317, 0)"/>
  <ellipse style="stroke: rgb(0, 0, 0); stroke-width: 0px; fill: rgb(153, 153, 0); transform-origin: 1125.85px 235.979px;" cx="1125.854" cy="235.975" rx="5.119" ry="19.881" transform="matrix(-0.766043901443, -0.642787992954, -0.642787992954, 0.766043901443, -222.361429991115, -71.157291178069)"/>
  <ellipse style="stroke: rgb(0, 0, 0); stroke-width: 0px; fill: rgb(153, 153, 0); transform-origin: 1125.85px 235.977px;" cx="1125.854" cy="235.975" rx="2.608" ry="7.564" transform="matrix(-0.939692139625, -0.342021018267, -0.343379944563, 0.93919813633, -230.423142597372, -76.991505278669)"/>
  <ellipse style="stroke: rgb(0, 0, 0); stroke-width: 0px; fill: rgb(153, 153, 0); transform-origin: 1125.85px 235.977px;" cx="1125.854" cy="235.975" rx="2.608" ry="7.564" transform="matrix(-0.939692139625, -0.342021018267, -0.343379944563, 0.939198136329, -251.208909509088, -100.65019703735)"/>
  <ellipse style="stroke: rgb(0, 0, 0); stroke-width: 0px; fill: rgb(153, 153, 0); transform-origin: 1125.85px 235.977px;" cx="1125.854" cy="235.975" rx="2.608" ry="7.564" transform="matrix(-0.866025090218, -0.500001013279, -0.501252949238, 0.865302026272, -246.783070842417, -98.978373596)"/>
</svg>