<?xml version="1.0" encoding="utf-8"?>
<svg viewBox="933.9422 133.4028 140.044 107.1694" xmlns="http://www.w3.org/2000/svg">
  <ellipse style="stroke: rgb(0, 0, 0); stroke-width: 0px; fill: rgb(153, 153, 0); transform-origin: 1074.48px 234.377px;" cx="1074.48" cy="234.377" rx="10.404" ry="14.935" transform="matrix(0.866025090218, 0.5, -0.5, 0.866025090218, -120.282014309439, -80.198381640598)"/>
  <ellipse style="stroke: rgb(0, 0, 0); stroke-width: 0px; fill: rgb(153, 153, 0); transform-origin: 1074.48px 234.377px;" cx="1074.48" cy="234.377" rx="7.957" ry="15.345" transform="matrix(0.866025090218, 0.5, -0.5, 0.866025090218, -125.974322008267, -71.041456028823)"/>
  <ellipse style="stroke: rgb(0, 0, 0); stroke-width: 0px; fill: rgb(153, 153, 0); transform-origin: 1015.3px 178.55px;" cx="1015.287" cy="178.55" rx="24.89" ry="18.955"/>
  <ellipse style="stroke: rgb(0, 0, 0); stroke-width: 0px; fill: rgb(153, 153, 0); transform-origin: 1043.03px 176.401px;" cx="1043.013" cy="176.401" rx="13.869" ry="19.856"/>
  <ellipse style="stroke: rgb(0, 0, 0); stroke-width: 0px; fill: rgb(153, 153, 0); transform-origin: 1152.89px 246.128px;" cx="1152.855" cy="246.128" rx="18.03" ry="5.717" transform="matrix(0.996195018291, -0.087156012654, 0.087156012654, 0.996195018291, -119.7396199529, -83.394804466)"/>
  <ellipse style="stroke: rgb(0, 0, 0); stroke-width: 0px; fill: rgb(153, 153, 0); transform-origin: 1111.33px 246.76px;" cx="1111.314" cy="246.764" rx="32.374" ry="12.392" transform="matrix(0.707106113434, 0.707107007504, -0.707107007503, 0.707106113434, -131.881063734257, -78.001781456802)"/>
  <ellipse style="stroke: rgb(0, 0, 0); stroke-width: 0px; fill: rgb(153, 153, 0); transform-origin: 1111.32px 246.762px;" cx="1111.314" cy="246.764" rx="23.256" ry="4.609" transform="matrix(0.996195018291, 0.087157018483, -0.087157018483, 0.996195018292, -113.075345186947, -84.65569004424)"/>
  <ellipse style="stroke: rgb(0, 0, 0); stroke-width: 0px; fill: rgb(153, 153, 0); transform-origin: 1111.32px 246.76px;" cx="1111.314" cy="246.764" rx="28.908" ry="8.475" transform="matrix(0.939692139626, 0.342022001743, -0.342022001743, 0.939692139626, -127.969328028568, -85.296047780003)"/>
  <ellipse style="stroke: rgb(0, 0, 0); stroke-width: 0px; fill: rgb(153, 153, 0); transform-origin: 1074.48px 234.377px;" cx="1074.48" cy="234.377" rx="10.918" ry="4.072" transform="matrix(0.866025090218, 0.500001013279, -0.500001013279, 0.866025090217, -91.931414764307, -82.695948112153)"/>
  <ellipse style="stroke: rgb(0, 0, 0); stroke-width: 0px; fill: rgb(153, 153, 0); transform-origin: 1074.48px 234.377px;" cx="1074.48" cy="234.377" rx="12.767" ry="4.182" transform="matrix(0.866025090218, 0.500001013279, -0.500001013279, 0.866025090217, -108.002398890511, -90.845179190563)"/>
  <ellipse style="stroke: rgb(0, 0, 0); stroke-width: 0px; fill: rgb(153, 153, 0); transform-origin: 1074.48px 234.377px;" cx="1074.48" cy="234.377" rx="7.608" ry="2.687" transform="matrix(1, 0.000001, -0.000001, 1, -116.185477807805, -95.378176513856)"/>
  <ellipse style="stroke: rgb(0, 0, 0); stroke-width: 0px; fill: rgb(153, 153, 0); transform-origin: 1074.48px 234.377px;" cx="1074.48" cy="234.377" rx="6.455" ry="4.064" transform="matrix(0.906307995319, -0.422617077827, 0.422617077828, 0.90630799532, -122.792651847393, -92.975780674088)"/>
  <ellipse style="stroke: rgb(0, 0, 0); stroke-width: 0px; fill: rgb(153, 153, 0); transform-origin: 1074.48px 234.377px;" cx="1074.48" cy="234.377" rx="1.94" ry="5.63" transform="matrix(0.766044914722, -0.642786979675, 0.642786979675, 0.766044914723, -125.799773593791, -95.414392328034)"/>
  <ellipse style="stroke: rgb(0, 0, 0); stroke-width: 0px; fill: rgb(153, 153, 0); transform-origin: 1074.48px 234.377px;" cx="1074.48" cy="234.377" rx="1.94" ry="5.63" transform="matrix(0.766044914723, -0.642786979675, 0.642786979676, 0.766044914722, -129.655227142867, -90.457727214977)"/>
  <ellipse style="stroke: rgb(0, 0, 0); stroke-width: 0px; fill: rgb(153, 153, 0); transform-origin: 1051.1px 161.347px;" cx="1051.108" cy="161.347" rx="3.57" ry="2.018"/>
  <ellipse style="stroke: rgb(0, 0, 0); stroke-width: 0px; fill: rgb(153, 153, 0); transform-origin: 1183.8px 243.847px;" cx="1183.803" cy="243.846" rx="3.57" ry="1.387" transform="matrix(0.766044914721, 0.642786979676, -0.642786979674, 0.766044914722, -128.413890251715, -81.478408513817)"/>
  <ellipse style="stroke: rgb(0, 0, 0); stroke-width: 0px; fill: rgb(153, 153, 0); transform-origin: 1183.8px 243.847px;" cx="1183.803" cy="243.846" rx="5.717" ry="1.158" transform="matrix(0.422618061304, 0.906307995321, -0.90630799532, 0.422618061307, -125.453426992825, -77.27052928431)"/>
  <ellipse style="stroke: rgb(0, 0, 0); stroke-width: 0px; fill: rgb(153, 153, 0); transform-origin: 1183.8px 243.848px;" cx="1183.803" cy="243.846" rx="5.717" ry="1.158" transform="matrix(0.258819013834, 0.965926110745, -0.965926110745, 0.258819013832, -122.930997414585, -70.673008225466)"/>
  <ellipse style="stroke: rgb(0, 0, 0); stroke-width: 0px; fill: rgb(153, 153, 0); transform-origin: 1183.8px 243.848px;" cx="1183.803" cy="243.846" rx="5.717" ry="1.026" transform="matrix(0.422618061304, 0.906307995321, -0.906307995319, 0.422618061304, -119.981181275642, -63.055952805649)"/>
  <ellipse style="stroke: rgb(0, 0, 0); stroke-width: 0px; fill: rgb(153, 153, 0); transform-origin: 1183.8px 243.852px;" cx="1183.803" cy="243.846" rx="6.609" ry="2.936" transform="matrix(0.422618061304, 0.906307995319, -0.906307995319, 0.422618061305, -115.274593649129, -53.276679946748)"/>
  <ellipse style="stroke: rgb(0, 0, 0); stroke-width: 0px; fill: rgb(153, 153, 0); transform-origin: 1183.8px 243.846px;" cx="1183.803" cy="243.846" rx="2.404" ry="0.528" transform="matrix(0.342020004987, 0.939693093297, -0.939693093297, 0.34202000496, -121.322447378562, -67.098718914943)"/>
  <ellipse style="stroke: rgb(0, 0, 0); stroke-width: 0px; fill: rgb(153, 153, 0); transform-origin: 1183.8px 243.846px;" cx="1183.803" cy="243.846" rx="2.404" ry="0.528" transform="matrix(0.342020004987, 0.939693093304, -0.939693093298, 0.34202000496, -124.420136032736, -73.625676479361)"/>
  <ellipse style="stroke: rgb(0, 0, 0); stroke-width: 0px; fill: rgb(153, 153, 0); transform-origin: 1183.8px 243.846px;" cx="1183.803" cy="243.846" rx="2.404" ry="0.528" transform="matrix(0.573576092719, 0.819152116776, -0.819152116781, 0.573576092701, -127.198177733256, -79.158597446586)"/>
  <ellipse style="stroke: rgb(0, 0, 0); stroke-width: 0px; fill: rgb(153, 153, 0); transform-origin: 1175.53px 244.878px;" cx="1175.532" cy="244.878" rx="2.404" ry="0.528" transform="matrix(0.996195018286, 0.087156012654, -0.08715601264, 0.996195018285, -121.478951235549, -82.04164099016)"/>
  <ellipse style="stroke: rgb(0, 0, 0); stroke-width: 0px; fill: rgb(153, 153, 0); transform-origin: 1111.32px 246.754px;" cx="1111.314" cy="246.764" rx="6.401" ry="18.019" transform="matrix(0.819152116775, 0.57357698679, -0.57357698679, 0.819152116776, -124.650215107001, -51.639673411254)"/>
  <ellipse style="stroke: rgb(0, 0, 0); stroke-width: 0px; fill: rgb(153, 153, 0); transform-origin: 1111.32px 246.755px;" cx="1111.314" cy="246.764" rx="4.483" ry="17.289" transform="matrix(0.965926110744, -0.258818000555, 0.258818000555, 0.965926110745, -130.156956753252, -27.733182338195)"/>
  <ellipse style="stroke: rgb(0, 0, 0); stroke-width: 0px; fill: rgb(153, 153, 0); transform-origin: 1111.32px 246.762px;" cx="1111.314" cy="246.764" rx="3.77" ry="4.622" transform="matrix(1, 0.000001, -9.99999e-7, 1, -127.303227174508, -13.176800634647)"/>
  <ellipse style="stroke: rgb(0, 0, 0); stroke-width: 0px; fill: rgb(153, 153, 0); transform-origin: 1111.32px 246.752px;" cx="1111.314" cy="246.764" rx="6.085" ry="22.766" transform="matrix(0.984808027744, -0.173647031188, 0.173647031188, 0.984808027744, -117.524067209281, -50.411497009493)"/>
  <ellipse style="stroke: rgb(0, 0, 0); stroke-width: 0px; fill: rgb(153, 153, 0); transform-origin: 1111.32px 246.755px;" cx="1111.314" cy="246.764" rx="3.047" ry="14.959" transform="matrix(0.965926110744, -0.258818000555, 0.258818000556, 0.965926110744, -111.45828704123, -24.886472090704)"/>
  <ellipse style="stroke: rgb(0, 0, 0); stroke-width: 0px; fill: rgb(153, 153, 0); transform-origin: 1111.32px 246.762px;" cx="1111.314" cy="246.764" rx="3.77" ry="4.622" transform="matrix(0.999999999999, 0.000001, -0.000001, 1, -109.261066870961, -11.233875152284)"/>
  <ellipse style="stroke: rgb(0, 0, 0); stroke-width: 0px; fill: rgb(153, 153, 0); transform-origin: 1111.32px 246.753px;" cx="1111.314" cy="246.764" rx="6.366" ry="21.112" transform="matrix(0.9396930933, -0.342018008232, 0.342018008232, 0.9396930933, -69.242791597035, -52.47090285765)"/>
  <ellipse style="stroke: rgb(0, 0, 0); stroke-width: 0px; fill: rgb(153, 153, 0); transform-origin: 1111.32px 246.756px;" cx="1111.314" cy="246.764" rx="4.347" ry="14.735" transform="matrix(0.939692139625, 0.342022001743, -0.342022001743, 0.939692139625, -66.06157625513, -24.939299433971)"/>
  <ellipse style="stroke: rgb(0, 0, 0); stroke-width: 0px; fill: rgb(153, 153, 0); transform-origin: 1111.32px 246.762px;" cx="1111.314" cy="246.764" rx="3.77" ry="4.622" transform="matrix(1, 0.000001, -0.000001000002, 1, -71.254176961019, -10.813799729594)"/>
  <ellipse style="stroke: rgb(0, 0, 0); stroke-width: 0px; fill: rgb(153, 153, 0); transform-origin: 1111.32px 246.76px;" cx="1111.314" cy="246.764" rx="0.636" ry="7.288" transform="matrix(0.99619501829, 0.087157018483, -0.087157018491, 0.99619501829, -128.554983817885, -36.099224195275)"/>
  <ellipse style="stroke: rgb(0, 0, 0); stroke-width: 0px; fill: rgb(153, 153, 0); transform-origin: 1111.32px 246.76px;" cx="1111.314" cy="246.764" rx="0.636" ry="7.288" transform="matrix(0.999999999998, 0.000001, -0.000001000004, 0.999999999998, -66.24303033686, -32.977038584921)"/>
  <ellipse style="stroke: rgb(0, 0, 0); stroke-width: 0px; fill: rgb(153, 153, 0); transform-origin: 1111.32px 246.753px;" cx="1111.314" cy="246.764" rx="5.802" ry="21.112" transform="matrix(0.965926110745, -0.258817017078, 0.258817017078, 0.965926110744, -58.004429590745, -49.005032361486)"/>
  <ellipse style="stroke: rgb(0, 0, 0); stroke-width: 0px; fill: rgb(153, 153, 0); transform-origin: 1111.32px 246.756px;" cx="1111.314" cy="246.764" rx="3.048" ry="14.543" transform="matrix(1, 0.000002, -0.000002, 1, -52.332372954318, -24.985902579443)"/>
  <ellipse style="stroke: rgb(0, 0, 0); stroke-width: 0px; fill: rgb(153, 153, 0); transform-origin: 1111.32px 246.762px;" cx="1111.314" cy="246.764" rx="3.77" ry="4.622" transform="matrix(1, 0.000001, -9.99999e-7, 1, -52.76837499025, -11.610995175974)"/>
</svg>