<?xml version="1.0" encoding="utf-8"?>
<svg viewBox="720.427 165.638 359.573 100.333" xmlns="http://www.w3.org/2000/svg" xmlns:bx="https://boxy-svg.com">
  <path d="M 723.5 220 L 726 260 L 721 260 L 723.5 220 Z" style="stroke: rgb(0, 0, 0); stroke-width: 0px; fill: rgb(204, 153, 0);" bx:shape="triangle 721 220 5 40 0.5 0 1@7018367d"/>
  <path d="M 724.278 204.359 L 728.129 265.971 L 720.427 265.971 L 724.278 204.359 Z" style="stroke: rgb(0, 0, 0); stroke-width: 0px; fill: rgb(204, 204, 0);" bx:shape="triangle 720.427 204.359 7.702 61.612 0.5 0 1@b6462db5"/>
  <path d="M 727.359 204.359 L 731.21 265.971 L 723.508 265.971 L 727.359 204.359 Z" style="stroke: rgb(0, 0, 0); stroke-width: 0px; fill: rgb(204, 204, 0);" bx:shape="triangle 723.508 204.359 7.702 61.612 0.5 0 1@ba01cef8"/>
  <path d="M 730.439 204.359 L 734.29 265.971 L 726.588 265.971 L 730.439 204.359 Z" style="stroke: rgb(0, 0, 0); stroke-width: 0px; fill: rgb(204, 204, 0);" bx:shape="triangle 726.588 204.359 7.702 61.612 0.5 0 1@f72762f1"/>
  <path d="M 733.52 204.359 L 737.371 265.971 L 729.669 265.971 L 733.52 204.359 Z" style="stroke: rgb(0, 0, 0); stroke-width: 0px; fill: rgb(204, 204, 0);" bx:shape="triangle 729.669 204.359 7.702 61.612 0.5 0 1@46fd221c"/>
  <path d="M 736.6 204.359 L 740.451 265.971 L 732.749 265.971 L 736.6 204.359 Z" style="stroke: rgb(0, 0, 0); stroke-width: 0px; fill: rgb(204, 204, 0);" bx:shape="triangle 732.749 204.359 7.702 61.612 0.5 0 1@2173ee0f"/>
  <path d="M 820.586 172.795 L 824.632 237.535 L 816.539 237.535 L 820.586 172.795 Z" style="stroke: rgb(0, 0, 0); stroke-width: 0px; fill: rgb(204, 204, 0);" bx:shape="triangle 816.539 172.795 8.093 64.74 0.5 0 1@2d9ed288"/>
  <path d="M 823.823 172.795 L 827.869 237.535 L 819.776 237.535 L 823.823 172.795 Z" style="stroke: rgb(0, 0, 0); stroke-width: 0px; fill: rgb(204, 204, 0);" bx:shape="triangle 819.776 172.795 8.093 64.74 0.5 0 1@9fec680d"/>
  <path d="M 827.06 172.795 L 831.106 237.535 L 823.013 237.535 L 827.06 172.795 Z" style="stroke: rgb(0, 0, 0); stroke-width: 0px; fill: rgb(204, 204, 0);" bx:shape="triangle 823.013 172.795 8.093 64.74 0.5 0 1@4c0bf7aa"/>
  <path d="M 830.297 172.795 L 834.343 237.535 L 826.25 237.535 L 830.297 172.795 Z" style="stroke: rgb(0, 0, 0); stroke-width: 0px; fill: rgb(204, 204, 0);" bx:shape="triangle 826.25 172.795 8.093 64.74 0.5 0 1@54a7502a"/>
  <path d="M 833.534 172.795 L 837.58 237.535 L 829.487 237.535 L 833.534 172.795 Z" style="stroke: rgb(0, 0, 0); stroke-width: 0px; fill: rgb(204, 204, 0);" bx:shape="triangle 829.487 172.795 8.093 64.74 0.5 0 1@dbd53d88"/>
  <path d="M 869.955 173.899 L 874.001 238.639 L 865.908 238.639 L 869.955 173.899 Z" style="stroke: rgb(0, 0, 0); stroke-width: 0px; fill: rgb(204, 204, 0);" bx:shape="triangle 865.908 173.899 8.093 64.74 0.5 0 1@2e7d76d1"/>
  <path d="M 873.192 173.899 L 877.238 238.639 L 869.145 238.639 L 873.192 173.899 Z" style="stroke: rgb(0, 0, 0); stroke-width: 0px; fill: rgb(204, 204, 0);" bx:shape="triangle 869.145 173.899 8.093 64.74 0.5 0 1@6fc602a6"/>
  <path d="M 876.429 173.899 L 880.475 238.639 L 872.382 238.639 L 876.429 173.899 Z" style="stroke: rgb(0, 0, 0); stroke-width: 0px; fill: rgb(204, 204, 0);" bx:shape="triangle 872.382 173.899 8.093 64.74 0.5 0 1@dc777d45"/>
  <path d="M 879.666 173.899 L 883.712 238.639 L 875.619 238.639 L 879.666 173.899 Z" style="stroke: rgb(0, 0, 0); stroke-width: 0px; fill: rgb(204, 204, 0);" bx:shape="triangle 875.619 173.899 8.093 64.74 0.5 0 1@78511060"/>
  <path d="M 882.903 173.899 L 886.949 238.639 L 878.856 238.639 L 882.903 173.899 Z" style="stroke: rgb(0, 0, 0); stroke-width: 0px; fill: rgb(204, 204, 0);" bx:shape="triangle 878.856 173.899 8.093 64.74 0.5 0 1@94ca583b"/>
  <path d="M 1062.155 192.019 L 1066.404 260 L 1057.906 260 L 1062.155 192.019 Z" style="stroke: rgb(0, 0, 0); stroke-width: 0px; fill: rgb(204, 204, 0);" bx:shape="triangle 1057.906 192.019 8.498 67.981 0.5 0 1@45120c4e"/>
  <path d="M 1065.554 187.019 L 1069.803 255 L 1061.305 255 L 1065.554 187.019 Z" style="stroke: rgb(0, 0, 0); stroke-width: 0px; fill: rgb(204, 204, 0);" bx:shape="triangle 1061.305 187.019 8.498 67.981 0.5 0 1@7741c0f8"/>
  <path d="M 1068.953 187.019 L 1073.202 255 L 1064.704 255 L 1068.953 187.019 Z" style="stroke: rgb(0, 0, 0); stroke-width: 0px; fill: rgb(204, 204, 0);" bx:shape="triangle 1064.704 187.019 8.498 67.981 0.5 0 1@3e2b2ca6"/>
  <path d="M 1072.353 187.019 L 1076.602 255 L 1068.104 255 L 1072.353 187.019 Z" style="stroke: rgb(0, 0, 0); stroke-width: 0px; fill: rgb(204, 204, 0);" bx:shape="triangle 1068.104 187.019 8.498 67.981 0.5 0 1@a4b70121"/>
  <path d="M 1819.905 375.501 L 1824.154 443.482 L 1815.656 443.482 L 1819.905 375.501 Z" style="stroke: rgb(0, 0, 0); stroke-width: 0px; fill: rgb(204, 204, 0);" transform="matrix(1, 0, 1.9999999920083944e-12, 1, -744.1540027879771, -188.4840115976931)" bx:shape="triangle 1815.656 375.501 8.498 67.981 0.5 0 1@1cfe9b19"/>
  <path d="M 977.681 192.285 L 982.127 263.424 L 973.235 263.424 L 977.681 192.285 Z" style="stroke: rgb(0, 0, 0); stroke-width: 0px; fill: rgb(204, 204, 0);" bx:shape="triangle 973.235 192.285 8.892 71.139 0.5 0 1@422e762b"/>
  <path d="M 981.238 192.285 L 985.684 263.424 L 976.792 263.424 L 981.238 192.285 Z" style="stroke: rgb(0, 0, 0); stroke-width: 0px; fill: rgb(204, 204, 0);" bx:shape="triangle 976.792 192.285 8.892 71.139 0.5 0 1@fdbf1afe"/>
  <path d="M 984.795 192.285 L 989.241 263.424 L 980.349 263.424 L 984.795 192.285 Z" style="stroke: rgb(0, 0, 0); stroke-width: 0px; fill: rgb(204, 204, 0);" bx:shape="triangle 980.349 192.285 8.892 71.139 0.5 0 1@35227ac7"/>
  <path d="M 988.352 192.285 L 992.798 263.424 L 983.906 263.424 L 988.352 192.285 Z" style="stroke: rgb(0, 0, 0); stroke-width: 0px; fill: rgb(204, 204, 0);" bx:shape="triangle 983.906 192.285 8.892 71.139 0.5 0 1@5a9625fe"/>
  <path d="M 991.909 192.285 L 996.355 263.424 L 987.463 263.424 L 991.909 192.285 Z" style="stroke: rgb(0, 0, 0); stroke-width: 0px; fill: rgb(204, 204, 0);" bx:shape="triangle 987.463 192.285 8.892 71.139 0.5 0 1@8d627989"/>
  <path d="M 955.521 187.39 L 959.567 252.13 L 951.474 252.13 L 955.521 187.39 Z" style="stroke: rgb(0, 0, 0); stroke-width: 0px; fill: rgb(204, 204, 0);" bx:shape="triangle 951.474 187.39 8.093 64.74 0.5 0 1@5d749a11"/>
  <path d="M 1442.337 329.684 L 1446.383 394.424 L 1438.29 394.424 L 1442.337 329.684 Z" style="stroke: rgb(0, 0, 0); stroke-width: 0px; fill: rgb(204, 204, 0);" transform="matrix(1, 0, -9.999999960041972e-13, 1, -483.5786815222901, -142.29512235962034)" bx:shape="triangle 1438.29 329.684 8.093 64.74 0.5 0 1@2f8299e3"/>
  <path d="M 961.995 187.39 L 966.041 252.13 L 957.948 252.13 L 961.995 187.39 Z" style="stroke: rgb(0, 0, 0); stroke-width: 0px; fill: rgb(204, 204, 0);" bx:shape="triangle 957.948 187.39 8.093 64.74 0.5 0 1@709e4752"/>
  <path d="M 965.232 187.39 L 969.278 252.13 L 961.185 252.13 L 965.232 187.39 Z" style="stroke: rgb(0, 0, 0); stroke-width: 0px; fill: rgb(204, 204, 0);" bx:shape="triangle 961.185 187.39 8.093 64.74 0.5 0 1@52198c33"/>
  <path d="M 968.469 187.39 L 972.515 252.13 L 964.422 252.13 L 968.469 187.39 Z" style="stroke: rgb(0, 0, 0); stroke-width: 0px; fill: rgb(204, 204, 0);" bx:shape="triangle 964.422 187.39 8.093 64.74 0.5 0 1@866c90d3"/>
  <path d="M 939.336 185.731 L 943.382 250.471 L 935.289 250.471 L 939.336 185.731 Z" style="stroke: rgb(0, 0, 0); stroke-width: 0px; fill: rgb(204, 204, 0);" bx:shape="triangle 935.289 185.731 8.093 64.74 0.5 0 1@203dde1c"/>
  <path d="M 942.573 185.731 L 946.619 250.471 L 938.526 250.471 L 942.573 185.731 Z" style="stroke: rgb(0, 0, 0); stroke-width: 0px; fill: rgb(204, 204, 0);" bx:shape="triangle 938.526 185.731 8.093 64.74 0.5 0 1@ae9017a2"/>
  <path d="M 945.81 185.731 L 949.856 250.471 L 941.763 250.471 L 945.81 185.731 Z" style="stroke: rgb(0, 0, 0); stroke-width: 0px; fill: rgb(204, 204, 0);" bx:shape="triangle 941.763 185.731 8.093 64.74 0.5 0 1@034c7f40"/>
  <path d="M 949.047 185.731 L 953.093 250.471 L 945 250.471 L 949.047 185.731 Z" style="stroke: rgb(0, 0, 0); stroke-width: 0px; fill: rgb(204, 204, 0);" bx:shape="triangle 945 185.731 8.093 64.74 0.5 0 1@3075bb6e"/>
  <path d="M 952.284 185.731 L 956.33 250.471 L 948.237 250.471 L 952.284 185.731 Z" style="stroke: rgb(0, 0, 0); stroke-width: 0px; fill: rgb(204, 204, 0);" bx:shape="triangle 948.237 185.731 8.093 64.74 0.5 0 1@1285cb4d"/>
  <path d="M 756.672 177.25 L 760.523 238.862 L 752.821 238.862 L 756.672 177.25 Z" style="stroke: rgb(0, 0, 0); stroke-width: 0px; fill: rgb(204, 204, 0);" bx:shape="triangle 752.821 177.25 7.702 61.612 0.5 0 1@66daf316"/>
  <path d="M 759.752 177.25 L 763.603 238.862 L 755.901 238.862 L 759.752 177.25 Z" style="stroke: rgb(0, 0, 0); stroke-width: 0px; fill: rgb(204, 204, 0);" bx:shape="triangle 755.901 177.25 7.702 61.612 0.5 0 1@f06a96bc"/>
  <path d="M 762.833 177.25 L 766.684 238.862 L 758.982 238.862 L 762.833 177.25 Z" style="stroke: rgb(0, 0, 0); stroke-width: 0px; fill: rgb(204, 204, 0);" bx:shape="triangle 758.982 177.25 7.702 61.612 0.5 0 1@2617dff6"/>
  <path d="M 765.913 177.25 L 769.764 238.862 L 762.062 238.862 L 765.913 177.25 Z" style="stroke: rgb(0, 0, 0); stroke-width: 0px; fill: rgb(204, 204, 0);" bx:shape="triangle 762.062 177.25 7.702 61.612 0.5 0 1@2e240f8a"/>
  <path d="M 768.994 177.25 L 772.845 238.862 L 765.143 238.862 L 768.994 177.25 Z" style="stroke: rgb(0, 0, 0); stroke-width: 0px; fill: rgb(204, 204, 0);" bx:shape="triangle 765.143 177.25 7.702 61.612 0.5 0 1@41888c8a"/>
  <path d="M 777.037 165.638 L 780.888 227.25 L 773.186 227.25 L 777.037 165.638 Z" style="stroke: rgb(0, 0, 0); stroke-width: 0px; fill: rgb(204, 204, 0);" bx:shape="triangle 773.186 165.638 7.702 61.612 0.5 0 1@3d990d1b"/>
  <path d="M 780.118 165.638 L 783.969 227.25 L 776.267 227.25 L 780.118 165.638 Z" style="stroke: rgb(0, 0, 0); stroke-width: 0px; fill: rgb(204, 204, 0);" bx:shape="triangle 776.267 165.638 7.702 61.612 0.5 0 1@8547ec28"/>
  <path d="M 783.198 165.638 L 787.049 227.25 L 779.347 227.25 L 783.198 165.638 Z" style="stroke: rgb(0, 0, 0); stroke-width: 0px; fill: rgb(204, 204, 0);" bx:shape="triangle 779.347 165.638 7.702 61.612 0.5 0 1@6410f531"/>
  <path d="M 786.279 165.638 L 790.13 227.25 L 782.428 227.25 L 786.279 165.638 Z" style="stroke: rgb(0, 0, 0); stroke-width: 0px; fill: rgb(204, 204, 0);" bx:shape="triangle 782.428 165.638 7.702 61.612 0.5 0 1@0ab3dd82"/>
  <path d="M 789.36 165.638 L 793.211 227.25 L 785.509 227.25 L 789.36 165.638 Z" style="stroke: rgb(0, 0, 0); stroke-width: 0px; fill: rgb(204, 204, 0);" bx:shape="triangle 785.509 165.638 7.702 61.612 0.5 0 1@e87adf65"/>
  <path d="M 1261.602 402.134 L 1265.851 470.115 L 1257.353 470.115 L 1261.602 402.134 Z" style="stroke: rgb(0, 0, 0); stroke-width: 0px; fill: rgb(204, 204, 0);" transform="matrix(1, 0, -9.999999960041972e-13, 1, -226.25349763413516, -216.87617815846465)" bx:shape="triangle 1257.353 402.134 8.498 67.981 0.5 0 1@fbce19c1"/>
  <path d="M 1038.748 185.26 L 1042.997 253.241 L 1034.499 253.241 L 1038.748 185.26 Z" style="stroke: rgb(0, 0, 0); stroke-width: 0px; fill: rgb(204, 204, 0);" bx:shape="triangle 1034.499 185.26 8.498 67.981 0.5 0 1@e63c4753"/>
  <path d="M 1042.147 185.26 L 1046.396 253.241 L 1037.898 253.241 L 1042.147 185.26 Z" style="stroke: rgb(0, 0, 0); stroke-width: 0px; fill: rgb(204, 204, 0);" bx:shape="triangle 1037.898 185.26 8.498 67.981 0.5 0 1@45557ea0"/>
  <path d="M 1045.546 185.26 L 1049.795 253.241 L 1041.297 253.241 L 1045.546 185.26 Z" style="stroke: rgb(0, 0, 0); stroke-width: 0px; fill: rgb(204, 204, 0);" bx:shape="triangle 1041.297 185.26 8.498 67.981 0.5 0 1@b8e3c6f0"/>
  <path d="M 1048.945 185.26 L 1053.194 253.241 L 1044.696 253.241 L 1048.945 185.26 Z" style="stroke: rgb(0, 0, 0); stroke-width: 0px; fill: rgb(204, 204, 0);" bx:shape="triangle 1044.696 185.26 8.498 67.981 0.5 0 1@b13ac27a"/>
  <path d="M 795.477 173.34 L 799.328 234.952 L 791.626 234.952 L 795.477 173.34 Z" style="stroke: rgb(0, 0, 0); stroke-width: 0px; fill: rgb(204, 204, 0);" bx:shape="triangle 791.626 173.34 7.702 61.612 0.5 0 1@b9741c9b"/>
  <path d="M 798.558 173.34 L 802.409 234.952 L 794.707 234.952 L 798.558 173.34 Z" style="stroke: rgb(0, 0, 0); stroke-width: 0px; fill: rgb(204, 204, 0);" bx:shape="triangle 794.707 173.34 7.702 61.612 0.5 0 1@b3b51a88"/>
  <path d="M 801.638 173.34 L 805.489 234.952 L 797.787 234.952 L 801.638 173.34 Z" style="stroke: rgb(0, 0, 0); stroke-width: 0px; fill: rgb(204, 204, 0);" bx:shape="triangle 797.787 173.34 7.702 61.612 0.5 0 1@f163f1fd"/>
  <path d="M 804.719 173.34 L 808.57 234.952 L 800.868 234.952 L 804.719 173.34 Z" style="stroke: rgb(0, 0, 0); stroke-width: 0px; fill: rgb(204, 204, 0);" bx:shape="triangle 800.868 173.34 7.702 61.612 0.5 0 1@7e3c3a51"/>
  <path d="M 807.8 173.34 L 811.651 234.952 L 803.949 234.952 L 807.8 173.34 Z" style="stroke: rgb(0, 0, 0); stroke-width: 0px; fill: rgb(204, 204, 0);" bx:shape="triangle 803.949 173.34 7.702 61.612 0.5 0 1@26e03415"/>
  <path d="M 889.723 181.119 L 893.769 245.859 L 885.676 245.859 L 889.723 181.119 Z" style="stroke: rgb(0, 0, 0); stroke-width: 0px; fill: rgb(204, 204, 0);" bx:shape="triangle 885.676 181.119 8.093 64.74 0.5 0 1@b7c118a3"/>
  <path d="M 892.96 181.119 L 897.006 245.859 L 888.913 245.859 L 892.96 181.119 Z" style="stroke: rgb(0, 0, 0); stroke-width: 0px; fill: rgb(204, 204, 0);" bx:shape="triangle 888.913 181.119 8.093 64.74 0.5 0 1@a5291577"/>
  <path d="M 896.197 181.119 L 900.243 245.859 L 892.15 245.859 L 896.197 181.119 Z" style="stroke: rgb(0, 0, 0); stroke-width: 0px; fill: rgb(204, 204, 0);" bx:shape="triangle 892.15 181.119 8.093 64.74 0.5 0 1@6e947a55"/>
  <path d="M 899.434 181.119 L 903.48 245.859 L 895.387 245.859 L 899.434 181.119 Z" style="stroke: rgb(0, 0, 0); stroke-width: 0px; fill: rgb(204, 204, 0);" bx:shape="triangle 895.387 181.119 8.093 64.74 0.5 0 1@282bf689"/>
  <path d="M 902.671 181.119 L 906.717 245.859 L 898.624 245.859 L 902.671 181.119 Z" style="stroke: rgb(0, 0, 0); stroke-width: 0px; fill: rgb(204, 204, 0);" bx:shape="triangle 898.624 181.119 8.093 64.74 0.5 0 1@a5f1bdf1"/>
</svg>