<?xml version="1.0" encoding="utf-8"?>
<svg viewBox="747.8863 7.788 329.8152 224.3899" xmlns="http://www.w3.org/2000/svg">
  <ellipse style="stroke: rgb(0, 0, 0); stroke-width: 0px; fill: rgb(204, 204, 0); transform-origin: 597.516px 182.203px;" cx="597.516" cy="182.203" rx="11.771" ry="39.202" transform="matrix(-0.9396930933, 0.342020004988, 0.342020004988, 0.9396930933, 318.558711121886, 9.111084143518)"/>
  <ellipse style="stroke: rgb(0, 0, 0); stroke-width: 0px; fill: rgb(204, 204, 0); transform-origin: -907.825px 155.115px;" cx="-907.825" cy="155.115" rx="11.771" ry="30.123" transform="matrix(-1, 0, 0, 1, 1815.65004882814, 1e-12)"/>
  <ellipse style="stroke: rgb(0, 0, 0); stroke-width: 0px; fill: rgb(204, 204, 0); transform-origin: 647.302px 158.477px;" cx="647.302" cy="158.477" rx="5.473" ry="31.335" transform="matrix(-0.224950954318, 0.974370002747, 0.974370002747, 0.224950954318, 226.217364826219, -33.741160526097)"/>
  <ellipse style="stroke: rgb(0, 0, 0); stroke-width: 0px; fill: rgb(204, 204, 0); transform-origin: 647.302px 158.477px;" cx="647.302" cy="158.477" rx="5.473" ry="31.335" transform="matrix(-0.669131100178, 0.743145108223, 0.743145108223, 0.669131100178, 182.452431615346, -56.35907995021)"/>
  <ellipse style="stroke: rgb(0, 0, 0); stroke-width: 0px; fill: rgb(204, 204, 0); transform-origin: 623.193px 175.967px;" cx="623.193" cy="175.967" rx="5.632" ry="16.639" transform="matrix(-0.766043901443, 0.642787992954, 0.642787992954, 0.766043901444, 274.204086292867, -36.730024484612)"/>
  <ellipse style="stroke: rgb(0, 0, 0); stroke-width: 0px; fill: rgb(204, 204, 0); transform-origin: 623.193px 175.967px;" cx="623.193" cy="175.967" rx="5.632" ry="15.785" transform="matrix(-0.984808027744, 0.173649027944, 0.173649027944, 0.984808027744, 292.612427855834, -4.698858307646)"/>
  <ellipse style="stroke: rgb(0, 0, 0); stroke-width: 0px; fill: rgb(204, 204, 0); transform-origin: 647.302px 158.477px;" cx="647.302" cy="158.477" rx="5.473" ry="31.335" transform="matrix(-0.453991055489, -0.891005992889, -0.891005992889, 0.453991055489, 282.159534272398, -40.423380598212)"/>
  <ellipse style="stroke: rgb(0, 0, 0); stroke-width: 0px; fill: rgb(204, 204, 0); transform-origin: 647.302px 158.477px;" cx="647.302" cy="158.477" rx="5.473" ry="31.335" transform="matrix(0.000001, 1, 1, -0.000001, 332.193667959125, -52.706053387302)"/>
  <ellipse style="stroke: rgb(0, 0, 0); stroke-width: 0px; fill: rgb(204, 204, 0); transform-origin: 647.302px 158.477px;" cx="647.302" cy="158.477" rx="5.473" ry="24.684" transform="matrix(-0.766044914722, -0.642786979675, -0.642786979675, 0.766044914722, 373.617438643518, -69.648842908263)"/>
  <ellipse style="stroke: rgb(0, 0, 0); stroke-width: 0px; fill: rgb(204, 204, 0); transform-origin: 647.302px 158.477px;" cx="647.302" cy="158.477" rx="5.473" ry="25.47" transform="matrix(-0.766044914722, -0.642786979675, -0.642786979675, 0.766044914722, 355.433234270978, -74.125954791395)"/>
  <ellipse style="stroke: rgb(0, 0, 0); stroke-width: 0px; fill: rgb(204, 204, 0); transform-origin: 647.302px 158.477px;" cx="647.302" cy="158.477" rx="5.473" ry="24.678" transform="matrix(-0.9396930933, -0.342019051313, -0.342019051313, 0.9396930933, 300.974178438925, -70.660061451935)"/>
  <ellipse style="stroke: rgb(0, 0, 0); stroke-width: 0px; fill: rgb(204, 204, 0); transform-origin: 647.302px 158.477px;" cx="647.302" cy="158.477" rx="5.473" ry="24.678" transform="matrix(-0.173649027944, -0.984808027744, -0.984808027744, 0.173649027944, 325.874869558247, -74.843134669971)"/>
  <ellipse style="stroke: rgb(0, 0, 0); stroke-width: 0px; fill: rgb(204, 204, 0); transform-origin: 647.302px 158.477px;" cx="647.302" cy="158.477" rx="5.473" ry="28.271" transform="matrix(-0.999848008156, -0.017452003434, -0.017452003434, 0.999848008156, 277.525293799546, -67.316546540431)"/>
  <ellipse style="stroke: rgb(0, 0, 0); stroke-width: 0px; fill: rgb(204, 204, 0); transform-origin: 647.302px 158.477px;" cx="647.302" cy="158.477" rx="5.473" ry="28.271" transform="matrix(-0.891006946564, -0.453990012407, -0.453990012407, 0.891006946564, 289.926740404324, -79.076925738862)"/>
  <ellipse style="stroke: rgb(0, 0, 0); stroke-width: 0px; fill: rgb(204, 204, 0); transform-origin: 647.302px 158.477px;" cx="647.302" cy="158.477" rx="5.473" ry="41.053" transform="matrix(-0.965926110744, 0.258819013834, 0.258819013834, 0.965926110744, 247.783183922091, -60.898153579171)"/>
  <ellipse style="stroke: rgb(0, 0, 0); stroke-width: 0px; fill: rgb(204, 204, 0); transform-origin: 647.302px 158.477px;" cx="647.302" cy="158.477" rx="5.473" ry="26.398" transform="matrix(-0.891005992889, -0.453991055489, -0.453991055489, 0.891005992889, 260.491027822694, -76.138956685163)"/>
  <ellipse style="stroke: rgb(0, 0, 0); stroke-width: 0px; fill: rgb(204, 204, 0); transform-origin: 647.302px 158.477px;" cx="647.302" cy="158.477" rx="5.473" ry="50.047" transform="matrix(-0.694659113884, 0.71933889389, 0.71933889389, 0.694659113884, 219.089617399551, -63.353260038309)"/>
  <ellipse style="stroke: rgb(0, 0, 0); stroke-width: 0px; fill: rgb(204, 204, 0); transform-origin: 647.302px 158.477px;" cx="647.302" cy="158.477" rx="5.473" ry="24.276" transform="matrix(-0.956305027008, 0.292371064425, 0.292371064425, 0.956305027008, 227.558502999731, -71.412525886454)"/>
  <ellipse style="stroke: rgb(0, 0, 0); stroke-width: 0px; fill: rgb(204, 204, 0); transform-origin: 647.302px 158.477px;" cx="647.302" cy="158.477" rx="5.473" ry="24.276" transform="matrix(-0.190809980035, 0.981626987457, 0.981626987457, 0.190809980035, 144.521514785843, -76.368504856177)"/>
  <ellipse style="stroke: rgb(0, 0, 0); stroke-width: 0px; fill: rgb(204, 204, 0); transform-origin: 647.302px 158.477px;" cx="647.302" cy="158.477" rx="5.473" ry="15.799" transform="matrix(-0.939692139626, -0.342021018267, -0.342021018267, 0.939692139626, 178.984497203986, -78.729096694372)"/>
  <ellipse style="stroke: rgb(0, 0, 0); stroke-width: 0px; fill: rgb(204, 204, 0); transform-origin: 623.193px 175.967px;" cx="623.193" cy="175.967" rx="5.632" ry="16.639" transform="matrix(-0.766044914722, -0.642786979675, -0.642786979675, 0.766044914722, 289.643721529807, -44.74782032923)"/>
  <ellipse style="stroke: rgb(0, 0, 0); stroke-width: 0px; fill: rgb(204, 204, 0); transform-origin: -1045.31px 76.302px;" cx="-1045.329" cy="76.302" rx="32.373" ry="16.862" transform="matrix(-1, 0, 0, 1, 2090.619335937408, 0)"/>
  <ellipse style="stroke: rgb(0, 0, 0); stroke-width: 0px; fill: rgb(204, 204, 0); transform-origin: -1032.22px 62.238px;" cx="-1032.225" cy="62.238" rx="32.373" ry="16.862" transform="matrix(-1, 0, 0, 1, 2064.438867187334, 0)"/>
  <ellipse style="stroke: rgb(0, 0, 0); stroke-width: 0px; fill: rgb(204, 204, 0); transform-origin: -979.355px 65.876px;" cx="-979.355" cy="65.876" rx="32.373" ry="16.862" transform="matrix(-1, 0, 0, 1, 1958.710449218766, 0)"/>
  <ellipse style="stroke: rgb(0, 0, 0); stroke-width: 0px; fill: rgb(204, 204, 0); transform-origin: -991.722px 51.083px;" cx="-991.722" cy="51.083" rx="32.373" ry="16.862" transform="matrix(-1, 0, 0, 1, 1983.444116210968, 0)"/>
  <ellipse style="stroke: rgb(0, 0, 0); stroke-width: 0px; fill: rgb(204, 204, 0); transform-origin: -970.867px 41.383px;" cx="-970.867" cy="41.383" rx="32.373" ry="16.862" transform="matrix(-1, 0, 0, 1, 1941.733178710853, 0)"/>
  <ellipse style="stroke: rgb(0, 0, 0); stroke-width: 0px; fill: rgb(204, 204, 0); transform-origin: -935.464px 59.084px;" cx="-935.464" cy="59.084" rx="32.373" ry="16.862" transform="matrix(-1, 0, 0, 1, 1870.927783203107, 0)"/>
  <ellipse style="stroke: rgb(0, 0, 0); stroke-width: 0px; fill: rgb(204, 204, 0); transform-origin: -928.429px 33.38px;" cx="-928.429" cy="33.38" rx="32.373" ry="16.862" transform="matrix(-1, 0, 0, 1, 1856.858056640626, 0)"/>
  <ellipse style="stroke: rgb(0, 0, 0); stroke-width: 0px; fill: rgb(204, 204, 0); transform-origin: -902.24px 24.65px;" cx="-902.24" cy="24.65" rx="32.373" ry="16.862" transform="matrix(-1, 0, 0, 1, 1804.47988281249, 0)"/>
  <ellipse style="stroke: rgb(0, 0, 0); stroke-width: 0px; fill: rgb(204, 204, 0); transform-origin: -883.324px 25.379px;" cx="-883.324" cy="25.379" rx="32.373" ry="16.862" transform="matrix(-1, 0, 0, 1, 1766.647485351533, 0)"/>
  <ellipse style="stroke: rgb(0, 0, 0); stroke-width: 0px; fill: rgb(204, 204, 0); transform-origin: -896.661px 57.874px;" cx="-896.661" cy="57.874" rx="32.373" ry="16.862" transform="matrix(-1, 0, 0, 1, 1793.320996093659, 0)"/>
  <ellipse style="stroke: rgb(0, 0, 0); stroke-width: 0px; fill: rgb(204, 204, 0); transform-origin: -856.649px 41.869px;" cx="-856.649" cy="41.869" rx="32.373" ry="16.862" transform="matrix(-1, 0, 0, 1, 1713.298388671898, 0)"/>
  <ellipse style="stroke: rgb(0, 0, 0); stroke-width: 0px; fill: rgb(204, 204, 0); transform-origin: -854.224px 59.814px;" cx="-854.224" cy="59.814" rx="32.373" ry="16.862" transform="matrix(-1, 0, 0, 1, 1708.447094726469, 0)"/>
  <ellipse style="stroke: rgb(0, 0, 0); stroke-width: 0px; fill: rgb(204, 204, 0); transform-origin: -820.029px 53.022px;" cx="-820.03" cy="53.022" rx="32.373" ry="16.862" transform="matrix(-1, 0, 0, 1, 1640.05893554692, 0)"/>
  <ellipse style="stroke: rgb(0, 0, 0); stroke-width: 0px; fill: rgb(204, 204, 0); transform-origin: -786.08px 68.059px;" cx="-786.08" cy="68.059" rx="32.373" ry="16.862" transform="matrix(-1, 0, 0, 1, 1572.160717773553, 0)"/>
  <ellipse style="stroke: rgb(0, 0, 0); stroke-width: 0px; fill: rgb(204, 204, 0); transform-origin: -780.26px 81.881px;" cx="-780.26" cy="81.881" rx="32.373" ry="16.862" transform="matrix(-1, 0, 0, 1, 1560.519287109293, 0)"/>
</svg>