<?xml version="1.0" encoding="utf-8"?>
<svg viewBox="0.0001 0 21.0587 20.475" xmlns="http://www.w3.org/2000/svg">
  <path style="stroke-width: 0px; fill: rgb(0, 204, 51); transform-origin: 6.52944px -3.89319px;" d="M 18.512 8.853 C 18.414 7.897 17.916 7.094 17.146 6.651 C 16.741 6.417 16.277 6.294 15.8 6.294 C 15.797 6.294 15.794 6.295 15.79 6.295 C 15.759 4.78 14.918 3.492 13.568 3.129 C 13.335 3.067 13.095 3.035 12.853 3.035 C 11.978 3.035 11.155 3.451 10.53 4.134 C 9.905 3.451 9.081 3.035 8.207 3.035 C 7.965 3.035 7.724 3.067 7.49 3.129 C 6.141 3.491 5.3 4.78 5.268 6.295 C 5.265 6.295 5.262 6.294 5.258 6.294 C 4.782 6.294 4.317 6.417 3.914 6.65 C 3.143 7.094 2.644 7.897 2.547 8.853 C 2.469 9.618 2.655 10.434 3.068 11.152 C 3.512 11.923 4.167 12.493 4.899 12.793 C 4.76 13.295 4.677 13.813 4.677 14.343 C 4.677 17.218 6.596 17.44 7.185 17.44 C 7.769 17.44 8.314 17.268 8.891 17.086 C 9.439 16.913 10.005 16.733 10.53 16.733 C 11.055 16.733 11.621 16.913 12.168 17.086 C 12.745 17.269 13.291 17.44 13.875 17.44 C 14.732 17.44 15.45 17.06 15.896 16.37 C 16.228 15.857 16.383 15.213 16.383 14.343 C 16.383 13.813 16.299 13.295 16.161 12.793 C 16.893 12.494 17.548 11.923 17.991 11.153 C 18.404 10.434 18.59 9.618 18.512 8.853 M 11.203 6.336 C 11.491 5.261 12.354 4.558 13.13 4.765 C 13.907 4.974 14.303 6.015 14.016 7.089 C 13.727 8.164 12.865 8.867 12.088 8.659 C 11.311 8.451 10.915 7.41 11.203 6.336 M 7.928 4.765 C 8.704 4.557 9.567 5.26 9.856 6.335 C 10.143 7.41 9.748 8.45 8.971 8.658 C 8.194 8.867 7.332 8.163 7.043 7.089 C 6.755 6.014 7.151 4.973 7.928 4.765 M 4.535 10.307 C 4.042 9.453 4.141 8.473 4.759 8.118 C 5.376 7.761 6.275 8.164 6.767 9.018 C 7.261 9.872 7.16 10.853 6.544 11.208 C 5.926 11.564 5.027 11.162 4.535 10.307 M 10.529 15.04 C 8.231 15.04 6.369 17.026 6.369 14.343 C 6.369 11.659 9.037 9.485 10.529 9.486 C 12.021 9.486 14.689 11.659 14.689 14.343 C 14.689 17.026 12.826 15.04 10.529 15.04 M 16.523 10.307 C 16.031 11.162 15.132 11.564 14.514 11.208 C 13.897 10.852 13.797 9.872 14.291 9.018 C 14.783 8.164 15.682 7.761 16.299 8.118 C 16.917 8.473 17.016 9.453 16.523 10.307" transform="matrix(0.866025090218, -0.5, 0.5, 0.866025090218, -6.529439553181, 3.893189333203)"/>
  <path style="stroke-width: 0px; fill: rgb(51, 255, 102); transform-origin: -15.156px -3.648px;" d="M 0.819 17.318 C 1.107 16.243 1.97 15.54 2.747 15.748 C 3.524 15.956 3.919 16.997 3.632 18.072 C 3.344 19.146 2.481 19.849 1.705 19.641 C 0.927 19.433 0.531 18.393 0.819 17.318 M -2.456 15.747 C -1.68 15.539 -0.817 16.242 -0.528 17.317 C -0.24 18.392 -0.636 19.432 -1.413 19.64 C -2.19 19.849 -3.052 19.145 -3.34 18.071 C -3.629 16.997 -3.233 15.956 -2.456 15.747 M -5.849 21.289 C -6.342 20.435 -6.243 19.455 -5.625 19.1 C -5.008 18.743 -4.109 19.146 -3.617 20 C -3.123 20.855 -3.223 21.835 -3.84 22.19 C -4.457 22.546 -5.357 22.144 -5.849 21.289 M 0.145 26.022 C -2.152 26.022 -4.015 28.008 -4.015 25.325 C -4.015 22.641 -1.347 20.467 0.145 20.468 C 1.637 20.469 4.305 22.641 4.305 25.325 C 4.305 28.008 2.443 26.022 0.145 26.022 M 6.139 21.289 C 5.647 22.144 4.748 22.546 4.13 22.19 C 3.513 21.835 3.413 20.854 3.907 20 C 4.399 19.146 5.298 18.743 5.915 19.1 C 6.533 19.455 6.632 20.435 6.139 21.289" transform="matrix(0.866025090218, -0.5, 0.5, 0.866025090218, -5.14421e-7, -0.000001174688)"/>
</svg>