<?xml version="1.0" encoding="utf-8"?>
<svg viewBox="360 186 364 74" xmlns="http://www.w3.org/2000/svg" xmlns:bx="https://boxy-svg.com">
  <path d="M 362.5 220 L 365 260 L 360 260 L 362.5 220 Z" style="stroke: rgb(0, 0, 0); stroke-width: 0px; fill: rgb(204, 153, 0);" transform="matrix(1, 0, 0, 1, -2.842170943040401e-14, 0)" bx:shape="triangle 360 220 5 40 0.5 0 1@e3dbd876"/>
  <path d="M 364.5 220 L 367 260 L 362 260 L 364.5 220 Z" style="stroke: rgb(0, 0, 0); stroke-width: 0px; fill: rgb(204, 153, 0);" transform="matrix(1, 0, 0, 1, -2.842170943040401e-14, 0)" bx:shape="triangle 362 220 5 40 0.5 0 1@a24efefc"/>
  <path d="M 366.5 220 L 369 260 L 364 260 L 366.5 220 Z" style="stroke: rgb(0, 0, 0); stroke-width: 0px; fill: rgb(204, 153, 0);" transform="matrix(1, 0, 0, 1, -2.842170943040401e-14, 0)" bx:shape="triangle 364 220 5 40 0.5 0 1@3bf6ce9a"/>
  <path d="M 368.5 220 L 371 260 L 366 260 L 368.5 220 Z" style="stroke: rgb(0, 0, 0); stroke-width: 0px; fill: rgb(204, 153, 0);" transform="matrix(1, 0, 0, 1, -2.842170943040401e-14, 0)" bx:shape="triangle 366 220 5 40 0.5 0 1@557a0a0f"/>
  <path d="M 370.5 220 L 373 260 L 368 260 L 370.5 220 Z" style="stroke: rgb(0, 0, 0); stroke-width: 0px; fill: rgb(204, 153, 0);" transform="matrix(1, 0, 0, 1, -2.842170943040401e-14, 0)" bx:shape="triangle 368 220 5 40 0.5 0 1@c65b1e6d"/>
  <path d="M 482.5 190 L 485 230 L 480 230 L 482.5 190 Z" style="stroke: rgb(0, 0, 0); stroke-width: 0px; fill: rgb(204, 153, 0);" transform="matrix(1, 0, 0, 1, -2.842170943040401e-14, 0)" bx:shape="triangle 480 190 5 40 0.5 0 1@f456b599"/>
  <path d="M 484.5 190 L 487 230 L 482 230 L 484.5 190 Z" style="stroke: rgb(0, 0, 0); stroke-width: 0px; fill: rgb(204, 153, 0);" transform="matrix(1, 0, 0, 1, -2.842170943040401e-14, 0)" bx:shape="triangle 482 190 5 40 0.5 0 1@d7a19caf"/>
  <path d="M 486.5 190 L 489 230 L 484 230 L 486.5 190 Z" style="stroke: rgb(0, 0, 0); stroke-width: 0px; fill: rgb(204, 153, 0);" transform="matrix(1, 0, 0, 1, -2.842170943040401e-14, 0)" bx:shape="triangle 484 190 5 40 0.5 0 1@15479c6d"/>
  <path d="M 488.5 190 L 491 230 L 486 230 L 488.5 190 Z" style="stroke: rgb(0, 0, 0); stroke-width: 0px; fill: rgb(204, 153, 0);" transform="matrix(1, 0, 0, 1, -2.842170943040401e-14, 0)" bx:shape="triangle 486 190 5 40 0.5 0 1@d7591ea8"/>
  <path d="M 490.5 190 L 493 230 L 488 230 L 490.5 190 Z" style="stroke: rgb(0, 0, 0); stroke-width: 0px; fill: rgb(204, 153, 0);" transform="matrix(1, 0, 0, 1, -2.842170943040401e-14, 0)" bx:shape="triangle 488 190 5 40 0.5 0 1@462d1782"/>
  <path d="M 493.5 192 L 496 232 L 491 232 L 493.5 192 Z" style="stroke: rgb(0, 0, 0); stroke-width: 0px; fill: rgb(204, 153, 0);" transform="matrix(1, 0, 0, 1, -2.842170943040401e-14, 0)" bx:shape="triangle 491 192 5 40 0.5 0 1@5fd8526b"/>
  <path d="M 495.5 192 L 498 232 L 493 232 L 495.5 192 Z" style="stroke: rgb(0, 0, 0); stroke-width: 0px; fill: rgb(204, 153, 0);" transform="matrix(1, 0, 0, 1, -2.842170943040401e-14, 0)" bx:shape="triangle 493 192 5 40 0.5 0 1@8206f7c1"/>
  <path d="M 497.5 192 L 500 232 L 495 232 L 497.5 192 Z" style="stroke: rgb(0, 0, 0); stroke-width: 0px; fill: rgb(204, 153, 0);" transform="matrix(1, 0, 0, 1, -2.842170943040401e-14, 0)" bx:shape="triangle 495 192 5 40 0.5 0 1@9b35d57f"/>
  <path d="M 499.5 192 L 502 232 L 497 232 L 499.5 192 Z" style="stroke: rgb(0, 0, 0); stroke-width: 0px; fill: rgb(204, 153, 0);" transform="matrix(1, 0, 0, 1, -2.842170943040401e-14, 0)" bx:shape="triangle 497 192 5 40 0.5 0 1@f17fd43d"/>
  <path d="M 501.5 192 L 504 232 L 499 232 L 501.5 192 Z" style="stroke: rgb(0, 0, 0); stroke-width: 0px; fill: rgb(204, 153, 0);" transform="matrix(1, 0, 0, 1, -2.842170943040401e-14, 0)" bx:shape="triangle 499 192 5 40 0.5 0 1@b0ffaefb"/>
  <path d="M 709.5 220 L 712 260 L 707 260 L 709.5 220 Z" style="stroke: rgb(0, 0, 0); stroke-width: 0px; fill: rgb(204, 153, 0);" transform="matrix(1, 0, 0, 1, -2.842170943040401e-14, 0)" bx:shape="triangle 707 220 5 40 0.5 0 1@2e0ec46e"/>
  <path d="M 711.5 220 L 714 260 L 709 260 L 711.5 220 Z" style="stroke: rgb(0, 0, 0); stroke-width: 0px; fill: rgb(204, 153, 0);" transform="matrix(1, 0, 0, 1, -2.842170943040401e-14, 0)" bx:shape="triangle 709 220 5 40 0.5 0 1@7fd74b10"/>
  <path d="M 713.5 220 L 716 260 L 711 260 L 713.5 220 Z" style="stroke: rgb(0, 0, 0); stroke-width: 0px; fill: rgb(204, 153, 0);" transform="matrix(1, 0, 0, 1, -2.842170943040401e-14, 0)" bx:shape="triangle 711 220 5 40 0.5 0 1@07ee4ee0"/>
  <path d="M 715.5 220 L 718 260 L 713 260 L 715.5 220 Z" style="stroke: rgb(0, 0, 0); stroke-width: 0px; fill: rgb(204, 153, 0);" transform="matrix(1, 0, 0, 1, -2.842170943040401e-14, 0)" bx:shape="triangle 713 220 5 40 0.5 0 1@300e8c9e"/>
  <path d="M 717.5 220 L 720 260 L 715 260 L 717.5 220 Z" style="stroke: rgb(0, 0, 0); stroke-width: 0px; fill: rgb(204, 153, 0);" transform="matrix(1, 0, 0, 1, -2.842170943040401e-14, 0)" bx:shape="triangle 715 220 5 40 0.5 0 1@8c2ab721"/>
  <path d="M 719.5 220 L 722 260 L 717 260 L 719.5 220 Z" style="stroke: rgb(0, 0, 0); stroke-width: 0px; fill: rgb(204, 153, 0);" transform="matrix(1, 0, 0, 1, -2.842170943040401e-14, 0)" bx:shape="triangle 717 220 5 40 0.5 0 1@c21ea3cf"/>
  <path d="M 721.5 220 L 724 260 L 719 260 L 721.5 220 Z" style="stroke: rgb(0, 0, 0); stroke-width: 0px; fill: rgb(204, 153, 0);" transform="matrix(1, 0, 0, 1, -2.842170943040401e-14, 0)" bx:shape="triangle 719 220 5 40 0.5 0 1@55c567bd"/>
  <path d="M 620.427 205.935 L 622.927 245.935 L 617.927 245.935 L 620.427 205.935 Z" style="stroke: rgb(0, 0, 0); stroke-width: 0px; fill: rgb(204, 153, 0);" transform="matrix(1, 0, 0, 1, -2.842170943040401e-14, 0)" bx:shape="triangle 617.927 205.935 5 40 0.5 0 1@287fff88"/>
  <path d="M 622.427 205.935 L 624.927 245.935 L 619.927 245.935 L 622.427 205.935 Z" style="stroke: rgb(0, 0, 0); stroke-width: 0px; fill: rgb(204, 153, 0);" transform="matrix(1, 0, 0, 1, -2.842170943040401e-14, 0)" bx:shape="triangle 619.927 205.935 5 40 0.5 0 1@beb5d442"/>
  <path d="M 624.427 205.935 L 626.927 245.935 L 621.927 245.935 L 624.427 205.935 Z" style="stroke: rgb(0, 0, 0); stroke-width: 0px; fill: rgb(204, 153, 0);" transform="matrix(1, 0, 0, 1, -2.842170943040401e-14, 0)" bx:shape="triangle 621.927 205.935 5 40 0.5 0 1@c69faef6"/>
  <path d="M 626.427 205.935 L 628.927 245.935 L 623.927 245.935 L 626.427 205.935 Z" style="stroke: rgb(0, 0, 0); stroke-width: 0px; fill: rgb(204, 153, 0);" transform="matrix(1, 0, 0, 1, -2.842170943040401e-14, 0)" bx:shape="triangle 623.927 205.935 5 40 0.5 0 1@0decd184"/>
  <path d="M 628.427 205.935 L 630.927 245.935 L 625.927 245.935 L 628.427 205.935 Z" style="stroke: rgb(0, 0, 0); stroke-width: 0px; fill: rgb(204, 153, 0);" transform="matrix(1, 0, 0, 1, -2.842170943040401e-14, 0)" bx:shape="triangle 625.927 205.935 5 40 0.5 0 1@18911ae9"/>
  <path d="M 519.5 203 L 522 243 L 517 243 L 519.5 203 Z" style="stroke: rgb(0, 0, 0); stroke-width: 0px; fill: rgb(204, 153, 0);" transform="matrix(1, 0, 0, 1, -2.842170943040401e-14, 0)" bx:shape="triangle 517 203 5 40 0.5 0 1@9bd44384"/>
  <path d="M 521.5 203 L 524 243 L 519 243 L 521.5 203 Z" style="stroke: rgb(0, 0, 0); stroke-width: 0px; fill: rgb(204, 153, 0);" transform="matrix(1, 0, 0, 1, -2.842170943040401e-14, 0)" bx:shape="triangle 519 203 5 40 0.5 0 1@4fbace4e"/>
  <path d="M 523.5 203 L 526 243 L 521 243 L 523.5 203 Z" style="stroke: rgb(0, 0, 0); stroke-width: 0px; fill: rgb(204, 153, 0);" transform="matrix(1, 0, 0, 1, -2.842170943040401e-14, 0)" bx:shape="triangle 521 203 5 40 0.5 0 1@5c79d2a6"/>
  <path d="M 525.5 203 L 528 243 L 523 243 L 525.5 203 Z" style="stroke: rgb(0, 0, 0); stroke-width: 0px; fill: rgb(204, 153, 0);" transform="matrix(1, 0, 0, 1, -2.842170943040401e-14, 0)" bx:shape="triangle 523 203 5 40 0.5 0 1@730ed670"/>
  <path d="M 527.5 203 L 530 243 L 525 243 L 527.5 203 Z" style="stroke: rgb(0, 0, 0); stroke-width: 0px; fill: rgb(204, 153, 0);" transform="matrix(1, 0, 0, 1, -2.842170943040401e-14, 0)" bx:shape="triangle 525 203 5 40 0.5 0 1@0241dd1d"/>
  <path d="M 393.5 188 L 396 228 L 391 228 L 393.5 188 Z" style="stroke: rgb(0, 0, 0); stroke-width: 0px; fill: rgb(204, 153, 0);" transform="matrix(1, 0, 0, 1, -2.842170943040401e-14, 0)" bx:shape="triangle 391 188 5 40 0.5 0 1@4f3b02c9"/>
  <path d="M 395.5 188 L 398 228 L 393 228 L 395.5 188 Z" style="stroke: rgb(0, 0, 0); stroke-width: 0px; fill: rgb(204, 153, 0);" transform="matrix(1, 0, 0, 1, -2.842170943040401e-14, 0)" bx:shape="triangle 393 188 5 40 0.5 0 1@b247a7a7"/>
  <path d="M 397.5 188 L 400 228 L 395 228 L 397.5 188 Z" style="stroke: rgb(0, 0, 0); stroke-width: 0px; fill: rgb(204, 153, 0);" transform="matrix(1, 0, 0, 1, -2.842170943040401e-14, 0)" bx:shape="triangle 395 188 5 40 0.5 0 1@8bc447d3"/>
  <path d="M 399.5 188 L 402 228 L 397 228 L 399.5 188 Z" style="stroke: rgb(0, 0, 0); stroke-width: 0px; fill: rgb(204, 153, 0);" transform="matrix(1, 0, 0, 1, -2.842170943040401e-14, 0)" bx:shape="triangle 397 188 5 40 0.5 0 1@bf85f295"/>
  <path d="M 401.5 188 L 404 228 L 399 228 L 401.5 188 Z" style="stroke: rgb(0, 0, 0); stroke-width: 0px; fill: rgb(204, 153, 0);" transform="matrix(1, 0, 0, 1, -2.842170943040401e-14, 0)" bx:shape="triangle 399 188 5 40 0.5 0 1@380e16db"/>
  <path d="M 414.476 186 L 416.976 226 L 411.976 226 L 414.476 186 Z" style="stroke: rgb(0, 0, 0); stroke-width: 0px; fill: rgb(204, 153, 0);" transform="matrix(1, 0, 0, 1, -2.842170943040401e-14, 0)" bx:shape="triangle 411.976 186 5 40 0.5 0 1@c2f5e0a0"/>
  <path d="M 416.476 186 L 418.976 226 L 413.976 226 L 416.476 186 Z" style="stroke: rgb(0, 0, 0); stroke-width: 0px; fill: rgb(204, 153, 0);" transform="matrix(1, 0, 0, 1, -2.842170943040401e-14, 0)" bx:shape="triangle 413.976 186 5 40 0.5 0 1@59c8751a"/>
  <path d="M 418.476 186 L 420.976 226 L 415.976 226 L 418.476 186 Z" style="stroke: rgb(0, 0, 0); stroke-width: 0px; fill: rgb(204, 153, 0);" transform="matrix(1, 0, 0, 1, -2.842170943040401e-14, 0)" bx:shape="triangle 415.976 186 5 40 0.5 0 1@a8b43a35"/>
  <path d="M 420.476 186 L 422.976 226 L 417.976 226 L 420.476 186 Z" style="stroke: rgb(0, 0, 0); stroke-width: 0px; fill: rgb(204, 153, 0);" transform="matrix(1, 0, 0, 1, -2.842170943040401e-14, 0)" bx:shape="triangle 417.976 186 5 40 0.5 0 1@71bd353b"/>
  <path d="M 422.476 186 L 424.976 226 L 419.976 226 L 422.476 186 Z" style="stroke: rgb(0, 0, 0); stroke-width: 0px; fill: rgb(204, 153, 0);" transform="matrix(1, 0, 0, 1, -2.842170943040401e-14, 0)" bx:shape="triangle 419.976 186 5 40 0.5 0 1@aa9dcdb1"/>
  <path d="M 699.5 210 L 702 250 L 697 250 L 699.5 210 Z" style="stroke: rgb(0, 0, 0); stroke-width: 0px; fill: rgb(204, 153, 0);" transform="matrix(1, 0, 0, 1, -2.842170943040401e-14, 0)" bx:shape="triangle 697 210 5 40 0.5 0 1@042603da"/>
  <path d="M 701.5 210 L 704 250 L 699 250 L 701.5 210 Z" style="stroke: rgb(0, 0, 0); stroke-width: 0px; fill: rgb(204, 153, 0);" transform="matrix(1, 0, 0, 1, -2.842170943040401e-14, 0)" bx:shape="triangle 699 210 5 40 0.5 0 1@1367e8a4"/>
  <path d="M 703.5 210 L 706 250 L 701 250 L 703.5 210 Z" style="stroke: rgb(0, 0, 0); stroke-width: 0px; fill: rgb(204, 153, 0);" transform="matrix(1, 0, 0, 1, -2.842170943040401e-14, 0)" bx:shape="triangle 701 210 5 40 0.5 0 1@a66fa552"/>
  <path d="M 705.5 210 L 708 250 L 703 250 L 705.5 210 Z" style="stroke: rgb(0, 0, 0); stroke-width: 0px; fill: rgb(204, 153, 0);" transform="matrix(1, 0, 0, 1, -2.842170943040401e-14, 0)" bx:shape="triangle 703 210 5 40 0.5 0 1@f1132fd8"/>
  <path d="M 707.5 210 L 710 250 L 705 250 L 707.5 210 Z" style="stroke: rgb(0, 0, 0); stroke-width: 0px; fill: rgb(204, 153, 0);" transform="matrix(1, 0, 0, 1, -2.842170943040401e-14, 0)" bx:shape="triangle 705 210 5 40 0.5 0 1@39236f41"/>
  <path d="M 424.5 191 L 427 231 L 422 231 L 424.5 191 Z" style="stroke: rgb(0, 0, 0); stroke-width: 0px; fill: rgb(204, 153, 0);" transform="matrix(1, 0, 0, 1, -2.842170943040401e-14, 0)" bx:shape="triangle 422 191 5 40 0.5 0 1@9affa134"/>
  <path d="M 426.5 191 L 429 231 L 424 231 L 426.5 191 Z" style="stroke: rgb(0, 0, 0); stroke-width: 0px; fill: rgb(204, 153, 0);" transform="matrix(1, 0, 0, 1, -2.842170943040401e-14, 0)" bx:shape="triangle 424 191 5 40 0.5 0 1@22287f46"/>
  <path d="M 428.5 191 L 431 231 L 426 231 L 428.5 191 Z" style="stroke: rgb(0, 0, 0); stroke-width: 0px; fill: rgb(204, 153, 0);" transform="matrix(1, 0, 0, 1, -2.842170943040401e-14, 0)" bx:shape="triangle 426 191 5 40 0.5 0 1@61decc3b"/>
  <path d="M 430.5 191 L 433 231 L 428 231 L 430.5 191 Z" style="stroke: rgb(0, 0, 0); stroke-width: 0px; fill: rgb(204, 153, 0);" transform="matrix(1, 0, 0, 1, -2.842170943040401e-14, 0)" bx:shape="triangle 428 191 5 40 0.5 0 1@ad0aa39d"/>
  <path d="M 432.5 191 L 435 231 L 430 231 L 432.5 191 Z" style="stroke: rgb(0, 0, 0); stroke-width: 0px; fill: rgb(204, 153, 0);" transform="matrix(1, 0, 0, 1, -2.842170943040401e-14, 0)" bx:shape="triangle 430 191 5 40 0.5 0 1@a331bdfd"/>
</svg>