<?xml version="1.0" encoding="utf-8"?>
<svg viewBox="366.4971 196.0643 201.3911 95.7337" xmlns="http://www.w3.org/2000/svg">
  <ellipse style="stroke: rgb(0, 0, 0); stroke-width: 0px; fill: rgb(153, 102, 0);" cx="-468.972" cy="234.869" rx="55.022" ry="19.838" transform="matrix(-1, 0, 0, 1, -1.7763568394002505e-15, -7.105427357601002e-15)"/>
  <ellipse style="stroke: rgb(0, 0, 0); stroke-width: 0px; fill: rgb(153, 102, 0);" cx="-448.068" cy="233.21" rx="37.223" ry="17.312" transform="matrix(-1, 0, 0, 1, -1.7763568394002505e-15, -7.105427357601002e-15)"/>
  <ellipse style="stroke: rgb(0, 0, 0); stroke-width: 0px; fill: rgb(153, 102, 0); transform-origin: 509.473px -14.854px;" cx="509.473" cy="-14.854" rx="27.096" ry="7.257" transform="matrix(-0.766044914722, 0.642786979675, 0.642786979675, 0.766044914722, -95.788614691789, 267.639488797487)"/>
  <ellipse style="stroke: rgb(0, 0, 0); stroke-width: 0px; fill: rgb(153, 102, 0);" cx="-422.168" cy="238.28" rx="12.161" ry="16.731" transform="matrix(-1, 0, 0, 1, -1.7763568394002505e-15, -7.105427357601002e-15)"/>
  <ellipse style="stroke: rgb(0, 0, 0); stroke-width: 0px; fill: rgb(153, 102, 0); transform-origin: 509.473px -14.854px;" cx="509.473" cy="-14.854" rx="3.615" ry="12.467" transform="matrix(-1, -0.000001, -0.000001, 1, -114.885713861939, 291.330244379748)"/>
  <ellipse style="stroke: rgb(0, 0, 0); stroke-width: 0px; fill: rgb(153, 102, 0); transform-origin: 509.473px -14.854px;" cx="509.473" cy="-14.854" rx="7.188" ry="3.219" transform="matrix(-1, -0.000001, -0.000001, 1, -109.821504802091, 301.507246484516)"/>
  <ellipse style="stroke: rgb(0, 0, 0); stroke-width: 0px; fill: rgb(153, 102, 0); transform-origin: 509.473px -14.854px;" cx="509.473" cy="-14.854" rx="10.479" ry="3.219" transform="matrix(-0.707107007504, 0.707106113434, 0.707106113434, 0.707107007504, -110.127747411911, 283.490936798717)"/>
  <ellipse style="stroke: rgb(0, 0, 0); stroke-width: 0px; fill: rgb(153, 102, 0); transform-origin: 509.473px -14.854px;" cx="509.473" cy="-14.854" rx="7.682" ry="28.099" transform="matrix(-1, -0.000001, -0.000001, 1, -68.567170691268, 266.411878529921)"/>
  <ellipse style="stroke: rgb(0, 0, 0); stroke-width: 0px; fill: rgb(153, 102, 0); transform-origin: 509.473px -14.854px;" cx="509.473" cy="-14.854" rx="3.656" ry="12.067" transform="matrix(-0.642787992954, 0.766043901444, 0.766043901443, 0.642787992954, -64.183586001167, 294.587810237406)"/>
  <ellipse style="stroke: rgb(0, 0, 0); stroke-width: 0px; fill: rgb(153, 102, 0); transform-origin: 509.473px -14.854px;" cx="509.473" cy="-14.854" rx="7.188" ry="3.219" transform="matrix(-1, -0.000001, -0.000001, 1, -53.306306206054, 300.73420570152)"/>
  <ellipse style="stroke: rgb(0, 0, 0); stroke-width: 0px; fill: rgb(153, 102, 0); transform-origin: 509.473px -14.854px;" cx="509.473" cy="-14.854" rx="2.057" ry="9.821" transform="matrix(-0.906307995319, 0.422618061304, 0.422618061304, 0.906307995319, -64.477426628785, 289.824826046834)"/>
  <ellipse style="stroke: rgb(0, 0, 0); stroke-width: 0px; fill: rgb(153, 102, 0); transform-origin: 509.473px -14.854px;" cx="509.473" cy="-14.854" rx="5.84" ry="27.104" transform="matrix(-0.984808027744, -0.173649027944, -0.173649027944, 0.984808027744, -14.770668311466, 273.143836623461)"/>
  <ellipse style="stroke: rgb(0, 0, 0); stroke-width: 0px; fill: rgb(153, 102, 0); transform-origin: 509.473px -14.854px;" cx="509.473" cy="-14.854" rx="7.188" ry="3.219" transform="matrix(-1, -0.000001, -0.000001000001, 1, -11.483490641452, 302.242720128301)"/>
  <ellipse style="stroke: rgb(0, 0, 0); stroke-width: 0px; fill: rgb(153, 102, 0); transform-origin: 509.473px -14.854px;" cx="509.473" cy="-14.854" rx="3.656" ry="6.489" transform="matrix(-0.866026103497, 0.499999016523, 0.499999016523, 0.866026103497, -16.43321336747, 299.204340602623)"/>
  <ellipse style="stroke: rgb(0, 0, 0); stroke-width: 0px; fill: rgb(153, 102, 0); transform-origin: 509.473px -14.854px;" cx="509.473" cy="-14.854" rx="1.329" ry="6.489" transform="matrix(-0.984808027744, 0.173647031188, 0.173647031187, 0.984808027744, -15.578210798182, 292.582936636789)"/>
  <ellipse style="stroke: rgb(0, 0, 0); stroke-width: 0px; fill: rgb(153, 102, 0); transform-origin: 509.473px -14.854px;" cx="509.473" cy="-14.854" rx="5.84" ry="19.397" transform="matrix(-0.90630698204, -0.422619074583, -0.422619074583, 0.90630698204, -9.677178955004, 264.019912270193)"/>
  <ellipse style="stroke: rgb(0, 0, 0); stroke-width: 0px; fill: rgb(153, 102, 0); transform-origin: 509.473px -14.854px;" cx="509.473" cy="-14.854" rx="7.682" ry="15.614" transform="matrix(-0.766044914722, 0.642786979675, 0.642786979675, 0.766044914722, -73.512112841843, 263.815723291842)"/>
  <ellipse style="stroke: rgb(0, 0, 0); stroke-width: 0px; fill: rgb(153, 102, 0); transform-origin: 509.473px -14.854px;" cx="509.473" cy="-14.854" rx="16.857" ry="6.451" transform="matrix(-0.642786979675, -0.766044914722, -0.766044914722, 0.642786979675, 6.206303188061, 269.430654801195)"/>
  <ellipse style="stroke: rgb(0, 0, 0); stroke-width: 0px; fill: rgb(153, 102, 0); transform-origin: 509.473px -14.854px;" cx="509.473" cy="-14.854" rx="20.951" ry="4.521" transform="matrix(-0.707106113434, -0.707107007504, -0.707107007504, 0.707106113434, 20.757692548668, 284.31574256034)"/>
  <ellipse style="stroke: rgb(0, 0, 0); stroke-width: 0px; fill: rgb(153, 102, 0); transform-origin: 509.473px -14.854px;" cx="509.473" cy="-14.854" rx="7.188" ry="3.219" transform="matrix(-0.90630698204, -0.422619074583, -0.422619074583, 0.90630698204, 37.489873396331, 299.192170642628)"/>
  <ellipse style="stroke: rgb(0, 0, 0); stroke-width: 0px; fill: rgb(153, 102, 0); transform-origin: 509.473px -14.854px;" cx="509.473" cy="-14.854" rx="23.933" ry="3.388" transform="matrix(-0.766044914722, 0.642786979675, 0.642786979675, 0.766044914722, -101.749356914954, 250.114902164829)"/>
  <ellipse style="stroke: rgb(0, 0, 0); stroke-width: 0px; fill: rgb(153, 102, 0); transform-origin: 509.473px -14.854px;" cx="509.473" cy="-14.854" rx="6.859" ry="1.922" transform="matrix(-1, -0.000001, -0.000001, 1, -125.061373193255, 264.916456144349)"/>
  <ellipse style="stroke: rgb(0, 0, 0); stroke-width: 0px; fill: rgb(153, 102, 0); transform-origin: 509.473px -14.854px;" cx="509.459" cy="-16.646" rx="6.833" ry="3.692" transform="matrix(-1, -0.000001, -0.000001, 1, -136.157015448436, 266.719190546219)"/>
  <ellipse style="stroke: rgb(0, 0, 0); stroke-width: 0px; fill: rgb(153, 102, 0); transform-origin: 509.465px -16.322px;" cx="509.459" cy="-16.646" rx="2.96" ry="0.667" transform="matrix(-0.9396930933, 0.342019051313, 0.342019051315, 0.939693093298, -119.703563891383, 265.244299618992)"/>
  <ellipse style="stroke: rgb(0, 0, 0); stroke-width: 0px; fill: rgb(153, 102, 0);" cx="-521.736" cy="225.24" rx="25.136" ry="25.971" transform="matrix(-1, 0, 0, 1, -1.7763568394002505e-15, -7.105427357601002e-15)"/>
  <ellipse style="stroke: rgb(0, 0, 0); stroke-width: 0px; fill: rgb(153, 102, 0); transform-origin: 440.424px -83.188px;" cx="440.424" cy="-83.188" rx="2.857" ry="14.666" transform="matrix(0.342020004988, 0.9396930933, 0.9396930933, -0.342020004988, 71.244856083674, 286.953003823816)"/>
  <ellipse style="stroke: rgb(0, 0, 0); stroke-width: 0px; fill: rgb(153, 102, 0); transform-origin: 440.424px -83.188px;" cx="440.424" cy="-83.188" rx="4.78" ry="16.897" transform="matrix(0.309017062187, 0.95105701685, 0.95105701685, -0.309017062187, 58.574879909096, 297.609049693091)"/>
  <ellipse style="stroke: rgb(0, 0, 0); stroke-width: 0px; fill: rgb(153, 102, 0); transform-origin: 440.424px -83.188px;" cx="440.424" cy="-83.188" rx="2.857" ry="14.666" transform="matrix(-0.173648029566, 0.984808027744, 0.984808027744, 0.173648029566, 93.549694154539, 285.092151214438)"/>
  <ellipse style="stroke: rgb(0, 0, 0); stroke-width: 0px; fill: rgb(153, 102, 0); transform-origin: 440.424px -83.188px;" cx="440.424" cy="-83.188" rx="1.419" ry="5.2" transform="matrix(-0.5, 0.866026103497, 0.866026103496, 0.500000000001, 109.33000465308, 288.374663178761)"/>
  <ellipse style="stroke: rgb(0, 0, 0); stroke-width: 0px; fill: rgb(153, 102, 0); transform-origin: 440.424px -83.188px;" cx="440.424" cy="-83.188" rx="2.028" ry="10.14" transform="matrix(-0.5, 0.866026103497, 0.866026103497, 0.5, 108.584887454488, 291.015562876269)"/>
  <ellipse style="stroke: rgb(0, 0, 0); stroke-width: 0px; fill: rgb(153, 102, 0); transform-origin: 440.424px -83.188px;" cx="440.424" cy="-83.188" rx="2.028" ry="11.266" transform="matrix(-0.5, 0.866026103497, 0.866026103497, 0.5, 106.17290011385, 292.632628330084)"/>
  <ellipse style="stroke: rgb(0, 0, 0); stroke-width: 0px; fill: rgb(153, 102, 0); transform-origin: 440.424px -83.188px;" cx="440.424" cy="-83.188" rx="2.028" ry="10.14" transform="matrix(-0.5, 0.866026103497, 0.866026103497, 0.5, 105.860827355297, 294.827269475988)"/>
  <ellipse style="stroke: rgb(0, 0, 0); stroke-width: 0px; fill: rgb(153, 102, 0); transform-origin: 366.706px -53.491px;" cx="366.706" cy="-53.491" rx="13.372" ry="18.268" transform="matrix(-0.707107007504, 0.707107007504, 0.707107007504, 0.707107007504, 178.809305729241, 281.3387855648)"/>
  <ellipse style="stroke: rgb(0, 0, 0); stroke-width: 0px; fill: rgb(153, 102, 0); transform-origin: 366.706px -53.491px;" cx="366.706" cy="-53.491" rx="4.018" ry="10.447" transform="matrix(-0.707107007504, 0.707107007504, 0.707107007504, 0.707107007504, 189.761395992184, 281.055716740041)"/>
  <ellipse style="stroke: rgb(0, 0, 0); stroke-width: 0px; fill: rgb(153, 102, 0); transform-origin: -551.605px 243.78px;" cx="-551.605" cy="243.78" rx="3.282" ry="3.301" transform="matrix(-0.999999999999, 0, 2e-12, 1, 1103.209228515594, 0)"/>
  <ellipse style="stroke: rgb(0, 0, 0); stroke-width: 0px; fill: rgb(153, 102, 0); transform-origin: 350.538px -39.759px;" cx="350.538" cy="-39.759" rx="1.01" ry="4.106" transform="matrix(-0.707106113434, -0.707107007503, -0.707107007503, 0.707106113434, 204.472695288418, 283.176911560189)"/>
  <ellipse style="stroke: rgb(0, 0, 0); stroke-width: 0px; fill: rgb(153, 102, 0); transform-origin: 350.538px -39.759px;" cx="350.538" cy="-39.759" rx="1.01" ry="4.106" transform="matrix(-0.57357698679, 0.819152116775, 0.819152116776, 0.57357698679, 197.402457464714, 283.719694358393)"/>
</svg>