<?xml version="1.0" encoding="utf-8"?>
<svg viewBox="487.97 69.955 230.899 157.0973" xmlns="http://www.w3.org/2000/svg">
  <ellipse style="stroke: rgb(0, 0, 0); stroke-width: 0px; fill: rgb(204, 153, 0); transform-origin: 597.516px 182.203px;" cx="597.516" cy="182.203" rx="8.241" ry="27.446" transform="matrix(0.9396930933, 0.342020004988, -0.342020004988, 0.9396930933, 3.603685479291, 16.23986934965)"/>
  <ellipse style="stroke: rgb(0, 0, 0); stroke-width: 0px; fill: rgb(204, 153, 0); transform-origin: 606.894px 173.1px;" cx="606.894" cy="173.1" rx="8.241" ry="21.09" transform="matrix(1, 0, 0, 1, 0, 1e-12)"/>
  <ellipse style="stroke: rgb(0, 0, 0); stroke-width: 0px; fill: rgb(204, 153, 0); transform-origin: 647.302px 158.477px;" cx="647.302" cy="158.477" rx="3.832" ry="21.938" transform="matrix(0.224950954318, 0.974370002747, -0.974370002747, 0.224950954318, -16.390302311348, -6.645885807775)"/>
  <ellipse style="stroke: rgb(0, 0, 0); stroke-width: 0px; fill: rgb(204, 153, 0); transform-origin: 647.302px 158.477px;" cx="647.302" cy="158.477" rx="3.832" ry="21.938" transform="matrix(0.669131100178, 0.743145108223, -0.743145108223, 0.669131100178, 14.251359976899, -22.481653410739)"/>
  <ellipse style="stroke: rgb(0, 0, 0); stroke-width: 0px; fill: rgb(204, 153, 0); transform-origin: 623.193px 175.967px;" cx="623.193" cy="175.967" rx="3.943" ry="11.649" transform="matrix(0.766043901443, 0.642787992954, -0.642787992954, 0.766043901444, -8.998354582441, -13.983354131563)"/>
  <ellipse style="stroke: rgb(0, 0, 0); stroke-width: 0px; fill: rgb(204, 153, 0); transform-origin: 623.193px 175.967px;" cx="623.193" cy="175.967" rx="3.943" ry="11.051" transform="matrix(0.984808027744, 0.173649027944, -0.173649027944, 0.984808027744, -21.884982349875, 8.441412734908)"/>
  <ellipse style="stroke: rgb(0, 0, 0); stroke-width: 0px; fill: rgb(204, 153, 0); transform-origin: 647.302px 158.477px;" cx="647.302" cy="158.477" rx="3.832" ry="21.938" transform="matrix(0.453991055489, -0.891005992889, 0.891005992889, 0.453991055489, -55.556352729963, -11.324110327253)"/>
  <ellipse style="stroke: rgb(0, 0, 0); stroke-width: 0px; fill: rgb(204, 153, 0); transform-origin: 647.302px 158.477px;" cx="647.302" cy="158.477" rx="3.832" ry="21.938" transform="matrix(-0.000001, 1, -1, -0.000001, -90.585490770888, -19.923673748431)"/>
  <ellipse style="stroke: rgb(0, 0, 0); stroke-width: 0px; fill: rgb(204, 153, 0); transform-origin: 647.302px 158.477px;" cx="647.302" cy="158.477" rx="3.832" ry="17.282" transform="matrix(0.766044914722, -0.642786979675, 0.642786979675, 0.766044914723, -119.586910955163, -31.785423168989)"/>
  <ellipse style="stroke: rgb(0, 0, 0); stroke-width: 0px; fill: rgb(204, 153, 0); transform-origin: 647.302px 158.477px;" cx="647.302" cy="158.477" rx="3.832" ry="17.832" transform="matrix(0.766044914722, -0.642786979675, 0.642786979675, 0.766044914722, -106.855953734204, -34.919944700076)"/>
  <ellipse style="stroke: rgb(0, 0, 0); stroke-width: 0px; fill: rgb(204, 153, 0); transform-origin: 647.302px 158.477px;" cx="647.302" cy="158.477" rx="3.832" ry="17.277" transform="matrix(0.9396930933, -0.342019051313, 0.342019051313, 0.9396930933, -68.7280924546, -32.493541718168)"/>
  <ellipse style="stroke: rgb(0, 0, 0); stroke-width: 0px; fill: rgb(204, 153, 0); transform-origin: 647.302px 158.477px;" cx="647.302" cy="158.477" rx="3.832" ry="17.277" transform="matrix(0.173649027944, -0.984808027744, 0.984808027744, 0.173649027944, -86.160582315483, -35.422454567461)"/>
  <ellipse style="stroke: rgb(0, 0, 0); stroke-width: 0px; fill: rgb(204, 153, 0); transform-origin: 647.302px 158.477px;" cx="647.302" cy="158.477" rx="3.832" ry="19.793" transform="matrix(0.999848008156, -0.017452003434, 0.017452003434, 0.999848008156, -52.310923322445, -30.152843133379)"/>
  <ellipse style="stroke: rgb(0, 0, 0); stroke-width: 0px; fill: rgb(204, 153, 0); transform-origin: 647.302px 158.477px;" cx="647.302" cy="158.477" rx="3.832" ry="19.793" transform="matrix(0.891006946564, -0.453990012407, 0.453990012407, 0.891006946564, -60.993448903131, -38.386405555396)"/>
  <ellipse style="stroke: rgb(0, 0, 0); stroke-width: 0px; fill: rgb(204, 153, 0); transform-origin: 647.302px 158.477px;" cx="647.302" cy="158.477" rx="3.832" ry="28.742" transform="matrix(0.965926110744, 0.258819013834, -0.258819013834, 0.965926110744, -31.488014465773, -25.659215676134)"/>
  <ellipse style="stroke: rgb(0, 0, 0); stroke-width: 0px; fill: rgb(204, 153, 0); transform-origin: 647.302px 158.477px;" cx="647.302" cy="158.477" rx="3.832" ry="18.482" transform="matrix(0.891005992889, -0.453991055489, 0.453991055489, 0.891005992889, -40.385991152806, -36.329250113463)"/>
  <ellipse style="stroke: rgb(0, 0, 0); stroke-width: 0px; fill: rgb(204, 153, 0); transform-origin: 647.302px 158.477px;" cx="647.302" cy="158.477" rx="3.832" ry="35.038" transform="matrix(0.694659113884, 0.71933889389, -0.71933889389, 0.694659113884, -11.400233441376, -27.377978740505)"/>
  <ellipse style="stroke: rgb(0, 0, 0); stroke-width: 0px; fill: rgb(204, 153, 0); transform-origin: 647.302px 158.477px;" cx="647.302" cy="158.477" rx="3.832" ry="16.996" transform="matrix(0.956305027008, 0.292371064424, -0.292371064425, 0.956305027008, -17.328973129671, -33.020267623922)"/>
  <ellipse style="stroke: rgb(0, 0, 0); stroke-width: 0px; fill: rgb(204, 153, 0); transform-origin: 647.302px 158.477px;" cx="647.302" cy="158.477" rx="3.832" ry="16.996" transform="matrix(0.190809980035, 0.981626987457, -0.981626987457, 0.190809980035, 40.806036893731, -36.490073945935)"/>
  <ellipse style="stroke: rgb(0, 0, 0); stroke-width: 0px; fill: rgb(204, 153, 0); transform-origin: 647.302px 158.477px;" cx="647.302" cy="158.477" rx="3.832" ry="11.061" transform="matrix(0.939692139626, -0.342021018267, 0.342021018267, 0.939692139626, 16.67821170831, -38.142548238023)"/>
  <ellipse style="stroke: rgb(0, 0, 0); stroke-width: 0px; fill: rgb(204, 153, 0); transform-origin: 623.193px 175.967px;" cx="623.193" cy="175.967" rx="3.943" ry="11.649" transform="matrix(0.766044914722, -0.642786979675, 0.642786979675, 0.766044914723, -19.807566747289, -19.597174479236)"/>
  <ellipse style="stroke: rgb(0, 0, 0); stroke-width: 0px; fill: rgb(204, 153, 0); transform-origin: 510.635px 117.922px;" cx="510.635" cy="117.922" rx="22.665" ry="11.805"/>
  <ellipse style="stroke: rgb(0, 0, 0); stroke-width: 0px; fill: rgb(204, 153, 0); transform-origin: 519.803px 108.076px;" cx="519.803" cy="108.076" rx="22.665" ry="11.805"/>
  <ellipse style="stroke: rgb(0, 0, 0); stroke-width: 0px; fill: rgb(204, 153, 0); transform-origin: 556.815px 110.623px;" cx="556.815" cy="110.623" rx="22.665" ry="11.805"/>
  <ellipse style="stroke: rgb(0, 0, 0); stroke-width: 0px; fill: rgb(204, 153, 0); transform-origin: 548.156px 100.266px;" cx="548.156" cy="100.266" rx="22.665" ry="11.805"/>
  <ellipse style="stroke: rgb(0, 0, 0); stroke-width: 0px; fill: rgb(204, 153, 0); transform-origin: 562.757px 93.475px;" cx="562.757" cy="93.475" rx="22.665" ry="11.805"/>
  <ellipse style="stroke: rgb(0, 0, 0); stroke-width: 0px; fill: rgb(204, 153, 0); transform-origin: 587.544px 105.868px;" cx="587.544" cy="105.868" rx="22.665" ry="11.805"/>
  <ellipse style="stroke: rgb(0, 0, 0); stroke-width: 0px; fill: rgb(204, 153, 0); transform-origin: 592.469px 87.872px;" cx="592.469" cy="87.872" rx="22.665" ry="11.805"/>
  <ellipse style="stroke: rgb(0, 0, 0); stroke-width: 0px; fill: rgb(204, 153, 0); transform-origin: 610.804px 81.76px;" cx="610.804" cy="81.76" rx="22.665" ry="11.805"/>
  <ellipse style="stroke: rgb(0, 0, 0); stroke-width: 0px; fill: rgb(204, 153, 0); transform-origin: 624.047px 82.27px;" cx="624.047" cy="82.27" rx="22.665" ry="11.805"/>
  <ellipse style="stroke: rgb(0, 0, 0); stroke-width: 0px; fill: rgb(204, 153, 0); transform-origin: 614.71px 105.02px;" cx="614.71" cy="105.02" rx="22.665" ry="11.805" transform="matrix(1, 0, 0, 1, 0, 1e-12)"/>
  <ellipse style="stroke: rgb(0, 0, 0); stroke-width: 0px; fill: rgb(204, 153, 0); transform-origin: 642.723px 93.815px;" cx="642.723" cy="93.815" rx="22.665" ry="11.805" transform="matrix(1, 0, 0, 1, 0, 1e-12)"/>
  <ellipse style="stroke: rgb(0, 0, 0); stroke-width: 0px; fill: rgb(204, 153, 0); transform-origin: 644.421px 106.379px;" cx="644.421" cy="106.379" rx="22.665" ry="11.805"/>
  <ellipse style="stroke: rgb(0, 0, 0); stroke-width: 0px; fill: rgb(204, 153, 0); transform-origin: 668.36px 101.624px;" cx="668.36" cy="101.624" rx="22.665" ry="11.805"/>
  <ellipse style="stroke: rgb(0, 0, 0); stroke-width: 0px; fill: rgb(204, 153, 0); transform-origin: 692.129px 112.151px;" cx="692.129" cy="112.151" rx="22.665" ry="11.805" transform="matrix(1, 0, 0, 1, 0, -1e-12)"/>
  <ellipse style="stroke: rgb(0, 0, 0); stroke-width: 0px; fill: rgb(204, 153, 0); transform-origin: 696.204px 121.828px;" cx="696.204" cy="121.828" rx="22.665" ry="11.805" transform="matrix(1, 0, 0, 1, 0, -1e-12)"/>
</svg>