<?xml version="1.0" encoding="utf-8"?>
<svg viewBox="632.642 121.4345 38.5067 29.7895" xmlns="http://www.w3.org/2000/svg">
  <ellipse style="stroke: rgb(0, 0, 0); stroke-width: 0px; fill: rgb(153, 102, 0);" cx="651.599" cy="139.284" rx="10.672" ry="10.817" transform="matrix(0.9999999999999999, 0, 0, 0.9999999999999999, 0, 7.105427357601002e-15)"/>
  <ellipse style="stroke: rgb(0, 0, 0); stroke-width: 0px; fill: rgb(153, 102, 0);" cx="646.035" cy="143.895" rx="13.393" ry="7.329" transform="matrix(0.9999999999999999, 0, 0, 0.9999999999999999, 0, 7.105427357601002e-15)"/>
  <ellipse style="stroke: rgb(0, 0, 0); stroke-width: 0px; fill: rgb(153, 102, 0); transform-origin: 409.964px 152.666px;" cx="409.964" cy="152.666" rx="14.922" ry="4.111" transform="matrix(0.866025090218, -0.5, 0.5, 0.866025090218, 246.206328742848, -16.731604669569)"/>
  <ellipse style="stroke: rgb(0, 0, 0); stroke-width: 0px; fill: rgb(153, 102, 0); transform-origin: 397.046px 150.228px;" cx="397.046" cy="150.228" rx="2.175" ry="11.16" transform="matrix(0.984808027744, 0.173648029566, -0.173648029566, 0.984808027744, 258.744578285504, -17.098687052874)"/>
  <ellipse style="stroke: rgb(0, 0, 0); stroke-width: 0px; fill: rgb(153, 102, 0); transform-origin: 397.046px 150.228px;" cx="397.046" cy="150.228" rx="2.175" ry="11.16" transform="matrix(0.996195018292, -0.087156012654, 0.087156012655, 0.996195018292, 252.485508671828, -17.163395319285)"/>
  <ellipse style="stroke: rgb(0, 0, 0); stroke-width: 0px; fill: rgb(153, 102, 0); transform-origin: 397.046px 150.228px;" cx="397.046" cy="150.228" rx="3.227" ry="2.428" transform="matrix(0.996195018292, -0.087156012654, 0.087156012655, 0.996195018292, 251.396427845075, -25.912020251278)"/>
  <ellipse style="stroke: rgb(0, 0, 0); stroke-width: 0px; fill: rgb(153, 102, 0); transform-origin: 397.046px 150.228px;" cx="397.046" cy="150.228" rx="3.227" ry="2.428" transform="matrix(0.984808027745, 0.173648029566, -0.173648029566, 0.984808027744, 260.350565858191, -25.84207249812)"/>
</svg>