<?xml version="1.0" encoding="utf-8"?>
<svg viewBox="411.976 186 23.024 35" xmlns="http://www.w3.org/2000/svg">
  <path d="M 414.476 186 L 416.976 226 L 411.976 226 L 414.476 186 Z" style="stroke: rgb(0, 0, 0); stroke-width: 0px; fill: rgb(204, 153, 0);" transform="matrix(1, 0, 0, 1, 5.684341886080802e-14, 0)"/>
  <path d="M 416.476 186 L 418.976 226 L 413.976 226 L 416.476 186 Z" style="stroke: rgb(0, 0, 0); stroke-width: 0px; fill: rgb(204, 153, 0);" transform="matrix(1, 0, 0, 1, 5.684341886080802e-14, 0)"/>
  <path d="M 418.476 186 L 420.976 226 L 415.976 226 L 418.476 186 Z" style="stroke: rgb(0, 0, 0); stroke-width: 0px; fill: rgb(204, 153, 0);" transform="matrix(1, 0, 0, 1, 5.684341886080802e-14, 0)"/>
  <path d="M 420.476 186 L 422.976 226 L 417.976 226 L 420.476 186 Z" style="stroke: rgb(0, 0, 0); stroke-width: 0px; fill: rgb(204, 153, 0);" transform="matrix(1, 0, 0, 1, 5.684341886080802e-14, 0)"/>
  <path d="M 422.476 186 L 424.976 226 L 419.976 226 L 422.476 186 Z" style="stroke: rgb(0, 0, 0); stroke-width: 0px; fill: rgb(204, 153, 0);" transform="matrix(1, 0, 0, 1, 5.684341886080802e-14, 0)"/>
  <path d="M 424.5 191 L 427 231 L 422 231 L 424.5 191 Z" style="stroke: rgb(0, 0, 0); stroke-width: 0px; fill: rgb(204, 153, 0);" transform="matrix(1, 0, 0, 1, 5.684341886080802e-14, 0)"/>
  <path d="M 426.5 191 L 429 231 L 424 231 L 426.5 191 Z" style="stroke: rgb(0, 0, 0); stroke-width: 0px; fill: rgb(204, 153, 0);" transform="matrix(1, 0, 0, 1, 5.684341886080802e-14, 0)"/>
  <path d="M 428.5 191 L 431 231 L 426 231 L 428.5 191 Z" style="stroke: rgb(0, 0, 0); stroke-width: 0px; fill: rgb(204, 153, 0);" transform="matrix(1, 0, 0, 1, 5.684341886080802e-14, 0)"/>
  <path d="M 430.5 191 L 433 231 L 428 231 L 430.5 191 Z" style="stroke: rgb(0, 0, 0); stroke-width: 0px; fill: rgb(204, 153, 0);" transform="matrix(1, 0, 0, 1, 5.684341886080802e-14, 0)"/>
  <path d="M 432.5 191 L 435 231 L 430 231 L 432.5 191 Z" style="stroke: rgb(0, 0, 0); stroke-width: 0px; fill: rgb(204, 153, 0);" transform="matrix(1, 0, 0, 1, 5.684341886080802e-14, 0)"/>
</svg>