<?xml version="1.0" encoding="utf-8"?>
<svg viewBox="632.642 121.4344 73.0962 127.4126" xmlns="http://www.w3.org/2000/svg">
  <ellipse style="stroke: rgb(0, 0, 0); stroke-width: 0px; fill: rgb(153, 102, 0);" cx="651.599" cy="139.284" rx="10.672" ry="10.817" transform="matrix(1, 0, 0, 1, -1.7763568394002505e-15, -7.105427357601002e-15)"/>
  <ellipse style="stroke: rgb(0, 0, 0); stroke-width: 0px; fill: rgb(153, 102, 0);" cx="646.035" cy="143.895" rx="13.393" ry="7.329" transform="matrix(1, 0, 0, 1, -1.7763568394002505e-15, -7.105427357601002e-15)"/>
  <ellipse style="stroke: rgb(0, 0, 0); stroke-width: 0px; fill: rgb(153, 102, 0); transform-origin: 409.964px 152.666px;" cx="409.964" cy="152.666" rx="14.922" ry="4.111" transform="matrix(0.866025090218, -0.5, 0.5, 0.866025090218, 246.206405036815, -16.731619928358)"/>
  <ellipse style="stroke: rgb(0, 0, 0); stroke-width: 0px; fill: rgb(153, 102, 0); transform-origin: 397.046px 150.228px;" cx="397.046" cy="150.228" rx="2.175" ry="11.16" transform="matrix(0.984808027744, 0.173648029566, -0.173648029566, 0.984808027744, 258.744456215231, -17.098717570454)"/>
  <ellipse style="stroke: rgb(0, 0, 0); stroke-width: 0px; fill: rgb(153, 102, 0); transform-origin: 397.046px 150.228px;" cx="397.046" cy="150.228" rx="2.175" ry="11.16" transform="matrix(0.996195018292, -0.087156012654, 0.087156012654, 0.996195018292, 252.485371342846, -17.163446817709)"/>
  <ellipse style="stroke: rgb(0, 0, 0); stroke-width: 0px; fill: rgb(153, 102, 0); transform-origin: 397.046px 150.228px;" cx="397.046" cy="150.228" rx="3.227" ry="2.428" transform="matrix(0.996195018291, -0.087156012654, 0.087156012655, 0.996195018291, 251.396290516003, -25.912069842325)"/>
  <ellipse style="stroke: rgb(0, 0, 0); stroke-width: 0px; fill: rgb(153, 102, 0); transform-origin: 397.046px 150.228px;" cx="397.046" cy="150.228" rx="3.227" ry="2.428" transform="matrix(0.984808027744, 0.173648029566, -0.173648029566, 0.984808027744, 260.350443788026, -25.842095386306)"/>
  <ellipse style="stroke: rgb(0, 0, 0); stroke-width: 0px; fill: rgb(153, 102, 0);" cx="657.77" cy="166.49" rx="6.02" ry="35.631" transform="matrix(1, 0, 0, 1, -1.7763568394002505e-15, -7.105427357601002e-15)"/>
  <ellipse style="stroke: rgb(0, 0, 0); stroke-width: 0px; fill: rgb(153, 102, 0);" cx="674.754" cy="202.703" rx="23.587" ry="14.078" transform="matrix(1, 0, 0, 1, -1.7763568394002505e-15, -7.105427357601002e-15)"/>
  <ellipse style="stroke: rgb(0, 0, 0); stroke-width: 0px; fill: rgb(153, 102, 0); transform-origin: 393.648px 210.727px;" cx="393.648" cy="210.727" rx="3.405" ry="31.382" transform="matrix(0.999848008156, 0.017452003434, -0.017452003434, 0.999848008156, 260.014212181985, -34.162396307978)"/>
  <ellipse style="stroke: rgb(0, 0, 0); stroke-width: 0px; fill: rgb(153, 102, 0); transform-origin: 403.745px 210.94px;" cx="403.745" cy="210.94" rx="3.505" ry="27.908" transform="matrix(0.996195018291, -0.087156012654, 0.087156012654, 0.996195018291, 257.79545580298, -29.99051509554)"/>
  <ellipse style="stroke: rgb(0, 0, 0); stroke-width: 0px; fill: rgb(153, 102, 0);" cx="703.292" cy="213.493" rx="1.742" ry="11.335" transform="matrix(1, 0, 0, 1, -1.7763568394002505e-15, -7.105427357601002e-15)"/>
  <ellipse style="stroke: rgb(0, 0, 0); stroke-width: 0px; fill: rgb(153, 102, 0); transform-origin: 450.173px 234.057px;" cx="450.173" cy="234.057" rx="2.463" ry="6.922" transform="matrix(0.906307995319, -0.422618061304, 0.422618061304, 0.906307995319, 250.407661580765, -33.063278861571)"/>
  <ellipse style="stroke: rgb(0, 0, 0); stroke-width: 0px; fill: rgb(153, 102, 0); transform-origin: 450.173px 234.057px;" cx="450.173" cy="234.057" rx="2.289" ry="8.338" transform="matrix(0.453991055489, -0.891005992889, 0.891005992889, 0.453991055489, 244.15335609272, -39.264055703143)"/>
  <ellipse style="stroke: rgb(0, 0, 0); stroke-width: 0px; fill: rgb(153, 102, 0); transform-origin: 450.173px 234.057px;" cx="450.173" cy="234.057" rx="2.289" ry="8.338" transform="matrix(0.241923004389, -0.970295011997, 0.970295011997, 0.241923004389, 236.183943511409, -41.962072972264)"/>
  <ellipse style="stroke: rgb(0, 0, 0); stroke-width: 0px; fill: rgb(153, 102, 0); transform-origin: 445.82px 237.43px;" cx="445.82" cy="237.43" rx="0.985" ry="7.475" transform="matrix(0.97814810276, -0.207910999656, 0.207910999656, 0.978148102761, 255.8231310357, -31.117956307736)"/>
  <ellipse style="stroke: rgb(0, 0, 0); stroke-width: 0px; fill: rgb(153, 102, 0);" cx="703.327" cy="227.362" rx="2.135" ry="4.915" transform="matrix(1, 0, 0, 1, -1.7763568394002505e-15, -7.105427357601002e-15)"/>
  <ellipse style="stroke: rgb(0, 0, 0); stroke-width: 0px; fill: rgb(153, 102, 0); transform-origin: 693.546px 221.67px;" cx="693.546" cy="221.67" rx="3.678" ry="26.641"/>
  <ellipse style="stroke: rgb(0, 0, 0); stroke-width: 0px; fill: rgb(153, 102, 0); transform-origin: 682.097px 220.163px;" cx="682.097" cy="220.163" rx="3.678" ry="26.641"/>
  <ellipse style="stroke: rgb(0, 0, 0); stroke-width: 0px; fill: rgb(153, 102, 0); transform-origin: 659.561px 220.909px;" cx="659.561" cy="220.909" rx="3.678" ry="26.641"/>
  <ellipse style="stroke: rgb(0, 0, 0); stroke-width: 0px; fill: rgb(153, 102, 0); transform-origin: 666.323px 222.206px;" cx="666.323" cy="222.206" rx="3.678" ry="26.641"/>
</svg>