<?xml version="1.0" encoding="utf-8"?>
<svg viewBox="594.526 243.618 101.4586 96.168" xmlns="http://www.w3.org/2000/svg">
  <ellipse style="stroke: rgb(0, 0, 0); stroke-width: 0px; fill: rgb(153, 102, 0); transform-origin: 605.744px 258.586px;" cx="605.744" cy="258.586" rx="10.613" ry="10.816"/>
  <ellipse style="stroke: rgb(0, 0, 0); stroke-width: 0px; fill: rgb(153, 102, 0); transform-origin: 605.053px 263.735px;" cx="605.053" cy="263.735" rx="7.678" ry="9.107"/>
  <ellipse style="stroke: rgb(0, 0, 0); stroke-width: 0px; fill: rgb(153, 102, 0); transform-origin: 612.077px 254.784px;" cx="612.077" cy="254.784" rx="4.935" ry="11.166"/>
  <ellipse style="stroke: rgb(0, 0, 0); stroke-width: 0px; fill: rgb(153, 102, 0); transform-origin: 599.278px 254.125px;" cx="599.461" cy="254.799" rx="4.935" ry="11.166"/>
  <ellipse style="stroke: rgb(0, 0, 0); stroke-width: 0px; fill: rgb(153, 102, 0); transform-origin: 496.448px -21.903px;" cx="496.448" cy="-21.903" rx="35.308" ry="17.899" transform="matrix(0.996195018291, 0.087156012654, -0.087156012654, 0.996195018291, 158.238909523103, 306.775051334871)"/>
  <ellipse style="stroke: rgb(0, 0, 0); stroke-width: 0px; fill: rgb(153, 102, 0); transform-origin: 496.448px -21.903px;" cx="496.448" cy="-21.903" rx="28.553" ry="14.942" transform="matrix(0.965926110744, 0.258819013834, -0.258819013834, 0.965926110744, 139.692118455182, 299.568054403726)"/>
  <ellipse style="stroke: rgb(0, 0, 0); stroke-width: 0px; fill: rgb(153, 102, 0); transform-origin: 614.755px 266.068px;" cx="614.755" cy="266.068" rx="12.104" ry="8.891"/>
  <ellipse style="stroke: rgb(0, 0, 0); stroke-width: 0px; fill: rgb(153, 102, 0); transform-origin: 467.896px 9.718px;" cx="467.896" cy="9.718" rx="3.367" ry="29.686" transform="matrix(0.965926110744, 0.258819013834, -0.258819013834, 0.965926110744, 159.980363188182, 298.82931888834)"/>
  <ellipse style="stroke: rgb(0, 0, 0); stroke-width: 0px; fill: rgb(153, 102, 0); transform-origin: 628.684px 289.931px;" cx="628.684" cy="289.931" rx="6.132" ry="23.553"/>
  <ellipse style="stroke: rgb(0, 0, 0); stroke-width: 0px; fill: rgb(153, 102, 0); transform-origin: 617.193px 334.342px;" cx="617.193" cy="334.342" rx="5.287" ry="3.548"/>
  <ellipse style="stroke: rgb(0, 0, 0); stroke-width: 0px; fill: rgb(153, 102, 0); transform-origin: 467.896px 9.71797px;" cx="467.896" cy="9.718" rx="3.758" ry="37.958" transform="matrix(0.9396930933, -0.342020004988, 0.342020004988, 0.9396930933, 167.130629869065, 291.017161324031)"/>
  <ellipse style="stroke: rgb(0, 0, 0); stroke-width: 0px; fill: rgb(153, 102, 0); transform-origin: 642.939px 335.21px;" cx="642.939" cy="335.21" rx="5.495" ry="3.548"/>
  <ellipse style="stroke: rgb(0, 0, 0); stroke-width: 0px; fill: rgb(153, 102, 0); transform-origin: 467.896px 9.718px;" cx="467.896" cy="9.718" rx="4.429" ry="17.362" transform="matrix(0.906307995319, -0.422617077827, 0.422617077827, 0.906307995319, 213.574317632543, 301.142340654762)"/>
  <ellipse style="stroke: rgb(0, 0, 0); stroke-width: 0px; fill: rgb(153, 102, 0); transform-origin: 467.896px 9.71799px;" cx="467.896" cy="9.718" rx="10.391" ry="18.003" transform="matrix(1, 0.000001, -0.000001, 1, 212.148400425688, 285.062728003235)"/>
  <ellipse style="stroke: rgb(0, 0, 0); stroke-width: 0px; fill: rgb(153, 102, 0); transform-origin: 467.896px 9.718px;" cx="467.896" cy="9.718" rx="2.919" ry="11.266" transform="matrix(0.996195018291, 0.087157018483, -0.087157018483, 0.996195018291, 218.516978347804, 317.706673625653)"/>
  <ellipse style="stroke: rgb(0, 0, 0); stroke-width: 0px; fill: rgb(153, 102, 0); transform-origin: 681.909px 336.238px;" cx="681.909" cy="336.238" rx="5.495" ry="3.548"/>
  <ellipse style="stroke: rgb(0, 0, 0); stroke-width: 0px; fill: rgb(153, 102, 0); transform-origin: 669.584px 335.35px;" cx="669.584" cy="335.35" rx="5.495" ry="3.548"/>
  <ellipse style="stroke: rgb(0, 0, 0); stroke-width: 0px; fill: rgb(153, 102, 0); transform-origin: 467.896px 9.718px;" cx="467.896" cy="9.718" rx="3.235" ry="11.224" transform="matrix(0.866024017334, 0.500002026558, -0.500002026558, 0.866024017334, 208.009791411952, 317.833469301384)"/>
  <ellipse style="stroke: rgb(0, 0, 0); stroke-width: 0px; fill: rgb(153, 102, 0); transform-origin: 467.896px 9.71801px;" cx="467.896" cy="9.718" rx="3.235" ry="15.636" transform="matrix(1, 0.000002, -0.000002000001, 1, 210.54164019543, 303.21105383578)"/>
  <ellipse style="stroke: rgb(0, 0, 0); stroke-width: 0px; fill: rgb(153, 102, 0); transform-origin: 478.588px -11.7px;" cx="478.588" cy="-11.7" rx="7.208" ry="16.86" transform="matrix(0.9396930933, -0.342020004988, 0.342020004988, 0.9396930933, 154.144808416573, 307.446058756471)"/>
  <ellipse style="stroke: rgb(0, 0, 0); stroke-width: 0px; fill: rgb(153, 102, 0); transform-origin: 467.896px 9.71799px;" cx="467.896" cy="9.718" rx="3.384" ry="5.583" transform="matrix(1, 0.000001, -0.000001, 1, 218.733910777723, 313.022323146428)"/>
  <ellipse style="stroke: rgb(0, 0, 0); stroke-width: 0px; fill: rgb(153, 102, 0); transform-origin: 467.896px 9.71801px;" cx="467.896" cy="9.718" rx="3.384" ry="5.21" transform="matrix(0.965926110744, 0.258819997311, -0.258819997311, 0.965926110745, 210.442844576757, 313.395101658676)"/>
  <ellipse style="stroke: rgb(0, 0, 0); stroke-width: 0px; fill: rgb(153, 102, 0); transform-origin: 467.896px 9.71798px;" cx="467.896" cy="9.718" rx="3.758" ry="12.443" transform="matrix(0.422619074583, -0.90630698204, 0.90630698204, 0.422619074583, 213.77291502563, 267.598167382398)"/>
  <ellipse style="stroke: rgb(0, 0, 0); stroke-width: 0px; fill: rgb(153, 102, 0); transform-origin: 467.896px 9.71801px;" cx="467.896" cy="9.718" rx="4.579" ry="12.443" transform="matrix(1, 0.000002, -0.000002000001, 1, 223.509596931642, 283.85247200434)"/>
  <ellipse style="stroke: rgb(0, 0, 0); stroke-width: 0px; fill: rgb(153, 102, 0); transform-origin: 467.896px 9.71801px;" cx="467.896" cy="9.718" rx="2.825" ry="7.145" transform="matrix(0.939692139626, 0.342022001743, -0.342022001743, 0.939692139626, 222.940983587939, 295.838549751389)"/>
</svg>