<?xml version="1.0" encoding="utf-8"?>
<svg viewBox="516.5999 196.0644 51.2882 55.1465" xmlns="http://www.w3.org/2000/svg">
  <ellipse style="stroke: rgb(0, 0, 0); stroke-width: 0px; fill: rgb(153, 102, 0);" cx="-521.736" cy="225.24" rx="25.136" ry="25.971" transform="matrix(-1, 0, 0, 1, 0, 0)"/>
  <ellipse style="stroke: rgb(0, 0, 0); stroke-width: 0px; fill: rgb(153, 102, 0); transform-origin: 440.424px -83.188px;" cx="440.424" cy="-83.188" rx="2.857" ry="14.666" transform="matrix(0.342020004988, 0.9396930933, 0.9396930933, -0.342020004988, 71.244886601249, 286.953186929333)"/>
  <ellipse style="stroke: rgb(0, 0, 0); stroke-width: 0px; fill: rgb(153, 102, 0); transform-origin: 440.424px -83.188px;" cx="440.424" cy="-83.188" rx="2.857" ry="14.666" transform="matrix(-0.173648029566, 0.984808027744, 0.984808027744, 0.173648029566, 93.549877260011, 285.092120696841)"/>
  <ellipse style="stroke: rgb(0, 0, 0); stroke-width: 0px; fill: rgb(153, 102, 0); transform-origin: 440.424px -83.188px;" cx="440.424" cy="-83.188" rx="1.419" ry="5.2" transform="matrix(-0.5, 0.866026103497, 0.866026103497, 0.500000000002, 109.330309828872, 288.374602143666)"/>
  <ellipse style="stroke: rgb(0, 0, 0); stroke-width: 0px; fill: rgb(153, 102, 0); transform-origin: 440.424px -83.188px;" cx="440.424" cy="-83.188" rx="2.028" ry="10.14" transform="matrix(-0.5, 0.866026103497, 0.866026103497, 0.5, 108.585192630275, 291.015501841053)"/>
  <ellipse style="stroke: rgb(0, 0, 0); stroke-width: 0px; fill: rgb(153, 102, 0); transform-origin: 440.424px -83.188px;" cx="440.424" cy="-83.188" rx="2.028" ry="11.266" transform="matrix(-0.5, 0.866026103497, 0.866026103497, 0.5, 106.173205289634, 292.63256729492)"/>
  <ellipse style="stroke: rgb(0, 0, 0); stroke-width: 0px; fill: rgb(153, 102, 0); transform-origin: 440.424px -83.188px;" cx="440.424" cy="-83.188" rx="2.028" ry="10.14" transform="matrix(-0.5, 0.866026103497, 0.866026103497, 0.5, 105.861132531074, 294.827208440817)"/>
  <ellipse style="stroke: rgb(0, 0, 0); stroke-width: 0px; fill: rgb(153, 102, 0); transform-origin: 366.706px -53.491px;" cx="366.706" cy="-53.491" rx="13.372" ry="18.268" transform="matrix(-0.707107007504, 0.707107007504, 0.707107007504, 0.707107007504, 178.809244694083, 281.338846599957)"/>
  <ellipse style="stroke: rgb(0, 0, 0); stroke-width: 0px; fill: rgb(153, 102, 0); transform-origin: 366.706px -53.491px;" cx="366.706" cy="-53.491" rx="4.018" ry="10.447" transform="matrix(-0.707107007504, 0.707107007504, 0.707107007504, 0.707107007504, 189.761579097654, 281.055716740041)"/>
  <ellipse style="stroke: rgb(0, 0, 0); stroke-width: 0px; fill: rgb(153, 102, 0); transform-origin: -551.604px 243.78px;" cx="-551.604" cy="243.78" rx="3.282" ry="3.301" transform="matrix(-1, 0, 2e-12, 1, 1103.208496093512, 0)"/>
  <ellipse style="stroke: rgb(0, 0, 0); stroke-width: 0px; fill: rgb(153, 102, 0); transform-origin: 350.538px -39.759px;" cx="350.538" cy="-39.759" rx="1.01" ry="4.106" transform="matrix(-0.707106113434, -0.707107007503, -0.707107007503, 0.707106113434, 204.472512182948, 283.176911560189)"/>
  <ellipse style="stroke: rgb(0, 0, 0); stroke-width: 0px; fill: rgb(153, 102, 0); transform-origin: 350.538px -39.759px;" cx="350.538" cy="-39.759" rx="1.01" ry="4.106" transform="matrix(-0.57357698679, 0.819152116775, 0.819152116775, 0.573576986789, 197.402579535031, 283.719724875919)"/>
</svg>