<?xml version="1.0" encoding="utf-8"?>
<svg viewBox="409.8342 566.6613 80.2731 53.6712" xmlns="http://www.w3.org/2000/svg">
  <ellipse style="paint-order: fill; stroke: rgb(0, 0, 0); stroke-width: 0px; fill: rgb(51, 153, 0); transform-origin: 327.918px 184.328px;" cx="327.918" cy="184.328" rx="45" ry="7" transform="matrix(0.388081997633, -0.18096549809, 0.18096549809, 0.388081997633, 143.458872297464, 397.474489598038)"/>
  <ellipse style="paint-order: fill; stroke: rgb(0, 0, 0); stroke-width: 0px; fill: rgb(51, 153, 0); transform-origin: 365.176px 201.649px;" cx="365.176" cy="201.649" rx="45" ry="7" transform="matrix(-0.388081997633, -0.18096549809, -0.18096549809, 0.388081997633, 63.388692075936, 380.136703256147)"/>
  <ellipse style="stroke: rgb(0, 0, 0); paint-order: fill; stroke-width: 0px; fill: rgb(51, 153, 0); transform-origin: 547.252px 520.069px;" cx="547.248" cy="520.073" rx="39.958" ry="40.018" transform="matrix(0.428201019764, 0, 0, 0.428201019764, -97.277622227132, 83.126075690343)"/>
  <ellipse style="paint-order: fill; stroke: rgb(0, 0, 0); stroke-width: 0px; fill: rgb(51, 153, 0); transform-origin: 366.863px 204.104px;" cx="366.863" cy="204.104" rx="20" ry="6" transform="matrix(-0.214100524783, -0.370833277702, -0.370833277702, 0.214100524783, 59.560309708496, 371.259033679139)"/>
  <ellipse style="paint-order: fill; stroke: rgb(0, 0, 0); stroke-width: 0px; fill: rgb(51, 153, 0); transform-origin: 388.083px 238.296px;" cx="388.083" cy="238.296" rx="20" ry="6" transform="matrix(0.214100942016, -0.370832830667, -0.370832830667, -0.214100942016, 85.442576393683, 337.066536774992)"/>
  <ellipse style="paint-order: fill; stroke: rgb(0, 0, 0); stroke-width: 0px; fill: rgb(51, 153, 0); transform-origin: 365.386px 200.929px;" cx="365.386" cy="200.929" rx="30" ry="10" transform="matrix(-0.388081997633, -0.18096549809, -0.18096549809, 0.388081997633, 58.896758043392, 389.420833324877)"/>
  <ellipse style="paint-order: fill; stroke: rgb(0, 0, 0); stroke-width: 0px; fill: rgb(51, 153, 0); transform-origin: 365.812px 201.475px;" cx="365.812" cy="201.475" rx="30" ry="10" transform="matrix(0.388081997633, -0.18096549809, 0.18096549809, 0.388081997633, 109.854203583684, 388.874857545093)"/>
</svg>