<?xml version="1.0" encoding="utf-8"?>
<svg viewBox="414.827 627.669 272.487 41.679" xmlns="http://www.w3.org/2000/svg">
  <ellipse style="stroke: rgb(0, 0, 0); stroke-width: 0px; fill: rgb(102, 204, 0);" cx="612.911" cy="644.565" rx="6.788" ry="4.941"/>
  <ellipse style="stroke: rgb(0, 0, 0); stroke-width: 0px; fill: rgb(102, 204, 0);" cx="623.349" cy="641.391" rx="6.788" ry="4.941"/>
  <ellipse style="stroke: rgb(0, 0, 0); stroke-width: 0px; fill: rgb(102, 204, 0);" cx="629.906" cy="643.364" rx="6.788" ry="4.941"/>
  <ellipse style="stroke: rgb(0, 0, 0); stroke-width: 0px; fill: rgb(102, 204, 0);" cx="634.987" cy="646.967" rx="6.788" ry="4.941"/>
  <ellipse style="stroke: rgb(0, 0, 0); stroke-width: 0px; fill: rgb(102, 204, 0);" cx="638.497" cy="650.015" rx="6.788" ry="4.941"/>
  <ellipse style="stroke: rgb(0, 0, 0); stroke-width: 0px; fill: rgb(102, 204, 0);" cx="641.2" cy="653.617" rx="6.788" ry="4.941"/>
  <rect y="650.361" width="40.579" height="13.637" style="stroke: rgb(0, 0, 0); stroke-width: 0px; fill: rgb(102, 204, 0);" x="603.127"/>
  <rect y="767.116" width="16.125" height="6.208" style="stroke: rgb(0, 0, 0); stroke-width: 0px; fill: rgb(102, 204, 0);" x="551.883" transform="matrix(1, 0, 0, 1, 62.53700731004781, -122.3392123332502)"/>
  <ellipse style="stroke: rgb(0, 0, 0); stroke-width: 0px; fill: rgb(102, 204, 0);" cx="562.759" cy="660.697" rx="9.911" ry="7.214"/>
  <ellipse style="stroke: rgb(0, 0, 0); stroke-width: 0px; fill: rgb(102, 204, 0);" cx="567.224" cy="652.464" rx="9.911" ry="7.214"/>
  <ellipse style="stroke: rgb(0, 0, 0); stroke-width: 0px; fill: rgb(102, 204, 0);" cx="571.946" cy="644.911" rx="9.911" ry="7.214"/>
  <ellipse style="stroke: rgb(0, 0, 0); stroke-width: 0px; fill: rgb(102, 204, 0);" cx="577.61" cy="639.517" rx="9.911" ry="7.214"/>
  <ellipse style="stroke: rgb(0, 0, 0); stroke-width: 0px; fill: rgb(102, 204, 0);" cx="583.814" cy="636.905" rx="9.911" ry="7.214"/>
  <ellipse style="stroke: rgb(0, 0, 0); stroke-width: 0px; fill: rgb(102, 204, 0);" cx="592.85" cy="634.883" rx="9.911" ry="7.214"/>
  <ellipse style="stroke: rgb(0, 0, 0); stroke-width: 0px; fill: rgb(102, 204, 0);" cx="602.424" cy="637.764" rx="9.911" ry="7.214"/>
  <ellipse style="stroke: rgb(0, 0, 0); stroke-width: 0px; fill: rgb(102, 204, 0);" cx="609.842" cy="643.024" rx="9.911" ry="7.214"/>
  <rect y="648" width="59.248" height="19.911" style="stroke: rgb(0, 0, 0); stroke-width: 0px; fill: rgb(102, 204, 0);" x="563.325"/>
  <rect y="641.41" width="23.543" height="7.481" style="stroke: rgb(0, 0, 0); stroke-width: 0px; fill: rgb(102, 204, 0);" x="579.813"/>
  <ellipse style="stroke: rgb(0, 0, 0); stroke-width: 0px; fill: rgb(102, 204, 0);" cx="459.472" cy="654.259" rx="6.504" ry="4.734"/>
  <ellipse style="stroke: rgb(0, 0, 0); stroke-width: 0px; fill: rgb(102, 204, 0);" cx="463.189" cy="650.719" rx="6.504" ry="4.734"/>
  <ellipse style="stroke: rgb(0, 0, 0); stroke-width: 0px; fill: rgb(102, 204, 0);" cx="467.261" cy="649.005" rx="6.504" ry="4.734"/>
  <ellipse style="stroke: rgb(0, 0, 0); stroke-width: 0px; fill: rgb(102, 204, 0);" cx="473.19" cy="647.678" rx="6.504" ry="4.734"/>
  <ellipse style="stroke: rgb(0, 0, 0); stroke-width: 0px; fill: rgb(102, 204, 0);" cx="479.473" cy="649.569" rx="6.504" ry="4.734"/>
  <ellipse style="stroke: rgb(0, 0, 0); stroke-width: 0px; fill: rgb(102, 204, 0);" cx="484.341" cy="653.021" rx="6.504" ry="4.734"/>
  <ellipse style="stroke: rgb(0, 0, 0); stroke-width: 0px; fill: rgb(102, 204, 0);" cx="487.705" cy="655.941" rx="6.504" ry="4.734"/>
  <ellipse style="stroke: rgb(0, 0, 0); stroke-width: 0px; fill: rgb(102, 204, 0);" cx="490.294" cy="659.393" rx="6.504" ry="4.734"/>
  <ellipse style="stroke: rgb(0, 0, 0); stroke-width: 0px; fill: rgb(102, 204, 0);" cx="492.654" cy="664.614" rx="6.504" ry="4.734"/>
  <rect y="656.273" width="38.882" height="13.067" style="stroke: rgb(0, 0, 0); stroke-width: 0px; fill: rgb(102, 204, 0);" x="453.815"/>
  <rect y="651.962" width="15.45" height="4.909" style="stroke: rgb(0, 0, 0); stroke-width: 0px; fill: rgb(102, 204, 0);" x="464.635"/>
  <ellipse style="stroke: rgb(0, 0, 0); stroke-width: 0px; fill: rgb(102, 204, 0);" cx="651.345" cy="648.412" rx="6.504" ry="4.734"/>
  <ellipse style="stroke: rgb(0, 0, 0); stroke-width: 0px; fill: rgb(102, 204, 0);" cx="672.497" cy="650.714" rx="6.504" ry="4.734"/>
  <ellipse style="stroke: rgb(0, 0, 0); stroke-width: 0px; fill: rgb(102, 204, 0);" cx="675.861" cy="653.634" rx="6.504" ry="4.734"/>
  <ellipse style="stroke: rgb(0, 0, 0); stroke-width: 0px; fill: rgb(102, 204, 0);" cx="678.45" cy="657.086" rx="6.504" ry="4.734"/>
  <ellipse style="stroke: rgb(0, 0, 0); stroke-width: 0px; fill: rgb(102, 204, 0);" cx="680.81" cy="662.307" rx="6.504" ry="4.734"/>
  <rect y="652.3" width="38.882" height="14.693" style="stroke: rgb(0, 0, 0); stroke-width: 0px; fill: rgb(102, 204, 0);" x="641.971"/>
  <rect y="649.655" width="15.45" height="4.909" style="stroke: rgb(0, 0, 0); stroke-width: 0px; fill: rgb(102, 204, 0);" x="652.791"/>
  <ellipse style="stroke: rgb(0, 0, 0); stroke-width: 0px; fill: rgb(102, 204, 0);" cx="423.367" cy="647.22" rx="6.504" ry="4.734"/>
  <ellipse style="stroke: rgb(0, 0, 0); stroke-width: 0px; fill: rgb(102, 204, 0);" cx="429.65" cy="649.111" rx="6.504" ry="4.734"/>
  <rect y="649.247" width="22.645" height="17.896" style="stroke: rgb(0, 0, 0); stroke-width: 0px; fill: rgb(102, 204, 0);" x="414.827"/>
</svg>