<?xml version="1.0" encoding="utf-8"?>
<svg viewBox="360 360 360.004 358.303" xmlns="http://www.w3.org/2000/svg">
  <ellipse style="stroke: rgb(0, 0, 0); stroke-width: 0px; fill: rgb(102, 204, 0);" cx="406.767" cy="569.858" rx="19.708" ry="110.704" transform="matrix(0.9999999999999999, 0, 0, 0.9999999999999999, 0, 0)"/>
  <ellipse style="stroke: rgb(0, 0, 0); stroke-width: 0px; fill: rgb(102, 204, 0);" cx="663.707" cy="540.901" rx="19.708" ry="137.918" transform="matrix(0.9999999999999999, 0, 0, 0.9999999999999999, 0, 0)"/>
  <ellipse style="stroke: rgb(0, 0, 0); stroke-width: 0px; fill: rgb(102, 204, 0);" cx="700.296" cy="593.159" rx="19.708" ry="125.144" transform="matrix(0.9999999999999999, 0, 0, 0.9999999999999999, 0, 0)"/>
  <ellipse style="stroke: rgb(0, 0, 0); stroke-width: 0px; fill: rgb(102, 204, 0);" cx="445.333" cy="572.893" rx="19.708" ry="104.873" transform="matrix(0.9999999999999999, 0, 0, 0.9999999999999999, 0, 0)"/>
  <ellipse style="stroke: rgb(0, 0, 0); stroke-width: 0px; fill: rgb(102, 204, 0);" cx="379.772" cy="554.58" rx="19.708" ry="125.977" transform="matrix(0.9999999999999999, 0, 0, 0.9999999999999999, 0, 0)"/>
  <rect y="360" width="360" height="80" style="stroke: rgb(0, 0, 0); stroke-width: 0px; fill: rgb(102, 204, 0);" x="360" transform="matrix(0.9999999999999999, 0, 0, 0.9999999999999999, 0, 0)"/>
  <ellipse style="stroke: rgb(0, 0, 0); stroke-width: 0px; fill: rgb(102, 204, 0);" cx="410.183" cy="448.102" rx="30" ry="20" transform="matrix(0.9999999999999999, 0, 0, 0.9999999999999999, 0, 0)"/>
  <ellipse style="stroke: rgb(0, 0, 0); stroke-width: 0px; fill: rgb(102, 204, 0);" cx="479.638" cy="484.068" rx="30" ry="20" transform="matrix(0.9999999999999999, 0, 0, 0.9999999999999999, 0, 0)"/>
  <ellipse style="stroke: rgb(0, 0, 0); stroke-width: 0px; fill: rgb(102, 204, 0);" cx="487.966" cy="454.275" rx="30" ry="20" transform="matrix(0.9999999999999999, 0, 0, 0.9999999999999999, 0, 0)"/>
  <ellipse style="stroke: rgb(0, 0, 0); stroke-width: 0px; fill: rgb(102, 204, 0);" cx="526.042" cy="429.461" rx="30" ry="20" transform="matrix(0.9999999999999999, 0, 0, 0.9999999999999999, 0, 0)"/>
  <ellipse style="stroke: rgb(0, 0, 0); stroke-width: 0px; fill: rgb(102, 204, 0);" cx="579.362" cy="432.023" rx="30" ry="20" transform="matrix(0.9999999999999999, 0, 0, 0.9999999999999999, 0, 0)"/>
  <ellipse style="stroke: rgb(0, 0, 0); stroke-width: 0px; fill: rgb(102, 204, 0);" cx="625.908" cy="451.227" rx="33.561" ry="22.999" transform="matrix(0.9999999999999999, 0, 0, 0.9999999999999999, 0, 0)"/>
  <ellipse style="stroke: rgb(0, 0, 0); stroke-width: 0px; fill: rgb(102, 204, 0);" cx="646.692" cy="484.223" rx="30" ry="20" transform="matrix(0.9999999999999999, 0, 0, 0.9999999999999999, 0, 0)"/>
  <ellipse style="stroke: rgb(0, 0, 0); stroke-width: 0px; fill: rgb(102, 204, 0);" cx="445.182" cy="506.47" rx="30" ry="20" transform="matrix(0.9999999999999999, 0, 0, 0.9999999999999999, 0, 0)"/>
  <ellipse style="stroke: rgb(0, 0, 0); stroke-width: 0px; fill: rgb(102, 204, 0);" cx="431.919" cy="463.9" rx="47.113" ry="42.461" transform="matrix(0.9999999999999999, 0, 0, 0.9999999999999999, 0, 0)"/>
  <rect y="440" width="30" height="100" style="stroke: rgb(0, 0, 0); stroke-width: 0px; fill: rgb(102, 204, 0);" x="360" transform="matrix(0.9999999999999999, 0, 0, 0.9999999999999999, 0, 0)"/>
  <rect y="439" width="45" height="151" style="stroke: rgb(0, 0, 0); stroke-width: 0px; fill: rgb(102, 204, 0);" x="675" transform="matrix(0.9999999999999999, 0, 0, 0.9999999999999999, 0, 0)"/>
  <ellipse style="stroke: rgb(0, 0, 0); stroke-width: 0px; fill: rgb(102, 204, 0); transform-origin: 509.671px 542.176px;" cx="509.671" cy="542.176" rx="5.798" ry="47.268" transform="matrix(0.866026103497, 0.499999016523, -0.499999016523, 0.866026103497, -31.797931626694, -18.559363271298)"/>
  <ellipse style="stroke: rgb(0, 0, 0); stroke-width: 0px; fill: rgb(102, 204, 0); transform-origin: 509.671px 542.176px;" cx="509.671" cy="542.176" rx="6.316" ry="62.557" transform="matrix(-0.642786979675, 0.766044914722, -0.766044914722, -0.642786979675, 103.700879995813, -8.619961698658)"/>
  <ellipse style="stroke: rgb(0, 0, 0); stroke-width: 0px; fill: rgb(102, 204, 0); transform-origin: 509.671px 542.176px;" cx="509.671" cy="542.176" rx="4.678" ry="47.425" transform="matrix(0.965926110744, -0.258819997311, 0.258819997311, 0.965926110744, 77.116223476641, -58.443422104167)"/>
  <ellipse style="stroke: rgb(0, 0, 0); stroke-width: 0px; fill: rgb(102, 204, 0); transform-origin: 509.671px 542.176px;" cx="509.671" cy="542.176" rx="5.277" ry="39.645" transform="matrix(0.939692139626, -0.342021018267, 0.342021018267, 0.939692139626, 121.62414730281, -21.64865617749)"/>
  <rect y="600" width="5" height="80" style="stroke: rgb(0, 0, 0); stroke-width: 0px; fill: rgb(102, 204, 0);" x="715" transform="matrix(0.9999999999999999, 0, 0, 0.9999999999999999, 0, 0)"/>
</svg>