<?xml version="1.0" encoding="utf-8"?>
<svg viewBox="548.188 563.554 143.3758 122.33" xmlns="http://www.w3.org/2000/svg">
  <ellipse style="stroke: rgb(0, 0, 0); stroke-width: 0px; fill: rgb(51, 153, 0); transform-origin: 580.783px 585.796px;" cx="580.784" cy="585.799" rx="20.247" ry="17.051"/>
  <ellipse style="stroke: rgb(0, 0, 0); stroke-width: 0px; fill: rgb(51, 153, 0); transform-origin: 582.571px 568.787px;" cx="582.574" cy="568.789" rx="2.457" ry="2.457"/>
  <ellipse style="stroke: rgb(0, 0, 0); stroke-width: 0px; fill: rgb(51, 153, 0); transform-origin: 1150.91px 700.967px;" cx="1150.901" cy="700.972" rx="18.904" ry="9.412" transform="matrix(0.9396930933, -0.342020004988, 0.342020004988, 0.9396930933, -580.66244738, -116.457160388068)"/>
  <ellipse style="stroke: rgb(0, 0, 0); stroke-width: 0px; fill: rgb(51, 153, 0); transform-origin: 1150.9px 700.963px;" cx="1150.901" cy="700.972" rx="4.134" ry="5.638" transform="matrix(0.707107007503, -0.707107007503, 0.707107007503, 0.707107007503, -595.809277931847, -113.391881675782)"/>
  <ellipse style="stroke: rgb(0, 0, 0); stroke-width: 0px; fill: rgb(51, 153, 0); transform-origin: 1200.68px 721.175px;" cx="1200.687" cy="721.177" rx="42.148" ry="23.567" transform="matrix(0.866026103497, 0.5, -0.5, 0.866026103497, -586.246130029436, -116.142619228557)"/>
  <ellipse style="stroke: rgb(0, 0, 0); stroke-width: 0px; fill: rgb(51, 153, 0); transform-origin: 1200.68px 721.174px;" cx="1200.687" cy="721.177" rx="42.498" ry="23.567" transform="matrix(0.766043901443, 0.642787992954, -0.642787992954, 0.766043901443, -556.823638043694, -91.927956362147)"/>
  <ellipse style="stroke: rgb(0, 0, 0); stroke-width: 0px; fill: rgb(51, 153, 0); transform-origin: 1200.68px 721.174px;" cx="1200.687" cy="721.177" rx="38.022" ry="23.567" transform="matrix(0.766043901443, 0.642787992954, -0.642787992954, 0.766043901443, -571.718779867216, -77.790138768692)"/>
  <ellipse style="stroke: rgb(0, 0, 0); stroke-width: 0px; fill: rgb(51, 153, 0); transform-origin: 1200.69px 721.173px;" cx="1200.687" cy="721.177" rx="11.424" ry="11.863" transform="matrix(1, 0.000001, -0.000001, 1, -538.08666669108, -58.69510450566)"/>
  <ellipse style="stroke: rgb(0, 0, 0); stroke-width: 0px; fill: rgb(51, 153, 0); transform-origin: 1200.69px 721.176px;" cx="1200.687" cy="721.177" rx="12.107" ry="3.752" transform="matrix(1, 0.000001, -0.000001, 1, -540.614926009694, -47.514703490785)"/>
  <ellipse style="stroke: rgb(0, 0, 0); stroke-width: 0px; fill: rgb(51, 153, 0); transform-origin: 1200.69px 721.177px;" cx="1200.687" cy="721.177" rx="16.852" ry="3.388" transform="matrix(0.258819997311, -0.965926110744, 0.965926110745, 0.25881999731, -526.419383354372, -61.73484865871)"/>
  <ellipse style="stroke: rgb(0, 0, 0); stroke-width: 0px; fill: rgb(51, 153, 0); transform-origin: 1200.69px 721.177px;" cx="1200.687" cy="721.177" rx="2.037" ry="1.319" transform="matrix(1, 0.000001, -0.000001000003, 0.999999999999, -545.357662894664, -50.55847718611)"/>
  <ellipse style="stroke: rgb(0, 0, 0); stroke-width: 0px; fill: rgb(51, 153, 0); transform-origin: 1200.69px 721.174px;" cx="1200.687" cy="721.177" rx="18.217" ry="3.752" transform="matrix(0.5, 0.866026103497, -0.866026103497, 0.5, -607.894751270208, -101.073890125085)"/>
  <ellipse style="stroke: rgb(0, 0, 0); stroke-width: 0px; fill: rgb(51, 153, 0); transform-origin: 1200.68px 721.174px;" cx="1200.687" cy="721.177" rx="13.179" ry="23.829" transform="matrix(1, 0.000001, -0.000001, 1, -584.390683495517, -68.043432291822)"/>
  <ellipse style="stroke: rgb(0, 0, 0); stroke-width: 0px; fill: rgb(51, 153, 0); transform-origin: 1200.69px 721.176px;" cx="1200.687" cy="721.177" rx="12.107" ry="3.752" transform="matrix(1, 0.000001, -0.000001000001, 1, -593.761716352122, -50.090699928222)"/>
  <ellipse style="stroke: rgb(0, 0, 0); stroke-width: 0px; fill: rgb(51, 153, 0); transform-origin: 1200.69px 721.176px;" cx="1200.687" cy="721.177" rx="12.107" ry="3.752" transform="matrix(1, 0.000001, -0.000001, 1, -591.456906747909, -46.895887106079)"/>
  <ellipse style="stroke: rgb(0, 0, 0); stroke-width: 0px; fill: rgb(51, 153, 0); transform-origin: 1200.68px 721.175px;" cx="1200.687" cy="721.177" rx="4.3" ry="16.829" transform="matrix(1, 0.000001, -0.000001, 1, -593.190549350337, -63.386724458759)"/>
</svg>