<?xml version="1.0" encoding="utf-8"?>
<svg viewBox="393.1694 566.6613 123.2619 102.4437" xmlns="http://www.w3.org/2000/svg">
  <g transform="matrix(0.42820101976394653, 0, 0, 0.42820101976394653, 215.64052140177068, 380.5009822324064)">
    <ellipse style="paint-order: fill; stroke: rgb(0, 0, 0); stroke-width: 0px; transform-origin: 327.918px 184.328px; fill: rgb(51, 153, 0);" cx="327.918" cy="184.328" rx="45" ry="7" transform="matrix(0.906308, -0.422618, 0.422618, 0.906308, 269.316245, 285.78177)"/>
    <ellipse style="paint-order: fill; stroke: rgb(0, 0, 0); stroke-width: 0px; transform-origin: 365.176px 201.649px; fill: rgb(51, 153, 0);" cx="365.176" cy="201.649" rx="45" ry="7" transform="matrix(-0.906308, -0.422618, -0.422618, 0.906308, 132.076794, 268.421545)"/>
    <ellipse style="stroke: rgb(0, 0, 0); paint-order: fill; stroke-width: 0px; transform-origin: 547.252px 520.069px; fill: rgb(51, 153, 0);" cx="547.248" cy="520.073" rx="39.958" ry="40.018"/>
    <ellipse style="paint-order: fill; stroke: rgb(0, 0, 0); stroke-width: 0px; transform-origin: 366.863px 204.104px; fill: rgb(51, 153, 0);" cx="366.863" cy="204.104" rx="20" ry="6" transform="matrix(-0.5, -0.866026, -0.866026, 0.5, 125.388966, 250.967343)"/>
    <ellipse style="paint-order: fill; stroke: rgb(0, 0, 0); stroke-width: 0px; transform-origin: 388.083px 238.296px; fill: rgb(51, 153, 0);" cx="388.083" cy="238.296" rx="20" ry="6" transform="matrix(0.500001, -0.866025, -0.866025, -0.500001, 214.169406, 216.774336)"/>
    <ellipse style="paint-order: fill; stroke: rgb(0, 0, 0); stroke-width: 0px; transform-origin: 365.386px 200.929px; fill: rgb(51, 153, 0);" cx="365.386" cy="200.929" rx="30" ry="10" transform="matrix(-0.906308, -0.422618, -0.422618, 0.906308, 121.866935, 289.141738)"/>
    <ellipse style="paint-order: fill; stroke: rgb(0, 0, 0); stroke-width: 0px; transform-origin: 365.812px 201.475px; fill: rgb(51, 153, 0);" cx="365.812" cy="201.475" rx="30" ry="10" transform="matrix(0.906308, -0.422618, 0.422618, 0.906308, 241.439397, 288.595811)"/>
    <animateMotion path="M 0 0 C -3.305 -3.739 -22.63 33.074 -16.618 43.42" calcMode="spline" dur="8s" keyTimes="0; 0.125; 0.25; 0.375; 1" keyPoints="0; 1; 1; 0; 0" keySplines="0.42 0 0.58 1; 0 0 1 1; 0.42 0 0.58 1; 0 0 1 1" fill="freeze" repeatCount="indefinite"/>
  </g>
  <ellipse style="paint-order: fill; stroke: rgb(0, 0, 0); stroke-width: 0px; fill: rgb(51, 153, 0); transform-origin: 359.198px 200.921px;" cx="363.888" cy="199.961" rx="12.846" ry="7.708" transform="matrix(-0.258819013834, -0.965926110744, 0.965926110744, -0.258819013834, 101.481291360694, 430.108063687263)">
    <animateTransform type="rotate" additive="sum" attributeName="transform" values="0; -100; -100; 0; 0" calcMode="spline" dur="8s" keyTimes="0; 0.125; 0.25; 0.375; 1" keySplines="0.42 0 0.58 1; 0 0 1 1; 0.42 0 0.58 1; 0 0 1 1" fill="freeze" repeatCount="indefinite"/>
  </ellipse>
  <ellipse style="paint-order: fill; stroke: rgb(0, 0, 0); stroke-width: 0px; fill: rgb(51, 153, 0); transform-origin: 484.23px 633.169px;" cx="484.23" cy="633.169" rx="26.548" ry="14.987" transform="matrix(1, 0, 0, 1, 0, 2e-12)"/>
  <ellipse style="paint-order: fill; stroke: rgb(0, 0, 0); stroke-width: 0px; fill: rgb(51, 153, 0); transform-origin: 331.393px 218.544px;" cx="331.393" cy="218.544" rx="6.189" ry="2.751" transform="matrix(0.766044914723, -0.642786979675, 0.642786979675, 0.766044914722, 178.528898300586, 403.920585235552)"/>
  <ellipse style="paint-order: fill; stroke: rgb(0, 0, 0); stroke-width: 0px; fill: rgb(51, 153, 0); transform-origin: 364.516px 200.939px;" cx="364.516" cy="200.939" rx="10.705" ry="5.138" transform="matrix(0.258819013834, -0.965926110744, 0.965926110745, 0.258819013834, 91.881564973429, 440.795304088045)"/>
  <ellipse style="paint-order: fill; stroke: rgb(0, 0, 0); stroke-width: 0px; fill: rgb(51, 153, 0); transform-origin: 365.158px 200.216px;" cx="365.158" cy="200.216" rx="10.705" ry="3.426" transform="matrix(-0.087156012654, -0.996195018292, 0.996195018292, -0.087156012654, 89.098550017355, 456.505096942733)"/>
  <ellipse style="paint-order: fill; stroke: rgb(0, 0, 0); stroke-width: 0px; fill: rgb(51, 153, 0); transform-origin: 363.977px 201.587px;" cx="363.977" cy="201.587" rx="10.705" ry="4.282" transform="matrix(0, -1, 1, 0, 100.984165301533, 444.428848057867)"/>
  <ellipse style="paint-order: fill; stroke: rgb(0, 0, 0); stroke-width: 0px; fill: rgb(51, 153, 0); transform-origin: 364.286px 201.676px;" cx="364.286" cy="201.676" rx="8.564" ry="3.426" transform="matrix(0, -1, 1, 0, 100.675144304126, 457.185897814437)"/>
  <ellipse style="paint-order: fill; stroke: rgb(0, 0, 0); stroke-width: 0px; fill: rgb(51, 153, 0); transform-origin: 364.957px 206.3px;" cx="364.958" cy="206.3" rx="10.705" ry="6.423" transform="matrix(-0.707107007504, -0.707107007504, 0.707107007504, -0.707107007504, 138.542067819653, 439.716454912298)"/>
  <ellipse style="paint-order: fill; stroke: rgb(0, 0, 0); stroke-width: 0px; fill: rgb(51, 153, 0); transform-origin: 366.11px 199.9px;" cx="366.11" cy="199.9" rx="9.849" ry="3.426" transform="matrix(0.5, -0.866026103497, 0.866026103496, 0.5, 139.530894296389, 458.962547305695)"/>
  <ellipse style="paint-order: fill; stroke: rgb(0, 0, 0); stroke-width: 0px; fill: rgb(51, 153, 0); transform-origin: 363.373px 204.652px;" cx="363.373" cy="204.652" rx="10.705" ry="3.426" transform="matrix(0.5, -0.866026103497, 0.866026103497, 0.5, 131.562995190847, 452.069375544512)"/>
  <ellipse style="paint-order: fill; stroke: rgb(0, 0, 0); stroke-width: 0px; fill: rgb(51, 153, 0); transform-origin: 364.219px 200.73px;" cx="364.219" cy="200.73" rx="9.849" ry="5.138" transform="matrix(0.5, -0.866026103497, 0.866026103497, 0.5, 139.280978037062, 441.004102545908)"/>
</svg>