<?xml version="1.0" encoding="utf-8"?>
<svg viewBox="564.8227 470.502 47.0213 37.083" xmlns="http://www.w3.org/2000/svg">
  <ellipse style="stroke: rgb(0, 0, 0); stroke-width: 0px; fill: rgb(51, 153, 0); transform-origin: 1214.34px 211.306px;" cx="1214.343" cy="211.306" rx="6.889" ry="4.754" transform="matrix(0.866025090217, -0.5, 0.5, 0.866025090218, -641.177244495194, 272.630197782046)"/>
  <ellipse style="stroke: rgb(0, 0, 0); stroke-width: 0px; fill: rgb(51, 153, 0); transform-origin: 572.882px 482.054px;" cx="572.882" cy="482.055" rx="2.272" ry="6.631"/>
  <ellipse style="stroke: rgb(0, 0, 0); stroke-width: 0px; fill: rgb(51, 153, 0); transform-origin: 1230.78px 201.119px;" cx="1230.788" cy="201.12" rx="2.272" ry="6.143" transform="matrix(0.996195018292, 0.087156012654, -0.087156012654, 0.99619501829, -654.023724958767, 279.652684289833)"/>
  <ellipse style="stroke: rgb(0, 0, 0); stroke-width: 0px; fill: rgb(51, 153, 0); transform-origin: 592.83px 494.848px;" cx="592.836" cy="494.85" rx="11.556" ry="12.641"/>
  <ellipse style="stroke: rgb(0, 0, 0); stroke-width: 0px; fill: rgb(51, 153, 0); transform-origin: 587.43px 505.196px;" cx="587.43" cy="505.197" rx="11.312" ry="2.388"/>
  <ellipse style="stroke: rgb(0, 0, 0); stroke-width: 0px; fill: rgb(51, 153, 0); transform-origin: 600.058px 481.118px;" cx="600.06" cy="481.119" rx="11.784" ry="10.617"/>
  <ellipse style="stroke: rgb(0, 0, 0); stroke-width: 0px; fill: rgb(51, 153, 0); transform-origin: 586.08px 489.474px;" cx="586.083" cy="489.475" rx="11.508" ry="6.593"/>
  <ellipse style="stroke: rgb(0, 0, 0); stroke-width: 0px; fill: rgb(51, 153, 0); transform-origin: 576.899px 494.061px;" cx="576.903" cy="494.062" rx="5.508" ry="4.187"/>
  <ellipse style="stroke: rgb(0, 0, 0); stroke-width: 0px; fill: rgb(51, 153, 0); transform-origin: 571.58px 492.823px;" cx="571.587" cy="492.823" rx="5.536" ry="2.079"/>
  <ellipse style="stroke: rgb(0, 0, 0); stroke-width: 0px; fill: rgb(51, 153, 0); transform-origin: 567.817px 493.929px;" cx="567.82" cy="493.929" rx="2.327" ry="2.129"/>
  <ellipse style="stroke: rgb(0, 0, 0); stroke-width: 0px; fill: rgb(51, 153, 0); transform-origin: 1185.01px 233.497px;" cx="1185.016" cy="233.497" rx="2.32" ry="0.658" transform="matrix(0.766043901443, 0.642787992955, -0.642787992953, 0.766043901446, -612.656605916471, 262.192512134282)"/>
  <ellipse style="stroke: rgb(0, 0, 0); stroke-width: 0px; fill: rgb(51, 153, 0); transform-origin: 1185.01px 233.499px;" cx="1185.016" cy="233.497" rx="6.356" ry="1.542" transform="matrix(0.819152116776, 0.57357698679, -0.573576986789, 0.819152116775, -605.527041177575, 249.410893453676)"/>
  <ellipse style="stroke: rgb(0, 0, 0); stroke-width: 0px; fill: rgb(51, 153, 0); transform-origin: 572.054px 485.864px;" cx="572.053" cy="485.864" rx="6.189" ry="3.569"/>
</svg>