<?xml version="1.0" encoding="utf-8"?>
<svg viewBox="552.848 627.669 95.14 25.242" xmlns="http://www.w3.org/2000/svg">
  <ellipse style="stroke: rgb(0, 0, 0); stroke-width: 0px; fill: rgb(102, 204, 0);" cx="612.911" cy="644.565" rx="6.788" ry="4.941" transform="matrix(1, 0, 0, 1, -5.684341886080802e-14, 0)"/>
  <ellipse style="stroke: rgb(0, 0, 0); stroke-width: 0px; fill: rgb(102, 204, 0);" cx="623.349" cy="641.391" rx="6.788" ry="4.941" transform="matrix(1, 0, 0, 1, -5.684341886080802e-14, 0)"/>
  <ellipse style="stroke: rgb(0, 0, 0); stroke-width: 0px; fill: rgb(102, 204, 0);" cx="629.906" cy="643.364" rx="6.788" ry="4.941" transform="matrix(1, 0, 0, 1, -5.684341886080802e-14, 0)"/>
  <ellipse style="stroke: rgb(0, 0, 0); stroke-width: 0px; fill: rgb(102, 204, 0);" cx="634.987" cy="646.967" rx="6.788" ry="4.941" transform="matrix(1, 0, 0, 1, -5.684341886080802e-14, 0)"/>
  <ellipse style="stroke: rgb(0, 0, 0); stroke-width: 0px; fill: rgb(102, 204, 0);" cx="638.497" cy="650.015" rx="6.788" ry="4.941" transform="matrix(1, 0, 0, 1, -5.684341886080802e-14, 0)"/>
  <ellipse style="stroke: rgb(0, 0, 0); stroke-width: 0px; fill: rgb(102, 204, 0);" cx="641.2" cy="653.617" rx="6.788" ry="4.941" transform="matrix(1, 0, 0, 1, -5.684341886080802e-14, 0)"/>
  <rect y="650.361" width="40.579" height="13.637" style="stroke: rgb(0, 0, 0); stroke-width: 0px; fill: rgb(102, 204, 0);" x="603.127" transform="matrix(1, 0, 0, 1, -5.684341886080802e-14, 0)"/>
  <rect y="767.116" width="16.125" height="6.208" style="stroke: rgb(0, 0, 0); stroke-width: 0px; fill: rgb(102, 204, 0);" x="551.883" transform="matrix(1, 0, 0, 1, 62.53700731004773, -122.3392123332502)"/>
  <ellipse style="stroke: rgb(0, 0, 0); stroke-width: 0px; fill: rgb(102, 204, 0);" cx="562.759" cy="660.697" rx="9.911" ry="7.214" transform="matrix(1, 0, 0, 1, -5.684341886080802e-14, 0)"/>
  <ellipse style="stroke: rgb(0, 0, 0); stroke-width: 0px; fill: rgb(102, 204, 0);" cx="567.224" cy="652.464" rx="9.911" ry="7.214" transform="matrix(1, 0, 0, 1, -5.684341886080802e-14, 0)"/>
  <ellipse style="stroke: rgb(0, 0, 0); stroke-width: 0px; fill: rgb(102, 204, 0);" cx="571.946" cy="644.911" rx="9.911" ry="7.214" transform="matrix(1, 0, 0, 1, -5.684341886080802e-14, 0)"/>
  <ellipse style="stroke: rgb(0, 0, 0); stroke-width: 0px; fill: rgb(102, 204, 0);" cx="577.61" cy="639.517" rx="9.911" ry="7.214" transform="matrix(1, 0, 0, 1, -5.684341886080802e-14, 0)"/>
  <ellipse style="stroke: rgb(0, 0, 0); stroke-width: 0px; fill: rgb(102, 204, 0);" cx="583.814" cy="636.905" rx="9.911" ry="7.214" transform="matrix(1, 0, 0, 1, -5.684341886080802e-14, 0)"/>
  <ellipse style="stroke: rgb(0, 0, 0); stroke-width: 0px; fill: rgb(102, 204, 0);" cx="592.85" cy="634.883" rx="9.911" ry="7.214" transform="matrix(1, 0, 0, 1, -5.684341886080802e-14, 0)"/>
  <ellipse style="stroke: rgb(0, 0, 0); stroke-width: 0px; fill: rgb(102, 204, 0);" cx="602.424" cy="637.764" rx="9.911" ry="7.214" transform="matrix(1, 0, 0, 1, -5.684341886080802e-14, 0)"/>
  <ellipse style="stroke: rgb(0, 0, 0); stroke-width: 0px; fill: rgb(102, 204, 0);" cx="609.842" cy="643.024" rx="9.911" ry="7.214" transform="matrix(1, 0, 0, 1, -5.684341886080802e-14, 0)"/>
  <rect y="648" width="59.248" height="19.911" style="stroke: rgb(0, 0, 0); stroke-width: 0px; fill: rgb(102, 204, 0);" x="563.325" transform="matrix(1, 0, 0, 1, -5.684341886080802e-14, 0)"/>
  <rect y="641.41" width="23.543" height="7.481" style="stroke: rgb(0, 0, 0); stroke-width: 0px; fill: rgb(102, 204, 0);" x="579.813" transform="matrix(1, 0, 0, 1, -5.684341886080802e-14, 0)"/>
</svg>