<?xml version="1.0" encoding="utf-8"?>
<svg viewBox="380.183 421.439 137.783 259.123" xmlns="http://www.w3.org/2000/svg">
  <ellipse style="stroke: rgb(0, 0, 0); stroke-width: 0px; fill: rgb(102, 204, 0);" cx="406.767" cy="569.858" rx="19.708" ry="110.704" transform="matrix(1, 0, 0, 1, 5.684341886080802e-14, 0)"/>
  <ellipse style="stroke: rgb(0, 0, 0); stroke-width: 0px; fill: rgb(102, 204, 0);" cx="445.333" cy="572.893" rx="19.708" ry="104.873" transform="matrix(1, 0, 0, 1, 5.684341886080802e-14, 0)"/>
  <ellipse style="stroke: rgb(0, 0, 0); stroke-width: 0px; fill: rgb(102, 204, 0);" cx="410.183" cy="448.102" rx="30" ry="20" transform="matrix(1, 0, 0, 1, 5.684341886080802e-14, 0)"/>
  <ellipse style="stroke: rgb(0, 0, 0); stroke-width: 0px; fill: rgb(102, 204, 0);" cx="479.638" cy="484.068" rx="30" ry="20" transform="matrix(1, 0, 0, 1, 5.684341886080802e-14, 0)"/>
  <ellipse style="stroke: rgb(0, 0, 0); stroke-width: 0px; fill: rgb(102, 204, 0);" cx="487.966" cy="454.275" rx="30" ry="20" transform="matrix(1, 0, 0, 1, 5.684341886080802e-14, 0)"/>
  <ellipse style="stroke: rgb(0, 0, 0); stroke-width: 0px; fill: rgb(102, 204, 0);" cx="445.182" cy="506.47" rx="30" ry="20" transform="matrix(1, 0, 0, 1, 5.684341886080802e-14, 0)"/>
  <ellipse style="stroke: rgb(0, 0, 0); stroke-width: 0px; fill: rgb(102, 204, 0);" cx="431.919" cy="463.9" rx="47.113" ry="42.461" transform="matrix(1, 0, 0, 1, 5.684341886080802e-14, 0)"/>
  <ellipse style="stroke: rgb(0, 0, 0); stroke-width: 0px; fill: rgb(102, 204, 0); transform-origin: 509.671px 542.176px;" cx="509.671" cy="542.176" rx="5.798" ry="47.268" transform="matrix(0.866026103497, 0.499999016523, -0.499999016523, 0.866026103497, -31.797931626694, -18.559363271298)"/>
</svg>