<?xml version="1.0" encoding="utf-8"?>
<svg viewBox="107.1633 476.8268 131.3788 89.3254" xmlns="http://www.w3.org/2000/svg">
  <ellipse style="stroke: rgb(0, 0, 0); stroke-width: 0px; fill: rgb(153, 204, 0); transform-origin: -130.373px 572.016px;" cx="-130.373" cy="572.016" rx="2.5" ry="63.913" transform="matrix(-0.087157018483, 0.996195018291, -0.996195018291, -0.087157018483, 235.872465647478, -45.64949572892)"/>
  <ellipse style="stroke: rgb(0, 0, 0); stroke-width: 0px; fill: rgb(153, 204, 0); transform-origin: -130.373px 572.016px;" cx="-130.373" cy="572.016" rx="2.5" ry="63.913" transform="matrix(0.19080799818, 0.981626987457, -0.981626987457, 0.19080799818, 353.325820536905, -51.753705030265)"/>
  <ellipse style="stroke: rgb(0, 0, 0); stroke-width: 0px; fill: rgb(153, 204, 0); transform-origin: -130.373px 572.016px;" cx="-130.373" cy="572.016" rx="2.5" ry="63.913" transform="matrix(-0.309018015861, 0.95105612278, -0.95105612278, -0.309018015862, 294.750620371352, -38.267054935172)"/>
  <ellipse style="stroke: rgb(0, 0, 0); stroke-width: 0px; fill: rgb(153, 204, 0); transform-origin: -130.373px 572.016px;" cx="-130.373" cy="572.016" rx="2.5" ry="63.913" transform="matrix(-0.087157018483, 0.996195018291, -0.996195018291, -0.087157018483, 405.02735857371, -15.728332184562)"/>
  <ellipse style="stroke: rgb(0, 0, 0); stroke-width: 0px; fill: rgb(153, 204, 0); transform-origin: -130.373px 572.016px;" cx="-130.373" cy="572.016" rx="2.5" ry="63.913" transform="matrix(0.484809070826, 0.87462002039, -0.87462002039, 0.484809070826, 408.675057584256, -62.017050199982)"/>
  <ellipse style="stroke: rgb(0, 0, 0); stroke-width: 0px; fill: rgb(153, 204, 0); transform-origin: -130.373px 572.016px;" cx="-130.373" cy="572.016" rx="2.5" ry="63.913" transform="matrix(0.19080799818, 0.981626987457, -0.981626987457, 0.19080799818, 298.758240337128, -21.832619708996)"/>
  <ellipse style="stroke: rgb(0, 0, 0); stroke-width: 0px; fill: rgb(153, 204, 0); transform-origin: -130.373px 572.016px;" cx="-130.373" cy="572.016" rx="2.5" ry="63.913" transform="matrix(0.034899000078, 0.999391019344, -0.999391019344, 0.034899000078, 201.497566156171, -10.592757972015)"/>
</svg>