<?xml version="1.0" encoding="utf-8"?>
<svg viewBox="192.3852 493.4687 63.8003 60.1283" xmlns="http://www.w3.org/2000/svg">
  <ellipse style="stroke: rgb(0, 0, 0); stroke-width: 0px; fill: rgb(102, 153, 0); transform-origin: -101.108px 582.156px;" cx="-101.108" cy="582.156" rx="5.818" ry="7.78" transform="matrix(0.642786979675, 0.766044914723, -0.766044914722, 0.642786979675, 347.593850750093, -79.229600893898)"/>
  <ellipse style="stroke: rgb(0, 0, 0); stroke-width: 0px; fill: rgb(102, 153, 0); transform-origin: -101.108px 582.156px;" cx="-101.108" cy="582.156" rx="4.506" ry="22.777" transform="matrix(0.642786979675, 0.766044914722, -0.766044914722, 0.642786979675, 325.097584460665, -56.222009793155)"/>
  <ellipse style="stroke: rgb(0, 0, 0); stroke-width: 0px; fill: rgb(102, 153, 0); transform-origin: -101.108px 582.156px;" cx="-101.108" cy="582.156" rx="2.835" ry="28.918" transform="matrix(0.57357609272, 0.819152116775, -0.819152116776, 0.57357609272, 318.807571190404, -47.468024162905)"/>
  <ellipse style="stroke: rgb(0, 0, 0); stroke-width: 0px; fill: rgb(102, 153, 0); transform-origin: -101.108px 582.156px;" cx="-101.108" cy="582.156" rx="9.451" ry="16.941" transform="matrix(0.707106113434, 0.707107007504, -0.707107007504, 0.707106113434, 338.48569105649, -62.992469320314)"/>
  <ellipse style="stroke: rgb(0, 0, 0); stroke-width: 0px; fill: rgb(102, 153, 0); transform-origin: -101.108px 582.156px;" cx="-101.108" cy="582.156" rx="1.782" ry="17.307" transform="matrix(0.707106113434, 0.707107007504, -0.707107007503, 0.707106113434, 323.984470137273, -60.327491253246)"/>
  <ellipse style="stroke: rgb(0, 0, 0); stroke-width: 0px; fill: rgb(102, 153, 0); transform-origin: -101.108px 582.156px;" cx="-101.108" cy="582.156" rx="1.633" ry="10.078" transform="matrix(0.766043901444, 0.642787992954, -0.642787992954, 0.766043901443, 340.738082563641, -77.606335187869)"/>
  <ellipse style="stroke: rgb(0, 0, 0); stroke-width: 0px; fill: rgb(102, 153, 0); transform-origin: -101.108px 582.156px;" cx="-101.108" cy="582.156" rx="1.633" ry="6.184" transform="matrix(1, 9.99999e-7, -0.000001, 1, 350.569155733714, -71.10354149864)"/>
  <ellipse style="stroke: rgb(0, 0, 0); stroke-width: 0px; fill: rgb(102, 153, 0); transform-origin: -101.108px 582.156px;" cx="-101.108" cy="582.156" rx="1.203" ry="2.863" transform="matrix(0.984808027745, -0.173647031187, 0.173647031188, 0.984808027744, 353.682412722519, -77.671584999317)"/>
  <ellipse style="stroke: rgb(0, 0, 0); stroke-width: 0px; fill: rgb(102, 153, 0); transform-origin: -101.108px 582.156px;" cx="-101.108" cy="582.156" rx="1.066" ry="1.973" transform="matrix(0.819152116775, 0.573576986791, -0.57357698679, 0.819152116776, 333.378935484815, -48.511153284298)"/>
  <ellipse style="stroke: rgb(0, 0, 0); stroke-width: 0px; fill: rgb(102, 153, 0); transform-origin: -101.108px 582.156px;" cx="-101.108" cy="582.156" rx="1.066" ry="2.815" transform="matrix(0.906307995316, -0.422618061305, 0.422618061304, 0.906307995319, 335.461450203042, -48.566932695887)"/>
  <ellipse style="stroke: rgb(0, 0, 0); stroke-width: 0px; fill: rgb(102, 153, 0); transform-origin: -101.108px 582.156px;" cx="-101.108" cy="582.156" rx="1.066" ry="2.95" transform="matrix(0.7071070075, -0.707107007503, 0.707107007503, 0.707107007504, 337.222769171617, -49.496539329162)"/>
  <ellipse style="stroke: rgb(0, 0, 0); stroke-width: 0px; fill: rgb(102, 153, 0); transform-origin: -101.108px 582.156px;" cx="-101.108" cy="582.156" rx="1.066" ry="1.909" transform="matrix(0.819152116775, 0.57357698679, -0.57357698679, 0.819152116775, 341.772638394635, -52.838450153267)"/>
  <ellipse style="stroke: rgb(0, 0, 0); stroke-width: 0px; fill: rgb(102, 153, 0); transform-origin: -101.108px 582.156px;" cx="-101.108" cy="582.156" rx="1.066" ry="2.654" transform="matrix(0.906307995317, -0.422618061305, 0.422618061304, 0.906307995319, 343.76793836427, -52.826484761623)"/>
  <ellipse style="stroke: rgb(0, 0, 0); stroke-width: 0px; fill: rgb(102, 153, 0); transform-origin: -101.108px 582.156px;" cx="-101.108" cy="582.156" rx="1.066" ry="2.588" transform="matrix(0.707107007507, -0.707107007502, 0.707107007504, 0.707107007504, 345.34179771174, -53.865674624579)"/>
</svg>