<?xml version="1.0" encoding="utf-8"?>
<svg viewBox="71.768 553.1191 117.4813 126.6849" xmlns="http://www.w3.org/2000/svg">
  <ellipse style="stroke: rgb(0, 0, 0); stroke-width: 0px; fill: rgb(102, 153, 0);" cx="94.829" cy="613.315" rx="21.767" ry="21.767" transform="matrix(0.9999999999999999, 0, 0, 0.9999999999999999, 0, 0)"/>
  <ellipse style="stroke: rgb(0, 0, 0); stroke-width: 0px; fill: rgb(102, 153, 0);" cx="121.711" cy="614.637" rx="23.692" ry="23.692" transform="matrix(0.9999999999999999, 0, 0, 0.9999999999999999, 0, 0)"/>
  <ellipse style="stroke: rgb(0, 0, 0); stroke-width: 0px; fill: rgb(102, 153, 0);" cx="153.345" cy="596.957" rx="22.85" ry="22.85" transform="matrix(0.9999999999999999, 0, 0, 0.9999999999999999, 0, 0)"/>
  <ellipse style="stroke: rgb(0, 0, 0); stroke-width: 0px; fill: rgb(102, 153, 0); transform-origin: -169.943px 435.731px;" cx="-169.943" cy="435.731" rx="17.077" ry="18.832" transform="matrix(0.766044914722, -0.642786979675, 0.642786979675, 0.766044914722, 334.005607511193, 144.307228364361)"/>
  <ellipse style="stroke: rgb(0, 0, 0); stroke-width: 0px; fill: rgb(102, 153, 0);" cx="180.648" cy="592.026" rx="8.416" ry="8.416" transform="matrix(0.9999999999999999, 0, 0, 0.9999999999999999, 0, 0)"/>
  <ellipse style="stroke: rgb(0, 0, 0); stroke-width: 0px; fill: rgb(102, 153, 0); transform-origin: -158.862px 434.323px;" cx="-158.862" cy="434.323" rx="8.416" ry="17.505" transform="matrix(0.766043901444, -0.642787992954, 0.642787992954, 0.766043901443, 329.867414976189, 137.61538004653)"/>
  <ellipse style="stroke: rgb(0, 0, 0); stroke-width: 0px; fill: rgb(102, 153, 0); transform-origin: -187.906px 418.908px;" cx="-187.906" cy="418.908" rx="5.04" ry="1.035" transform="matrix(0.819152116776, -0.57357698679, 0.57357698679, 0.819152116775, 345.092869217084, 142.906426748408)"/>
  <ellipse style="stroke: rgb(0, 0, 0); stroke-width: 0px; fill: rgb(102, 153, 0);" cx="162.744" cy="646.842" rx="14.659" ry="22.85" transform="matrix(0.9999999999999999, 0, 0, 0.9999999999999999, 0, 0)"/>
  <ellipse style="stroke: rgb(0, 0, 0); stroke-width: 0px; fill: rgb(102, 153, 0);" cx="163.243" cy="618.075" rx="12.96" ry="34.837" transform="matrix(0.9999999999999999, 0, 0, 0.9999999999999999, 0, 0)"/>
  <ellipse style="stroke: rgb(0, 0, 0); stroke-width: 0px; fill: rgb(102, 153, 0);" cx="163.144" cy="668.918" rx="8.765" ry="9.764" transform="matrix(0.9999999999999999, 0, 0, 0.9999999999999999, 0, 0)"/>
  <ellipse style="stroke: rgb(0, 0, 0); stroke-width: 0px; fill: rgb(102, 153, 0);" cx="86.626" cy="656.131" rx="14.659" ry="22.85" transform="matrix(0.9999999999999999, 0, 0, 0.9999999999999999, 0, 0)"/>
  <ellipse style="stroke: rgb(0, 0, 0); stroke-width: 0px; fill: rgb(102, 153, 0);" cx="89.124" cy="628.263" rx="17.356" ry="24.547" transform="matrix(0.9999999999999999, 0, 0, 0.9999999999999999, 0, 0)"/>
  <ellipse style="stroke: rgb(0, 0, 0); stroke-width: 0px; fill: rgb(102, 153, 0);" cx="91.952" cy="672.902" rx="15.258" ry="6.902" transform="matrix(0.9999999999999999, 0, 0, 0.9999999999999999, 0, 0)"/>
  <ellipse style="stroke: rgb(0, 0, 0); stroke-width: 0px; fill: rgb(102, 153, 0);" cx="108.554" cy="593.396" rx="19.994" ry="2.514" transform="matrix(0.9999999999999999, 0, 0, 0.9999999999999999, 0, 0)"/>
  <ellipse style="stroke: rgb(0, 0, 0); stroke-width: 0px; fill: rgb(102, 153, 0); transform-origin: -195.556px 445.837px;" cx="-195.556" cy="445.837" rx="19.994" ry="3.316" transform="matrix(0.866026103497, -0.499999016523, 0.499999016523, 0.866026103497, 325.614227841622, 145.063741363354)"/>
  <ellipse style="stroke: rgb(0, 0, 0); stroke-width: 0px; fill: rgb(102, 153, 0); transform-origin: -195.556px 445.837px;" cx="-195.556" cy="445.837" rx="19.994" ry="2.514" transform="matrix(0.707107007504, -0.707106113434, 0.707106113434, 0.707107007503, 343.717745145717, 125.952562911208)"/>
  <ellipse style="stroke: rgb(0, 0, 0); stroke-width: 0px; fill: rgb(102, 153, 0); transform-origin: -195.556px 445.837px;" cx="-195.556" cy="445.837" rx="18.305" ry="4.555" transform="matrix(0.766044914723, -0.642786979675, 0.642786979675, 0.766044914722, 338.773786857462, 176.677767804612)"/>
</svg>