<?xml version="1.0" encoding="utf-8"?>
<svg viewBox="-52.3079 424.7901 301.8623 300.4754" xmlns="http://www.w3.org/2000/svg">
  <ellipse style="stroke: rgb(0, 0, 0); stroke-width: 0px; fill: rgb(153, 204, 0); transform-origin: -130.373px 572.016px;" cx="-130.373" cy="572.016" rx="15.548" ry="59.867" transform="matrix(-0.629321098328, -0.777145028114, -0.777145028114, 0.629321098328, 234.374134589044, -121.072182999507)"/>
  <ellipse style="stroke: rgb(0, 0, 0); stroke-width: 0px; fill: rgb(153, 204, 0); transform-origin: -130.373px 572.016px;" cx="-130.373" cy="572.016" rx="23.287" ry="59.867" transform="matrix(0.258819997311, 0.965926110744, 0.965926110744, -0.258819997311, 316.073201180604, -136.917062201129)"/>
  <ellipse style="stroke: rgb(0, 0, 0); stroke-width: 0px; fill: rgb(153, 204, 0); transform-origin: -130.373px 572.016px;" cx="-130.373" cy="572.016" rx="20.303" ry="59.867" transform="matrix(0.766043901443, 0.642787992954, 0.642787992954, -0.766043901443, 321.434752193146, -94.967396114499)"/>
  <ellipse style="stroke: rgb(0, 0, 0); stroke-width: 0px; fill: rgb(153, 204, 0); transform-origin: -130.373px 572.016px;" cx="-130.373" cy="572.016" rx="15.873" ry="59.867" transform="matrix(-0.719339907169, -0.694658100605, -0.694658100605, 0.719339907169, 287.881895356351, -109.306207016041)"/>
  <ellipse style="stroke: rgb(0, 0, 0); stroke-width: 0px; fill: rgb(153, 204, 0); transform-origin: -130.373px 572.016px;" cx="-130.373" cy="572.016" rx="20.01" ry="86.677" transform="matrix(1, 0.000001, -0.000001, 1, 147.659204964456, 61.512817626104)"/>
  <ellipse style="stroke: rgb(0, 0, 0); stroke-width: 0px; fill: rgb(153, 204, 0); transform-origin: -130.373px 572.016px;" cx="-130.373" cy="572.016" rx="13.107" ry="86.677" transform="matrix(0.939692139626, 0.342021018267, -0.342021018267, 0.939692139626, 166.471121799539, -55.70207090375)"/>
  <ellipse style="stroke: rgb(0, 0, 0); stroke-width: 0px; fill: rgb(153, 204, 0); transform-origin: -130.373px 572.016px;" cx="-130.373" cy="572.016" rx="12.806" ry="61.113" transform="matrix(0.90630698204, 0.422619074583, -0.422619074583, 0.90630698204, 193.514577601846, -120.366147912096)"/>
  <ellipse style="stroke: rgb(0, 0, 0); stroke-width: 0px; fill: rgb(153, 204, 0); transform-origin: -130.373px 572.016px;" cx="-130.373" cy="572.016" rx="6.885" ry="54.183" transform="matrix(0.984808027744, 0.173649027944, -0.173649027944, 0.984808027744, 164.718538207625, -1.717836895339)"/>
  <ellipse style="stroke: rgb(0, 0, 0); stroke-width: 0px; fill: rgb(153, 204, 0); transform-origin: -130.373px 572.016px;" cx="-130.373" cy="572.016" rx="22.666" ry="69.022" transform="matrix(0.342019051313, 0.9396930933, -0.9396930933, 0.342019051313, 150.676810121944, -140.056536860185)"/>
  <ellipse style="stroke: rgb(0, 0, 0); stroke-width: 0px; fill: rgb(153, 204, 0); transform-origin: -130.373px 572.016px;" cx="-130.373" cy="572.016" rx="22.5" ry="67.434" transform="matrix(0.965926110744, -0.258818000555, 0.258818000555, 0.965926110744, 218.690904692651, -129.26617040697)"/>
  <ellipse style="stroke: rgb(0, 0, 0); stroke-width: 0px; fill: rgb(153, 204, 0); transform-origin: -130.373px 572.016px;" cx="-130.373" cy="572.016" rx="18.88" ry="60.471" transform="matrix(0.766043901443, 0.642789006233, -0.642789006233, 0.766043901443, 162.020125905497, -111.582249539914)"/>
  <ellipse style="stroke: rgb(0, 0, 0); stroke-width: 0px; fill: rgb(153, 204, 0); transform-origin: -130.373px 572.016px;" cx="-130.373" cy="572.016" rx="20.01" ry="86.677" transform="matrix(0.965926110744, 0.258819997311, -0.258819997311, 0.965926110744, 168.193466027003, 64.346985038641)"/>
  <ellipse style="stroke: rgb(0, 0, 0); stroke-width: 0px; fill: rgb(153, 204, 0); transform-origin: -130.373px 572.016px;" cx="-130.373" cy="572.016" rx="13.107" ry="86.677" transform="matrix(0.819151103497, 0.57357698679, -0.57357698679, 0.819151103497, 216.702339077515, -44.007548030075)"/>
  <ellipse style="stroke: rgb(0, 0, 0); stroke-width: 0px; fill: rgb(153, 204, 0); transform-origin: -130.373px 572.016px;" cx="-130.373" cy="572.016" rx="12.806" ry="61.113" transform="matrix(0.766043901443, 0.642787992954, -0.642787992954, 0.766043901443, 259.561146331697, -99.46842619667)"/>
  <ellipse style="stroke: rgb(0, 0, 0); stroke-width: 0px; fill: rgb(153, 204, 0); transform-origin: -130.373px 572.016px;" cx="-130.373" cy="572.016" rx="6.885" ry="54.183" transform="matrix(0.90630698204, 0.422619074583, -0.422619074583, 0.90630698204, 201.036918010766, 7.684359861198)"/>
</svg>