<?xml version="1.0" encoding="utf-8"?>
<svg viewBox="231.4467 551.0487 71.0511 88.8052" xmlns="http://www.w3.org/2000/svg">
  <ellipse style="stroke: rgb(0, 0, 0); stroke-width: 0px; fill: rgb(102, 153, 0);" cx="256.41" cy="579.44" rx="11.576" ry="10.966" transform="matrix(0.9999999999999999, 0, 0, 0.9999999999999999, 0, 0)"/>
  <ellipse style="stroke: rgb(0, 0, 0); stroke-width: 0px; fill: rgb(102, 153, 0);" cx="267.023" cy="579.374" rx="4.328" ry="4.1" transform="matrix(0.9999999999999999, 0, 0, 0.9999999999999999, 0, 0)"/>
  <ellipse style="stroke: rgb(0, 0, 0); stroke-width: 0px; fill: rgb(102, 153, 0);" cx="245.402" cy="579.181" rx="4.328" ry="4.1" transform="matrix(0.9999999999999999, 0, 0, 0.9999999999999999, 0, 0)"/>
  <ellipse style="stroke: rgb(0, 0, 0); stroke-width: 0px; fill: rgb(102, 153, 0); transform-origin: -101.108px 582.156px;" cx="-101.108" cy="582.156" rx="14.931" ry="10.945" transform="matrix(0.707106113434, 0.707107007503, -0.707107007504, 0.707106113434, 364.688450236004, 15.397882189585)"/>
  <ellipse style="stroke: rgb(0, 0, 0); stroke-width: 0px; fill: rgb(102, 153, 0); transform-origin: -101.108px 582.156px;" cx="-101.108" cy="582.156" rx="3.102" ry="14.668" transform="matrix(1, 0.000001, -0.000001, 1, 351.379000716554, 26.705644986962)"/>
  <ellipse style="stroke: rgb(0, 0, 0); stroke-width: 0px; fill: rgb(102, 153, 0); transform-origin: -101.108px 582.156px;" cx="-101.108" cy="582.156" rx="0.842" ry="4.104" transform="matrix(0.939692139626, 0.342021018268, -0.342021018267, 0.939692139626, 351.393870457552, 11.383655466584)"/>
  <ellipse style="stroke: rgb(0, 0, 0); stroke-width: 0px; fill: rgb(102, 153, 0); transform-origin: -101.108px 582.156px;" cx="-101.108" cy="582.156" rx="2.178" ry="5.362" transform="matrix(0.642786979675, 0.766044914723, -0.766044914722, 0.642786979675, 348.583297133401, 40.989886889317)"/>
  <ellipse style="stroke: rgb(0, 0, 0); stroke-width: 0px; fill: rgb(102, 153, 0); transform-origin: -101.108px 582.156px;" cx="-101.108" cy="582.156" rx="1.314" ry="2.952" transform="matrix(1.000000000001, 0.000001000001, -0.000001, 1, 352.191348140948, 39.406332584872)"/>
  <ellipse style="stroke: rgb(0, 0, 0); stroke-width: 0px; fill: rgb(102, 153, 0); transform-origin: -101.108px 582.156px;" cx="-101.108" cy="582.156" rx="0.842" ry="4.104" transform="matrix(0.984808027744, 0.173649027943, -0.173649027944, 0.984808027744, 354.15700394899, 22.343647795264)"/>
  <ellipse style="stroke: rgb(0, 0, 0); stroke-width: 0px; fill: rgb(102, 153, 0); transform-origin: -101.108px 582.156px;" cx="-101.108" cy="582.156" rx="3.402" ry="11.982" transform="matrix(0.707107007504, -0.707106113434, 0.707106113434, 0.707107007503, 371.32564443907, 41.957083828354)"/>
  <ellipse style="stroke: rgb(0, 0, 0); stroke-width: 0px; fill: rgb(102, 153, 0); transform-origin: -101.108px 582.156px;" cx="-101.108" cy="582.156" rx="3.18" ry="5.703" transform="matrix(0.642786979675, 0.766044914723, -0.766044914722, 0.642786979675, 375.288436691504, 51.595996666465)"/>
  <ellipse style="stroke: rgb(0, 0, 0); stroke-width: 0px; fill: rgb(102, 153, 0); transform-origin: -101.108px 582.156px;" cx="-101.108" cy="582.156" rx="3.18" ry="5.703" transform="matrix(0.642786979675, 0.766044914722, -0.766044914722, 0.642786979675, 397.192969857577, 25.954046044308)"/>
  <ellipse style="stroke: rgb(0, 0, 0); stroke-width: 0px; fill: rgb(102, 153, 0); transform-origin: -101.108px 582.156px;" cx="-101.108" cy="582.156" rx="3.18" ry="8.805" transform="matrix(0.866026103496, -0.499999016523, 0.499999016523, 0.866026103497, 390.224969017168, 22.468801713609)"/>
  <ellipse style="stroke: rgb(0, 0, 0); stroke-width: 0px; fill: rgb(102, 153, 0); transform-origin: -101.108px 582.156px;" cx="-101.108" cy="582.156" rx="3.868" ry="10.949" transform="matrix(0.499999016523, 0.866026103497, -0.866026103497, 0.499999016523, 379.12295164103, 21.125045933246)"/>
  <ellipse style="stroke: rgb(0, 0, 0); stroke-width: 0px; fill: rgb(102, 153, 0); transform-origin: -101.108px 582.156px;" cx="-101.108" cy="582.156" rx="3.861" ry="10.949" transform="matrix(0.707106113434, 0.707107007504, -0.707107007504, 0.707106113434, 370.702187704982, 28.073225592769)"/>
  <ellipse style="stroke: rgb(0, 0, 0); stroke-width: 0px; fill: rgb(102, 153, 0); transform-origin: -101.108px 582.156px;" cx="-101.108" cy="582.156" rx="11.927" ry="1.514" transform="matrix(0.984808027745, -0.173647031188, 0.173647031188, 0.984808027744, 363.77941322686, 29.906384035887)"/>
  <ellipse style="stroke: rgb(0, 0, 0); stroke-width: 0px; fill: rgb(102, 153, 0); transform-origin: -101.108px 582.156px;" cx="-101.108" cy="582.156" rx="8.271" ry="1.514" transform="matrix(0.984808027744, 0.173649027943, -0.173649027944, 0.984808027744, 351.84709790868, 29.865742633998)"/>
  <ellipse style="stroke: rgb(0, 0, 0); stroke-width: 0px; fill: rgb(102, 153, 0); transform-origin: -101.108px 582.156px;" cx="-101.108" cy="582.156" rx="5.985" ry="1.514" transform="matrix(0.766043901444, 0.642787992954, -0.642787992954, 0.766043901444, 341.233715197127, 25.394896205244)"/>
  <ellipse style="stroke: rgb(0, 0, 0); stroke-width: 0px; fill: rgb(102, 153, 0); transform-origin: -101.108px 582.156px;" cx="-101.108" cy="582.156" rx="6.695" ry="1.488" transform="matrix(0.258818000555, 0.965926110744, -0.965926110744, 0.258818000555, 335.724779005402, 16.912502106352)"/>
  <ellipse style="stroke: rgb(0, 0, 0); stroke-width: 0px; fill: rgb(102, 153, 0); transform-origin: -101.108px 582.156px;" cx="-101.108" cy="582.156" rx="3.834" ry="1.814" transform="matrix(-0.500001013279, 0.866025090217, -0.866025090218, -0.500001013279, 336.055923068617, 8.925436584483)"/>
  <ellipse style="stroke: rgb(0, 0, 0); stroke-width: 0px; fill: rgb(102, 153, 0); transform-origin: -101.108px 582.156px;" cx="-101.108" cy="582.156" rx="0.703" ry="5.643" transform="matrix(0.999999999999, 0.000001, -0.000001, 1, 336.083071533447, 13.248797595437)"/>
  <ellipse style="stroke: rgb(0, 0, 0); stroke-width: 0px; fill: rgb(102, 153, 0); transform-origin: -101.108px 582.156px;" cx="-101.108" cy="582.156" rx="0.834" ry="7.302" transform="matrix(0.866026103498, -0.499999016522, 0.499999016523, 0.866026103496, 338.886925039519, 21.750723089848)"/>
  <ellipse style="stroke: rgb(0, 0, 0); stroke-width: 0px; fill: rgb(102, 153, 0); transform-origin: -101.108px 582.156px;" cx="-101.108" cy="582.156" rx="0.834" ry="7.424" transform="matrix(-0.422619074583, 0.906306982041, -0.90630698204, -0.422619074583, 345.995804979255, 27.347758354563)"/>
  <ellipse style="stroke: rgb(0, 0, 0); stroke-width: 0px; fill: rgb(102, 153, 0); transform-origin: -101.108px 582.156px;" cx="-101.108" cy="582.156" rx="7.567" ry="0.772" transform="matrix(1, 9.99999e-7, -0.000001, 1, 358.86288754679, 29.571306650531)"/>
  <ellipse style="stroke: rgb(0, 0, 0); stroke-width: 0px; fill: rgb(102, 153, 0); transform-origin: -101.108px 582.156px;" cx="-101.108" cy="582.156" rx="3.556" ry="21.728" transform="matrix(0.99862909317, 0.05233700946, -0.05233700946, 0.99862909317, 368.818080498912, -9.222994069152)"/>
  <ellipse style="stroke: rgb(0, 0, 0); stroke-width: 0px; fill: rgb(102, 153, 0); transform-origin: -101.108px 582.156px;" cx="-101.108" cy="582.156" rx="3.755" ry="2.016" transform="matrix(1, 9.99999e-7, -0.000001, 1, 369.863528579914, -28.996750328761)"/>
</svg>