<?xml version="1.0" encoding="utf-8"?>
<svg viewBox="928.3437 889.9096 88.814 109.7094" xmlns="http://www.w3.org/2000/svg">
  <g style="" transform="matrix(0.2826859951019287, 0, 0, 0.2826859951019287, 764.5003776028806, 809.2916380359475)">
    <ellipse style="stroke: rgb(0, 0, 0); stroke-width: 0px; fill: rgb(153, 153, 153);" cx="805.923" cy="532.169" rx="87.851" ry="7.968"/>
    <ellipse style="stroke: rgb(0, 0, 0); stroke-width: 0px; fill: rgb(153, 153, 153);" cx="805.923" cy="521.521" rx="82.527" ry="7.968"/>
    <ellipse style="stroke: rgb(0, 0, 0); stroke-width: 0px; fill: rgb(153, 153, 153);" cx="805.923" cy="510.872" rx="77.203" ry="7.968"/>
    <ellipse style="stroke: rgb(0, 0, 0); stroke-width: 0px; fill: rgb(153, 153, 153);" cx="805.923" cy="500.223" rx="71.878" ry="7.968"/>
    <ellipse style="stroke: rgb(0, 0, 0); stroke-width: 0px; fill: rgb(153, 153, 153);" cx="805.923" cy="489.575" rx="66.554" ry="7.968"/>
    <ellipse style="stroke: rgb(0, 0, 0); stroke-width: 0px; fill: rgb(153, 153, 153);" cx="805.923" cy="478.926" rx="61.23" ry="7.968"/>
    <ellipse style="stroke: rgb(0, 0, 0); stroke-width: 0px; fill: rgb(153, 153, 153);" cx="805.923" cy="468.277" rx="55.905" ry="7.968"/>
    <ellipse style="stroke: rgb(0, 0, 0); stroke-width: 0px; fill: rgb(153, 153, 153);" cx="805.923" cy="457.629" rx="50.581" ry="7.968"/>
    <ellipse style="stroke: rgb(0, 0, 0); stroke-width: 0px; fill: rgb(153, 153, 153);" cx="805.923" cy="446.98" rx="45.257" ry="7.968"/>
    <ellipse style="stroke: rgb(0, 0, 0); stroke-width: 0px; fill: rgb(153, 153, 153);" cx="805.923" cy="436.331" rx="39.932" ry="7.968"/>
    <ellipse style="stroke: rgb(0, 0, 0); stroke-width: 0px; fill: rgb(153, 153, 153);" cx="805.923" cy="425.683" rx="34.608" ry="7.968"/>
    <ellipse style="stroke: rgb(0, 0, 0); stroke-width: 0px; fill: rgb(153, 153, 153);" cx="805.923" cy="415.034" rx="29.284" ry="7.968"/>
    <ellipse style="stroke: rgb(0, 0, 0); stroke-width: 0px; fill: rgb(153, 153, 153);" cx="805.923" cy="404.385" rx="23.959" ry="7.968"/>
    <ellipse style="stroke: rgb(0, 0, 0); stroke-width: 0px; fill: rgb(153, 153, 153);" cx="805.923" cy="393.737" rx="18.635" ry="7.968"/>
    <ellipse style="stroke: rgb(0, 0, 0); stroke-width: 0px; fill: rgb(153, 153, 153);" cx="805.923" cy="383.088" rx="13.311" ry="7.968"/>
    <ellipse style="stroke: rgb(0, 0, 0); stroke-width: 0px; fill: rgb(153, 153, 153);" cx="805.497" cy="372.457" rx="7.986" ry="7.968"/>
    <ellipse style="stroke: rgb(0, 0, 0); stroke-width: 0px; fill: rgb(153, 153, 153);" cx="805.923" cy="540.174" rx="10.649" ry="133.108"/>
  </g>
  <g style="" transform="matrix(0.34866198897361755, 0, 0, 0.34866198897361755, 677.97931918471, 762.8261832419957)">
    <ellipse style="stroke: rgb(0, 0, 0); stroke-width: 0px; fill: rgb(153, 153, 153);" cx="805.923" cy="532.169" rx="87.851" ry="7.968"/>
    <ellipse style="stroke: rgb(0, 0, 0); stroke-width: 0px; fill: rgb(153, 153, 153);" cx="805.923" cy="521.521" rx="82.527" ry="7.968"/>
    <ellipse style="stroke: rgb(0, 0, 0); stroke-width: 0px; fill: rgb(153, 153, 153);" cx="805.923" cy="510.872" rx="77.203" ry="7.968"/>
    <ellipse style="stroke: rgb(0, 0, 0); stroke-width: 0px; fill: rgb(153, 153, 153);" cx="805.923" cy="500.223" rx="71.878" ry="7.968"/>
    <ellipse style="stroke: rgb(0, 0, 0); stroke-width: 0px; fill: rgb(153, 153, 153);" cx="805.923" cy="489.575" rx="66.554" ry="7.968"/>
    <ellipse style="stroke: rgb(0, 0, 0); stroke-width: 0px; fill: rgb(153, 153, 153);" cx="805.923" cy="478.926" rx="61.23" ry="7.968"/>
    <ellipse style="stroke: rgb(0, 0, 0); stroke-width: 0px; fill: rgb(153, 153, 153);" cx="805.923" cy="468.277" rx="55.905" ry="7.968"/>
    <ellipse style="stroke: rgb(0, 0, 0); stroke-width: 0px; fill: rgb(153, 153, 153);" cx="805.923" cy="457.629" rx="50.581" ry="7.968"/>
    <ellipse style="stroke: rgb(0, 0, 0); stroke-width: 0px; fill: rgb(153, 153, 153);" cx="805.923" cy="446.98" rx="45.257" ry="7.968"/>
    <ellipse style="stroke: rgb(0, 0, 0); stroke-width: 0px; fill: rgb(153, 153, 153);" cx="805.923" cy="436.331" rx="39.932" ry="7.968"/>
    <ellipse style="stroke: rgb(0, 0, 0); stroke-width: 0px; fill: rgb(153, 153, 153);" cx="805.923" cy="425.683" rx="34.608" ry="7.968"/>
    <ellipse style="stroke: rgb(0, 0, 0); stroke-width: 0px; fill: rgb(153, 153, 153);" cx="805.923" cy="415.034" rx="29.284" ry="7.968"/>
    <ellipse style="stroke: rgb(0, 0, 0); stroke-width: 0px; fill: rgb(153, 153, 153);" cx="805.923" cy="404.385" rx="23.959" ry="7.968"/>
    <ellipse style="stroke: rgb(0, 0, 0); stroke-width: 0px; fill: rgb(153, 153, 153);" cx="805.923" cy="393.737" rx="18.635" ry="7.968"/>
    <ellipse style="stroke: rgb(0, 0, 0); stroke-width: 0px; fill: rgb(153, 153, 153);" cx="805.923" cy="383.088" rx="13.311" ry="7.968"/>
    <ellipse style="stroke: rgb(0, 0, 0); stroke-width: 0px; fill: rgb(153, 153, 153);" cx="805.497" cy="372.457" rx="7.986" ry="7.968"/>
    <ellipse style="stroke: rgb(0, 0, 0); stroke-width: 0px; fill: rgb(153, 153, 153);" cx="805.923" cy="540.174" rx="10.649" ry="133.108"/>
  </g>
</svg>