<?xml version="1.0" encoding="utf-8"?>
<svg viewBox="792.1074 1001.4416 83.5908 48.6854" xmlns="http://www.w3.org/2000/svg">
  <ellipse style="stroke: rgb(0, 0, 0); stroke-width: 0px; fill: rgb(102, 102, 102); transform-origin: 741.212px 1189.35px;" cx="741.212" cy="1189.354" rx="19.834" ry="10.161" transform="matrix(0.9396930933, -0.342020004988, 0.342020004988, 0.9396930933, 89.044800141582, -171.580566294033)"/>
  <ellipse style="stroke: rgb(0, 0, 0); stroke-width: 0px; fill: rgb(102, 102, 102); transform-origin: 741.208px 1189.35px;" cx="741.212" cy="1189.354" rx="15.787" ry="8.831" transform="matrix(0.819152116776, 0.57357609272, -0.57357609272, 0.819152116776, 68.895567601562, -165.583842810242)"/>
  <ellipse style="stroke: rgb(0, 0, 0); stroke-width: 0px; fill: rgb(102, 102, 102); transform-origin: 798.25px 1020.47px;" cx="798.251" cy="1020.467" rx="5.073" ry="4.9" transform="matrix(1, 1e-12, 0, 1, 3.7e-11, -6.37e-10)"/>
  <ellipse style="stroke: rgb(0, 0, 0); stroke-width: 0px; fill: rgb(102, 102, 102); transform-origin: 795.87px 1019.08px;" cx="795.871" cy="1019.071" rx="3.39" ry="2.785" transform="matrix(1, 0, 0, 0.999999999997, 0, 3.157e-9)"/>
  <ellipse style="stroke: rgb(0, 0, 0); stroke-width: 0px; fill: rgb(102, 102, 102); transform-origin: 741.204px 1189.35px;" cx="741.212" cy="1189.354" rx="18.778" ry="8.831" transform="matrix(0.866026103496, -0.5, 0.5, 0.866026103497, 85.235942001645, -165.958727435925)"/>
  <ellipse style="stroke: rgb(0, 0, 0); stroke-width: 0px; fill: rgb(102, 102, 102); transform-origin: 741.205px 1189.35px;" cx="741.212" cy="1189.354" rx="23.526" ry="1.69" transform="matrix(0.965926110744, -0.258819013834, 0.258819013834, 0.965926110744, 79.298493405679, -176.090910030555)"/>
  <ellipse style="stroke: rgb(0, 0, 0); stroke-width: 0px; fill: rgb(102, 102, 102); transform-origin: 741.209px 1189.35px;" cx="741.212" cy="1189.354" rx="12.723" ry="5.045" transform="matrix(0.866026103497, 0.5, -0.5, 0.866026103496, 108.079688587333, -174.866850185559)"/>
  <ellipse style="stroke: rgb(0, 0, 0); stroke-width: 0px; fill: rgb(102, 102, 102); transform-origin: 741.209px 1189.35px;" cx="741.212" cy="1189.354" rx="13.1" ry="3.808" transform="matrix(0.642787992954, 0.766043901443, -0.766043901444, 0.642787992954, 122.305826717049, -163.473606477124)"/>
  <ellipse style="stroke: rgb(0, 0, 0); stroke-width: 0px; fill: rgb(102, 102, 102); transform-origin: 741.209px 1189.35px;" cx="741.212" cy="1189.354" rx="13.1" ry="3.808" transform="matrix(0.866026103497, 0.499999016523, -0.499999016523, 0.866026103497, 121.239610922864, -167.935572208251)"/>
  <ellipse style="stroke: rgb(0, 0, 0); stroke-width: 0px; fill: rgb(102, 102, 102); transform-origin: 741.205px 1189.35px;" cx="741.212" cy="1189.354" rx="21.217" ry="1.634" transform="matrix(0.984808027744, -0.173648029566, 0.173648029565, 0.984808027744, 99.592238733103, -168.627280182838)"/>
  <ellipse style="stroke: rgb(0, 0, 0); stroke-width: 0px; fill: rgb(102, 102, 102); transform-origin: 741.212px 1189.33px;" cx="741.212" cy="1189.354" rx="0.606" ry="8.989" transform="matrix(0.499999999999, -0.866026103495, 0.86602610349, 0.5, 59.98067737251, -162.647122871294)"/>
  <ellipse style="stroke: rgb(0, 0, 0); stroke-width: 0px; fill: rgb(102, 102, 102); transform-origin: 741.211px 1189.35px;" cx="741.212" cy="1189.354" rx="4.414" ry="17.159" transform="matrix(0.90630799532, -0.422618061304, 0.422618061304, 0.906307995319, 83.21788109626, -156.642890549708)"/>
  <ellipse style="stroke: rgb(0, 0, 0); stroke-width: 0px; fill: rgb(102, 102, 102); transform-origin: 741.211px 1189.35px;" cx="741.212" cy="1189.354" rx="3.853" ry="8.01" transform="matrix(0.984808027744, 0.173648029565, -0.173648029566, 0.984808027744, 70.339380436599, -156.695691006222)"/>
</svg>