<?xml version="1.0" encoding="utf-8"?>
<svg viewBox="934.125 922.5102 107.8994 58.2211" xmlns="http://www.w3.org/2000/svg">
  <ellipse style="stroke: rgb(0, 0, 0); stroke-width: 0px; fill: rgb(102, 102, 102); transform-origin: -1001.36px -944.031px;" cx="-1001.363" cy="-943.998" rx="34.662" ry="21.488" transform="matrix(-1, 0, 0, -1, 2002.720922851555, 1888.06210937505)"/>
  <ellipse style="stroke: rgb(0, 0, 0); stroke-width: 0px; fill: rgb(102, 102, 102); transform-origin: -975.632px -938.435px;" cx="-975.628" cy="-938.422" rx="35.004" ry="14.547" transform="matrix(-1, 0, 0, -1, 1951.263037109219, 1876.870678710945)"/>
  <ellipse style="stroke: rgb(0, 0, 0); stroke-width: 0px; fill: rgb(102, 102, 102); transform-origin: 1115.3px -1206.59px;" cx="1115.301" cy="-1206.588" rx="13.772" ry="7.179" transform="matrix(-0.90630799532, 0.422618061304, -0.422618061304, -0.906307995318, -165.657792479477, 2146.786383625708)"/>
  <ellipse style="stroke: rgb(0, 0, 0); stroke-width: 0px; fill: rgb(102, 102, 102); transform-origin: 1115.3px -1206.58px;" cx="1115.301" cy="-1206.588" rx="2.187" ry="2.655" transform="matrix(-0.819152116777, 0.573576092756, -0.573576092719, -0.819152116773, -168.870380923216, 2137.325990500198)"/>
  <ellipse style="stroke: rgb(0, 0, 0); stroke-width: 0px; fill: rgb(102, 102, 102); transform-origin: 1092.38px -1221.73px;" cx="1092.389" cy="-1221.739" rx="19.506" ry="2.219" transform="matrix(-0.965926110744, -0.258819013834, 0.258819013834, -0.965926110745, -135.511858446318, 2171.545998254376)"/>
  <ellipse style="stroke: rgb(0, 0, 0); stroke-width: 0px; fill: rgb(102, 102, 102); transform-origin: 945.491px -1193.99px;" cx="945.493" cy="-1193.953" rx="10.452" ry="23.291" transform="matrix(-0.996195018291, 0.087155014277, -0.087155014276, -0.996195018291, 84.096341743439, 2150.644855346177)"/>
  <ellipse style="stroke: rgb(0, 0, 0); stroke-width: 0px; fill: rgb(102, 102, 102); transform-origin: 945.491px -1193.98px;" cx="945.493" cy="-1193.953" rx="7.368" ry="17.855" transform="matrix(-0.984808027744, -0.173649027944, 0.173649027943, -0.984808027744, 65.016771544401, 2155.73540237179)"/>
  <ellipse style="stroke: rgb(0, 0, 0); stroke-width: 0px; fill: rgb(102, 102, 102); transform-origin: 945.491px -1193.99px;" cx="945.493" cy="-1193.953" rx="8.588" ry="20.702" transform="matrix(-1, -0.000001, 0.000001, -1, 40.992243001547, 2153.461270252708)"/>
  <ellipse style="stroke: rgb(0, 0, 0); stroke-width: 0px; fill: rgb(102, 102, 102); transform-origin: 945.489px -1194.01px;" cx="945.493" cy="-1193.953" rx="6.578" ry="20.702" transform="matrix(-0.996195018292, -0.087157018482, 0.087157018483, -0.996195018292, 26.166622186845, 2153.255438409865)"/>
  <ellipse style="stroke: rgb(0, 0, 0); stroke-width: 0px; fill: rgb(102, 102, 102); transform-origin: 945.49px -1193.96px;" cx="945.493" cy="-1193.953" rx="7.368" ry="5.036" transform="matrix(-0.999999999999, -9.99998e-7, 0.000001, -0.999999999999, 83.575495618213, 2169.081341897818)"/>
  <ellipse style="stroke: rgb(0, 0, 0); stroke-width: 0px; fill: rgb(102, 102, 102); transform-origin: 945.49px -1193.96px;" cx="945.493" cy="-1193.953" rx="7.368" ry="5.036" transform="matrix(-0.999999999999, -0.000001000001, 0.000001, -1.000000000001, 59.812311670747, 2168.779828220748)"/>
  <ellipse style="stroke: rgb(0, 0, 0); stroke-width: 0px; fill: rgb(102, 102, 102); transform-origin: 945.49px -1193.96px;" cx="945.493" cy="-1193.953" rx="7.368" ry="5.036" transform="matrix(-0.999999999999, -0.000001000002, 0.000001000001, -0.999999999997, 38.63042658988, 2169.451703236821)"/>
  <ellipse style="stroke: rgb(0, 0, 0); stroke-width: 0px; fill: rgb(102, 102, 102); transform-origin: 945.49px -1193.96px;" cx="945.493" cy="-1193.953" rx="7.368" ry="5.036" transform="matrix(-0.999999999999, -0.000001000001, 0.000001, -1.000000000001, 21.100397031118, 2169.549359482747)"/>
</svg>