<?xml version="1.0" encoding="utf-8"?>
<svg viewBox="890.958 889.91 126.2 142.53" xmlns="http://www.w3.org/2000/svg">
  <ellipse style="stroke: rgb(0, 0, 0); stroke-width: 0px; fill: rgb(153, 153, 153);" cx="923.236" cy="980.593" rx="32.278" ry="2.928" transform="matrix(0.9999999999999999, 0, 0, 0.9999999999999999, 5.684341886080802e-14, 1.1368683772161603e-13)"/>
  <ellipse style="stroke: rgb(0, 0, 0); stroke-width: 0px; fill: rgb(153, 153, 153);" cx="923.236" cy="976.681" rx="30.322" ry="2.928" transform="matrix(0.9999999999999999, 0, 0, 0.9999999999999999, 5.684341886080802e-14, 1.1368683772161603e-13)"/>
  <ellipse style="stroke: rgb(0, 0, 0); stroke-width: 0px; fill: rgb(153, 153, 153);" cx="923.236" cy="972.768" rx="28.366" ry="2.928" transform="matrix(0.9999999999999999, 0, 0, 0.9999999999999999, 5.684341886080802e-14, 1.1368683772161603e-13)"/>
  <ellipse style="stroke: rgb(0, 0, 0); stroke-width: 0px; fill: rgb(153, 153, 153);" cx="923.236" cy="968.855" rx="26.409" ry="2.928" transform="matrix(0.9999999999999999, 0, 0, 0.9999999999999999, 5.684341886080802e-14, 1.1368683772161603e-13)"/>
  <ellipse style="stroke: rgb(0, 0, 0); stroke-width: 0px; fill: rgb(153, 153, 153);" cx="923.236" cy="964.943" rx="24.453" ry="2.928" transform="matrix(0.9999999999999999, 0, 0, 0.9999999999999999, 5.684341886080802e-14, 1.1368683772161603e-13)"/>
  <ellipse style="stroke: rgb(0, 0, 0); stroke-width: 0px; fill: rgb(153, 153, 153);" cx="923.236" cy="961.031" rx="22.497" ry="2.928" transform="matrix(0.9999999999999999, 0, 0, 0.9999999999999999, 5.684341886080802e-14, 1.1368683772161603e-13)"/>
  <ellipse style="stroke: rgb(0, 0, 0); stroke-width: 0px; fill: rgb(153, 153, 153);" cx="923.236" cy="957.118" rx="20.541" ry="2.928" transform="matrix(0.9999999999999999, 0, 0, 0.9999999999999999, 5.684341886080802e-14, 1.1368683772161603e-13)"/>
  <ellipse style="stroke: rgb(0, 0, 0); stroke-width: 0px; fill: rgb(153, 153, 153);" cx="923.236" cy="953.206" rx="18.584" ry="2.928" transform="matrix(0.9999999999999999, 0, 0, 0.9999999999999999, 5.684341886080802e-14, 1.1368683772161603e-13)"/>
  <ellipse style="stroke: rgb(0, 0, 0); stroke-width: 0px; fill: rgb(153, 153, 153);" cx="923.236" cy="949.293" rx="16.628" ry="2.928" transform="matrix(0.9999999999999999, 0, 0, 0.9999999999999999, 5.684341886080802e-14, 1.1368683772161603e-13)"/>
  <ellipse style="stroke: rgb(0, 0, 0); stroke-width: 0px; fill: rgb(153, 153, 153);" cx="923.236" cy="945.38" rx="14.672" ry="2.928" transform="matrix(0.9999999999999999, 0, 0, 0.9999999999999999, 5.684341886080802e-14, 1.1368683772161603e-13)"/>
  <ellipse style="stroke: rgb(0, 0, 0); stroke-width: 0px; fill: rgb(153, 153, 153);" cx="923.236" cy="941.468" rx="12.716" ry="2.928" transform="matrix(0.9999999999999999, 0, 0, 0.9999999999999999, 5.684341886080802e-14, 1.1368683772161603e-13)"/>
  <ellipse style="stroke: rgb(0, 0, 0); stroke-width: 0px; fill: rgb(153, 153, 153);" cx="923.236" cy="937.555" rx="10.76" ry="2.928" transform="matrix(0.9999999999999999, 0, 0, 0.9999999999999999, 5.684341886080802e-14, 1.1368683772161603e-13)"/>
  <ellipse style="stroke: rgb(0, 0, 0); stroke-width: 0px; fill: rgb(153, 153, 153);" cx="923.236" cy="933.643" rx="8.803" ry="2.928" transform="matrix(0.9999999999999999, 0, 0, 0.9999999999999999, 5.684341886080802e-14, 1.1368683772161603e-13)"/>
  <ellipse style="stroke: rgb(0, 0, 0); stroke-width: 0px; fill: rgb(153, 153, 153);" cx="923.236" cy="929.73" rx="6.847" ry="2.928" transform="matrix(0.9999999999999999, 0, 0, 0.9999999999999999, 5.684341886080802e-14, 1.1368683772161603e-13)"/>
  <ellipse style="stroke: rgb(0, 0, 0); stroke-width: 0px; fill: rgb(153, 153, 153);" cx="923.236" cy="925.818" rx="4.891" ry="2.928" transform="matrix(0.9999999999999999, 0, 0, 0.9999999999999999, 5.684341886080802e-14, 1.1368683772161603e-13)"/>
  <ellipse style="stroke: rgb(0, 0, 0); stroke-width: 0px; fill: rgb(153, 153, 153);" cx="923.079" cy="921.912" rx="2.934" ry="2.928" transform="matrix(0.9999999999999999, 0, 0, 0.9999999999999999, 5.684341886080802e-14, 1.1368683772161603e-13)"/>
  <ellipse style="stroke: rgb(0, 0, 0); stroke-width: 0px; fill: rgb(153, 153, 153);" cx="923.236" cy="983.534" rx="3.913" ry="48.906" transform="matrix(0.9999999999999999, 0, 0, 0.9999999999999999, 5.684341886080802e-14, 1.1368683772161603e-13)"/>
  <ellipse style="stroke: rgb(0, 0, 0); stroke-width: 0px; fill: rgb(153, 153, 153);" cx="992.324" cy="959.728" rx="24.834" ry="2.252" transform="matrix(0.9999999999999999, 0, 0, 0.9999999999999999, 5.684341886080802e-14, 1.1368683772161603e-13)"/>
  <ellipse style="stroke: rgb(0, 0, 0); stroke-width: 0px; fill: rgb(153, 153, 153);" cx="992.324" cy="956.718" rx="23.329" ry="2.252" transform="matrix(0.9999999999999999, 0, 0, 0.9999999999999999, 5.684341886080802e-14, 1.1368683772161603e-13)"/>
  <ellipse style="stroke: rgb(0, 0, 0); stroke-width: 0px; fill: rgb(153, 153, 153);" cx="992.324" cy="953.708" rx="21.824" ry="2.252" transform="matrix(0.9999999999999999, 0, 0, 0.9999999999999999, 5.684341886080802e-14, 1.1368683772161603e-13)"/>
  <ellipse style="stroke: rgb(0, 0, 0); stroke-width: 0px; fill: rgb(153, 153, 153);" cx="992.324" cy="950.698" rx="20.319" ry="2.252" transform="matrix(0.9999999999999999, 0, 0, 0.9999999999999999, 5.684341886080802e-14, 1.1368683772161603e-13)"/>
  <ellipse style="stroke: rgb(0, 0, 0); stroke-width: 0px; fill: rgb(153, 153, 153);" cx="992.324" cy="947.688" rx="18.814" ry="2.252" transform="matrix(0.9999999999999999, 0, 0, 0.9999999999999999, 5.684341886080802e-14, 1.1368683772161603e-13)"/>
  <ellipse style="stroke: rgb(0, 0, 0); stroke-width: 0px; fill: rgb(153, 153, 153);" cx="992.324" cy="944.677" rx="17.309" ry="2.252" transform="matrix(0.9999999999999999, 0, 0, 0.9999999999999999, 5.684341886080802e-14, 1.1368683772161603e-13)"/>
  <ellipse style="stroke: rgb(0, 0, 0); stroke-width: 0px; fill: rgb(153, 153, 153);" cx="992.324" cy="941.667" rx="15.804" ry="2.252" transform="matrix(0.9999999999999999, 0, 0, 0.9999999999999999, 5.684341886080802e-14, 1.1368683772161603e-13)"/>
  <ellipse style="stroke: rgb(0, 0, 0); stroke-width: 0px; fill: rgb(153, 153, 153);" cx="992.324" cy="938.657" rx="14.299" ry="2.252" transform="matrix(0.9999999999999999, 0, 0, 0.9999999999999999, 5.684341886080802e-14, 1.1368683772161603e-13)"/>
  <ellipse style="stroke: rgb(0, 0, 0); stroke-width: 0px; fill: rgb(153, 153, 153);" cx="992.324" cy="935.647" rx="12.794" ry="2.252" transform="matrix(0.9999999999999999, 0, 0, 0.9999999999999999, 5.684341886080802e-14, 1.1368683772161603e-13)"/>
  <ellipse style="stroke: rgb(0, 0, 0); stroke-width: 0px; fill: rgb(153, 153, 153);" cx="992.324" cy="932.636" rx="11.288" ry="2.252" transform="matrix(0.9999999999999999, 0, 0, 0.9999999999999999, 5.684341886080802e-14, 1.1368683772161603e-13)"/>
  <ellipse style="stroke: rgb(0, 0, 0); stroke-width: 0px; fill: rgb(153, 153, 153);" cx="992.324" cy="929.626" rx="9.783" ry="2.252" transform="matrix(0.9999999999999999, 0, 0, 0.9999999999999999, 5.684341886080802e-14, 1.1368683772161603e-13)"/>
  <ellipse style="stroke: rgb(0, 0, 0); stroke-width: 0px; fill: rgb(153, 153, 153);" cx="992.324" cy="926.616" rx="8.278" ry="2.252" transform="matrix(0.9999999999999999, 0, 0, 0.9999999999999999, 5.684341886080802e-14, 1.1368683772161603e-13)"/>
  <ellipse style="stroke: rgb(0, 0, 0); stroke-width: 0px; fill: rgb(153, 153, 153);" cx="992.324" cy="923.606" rx="6.773" ry="2.252" transform="matrix(0.9999999999999999, 0, 0, 0.9999999999999999, 5.684341886080802e-14, 1.1368683772161603e-13)"/>
  <ellipse style="stroke: rgb(0, 0, 0); stroke-width: 0px; fill: rgb(153, 153, 153);" cx="992.324" cy="920.596" rx="5.268" ry="2.252" transform="matrix(0.9999999999999999, 0, 0, 0.9999999999999999, 5.684341886080802e-14, 1.1368683772161603e-13)"/>
  <ellipse style="stroke: rgb(0, 0, 0); stroke-width: 0px; fill: rgb(153, 153, 153);" cx="992.324" cy="917.585" rx="3.763" ry="2.252" transform="matrix(0.9999999999999999, 0, 0, 0.9999999999999999, 5.684341886080802e-14, 1.1368683772161603e-13)"/>
  <ellipse style="stroke: rgb(0, 0, 0); stroke-width: 0px; fill: rgb(153, 153, 153);" cx="992.203" cy="914.58" rx="2.258" ry="2.252" transform="matrix(0.9999999999999999, 0, 0, 0.9999999999999999, 5.684341886080802e-14, 1.1368683772161603e-13)"/>
  <ellipse style="stroke: rgb(0, 0, 0); stroke-width: 0px; fill: rgb(153, 153, 153);" cx="992.324" cy="961.991" rx="3.01" ry="37.628" transform="matrix(0.9999999999999999, 0, 0, 0.9999999999999999, 5.684341886080802e-14, 1.1368683772161603e-13)"/>
  <ellipse style="stroke: rgb(0, 0, 0); stroke-width: 0px; fill: rgb(153, 153, 153);" cx="958.974" cy="948.373" rx="30.63" ry="2.778" transform="matrix(0.9999999999999999, 0, 0, 0.9999999999999999, 5.684341886080802e-14, 1.1368683772161603e-13)"/>
  <ellipse style="stroke: rgb(0, 0, 0); stroke-width: 0px; fill: rgb(153, 153, 153);" cx="958.974" cy="944.661" rx="28.774" ry="2.778" transform="matrix(0.9999999999999999, 0, 0, 0.9999999999999999, 5.684341886080802e-14, 1.1368683772161603e-13)"/>
  <ellipse style="stroke: rgb(0, 0, 0); stroke-width: 0px; fill: rgb(153, 153, 153);" cx="958.974" cy="940.948" rx="26.918" ry="2.778" transform="matrix(0.9999999999999999, 0, 0, 0.9999999999999999, 5.684341886080802e-14, 1.1368683772161603e-13)"/>
  <ellipse style="stroke: rgb(0, 0, 0); stroke-width: 0px; fill: rgb(153, 153, 153);" cx="958.974" cy="937.235" rx="25.061" ry="2.778" transform="matrix(0.9999999999999999, 0, 0, 0.9999999999999999, 5.684341886080802e-14, 1.1368683772161603e-13)"/>
  <ellipse style="stroke: rgb(0, 0, 0); stroke-width: 0px; fill: rgb(153, 153, 153);" cx="958.974" cy="933.522" rx="23.205" ry="2.778" transform="matrix(0.9999999999999999, 0, 0, 0.9999999999999999, 5.684341886080802e-14, 1.1368683772161603e-13)"/>
  <ellipse style="stroke: rgb(0, 0, 0); stroke-width: 0px; fill: rgb(153, 153, 153);" cx="958.974" cy="929.809" rx="21.349" ry="2.778" transform="matrix(0.9999999999999999, 0, 0, 0.9999999999999999, 5.684341886080802e-14, 1.1368683772161603e-13)"/>
  <ellipse style="stroke: rgb(0, 0, 0); stroke-width: 0px; fill: rgb(153, 153, 153);" cx="958.974" cy="926.097" rx="19.492" ry="2.778" transform="matrix(0.9999999999999999, 0, 0, 0.9999999999999999, 5.684341886080802e-14, 1.1368683772161603e-13)"/>
  <ellipse style="stroke: rgb(0, 0, 0); stroke-width: 0px; fill: rgb(153, 153, 153);" cx="958.974" cy="922.384" rx="17.636" ry="2.778" transform="matrix(0.9999999999999999, 0, 0, 0.9999999999999999, 5.684341886080802e-14, 1.1368683772161603e-13)"/>
  <ellipse style="stroke: rgb(0, 0, 0); stroke-width: 0px; fill: rgb(153, 153, 153);" cx="958.974" cy="918.671" rx="15.779" ry="2.778" transform="matrix(0.9999999999999999, 0, 0, 0.9999999999999999, 5.684341886080802e-14, 1.1368683772161603e-13)"/>
  <ellipse style="stroke: rgb(0, 0, 0); stroke-width: 0px; fill: rgb(153, 153, 153);" cx="958.974" cy="914.958" rx="13.923" ry="2.778" transform="matrix(0.9999999999999999, 0, 0, 0.9999999999999999, 5.684341886080802e-14, 1.1368683772161603e-13)"/>
  <ellipse style="stroke: rgb(0, 0, 0); stroke-width: 0px; fill: rgb(153, 153, 153);" cx="958.974" cy="911.246" rx="12.066" ry="2.778" transform="matrix(0.9999999999999999, 0, 0, 0.9999999999999999, 5.684341886080802e-14, 1.1368683772161603e-13)"/>
  <ellipse style="stroke: rgb(0, 0, 0); stroke-width: 0px; fill: rgb(153, 153, 153);" cx="958.974" cy="907.533" rx="10.21" ry="2.778" transform="matrix(0.9999999999999999, 0, 0, 0.9999999999999999, 5.684341886080802e-14, 1.1368683772161603e-13)"/>
  <ellipse style="stroke: rgb(0, 0, 0); stroke-width: 0px; fill: rgb(153, 153, 153);" cx="958.974" cy="903.82" rx="8.354" ry="2.778" transform="matrix(0.9999999999999999, 0, 0, 0.9999999999999999, 5.684341886080802e-14, 1.1368683772161603e-13)"/>
  <ellipse style="stroke: rgb(0, 0, 0); stroke-width: 0px; fill: rgb(153, 153, 153);" cx="958.974" cy="900.107" rx="6.497" ry="2.778" transform="matrix(0.9999999999999999, 0, 0, 0.9999999999999999, 5.684341886080802e-14, 1.1368683772161603e-13)"/>
  <ellipse style="stroke: rgb(0, 0, 0); stroke-width: 0px; fill: rgb(153, 153, 153);" cx="958.974" cy="896.394" rx="4.641" ry="2.778" transform="matrix(0.9999999999999999, 0, 0, 0.9999999999999999, 5.684341886080802e-14, 1.1368683772161603e-13)"/>
  <ellipse style="stroke: rgb(0, 0, 0); stroke-width: 0px; fill: rgb(153, 153, 153);" cx="958.826" cy="892.688" rx="2.784" ry="2.778" transform="matrix(0.9999999999999999, 0, 0, 0.9999999999999999, 5.684341886080802e-14, 1.1368683772161603e-13)"/>
  <ellipse style="stroke: rgb(0, 0, 0); stroke-width: 0px; fill: rgb(153, 153, 153);" cx="958.974" cy="951.164" rx="3.713" ry="46.41" transform="matrix(0.9999999999999999, 0, 0, 0.9999999999999999, 5.684341886080802e-14, 1.1368683772161603e-13)"/>
</svg>