<?xml version="1.0" encoding="utf-8"?>
<svg viewBox="720.8185 893.7021 55.5134 56.2185" xmlns="http://www.w3.org/2000/svg">
  <ellipse style="stroke: rgb(0, 0, 0); stroke-width: 0px; fill: rgb(102, 102, 102); transform-origin: 748.634px -923.686px;" cx="748.634" cy="-923.686" rx="10.499" ry="18.481" transform="matrix(1, 0, 0, -1, -0.000023999928, 1847.371874999809)"/>
  <ellipse style="stroke: rgb(0, 0, 0); stroke-width: 0px; fill: rgb(102, 102, 102); transform-origin: 750.154px -899.559px;" cx="750.154" cy="-899.559" rx="5.085" ry="3.894" transform="matrix(0.999999999999, 3e-12, -1e-12, -0.999999999998, -0.000022000044, 1799.118066405866)"/>
  <ellipse style="stroke: rgb(0, 0, 0); stroke-width: 0px; fill: rgb(102, 102, 102); transform-origin: 974.277px -1140.14px;" cx="974.277" cy="-1140.141" rx="5.349" ry="7.651" transform="matrix(0.866025090218, 0.499999999998, 0.5, -0.866025090218, -225.924925670459, 2043.143534393591)"/>
  <ellipse style="stroke: rgb(0, 0, 0); stroke-width: 0px; fill: rgb(102, 102, 102); transform-origin: 974.276px -1140.14px;" cx="974.277" cy="-1140.141" rx="0.349" ry="2.803" transform="matrix(0.939693093293, 0.342020005086, 0.342020004986, -0.939693093296, -220.232522700138, 2042.3176395932)"/>
  <ellipse style="stroke: rgb(0, 0, 0); stroke-width: 0px; fill: rgb(102, 102, 102); transform-origin: 752.9px -906.327px;" cx="752.901" cy="-906.337" rx="0.429" ry="3.715" transform="matrix(1.000000000018, 2e-11, 0, -1.00000000001, -1.366e-8, 1812.655053686588)"/>
  <ellipse style="stroke: rgb(0, 0, 0); stroke-width: 0px; fill: rgb(102, 102, 102); transform-origin: 990.84px -1142.92px;" cx="990.844" cy="-1142.913" rx="0.847" ry="5.846" transform="matrix(0.984808027749, 0.173648029579, 0.173648029568, -0.984808027749, -248.295903385336, 2051.154591043555)"/>
  <ellipse style="stroke: rgb(0, 0, 0); stroke-width: 0px; fill: rgb(102, 102, 102); transform-origin: 1008.53px -1127.35px;" cx="1008.528" cy="-1127.362" rx="7.237" ry="1.823" transform="matrix(0.9396930933, -0.342020004983, -0.342020004986, -0.9396930933, -254.58359171596, 2025.696203275559)"/>
  <ellipse style="stroke: rgb(0, 0, 0); stroke-width: 0px; fill: rgb(102, 102, 102); transform-origin: 1019.87px -1169.06px;" cx="1019.86" cy="-1169.069" rx="16.634" ry="3.402" transform="matrix(0.965926110744, 0.258819013834, 0.258819013834, -0.965926110744, -260.473777369853, 2086.706528315305)"/>
  <ellipse style="stroke: rgb(0, 0, 0); stroke-width: 0px; fill: rgb(102, 102, 102); transform-origin: 1018.37px -1168.57px;" cx="1017.165" cy="-1168.197" rx="16.634" ry="3.402" transform="matrix(0.965926110744, -0.258819013833, -0.258819013834, -0.965926110743, -279.343388296252, 2086.26821052262)"/>
  <ellipse style="stroke: rgb(0, 0, 0); stroke-width: 0px; fill: rgb(102, 102, 102); transform-origin: 1019.86px -1169.03px;" cx="1019.86" cy="-1169.069" rx="2.294" ry="6.869" transform="matrix(0.984808027745, -0.173649027938, -0.173649027943, -0.984808027744, -266.578822714824, 2108.979308534341)"/>
  <ellipse style="stroke: rgb(0, 0, 0); stroke-width: 0px; fill: rgb(102, 102, 102); transform-origin: 1019.86px -1169.06px;" cx="1019.86" cy="-1169.069" rx="1.614" ry="3.05" transform="matrix(0.965926110746, 0.258818000558, 0.258818000555, -0.965926110764, -266.243125825815, 2115.607964413561)"/>
  <ellipse style="stroke: rgb(0, 0, 0); stroke-width: 0px; fill: rgb(102, 102, 102); transform-origin: 1019.86px -1169.06px;" cx="1019.86" cy="-1169.069" rx="1.614" ry="3.05" transform="matrix(0.642787992961, 0.766043901405, 0.766043901446, -0.642787992968, -268.09885025404, 2114.148893257397)"/>
  <ellipse style="stroke: rgb(0, 0, 0); stroke-width: 0px; fill: rgb(102, 102, 102); transform-origin: 1019.86px -1169.05px;" cx="1019.86" cy="-1169.069" rx="1.614" ry="3.05" transform="matrix(0.866025090221, -0.500001013295, -0.500001013285, -0.866025090221, -263.703689435343, 2113.586124981792)"/>
  <ellipse style="stroke: rgb(0, 0, 0); stroke-width: 0px; fill: rgb(102, 102, 102); transform-origin: 1019.86px -1169.05px;" cx="1019.86" cy="-1169.069" rx="0.805" ry="3.05" transform="matrix(0.500001013283, 0.866025090283, 0.866025090225, -0.500001013288, -264.532053004628, 2115.946512682177)"/>
  <ellipse style="stroke: rgb(0, 0, 0); stroke-width: 0px; fill: rgb(102, 102, 102); transform-origin: 1019.86px -1169.05px;" cx="1019.86" cy="-1169.069" rx="0.484" ry="2.583" transform="matrix(-0.49999901654, 0.866026103561, 0.866026103486, 0.499999016524, -268.044497459154, 2116.211225087197)"/>
  <ellipse style="stroke: rgb(0, 0, 0); stroke-width: 0px; fill: rgb(102, 102, 102); transform-origin: 967.029px -1219.48px;" cx="967.029" cy="-1219.506" rx="2.294" ry="6.869" transform="matrix(0.996195018291, 0.087156012658, 0.087156012653, -0.996195018295, -222.164454932561, 2159.317549107596)"/>
  <ellipse style="stroke: rgb(0, 0, 0); stroke-width: 0px; fill: rgb(102, 102, 102); transform-origin: 1019.86px -1169.06px;" cx="1019.86" cy="-1169.069" rx="1.614" ry="3.05" transform="matrix(0.866026103499, 0.499999016553, 0.499999016525, -0.86602610348, -276.378660318624, 2115.355118230051)"/>
  <ellipse style="stroke: rgb(0, 0, 0); stroke-width: 0px; fill: rgb(102, 102, 102); transform-origin: 1019.86px -1169.06px;" cx="1019.86" cy="-1169.069" rx="1.614" ry="3.05" transform="matrix(0.422618061311, 0.906307995313, 0.906307995323, -0.422618061308, -277.796103304131, 2113.466994551322)"/>
  <ellipse style="stroke: rgb(0, 0, 0); stroke-width: 0px; fill: rgb(102, 102, 102); transform-origin: 1019.86px -1169.05px;" cx="1019.86" cy="-1169.069" rx="1.614" ry="3.05" transform="matrix(0.965925097466, -0.258821010588, -0.258821010592, -0.965925097479, -273.405530854091, 2114.057115821191)"/>
  <ellipse style="stroke: rgb(0, 0, 0); stroke-width: 0px; fill: rgb(102, 102, 102); transform-origin: 1019.87px -1169.06px;" cx="1019.86" cy="-1169.069" rx="0.805" ry="3.05" transform="matrix(0.258821010596, 0.965925097478, 0.965925097479, -0.258821010617, -274.828596314953, 2116.142591748257)"/>
  <ellipse style="stroke: rgb(0, 0, 0); stroke-width: 0px; fill: rgb(102, 102, 102); transform-origin: 1019.87px -1169.05px;" cx="1019.86" cy="-1169.069" rx="0.484" ry="2.583" transform="matrix(-0.707105100081, 0.707108020817, 0.70710802079, 0.707105100157, -278.294083595637, 2115.479262001773)"/>
</svg>